<svg width="20" height="20" viewBox="0 0 20 20" fill="none" xmlns="http://www.w3.org/2000/svg">
<path d="M11.6458 8.52098C12.7139 9.50519 14.3821 9.50302 15.4481 8.51718C15.9215 8.07898 16.2091 7.51997 16.3098 6.93497C16.3856 6.49676 16.9289 6.33101 17.2431 6.64518L19.5775 8.97977C20.1408 9.5431 20.1408 10.4564 19.5775 11.0197L11.0202 19.5775C10.4569 20.1408 9.54367 20.1408 8.98037 19.5775L0.422478 11.0202C-0.140826 10.4569 -0.140826 9.54364 0.422478 8.98031L3.12309 6.27956C3.28883 6.1138 3.17617 5.83051 2.94218 5.82401C2.21747 5.80451 1.49871 5.50551 0.961408 4.92701C-0.0303317 3.85938 -0.0308734 2.18075 0.960325 1.11259C2.04848 -0.0601251 3.88192 -0.0855835 5.00257 1.03513C5.53121 1.56379 5.80474 2.25171 5.82316 2.94505C5.82911 3.17796 6.11402 3.28792 6.27867 3.12326L8.97928 0.422501C9.54259 -0.140834 10.4558 -0.140834 11.0191 0.422501L13.3519 2.75546C13.6682 3.0718 13.4987 3.61455 13.0578 3.69201C12.5091 3.78788 11.9838 4.04788 11.5596 4.47201C10.4363 5.59543 10.4645 7.43439 11.6447 8.52152L11.6458 8.52098Z" fill="white"/>
</svg>
