<svg width="19" height="20" viewBox="0 0 19 20" fill="none" xmlns="http://www.w3.org/2000/svg">
<path d="M10.9996 15.5703L10.6366 10.949L15.377 9.65627V11.1388C15.377 11.7919 15.1465 12.4232 14.7256 12.9257L12.8172 15.2032L13.8132 19.9994C17.1247 19.9994 19.5878 16.9676 18.8772 13.7656L17.7923 8.87719C17.4245 7.22033 16.745 5.7473 15.8409 4.57278C14.9369 3.39766 13.8084 2.52047 12.5443 2.05527C12.5013 2.0399 12.459 2.02394 12.416 2.00916L11.0337 3.98049C10.8802 4.1992 10.5339 4.06916 10.5655 3.80494L10.8271 1.61372L11.0199 0H7.98009L8.17295 1.61372L8.43448 3.80494C8.46613 4.06916 8.11921 4.1992 7.96635 3.98049L6.58406 2.00916C6.54107 2.02394 6.49868 2.0399 6.45569 2.05527C3.92696 2.98567 1.94279 5.56465 1.20775 8.87779L0.122819 13.7662C-0.587733 16.9682 1.87472 20 5.18684 20L6.18281 15.2038L4.27447 12.9263C3.85351 12.4238 3.62303 11.7925 3.62303 11.1394V9.65686L8.36342 10.9496L8.00039 15.5709H11.0014L10.9996 15.5703Z" fill="white"/>
</svg>
