<svg width="16" height="16" viewBox="0 0 16 16" fill="none" xmlns="http://www.w3.org/2000/svg">
<path d="M14.3708 0.000429858C14.4304 0.00961787 14.4581 0.0459519 14.4988 0.0560939C14.6706 0.0994977 14.8349 0.128279 14.989 0.209414C15.0219 0.227287 15.0261 0.24004 15.0349 0.255313C15.077 0.278147 15.1174 0.304219 15.158 0.330508C15.1981 0.345111 15.2394 0.362767 15.283 0.410586C15.2875 0.415662 15.2907 0.422354 15.2947 0.428164C15.3153 0.444347 15.3371 0.459816 15.3572 0.476992C15.4533 0.559127 15.5379 0.649191 15.6121 0.74457C15.6303 0.761073 15.6374 0.723901 15.6472 0.729922C15.6888 0.759732 15.6953 0.810768 15.7341 0.840274C15.7436 0.847309 15.7679 0.83223 15.7771 0.837344C15.8577 0.883061 15.8623 1.03319 15.8601 1.05707C15.857 1.15071 15.9048 1.17288 15.9109 1.23969C15.9132 1.27311 15.9007 1.26849 15.8904 1.26508C15.9737 1.51256 16.0016 1.77402 15.9705 2.03168C15.9688 2.07578 15.9723 2.1157 15.9968 2.14984C15.9764 2.15438 15.9601 2.15907 15.947 2.16352C15.94 2.19881 15.9329 2.23404 15.9236 2.26898C15.935 2.30154 15.9421 2.34313 15.9089 2.4018C15.9058 2.4055 15.8956 2.40556 15.8826 2.40375C15.8477 2.50226 15.8031 2.59799 15.7498 2.69086C15.8504 2.61756 15.9068 2.634 15.7878 2.82074C15.7546 2.86765 15.8115 2.68642 15.7605 2.74262C15.6703 2.84079 15.6935 2.97444 15.5603 3.04438C15.5497 3.04904 15.552 3.00566 15.5593 2.95941C15.5454 2.97582 15.533 2.99414 15.5183 3.0102L15.4734 3.05805C15.5211 3.11205 15.5624 3.17795 15.6257 3.21723C15.6447 3.22838 15.7139 3.1186 15.7019 3.20941C15.7009 3.2157 15.6505 3.29658 15.6482 3.32563C15.6474 3.34524 15.6939 3.35028 15.6843 3.38422C15.6741 3.41876 15.627 3.42418 15.6042 3.47602C15.5818 3.52847 15.629 3.54062 15.5603 3.62348C15.4004 3.81571 15.1705 4.0491 14.99 4.22113C14.9335 4.27498 14.9427 4.23074 14.9031 4.26703C14.8253 4.33841 14.7674 4.41847 14.6892 4.48773C14.6632 4.51056 14.664 4.45376 14.6375 4.47797C14.4915 4.61292 14.3715 4.75813 14.2302 4.90082C13.534 5.60368 12.8682 6.31162 12.1804 7.03852C11.9536 7.27824 11.6571 7.55129 11.4382 7.81293C11.4133 7.84319 11.453 7.8485 11.45 7.8559C11.438 7.88391 11.4275 7.90045 11.4177 7.91059C11.6107 8.08254 11.7768 8.24389 11.9763 8.41059C12.0005 8.43081 12.0005 8.37521 12.03 8.39984C12.3437 8.66148 12.6495 8.92841 12.9402 9.2143C12.9688 9.24268 12.9058 9.23721 12.9324 9.26703C13.1023 9.4523 13.3555 9.76392 13.573 9.73773C13.6974 9.85235 13.8502 9.99071 13.9441 10.1137C14.0046 10.193 13.9055 10.1633 14.0076 10.228C14.0306 10.2426 14.0275 10.1933 14.0603 10.2172C14.1982 10.3182 14.3334 10.4478 14.4734 10.5434C14.501 10.5615 14.5142 10.5337 14.5251 10.5346C14.6173 10.5526 14.6722 10.6986 14.6912 10.7221C14.8085 10.8665 14.9199 10.9561 15.0427 11.058C15.0739 11.084 15.1046 11.1119 15.1355 11.142C15.1732 11.1793 15.1588 11.1053 15.196 11.1401C15.3917 11.3272 15.5473 11.5743 15.6238 11.8276C15.6403 11.8835 15.5884 11.8474 15.5935 11.8735C15.6173 11.9918 15.6906 12.0003 15.7029 12.1196C15.7047 12.1436 15.6733 12.1376 15.6697 12.142C15.6317 12.2188 15.7125 12.2656 15.7175 12.2846C15.7662 12.5131 15.681 12.6595 15.655 12.8705C15.6514 12.8964 15.7012 12.8467 15.6882 12.9194C15.6271 13.251 15.4565 13.5749 15.2166 13.8168C15.1041 13.9313 14.9776 14.0295 14.8445 14.1069C14.7803 14.1435 14.8069 14.0896 14.8015 14.0883C14.7088 14.0812 14.7068 14.1703 14.6863 14.185C14.5264 14.2967 14.339 14.2937 14.2371 14.4135C13.5972 14.5589 12.8753 14.4255 12.3943 13.9711C12.2854 13.8683 12.179 13.762 12.0759 13.6528C12.0695 13.6458 12.106 13.6284 12.0925 13.6147C11.9312 13.4493 11.9264 13.5218 11.7644 13.477C11.7237 13.4649 11.691 13.3234 11.6873 13.312C11.6746 13.2708 11.7366 13.2542 11.7322 13.2426C11.6756 13.1478 11.569 13.2981 11.4617 13.2065C11.4622 13.2026 11.4945 13.1889 11.488 13.1791C11.4669 13.1474 11.4296 13.1342 11.4099 13.102C11.3652 13.028 11.401 12.9409 11.2722 12.8989C11.2557 12.8937 11.2054 12.9888 11.113 12.9038C11.076 12.8694 10.9059 12.7257 10.863 12.6801C10.8217 12.636 10.8723 12.6369 10.8728 12.6332C10.7851 12.5061 10.8205 12.5136 10.8152 12.4428L10.7488 12.3862C10.7203 12.4054 10.6896 12.438 10.6707 12.434C10.6333 12.4249 10.5633 12.317 10.5486 12.2875C10.534 12.2584 10.5762 12.266 10.5613 12.2436C10.4567 12.092 10.4502 12.251 10.3894 12.2319C10.247 12.1865 10.2406 12.0287 10.1521 11.9379C10.1281 11.9135 10.131 11.9519 10.1062 11.934C10.0087 11.8629 9.9769 11.7879 9.85132 11.7241C9.82995 11.7136 9.70067 11.6933 9.67944 11.6079C9.67818 11.5962 9.71661 11.5918 9.68237 11.5541C9.63021 11.4968 9.52873 11.4022 9.45972 11.3559C9.40919 11.3224 9.43022 11.4033 9.38159 11.3422C9.36117 11.3158 9.42598 11.3343 9.38452 11.2856C9.34236 11.2364 9.2187 11.132 9.17065 11.0922C9.12315 11.053 9.1242 11.102 9.1189 11.101C9.08698 11.0919 8.98774 11.0293 8.97729 11.0209C8.87589 10.9357 8.7788 10.8482 8.68433 10.7612C8.50162 10.963 8.31749 11.1856 8.14233 11.3745C7.92425 11.6093 7.72592 11.7967 7.51831 12.0288C7.49709 12.0529 7.55327 12.0538 7.5271 12.0834C7.24282 12.4017 6.95308 12.712 6.64526 13.0063C6.6148 13.035 6.62373 12.9701 6.59155 12.9975C6.39331 13.169 6.06153 13.4235 6.07593 13.6469C5.9522 13.7729 5.80325 13.9283 5.67261 14.0229C5.58848 14.0838 5.6237 13.9831 5.55249 14.0864C5.5368 14.1095 5.58746 14.1078 5.56128 14.1411C5.45078 14.2811 5.31107 14.4168 5.20581 14.559C5.18466 14.5878 5.21359 14.6024 5.21167 14.6137C5.18816 14.7074 5.03657 14.7604 5.0105 14.7797C4.82082 14.9257 4.71695 15.0647 4.56811 15.226C4.53352 15.2635 4.60512 15.2485 4.573 15.2856C4.54717 15.3152 4.52032 15.3449 4.4939 15.3745C4.33364 15.5542 4.12978 15.7024 3.91675 15.7944C3.86132 15.8176 3.8942 15.7606 3.86694 15.77C3.74747 15.8089 3.74714 15.8823 3.62573 15.9096C3.6007 15.9146 3.60381 15.8813 3.59839 15.8793C3.51411 15.8512 3.47457 15.9393 3.45581 15.9457C3.22646 16.0227 3.06456 15.9565 2.84253 15.9584C2.81531 15.9582 2.87426 16.0017 2.79761 15.9985C2.37482 15.979 1.93724 15.7968 1.62768 15.5024C1.55889 15.4379 1.49659 15.3688 1.44018 15.2963C1.39368 15.2354 1.44884 15.2562 1.45093 15.2514C1.44336 15.1561 1.35501 15.1615 1.33667 15.142C1.1994 14.9877 1.17804 14.7929 1.04663 14.6948C0.825065 14.0333 0.967456 13.2499 1.46069 12.7661C1.57138 12.656 1.68556 12.5488 1.80249 12.4448C1.81003 12.4395 1.82513 12.4759 1.8396 12.4633C2.0176 12.2999 1.94347 12.2937 1.9978 12.1284C2.01159 12.0867 2.15761 12.0542 2.17065 12.0502C2.21384 12.0375 2.22785 12.1036 2.23999 12.0981C2.33969 12.0414 2.1916 11.9295 2.29077 11.8207C2.29438 11.8192 2.30651 11.8548 2.31714 11.8481C2.35082 11.8269 2.36714 11.7898 2.40112 11.77C2.47912 11.7252 2.5661 11.7624 2.61597 11.6303C2.62087 11.6131 2.52799 11.561 2.6189 11.4682C2.65563 11.4311 2.81041 11.2597 2.86011 11.2153C2.90805 11.1727 2.90511 11.2253 2.90893 11.225C3.04205 11.1379 3.03387 11.1721 3.10425 11.1684L3.16675 11.1C3.14838 11.0706 3.11724 11.0391 3.1228 11.02C3.13432 10.9817 3.24931 10.9115 3.28003 10.8969C3.30962 10.8837 3.29994 10.9262 3.32397 10.9106C3.48362 10.8059 3.32132 10.7975 3.34351 10.7358C3.39721 10.5896 3.55934 10.5851 3.65698 10.4955C3.6834 10.4712 3.64417 10.4739 3.66382 10.4487C3.74182 10.3494 3.82027 10.3182 3.89233 10.1899C3.90416 10.1686 3.93096 10.036 4.01929 10.0151C4.03154 10.0132 4.03386 10.054 4.07397 10.02C4.13539 9.9673 4.23873 9.86369 4.28979 9.7934C4.32652 9.74219 4.24272 9.76314 4.30737 9.7143C4.33597 9.69301 4.31256 9.75953 4.36499 9.71723C4.41755 9.67472 4.53101 9.54788 4.57397 9.49945C4.61677 9.45111 4.56738 9.45223 4.56909 9.44672C4.58106 9.41315 4.64832 9.31317 4.65698 9.30316C5.01388 8.90642 5.38842 8.57953 5.72729 8.18793C5.70012 8.21473 5.68398 8.23515 5.61499 8.1557C5.60919 8.14894 5.65251 8.14013 5.62964 8.11566C5.44274 7.92071 5.2314 7.73774 5.04272 7.54535C5.02831 7.5306 5.0363 7.52101 5.04468 7.51313L4.91186 7.39887C4.8785 7.39943 4.84842 7.4202 4.77612 7.40766C4.80913 7.38567 4.82533 7.35842 4.8269 7.3266L4.573 7.10883C4.56802 7.10793 4.56203 7.11047 4.5564 7.10883C4.53552 7.10259 4.49913 7.03414 4.47632 7.04047C4.4018 7.06198 4.40591 7.16034 4.29175 7.02484C4.28888 7.01878 4.32753 7.00787 4.3103 6.98969C4.18894 6.86746 4.12858 6.90478 3.98218 6.79047C3.86742 6.70075 3.69735 6.50171 3.57593 6.3891C3.64871 6.30894 3.51452 6.22621 3.41772 6.24164C3.33805 6.16953 3.24678 6.09722 3.17456 6.02191C3.15022 5.99637 3.18775 5.98738 3.18726 5.98188C3.16938 5.89737 3.08749 5.9208 3.06714 5.90863C2.85795 5.76639 2.73677 5.59186 2.51929 5.47699C2.51043 5.47423 2.45323 5.5195 2.44018 5.43793C2.4395 5.43235 2.52107 5.45744 2.43726 5.38227C2.3532 5.30694 2.21769 5.13727 2.07593 5.06195C2.04128 5.0438 1.92867 5.02769 1.90112 4.94184C1.89803 4.93051 1.92045 4.92093 1.91772 4.90277C1.90625 4.8425 1.83638 4.88214 1.83569 4.79633C1.83557 4.78612 1.83161 4.77594 1.82983 4.76508L1.5564 4.53168C1.54299 4.52945 1.52994 4.52534 1.51929 4.51605C1.46868 4.47103 1.40337 4.405 1.34643 4.35297L1.31226 4.32367C1.28784 4.30871 1.2832 4.34317 1.27808 4.34223C1.06187 4.18509 0.938627 4.03667 0.7312 3.84027C0.710777 3.82089 0.657868 3.79405 0.6062 3.75922C0.560858 3.72854 0.516809 3.68894 0.496825 3.64203C0.492352 3.63034 0.49179 3.61914 0.491943 3.60883C0.0715274 3.16962 -0.0825187 2.56988 0.0417473 2.01215C0.0278373 1.98655 0.0119163 1.95398 0.0183098 1.93109C0.0348994 1.87537 0.0735926 1.85432 0.0886223 1.81684C0.15274 1.66121 0.201947 1.50973 0.29956 1.37641C0.321076 1.34795 0.334129 1.34612 0.350341 1.34027C0.377699 1.30376 0.407643 1.26879 0.438232 1.23383C0.444263 1.22232 0.452151 1.21149 0.459716 1.19965C0.475256 1.17551 0.495654 1.15028 0.529052 1.12836C0.53455 1.12479 0.541517 1.12337 0.547607 1.12055C0.652221 1.01977 0.76507 0.931616 0.886474 0.859805C0.901051 0.845103 0.869223 0.8341 0.874755 0.825625C0.90707 0.78937 0.956243 0.789716 0.988036 0.756289C0.995844 0.748039 0.98409 0.720579 0.98999 0.712344C1.04068 0.640605 1.18252 0.654697 1.20581 0.65961C1.29542 0.673855 1.3204 0.628414 1.38452 0.629336C1.41433 0.630381 1.4108 0.640456 1.40698 0.649844C1.64463 0.592921 1.89215 0.583113 2.13452 0.618594C2.18013 0.622442 2.22117 0.621084 2.25659 0.595156C2.26024 0.614052 2.26463 0.629495 2.26831 0.642031C2.30183 0.6494 2.33476 0.659199 2.36792 0.668399C2.39923 0.656758 2.43908 0.649588 2.49487 0.68207C2.49879 0.684532 2.49871 0.694904 2.49683 0.708438C2.59101 0.741974 2.68327 0.782508 2.77222 0.831485C2.70279 0.736213 2.71975 0.680416 2.89819 0.790469C2.94459 0.821872 2.76877 0.772611 2.823 0.820742C2.91836 0.906526 3.04808 0.877908 3.11792 1.00531C3.12188 1.01531 3.07904 1.013 3.03393 1.00824C3.05055 1.02149 3.06846 1.03341 3.08472 1.0473L3.13159 1.08734C3.18338 1.03803 3.24677 0.994758 3.28393 0.931094C3.29379 0.91172 3.18825 0.851598 3.2771 0.858828C3.28753 0.86209 3.36308 0.903082 3.39038 0.90375C3.40935 0.90326 3.41383 0.85794 3.44702 0.865664C3.48061 0.874005 3.48626 0.920351 3.53686 0.939883C3.58819 0.959109 3.60001 0.911399 3.6814 0.974063C3.87082 1.12059 4.10218 1.33358 4.27222 1.50141C4.32517 1.55368 4.28041 1.54854 4.31616 1.58539C4.38675 1.65781 4.46539 1.71064 4.53393 1.78363C4.55635 1.8078 4.50244 1.80886 4.52612 1.83344C4.65957 1.96934 4.80218 2.07944 4.94311 2.21039C5.6372 2.8554 6.33512 3.47129 7.05249 4.10688C7.28904 4.31643 7.56033 4.59077 7.81811 4.79145C7.84784 4.81427 7.85194 4.77553 7.85913 4.77777C7.97226 4.81992 7.90034 4.8469 7.95093 4.9018C8.0877 5.04989 8.24668 5.19591 8.40405 5.32953C8.4091 5.32483 8.41461 5.32053 8.41968 5.31586C8.4346 5.30212 8.4435 5.30953 8.45093 5.31781L8.5769 5.18109C8.57685 5.14782 8.5587 5.1163 8.57495 5.04438C8.59504 5.07753 8.6209 5.09529 8.6521 5.09809L8.89038 4.83832C8.89152 4.83364 8.89053 4.82793 8.89233 4.8227C8.90086 4.80142 8.97085 4.76591 8.96655 4.74262C8.94886 4.66554 8.84677 4.66821 8.99097 4.55316C8.99734 4.54836 9.00717 4.59051 9.0271 4.5727C9.15835 4.45005 9.12265 4.38695 9.24683 4.23871C9.34458 4.12225 9.55879 3.95061 9.68042 3.82758C9.75843 3.9033 9.84942 3.76598 9.83862 3.66645C9.91654 3.58576 9.99612 3.49432 10.0769 3.42133C10.1046 3.39643 10.1113 3.43519 10.1169 3.43402C10.2043 3.41681 10.1842 3.33234 10.198 3.31195C10.3546 3.09938 10.5396 2.97775 10.6687 2.75629C10.6716 2.74684 10.6289 2.68736 10.7126 2.67523C10.7184 2.67461 10.6881 2.75811 10.7693 2.67328C10.8508 2.58807 11.0314 2.45156 11.116 2.30707C11.1364 2.27198 11.1592 2.15722 11.2488 2.13031C11.2607 2.12711 11.2688 2.1499 11.2878 2.14691C11.35 2.13602 11.3125 2.06437 11.4001 2.06488C11.4103 2.06492 11.4205 2.0606 11.4314 2.05902L11.6853 1.78168C11.6883 1.7678 11.6937 1.75444 11.7039 1.74359C11.7561 1.68863 11.8338 1.6168 11.8914 1.55609L11.9089 1.53656C11.9307 1.50906 11.8922 1.50395 11.8943 1.49848C12.0665 1.27888 12.2254 1.15494 12.4373 0.944766C12.4762 0.906107 12.5449 0.755243 12.6462 0.704531C12.6574 0.698963 12.6682 0.696605 12.6785 0.695742L12.7371 0.632266C13.1417 0.189927 13.7216 -0.012126 14.2869 0.0346095C14.3118 0.0174378 14.3455 -0.00325109 14.3708 0.000429858Z" fill="white"/>
</svg>
