<svg width="17" height="17" viewBox="0 0 17 17" fill="none" xmlns="http://www.w3.org/2000/svg">
<path fill-rule="evenodd" clip-rule="evenodd" d="M8.33313 5C11.3366 5.00006 14.0108 6.95525 15.7306 8.60156C16.978 9.79582 16.9781 11.8722 15.7306 13.0664C14.0108 14.7127 11.3365 16.6669 8.33313 16.667C5.32983 16.667 2.65552 14.7127 0.935672 13.0664C-0.311891 11.8722 -0.311891 9.7958 0.935672 8.60156C2.65551 6.95523 5.32965 5 8.33313 5ZM8.33313 8.33398C6.95242 8.33398 5.83313 9.45327 5.83313 10.834C5.8333 12.2146 6.95252 13.334 8.33313 13.334C9.71367 13.3339 10.833 12.2145 10.8331 10.834C10.8331 9.45333 9.71377 8.33407 8.33313 8.33398ZM0.39075 2.68359C0.63481 2.43953 1.03046 2.43957 1.27454 2.68359L2.52454 3.93359C2.76862 4.17767 2.76862 4.57331 2.52454 4.81738C2.28044 5.06116 1.88473 5.06136 1.64075 4.81738L0.39075 3.56738C0.146823 3.3234 0.146986 2.92768 0.39075 2.68359ZM15.3907 2.68359C15.6348 2.43953 16.0305 2.43957 16.2745 2.68359C16.5186 2.92767 16.5186 3.32331 16.2745 3.56738L15.0245 4.81738C14.7804 5.06116 14.3847 5.06136 14.1407 4.81738C13.8968 4.5734 13.897 4.17768 14.1407 3.93359L15.3907 2.68359ZM8.33313 0C8.67816 7.53755e-05 8.958 0.279981 8.95813 0.625V2.29199C8.95809 2.63709 8.67822 2.91692 8.33313 2.91699C7.98798 2.91699 7.70818 2.63713 7.70813 2.29199V0.625C7.70826 0.279934 7.98804 0 8.33313 0Z" fill="#2A63C6"/>
</svg>
