<svg width="11" height="14" viewBox="0 0 11 14" fill="none" xmlns="http://www.w3.org/2000/svg">
<path d="M5.33301 2.66699C8.27842 2.66699 10.6668 5.05463 10.667 8C10.6668 10.9454 8.27842 13.334 5.33301 13.334C2.38775 13.3338 0.00017587 10.9453 0 8C0.000175996 5.05474 2.38775 2.66717 5.33301 2.66699ZM5.8584 5.67285C5.64382 5.22079 5.02318 5.22079 4.80859 5.67285L4.4375 6.4541C4.35222 6.63333 4.18742 6.75835 3.99707 6.78711L3.16797 6.91211C2.68844 6.98478 2.49689 7.59737 2.84375 7.94922L3.44434 8.55762C3.58192 8.69729 3.64475 8.89863 3.6123 9.0957L3.4707 9.95508C3.38939 10.4515 3.89042 10.83 4.31934 10.5957L5.06152 10.1904C5.23188 10.0974 5.43515 10.0973 5.60547 10.1904L6.34766 10.5957C6.7765 10.8297 7.27754 10.4514 7.19629 9.95508L7.05469 9.0957C7.02221 8.89854 7.08495 8.6973 7.22266 8.55762L7.82227 7.94922C8.16946 7.59735 7.97783 6.98463 7.49805 6.91211L6.66895 6.78711C6.4786 6.75828 6.31373 6.6334 6.22852 6.4541L5.8584 5.67285ZM7.33301 0C8.06928 0 8.66682 0.596778 8.66699 1.33301V2.61523C7.69861 2.01444 6.55643 1.66699 5.33301 1.66699C4.10999 1.66705 2.96816 2.01378 2 2.61426V1.33301C2.00018 0.596886 2.59689 0.000175438 3.33301 0H7.33301Z" fill="#28303F"/>
</svg>
