<svg width="112" height="22" viewBox="0 0 112 22" fill="none" xmlns="http://www.w3.org/2000/svg">
<path d="M58.7258 14.7981C58.6144 14.7792 58.4015 14.729 58.2939 14.7585C58.1864 14.788 58.0585 14.8216 57.9555 14.8644C57.8469 14.9086 57.8088 15.0615 57.7093 15.0804C57.5217 15.0579 57.4887 15.2427 57.304 15.2056C57.1192 15.1685 57.1441 15.0481 56.9593 15.011C56.7746 14.9739 56.8137 14.7803 56.6289 14.7433C56.4442 14.7062 56.3768 15.0441 56.1921 15.007C56.0073 14.97 56.0582 14.7124 55.8734 14.6753C55.6887 14.6383 55.7256 14.4501 55.541 14.4112C55.3564 14.3723 55.3287 14.5074 55.1439 14.4703C54.9592 14.4333 54.9257 14.5994 54.7411 14.5605C54.5565 14.5216 54.5381 14.55 54.3696 14.464C54.2169 14.3848 54.183 14.4009 54.0587 14.281C53.9343 14.1612 54.042 14.0521 53.8711 14.0252C53.7002 13.9984 53.6601 13.8974 53.5039 13.9716C53.3477 14.0458 53.4476 14.3066 53.2805 14.3541C53.151 14.3339 52.9584 14.4092 52.831 14.3836C52.7037 14.358 52.6009 14.1896 52.4739 14.1603C52.3468 14.131 52.2944 13.7903 52.1694 13.7574C52.0443 13.7245 51.8028 14.1335 51.6778 14.1006C51.5528 14.0677 51.4977 13.7379 51.3708 13.7068C51.2439 13.6756 51.1293 13.5713 51.0021 13.5438C50.8749 13.5163 50.6706 13.8872 50.5413 13.8633C50.412 13.8394 50.3416 13.4177 50.2117 13.403C50.0818 13.3883 49.9314 13.5611 49.799 13.5555C49.6667 13.5499 49.4961 13.8287 49.3629 13.8341C49.1902 13.8072 49.2042 13.66 49.0342 13.6202C48.8642 13.5805 48.8436 13.6661 48.6736 13.6264C48.5037 13.5866 48.5942 13.2041 48.4243 13.1625C48.2545 13.1209 48.1965 13.428 48.0237 13.4029C47.8737 13.4145 47.7601 13.0639 47.6274 13.0639C47.4801 13.0628 47.3414 13.2252 47.2059 13.212C47.0704 13.1988 46.888 13.3878 46.7498 13.3614C46.6116 13.335 46.4713 13.2863 46.3301 13.2504C46.1997 13.2172 46.1086 13.0126 45.9643 12.9691C45.8201 12.9256 45.6619 13.0793 45.5249 13.0623C45.3878 13.0452 45.2006 13.095 45.0546 13.0514C44.9316 13.015 45.0181 12.484 44.8789 12.3946C44.7727 12.326 44.4764 12.7386 44.3413 12.7198C44.2188 12.7019 44.1108 12.2461 43.9757 12.2533C43.848 12.2591 43.7153 12.3869 43.585 12.4036C43.4547 12.4204 43.3678 12.8291 43.2431 12.8426C43.1056 12.8588 42.9415 12.7862 42.8235 12.7834C42.7055 12.7807 42.5548 12.6478 42.4345 12.5987C42.3232 12.5519 42.1598 12.5738 42.0511 12.5161C41.9424 12.4585 41.9508 12.1313 41.8465 12.0887C41.7175 12.0352 41.6104 12.3166 41.5049 12.3425C41.3718 12.3739 41.1956 12.1633 41.0783 12.1755C40.9445 12.1901 40.8224 12.1427 40.7008 12.1378C40.5719 12.1343 40.4758 11.9238 40.3514 11.9077C40.2271 11.8915 40.0596 12.2298 39.9298 12.2132C39.8091 12.1973 39.684 12.2682 39.5501 12.2588C39.3402 12.244 39.3513 12.1114 39.1413 12.0967C38.9314 12.0819 38.9561 11.7558 38.7462 11.7411C38.5363 11.7263 38.5055 12.1631 38.2957 12.1465C38.0859 12.1298 38.1022 11.9495 37.8934 11.9182C37.6847 11.8868 37.6719 11.9137 37.4569 11.8671C37.2419 11.8205 37.2661 11.7092 37.0512 11.6608C36.8364 11.6123 36.7934 11.8093 36.5784 11.7627C36.3635 11.7161 36.4068 11.5136 36.1919 11.4651C36.1149 11.4486 36.0293 11.6833 35.9279 11.754C35.8265 11.8247 35.7668 12.0019 35.71 12.0331C35.6136 12.0856 35.362 11.9124 35.2519 11.8231C35.1418 11.7339 35.0927 11.5786 35.0141 11.5582C34.8928 11.5238 34.8033 11.736 34.6804 11.7514C34.5574 11.7669 34.4077 11.5415 34.287 11.5775C34.1662 11.6134 34.0004 11.4629 33.8814 11.499C33.7625 11.535 33.5881 11.7394 33.4671 11.7532C33.5234 11.909 33.5932 12.2102 33.69 12.3078C33.7868 12.4053 33.9178 12.5849 34.0507 12.6609C34.1713 12.7305 34.3525 12.7155 34.4892 12.7881C34.6609 12.8817 34.7656 12.6853 34.9373 12.7788C35.109 12.8724 35.0605 12.9672 35.2321 13.0607C35.4038 13.1543 35.4731 13.0221 35.6466 13.1158C35.8201 13.2095 35.7089 13.4202 35.8805 13.5138C36.0522 13.6073 36.159 13.4074 36.3307 13.501C36.5024 13.5945 36.4477 13.7 36.6211 13.7936C36.7385 13.8575 36.5877 14.1913 36.6054 14.3018C36.6182 14.3787 36.8974 14.2872 37.042 14.301C37.172 14.3139 37.3337 14.3679 37.3888 14.4125C37.4886 14.4936 37.6519 14.4476 37.7421 14.5095C37.8445 14.5797 37.8574 14.7584 37.9573 14.8118C38.0572 14.8651 38.2037 14.7994 38.317 14.8444C38.4177 14.8867 38.5515 14.8202 38.6722 14.862C38.793 14.9039 38.7497 15.3379 38.8575 15.4084C38.9653 15.479 39.2397 15.3279 39.3371 15.4162C39.4346 15.5046 39.2856 15.8386 39.3716 15.9354C39.4575 16.0322 39.5653 16.1027 39.6474 16.2029C39.7295 16.3031 40.1236 16.1309 40.206 16.2256C40.2952 16.3281 40.25 16.5305 40.3387 16.6145C40.4394 16.7087 40.4028 16.9191 40.4741 17.0167C40.5554 17.128 40.513 17.2657 40.5613 17.3802C40.6144 17.5044 40.8127 17.5554 40.8312 17.6807C40.8497 17.8061 41.0211 17.9552 41.0102 18.0841C40.9993 18.213 41.0039 18.38 40.9695 18.5072C40.9351 18.6344 40.4486 18.5946 40.3983 18.7152C40.348 18.8357 40.3802 18.9732 40.3229 19.0895C40.2535 19.2235 40.2662 19.3782 40.2004 19.4865C40.1222 19.6162 40.3277 19.9529 40.248 20.051C40.1546 20.163 39.8549 20.0808 39.7439 20.1581C39.633 20.2355 39.5555 20.406 39.4174 20.4556C39.2999 20.4973 39.1648 20.6082 39.0173 20.6367C38.8956 20.6596 38.7382 20.5967 38.5896 20.614C38.4632 20.6274 38.3042 20.431 38.1751 20.4571C38.0459 20.4832 37.9563 20.6714 37.8287 20.7013C37.7011 20.7312 37.6 20.85 37.4722 20.8818C37.3445 20.9135 37.1555 20.6262 37.0282 20.6524C36.9008 20.6786 36.8348 21.074 36.7063 21.0909C36.5778 21.1078 36.4173 20.7002 36.2878 20.7059C36.1583 20.7116 36.0512 20.7856 35.921 20.7745C35.7186 20.7566 35.7042 20.9352 35.5017 20.9173C35.2993 20.8994 35.3023 20.857 35.1016 20.8392C34.901 20.8213 34.9182 20.6022 34.7156 20.5861C34.5131 20.57 34.5137 20.5607 34.3131 20.5429C34.1124 20.5251 34.0902 20.7643 33.8877 20.7464C33.6853 20.7284 33.6652 20.9622 33.4627 20.9443C33.2603 20.9263 33.2937 20.5287 33.0913 20.5107C32.8888 20.4928 32.8582 20.8499 32.6557 20.8338C32.4531 20.8177 32.4728 20.5895 32.2703 20.5715C32.0679 20.5536 32.0716 20.4742 31.8689 20.4599C31.6662 20.4457 31.6485 20.6463 31.4418 20.6373C31.235 20.6283 31.2369 20.5507 31.0301 20.5417C30.8234 20.5327 30.812 20.7468 30.6036 20.7358C30.3952 20.7249 30.4035 20.5291 30.195 20.52C29.9865 20.5109 29.9959 20.3245 29.7875 20.3136C29.5791 20.3026 29.5618 20.6533 29.3532 20.6442C29.1447 20.6351 29.143 20.659 28.9345 20.6499C28.726 20.6408 28.7404 20.3066 28.5319 20.2975C28.3922 20.2914 28.2482 20.4516 28.1123 20.4439C27.9764 20.4362 27.8262 20.5553 27.6906 20.5439C27.555 20.5325 27.4265 20.3679 27.2928 20.3548C27.1592 20.3417 27.0347 20.1718 26.9011 20.1569C26.7676 20.1419 26.5886 20.4627 26.4534 20.4458C26.3182 20.4288 26.2003 20.2428 26.0669 20.226C25.9335 20.2092 25.8156 20.0231 25.6823 20.0045C25.549 19.9858 25.4064 19.9962 25.2733 19.9757C25.1401 19.9552 25.0101 19.8646 24.8767 19.8478C24.7433 19.831 24.5705 20.0893 24.437 20.0743C24.3034 20.0594 24.1832 19.8805 24.0477 19.8673C23.9123 19.8541 23.7519 20.1428 23.6163 20.1314C23.4154 20.1173 23.4502 19.6475 23.2475 19.6332C23.0448 19.619 23.0228 19.9323 22.8219 19.9181C22.621 19.904 22.6235 19.869 22.4226 19.8549C22.2217 19.8407 22.2309 19.7099 22.03 19.6958C21.8291 19.6816 21.8379 19.5563 21.637 19.5422C21.4361 19.5281 21.4259 19.6477 21.2251 19.6318C21.0243 19.6158 21.0266 19.5826 20.8239 19.5684C20.6212 19.5541 20.6142 19.6536 20.4133 19.6395C20.2124 19.6254 20.2307 19.3655 20.028 19.3513C19.9031 19.3425 19.7582 19.386 19.6308 19.3863C19.5035 19.3866 19.3842 19.8671 19.2586 19.8694C19.1329 19.8717 19.0056 19.4571 18.8804 19.4539C18.7551 19.4506 18.6263 19.6009 18.5019 19.5847C18.3776 19.5686 18.2791 19.469 18.158 19.4327C18.0368 19.3964 17.8212 19.5665 17.7112 19.5013C17.6081 19.4404 17.5679 19.3653 17.4709 19.2714C17.3426 19.3365 17.2397 19.4552 17.095 19.4691C16.9503 19.483 16.7872 19.2937 16.6444 19.2818C16.5015 19.2699 16.3519 19.2761 16.2145 19.2646C16.0609 19.25 15.9182 19.1585 15.7914 19.1774C15.6646 19.1963 15.5186 19.0989 15.3886 19.112C15.2585 19.1251 15.1308 19.1569 14.9994 19.1624C14.8681 19.168 14.7389 19.2719 14.608 19.272C14.477 19.272 14.3409 19.3198 14.2102 19.3162C14.0795 19.3126 13.9455 19.3032 13.8134 19.2939C13.6813 19.2846 13.5337 19.4427 13.4018 19.4316C13.2698 19.4205 13.1455 19.3247 13.0138 19.3099C12.8821 19.295 12.7581 19.2215 12.6265 19.2048C12.4949 19.1882 12.3599 19.2194 12.2265 19.2026C12.0931 19.1858 11.9822 19.3151 11.8506 19.2984C11.6649 19.3002 11.6512 18.8233 11.4649 18.8342C11.2786 18.8452 11.3023 19.258 11.116 19.269C10.9297 19.28 10.9157 19.0141 10.7294 19.0251C10.5431 19.0361 10.5458 19.0752 10.3597 19.0824C10.1555 19.0903 10.1574 19.2182 9.95338 19.2224C9.74938 19.2266 9.74567 18.9948 9.5418 18.9972C9.33792 18.9995 9.33703 18.9605 9.13302 18.9647C8.92902 18.9689 8.92939 19.0411 8.72552 19.0435C8.52164 19.0458 8.51947 18.9215 8.31378 18.9238C8.1081 18.926 8.1132 19.3189 7.90933 19.3213C7.70545 19.3236 7.70467 19.3865 7.50066 19.3907C7.29666 19.3948 7.29562 19.4096 7.08981 19.4136C6.88399 19.4177 6.88451 19.4362 6.67882 19.4385C6.48956 19.44 6.48755 19.0546 6.29829 19.0561C6.10902 19.0576 6.11055 19.217 5.92128 19.2185C5.73202 19.22 5.73175 19.2755 5.54248 19.277C5.35321 19.2785 5.35306 19.41 5.16393 19.4097C4.97479 19.4094 4.97394 19.1111 4.7848 19.1108C4.59567 19.1104 4.59592 19.1068 4.40666 19.1083C4.21739 19.1098 4.21689 19.0134 4.02763 19.0149C3.83836 19.0164 3.83868 19.4258 3.64941 19.4273C3.50565 19.4283 3.37383 19.1819 3.25618 19.1996C3.12199 19.2198 3.0002 19.2446 2.8735 19.2616C2.74681 19.2786 2.64845 19.1254 2.50547 19.1153C2.39145 19.1073 2.19526 19.4917 2.05254 19.452C1.94021 19.42 1.87378 19.3043 1.73894 19.3077C1.61871 19.3104 1.48093 19.1229 1.35268 19.1361C1.22443 19.1493 1.12224 19.4903 0.996321 19.4963C0.870401 19.5022 0.712954 19.4134 0.592209 19.3975C0.471465 19.3816 0.186539 19.3467 0.0760151 19.2889C0.0465613 19.1646 0.0266929 18.9299 0.0145604 18.8179C0.00126594 18.6966 0.37077 18.5633 0.373635 18.445C0.3765 18.3267 -0.0137696 18.1862 0.000343556 18.0631C0.0135495 17.953 0.159418 17.715 0.17922 17.5887C0.312111 17.6387 0.50109 17.7965 0.608781 17.7911C0.73845 17.7836 0.748322 17.5139 0.857443 17.4623C0.966565 17.4107 1.16589 17.5506 1.27359 17.4934C1.38129 17.4361 1.4845 17.1841 1.60926 17.1688C1.79452 17.1467 1.81917 17.3651 2.00431 17.3448C2.18944 17.3244 2.17046 17.1546 2.3556 17.1343C2.54073 17.1139 2.57919 17.4722 2.76445 17.4501C2.94971 17.4279 2.94416 17.3775 3.12943 17.3554C3.31469 17.3332 3.2859 17.07 3.47117 17.0479C3.65643 17.0257 3.68392 17.2814 3.86905 17.2611C4.05418 17.2407 4.03547 17.0672 4.22241 17.047C4.40935 17.0268 4.40922 17.0287 4.59435 17.0084C4.71911 16.9931 4.88015 17.2377 4.98539 17.2155C5.10174 17.1903 5.1083 16.6834 5.22103 16.658C5.32834 16.6322 5.49559 16.8662 5.61867 16.8489C5.72338 16.834 5.84126 16.9942 5.96886 16.9902C6.16937 16.9839 6.15949 16.5814 6.36 16.5751C6.56052 16.5688 6.56783 16.9045 6.76821 16.9001C6.9686 16.8957 6.9668 16.7918 7.16719 16.7874C7.36757 16.783 7.36244 16.5715 7.56463 16.5672C7.76683 16.5629 7.77067 16.7669 7.97106 16.7624C8.17144 16.758 8.16862 16.6171 8.37094 16.6109C8.57327 16.6048 8.58007 16.8701 8.78072 16.862C8.98136 16.8539 8.99053 16.9304 9.19505 16.9189C9.39957 16.9074 9.39429 16.8014 9.59881 16.7899C9.80333 16.7783 9.80192 16.7468 10.0064 16.7352C10.211 16.7237 10.1963 16.4152 10.4007 16.4055C10.6051 16.3958 10.6129 16.5427 10.8193 16.5312C11.0256 16.5198 11.0343 16.7056 11.2387 16.6959C11.3793 16.6892 11.5331 16.4925 11.6699 16.5133C11.8067 16.534 11.9546 16.5778 12.087 16.6093C12.2264 16.6432 12.3097 16.9083 12.4387 16.9359C12.582 16.9664 12.739 16.7255 12.8684 16.7217C12.9978 16.7178 13.1344 16.9997 13.264 16.994C13.3935 16.9882 13.5309 17.1294 13.6606 17.1218C13.7903 17.1143 13.8926 16.5641 14.0203 16.5582C14.1481 16.5524 14.2869 16.6992 14.4146 16.6934C14.5424 16.6875 14.6704 16.5743 14.7998 16.5704C14.9292 16.5666 15.0644 16.8687 15.1935 16.8685C15.3227 16.8683 15.4533 16.6923 15.5822 16.6958C15.711 16.6993 15.8231 16.9943 15.9516 17.0033C16.0801 17.0123 16.2333 16.7212 16.3614 16.7358C16.4896 16.7504 16.6463 16.617 16.7739 16.6389C16.9015 16.6608 16.9363 17.1485 17.0634 17.1778C17.1904 17.2071 17.3695 16.9882 17.4961 17.0249C17.6137 17.0591 17.7159 16.8477 17.866 16.8342C17.9942 16.821 18.1613 17.1087 18.3011 17.0871C18.4409 17.0654 18.5612 16.9831 18.6963 16.976C18.8314 16.9688 19.008 16.8108 19.1369 16.8403C19.2658 16.8697 19.2961 17.1626 19.4099 17.2521C19.5215 17.347 19.6155 17.5351 19.7407 17.592C19.8711 17.6512 20.0769 17.5953 20.2159 17.6106C20.3549 17.626 20.5424 17.7262 20.6826 17.699C20.8154 17.6732 20.8632 17.3284 20.9933 17.2634C21.1139 17.2034 21.265 17.1251 21.3807 17.0314C21.4964 17.0932 21.6944 17.0442 21.8116 17.0858C21.934 17.1296 21.9928 17.3282 22.1147 17.3534C22.2366 17.3786 22.3651 17.3618 22.4915 17.3743C22.618 17.3869 22.744 17.2495 22.871 17.2547C22.9979 17.2599 23.1143 17.5959 23.2416 17.5975C23.3688 17.599 23.494 17.5764 23.6213 17.5779C23.7485 17.5794 23.8708 17.5473 23.9977 17.5525C24.1878 17.5659 24.1773 17.7411 24.3673 17.7544C24.5573 17.7678 24.5629 17.7145 24.7529 17.7279C24.943 17.7412 24.9422 17.7782 25.134 17.7917C25.3259 17.8052 25.3522 17.4051 25.5441 17.4186C25.7359 17.4321 25.7272 17.5556 25.9191 17.5691C26.1109 17.5826 26.1175 17.4886 26.3095 17.5003C26.5015 17.5119 26.4845 17.7533 26.6765 17.765C26.8068 17.7741 26.9418 17.717 27.0721 17.7261C27.2024 17.7353 27.3399 17.6172 27.4703 17.6245C27.6007 17.6318 27.7382 17.5137 27.8686 17.521C27.9991 17.5283 28.1046 17.9154 28.2349 17.9246C28.3652 17.9337 28.4888 18.0128 28.6191 18.022C28.7494 18.0311 28.9142 17.5501 29.0444 17.5611C29.1746 17.5721 29.2811 17.8685 29.4113 17.8795C29.5414 17.8905 29.6708 17.8867 29.801 17.8977C29.9312 17.9087 30.0378 18.1254 30.1678 18.1401C30.2977 18.1548 30.4551 17.9085 30.5848 17.925C30.7146 17.9416 30.8463 17.9323 30.9758 17.9525C31.1053 17.9727 31.2328 17.9706 31.3692 17.9709C31.5056 17.9712 31.6282 17.8317 31.7651 17.8247C31.902 17.8176 32.0459 18.15 32.1805 18.1502C32.3151 18.1504 32.4788 17.7878 32.614 17.8047C32.7493 17.8216 32.9246 17.8636 33.0562 17.9062C33.1664 17.9417 33.2454 18.2418 33.4059 18.2345C33.5465 18.2277 33.6549 18.2372 33.7843 18.2852C33.9031 18.3288 34.1376 18.0989 34.2139 18.2543C34.3369 18.187 34.3763 18.3768 34.5032 18.3302C34.6302 18.2836 34.7737 18.3122 34.9066 18.2845C35.0395 18.2568 35.137 17.9044 35.2725 17.8917C35.408 17.879 35.5659 17.9883 35.7039 17.9906C35.842 17.9929 35.9895 17.9384 36.1271 17.9481C36.2646 17.9578 36.3981 18.0505 36.5334 18.0674C36.6686 18.0843 36.8082 18.0904 36.945 18.1112C37.0818 18.1319 37.1973 18.2993 37.3341 18.32C37.4691 18.2888 37.7469 18.062 37.698 17.8789C37.6694 17.7677 37.2811 17.7551 37.2017 17.6162C37.1386 17.5044 36.9794 17.4672 36.8911 17.3518C36.8095 17.2442 36.9116 16.9828 36.8151 16.8797C36.7187 16.7766 36.682 16.6 36.5772 16.513C36.4724 16.426 36.2588 16.4628 36.1471 16.3957C36.0233 16.3203 35.8661 16.3833 35.7433 16.3451C35.6097 16.3042 35.5657 16.0251 35.444 15.9703C35.3224 15.9154 35.0487 16.1351 34.9335 16.0659C34.8183 15.9966 34.932 15.5435 34.8192 15.467C34.7063 15.3906 34.4546 15.5303 34.3419 15.452C34.2292 15.3737 34.2429 15.1006 34.1281 15.0258C34.0134 14.9511 33.7661 15.1041 33.6435 15.038C33.4718 14.9445 33.5831 14.7319 33.4115 14.6383C33.2398 14.5448 33.1076 14.7948 32.936 14.7012C32.7643 14.6077 32.8463 14.4504 32.6746 14.3569C32.503 14.2633 32.3624 14.5294 32.1907 14.4358C32.0191 14.3423 32.1598 14.0744 31.9881 13.9808C31.8164 13.8873 31.7766 13.9622 31.6133 13.8526C31.5121 13.7399 31.2914 13.7744 31.1871 13.68C31.076 13.5796 30.9599 13.5233 30.8457 13.4393C30.7316 13.3554 30.7816 13.007 30.6559 12.9315C30.5303 12.856 30.1714 13.0974 30.0378 13.0306C29.9763 12.9226 29.9679 12.6535 29.8887 12.5127C29.8192 12.3893 29.987 12.0974 29.899 11.9782C29.811 11.859 29.4803 11.9839 29.3699 11.8984C29.3285 11.8659 29.4867 11.5825 29.535 11.3618C29.5598 11.2413 29.3633 11.0349 29.4084 10.8862C29.4483 10.7575 29.8403 10.7443 29.8898 10.6089C29.9394 10.4735 29.9261 10.3263 29.9839 10.2026C30.0461 10.068 29.8403 9.78686 29.9064 9.67483C29.9907 9.53631 30.2515 9.52687 30.3367 9.45323C30.4432 9.36071 30.5046 9.16131 30.6107 9.12617C30.73 9.08456 30.8995 9.28725 31.0235 9.283C31.1474 9.27876 31.2604 9.35337 31.3896 9.35319C31.5059 9.35397 31.5989 9.01418 31.7259 8.99347C31.8528 8.97277 32.0211 9.21796 32.1433 9.18766C32.2655 9.15736 32.4157 9.24571 32.5379 9.21541C32.66 9.18511 32.737 8.97012 32.8602 8.95101C32.9834 8.93189 33.1038 8.97925 33.2326 8.98276C33.3525 8.98563 33.4937 8.86593 33.6224 8.89721C33.7512 8.92849 33.8767 8.90214 34.005 8.91486C34.1332 8.92759 34.2551 9.08245 34.3841 9.08411C34.5131 9.08578 34.6512 9.13993 34.7809 9.13238C34.9105 9.12483 35.0275 8.88491 35.1591 8.87564C35.2907 8.86638 35.4231 8.87197 35.5545 8.86455C35.686 8.85713 35.8223 8.96302 35.953 8.96665C36.1583 8.96998 36.1576 8.92734 36.3629 8.93067C36.5682 8.93399 36.5668 8.95427 36.7719 8.95943C36.9771 8.9646 36.975 8.9941 37.1803 8.99742C37.3856 9.00075 37.3808 9.25043 37.5843 9.25362C37.7878 9.25682 37.7957 8.91106 38.0009 8.91623C38.1189 8.91898 38.2653 8.80332 38.3992 8.81274C38.5241 8.82152 38.5945 9.32095 38.7222 9.34104C38.8499 9.36114 39.0671 8.96343 39.1864 8.9996C39.3146 9.03825 39.5176 9.02288 39.6223 9.08581C39.7532 9.16354 39.6641 9.31839 39.7969 9.39625C39.9296 9.47411 39.8737 9.39055 40.0261 9.39571C40.1785 9.40088 40.1406 9.526 40.2817 9.45999C40.4227 9.39397 40.4386 9.47843 40.5912 9.45582C40.7988 9.42598 40.8026 9.19104 41.0106 9.20752C41.2186 9.224 41.224 9.17253 41.432 9.18901C41.6401 9.20549 41.6079 9.61066 41.8177 9.62727C42.0276 9.64388 42.0612 9.2166 42.2711 9.2332C42.4809 9.24981 42.4468 9.6567 42.6566 9.67331C42.8665 9.68992 42.8565 9.8059 43.0663 9.8225C43.2761 9.83911 43.2778 9.81516 43.4876 9.83177C43.6234 9.84131 43.7867 9.45833 43.904 9.47213C44.0357 9.48695 44.1761 9.48199 44.2963 9.50526C44.4165 9.52854 44.4894 9.81146 44.6142 9.84801C44.73 9.88208 44.8194 9.98099 44.9451 10.0306C45.0566 10.0736 45.2663 9.7309 45.3913 9.78969C45.596 9.82632 45.5599 10.0034 45.766 10.0216C45.9721 10.0398 45.9708 10.0582 46.1787 10.0766C46.3865 10.0949 46.3733 10.231 46.5812 10.2493C46.7891 10.2677 46.7781 10.3984 46.9841 10.4166C47.1902 10.4348 47.2923 9.91414 47.4919 9.97262C47.6381 10.0144 47.5539 10.3066 47.6847 10.3862C47.8155 10.4658 47.7899 10.5455 47.942 10.5562C48.094 10.5669 48.0424 10.3947 48.1849 10.3343C48.3274 10.274 48.3612 10.3875 48.5149 10.3742C48.7164 10.3551 48.7289 10.2022 48.9287 10.2329C49.1284 10.2636 49.0967 10.4818 49.2965 10.5107C49.4964 10.5395 49.4851 10.6221 49.685 10.651C49.8849 10.6798 49.892 10.6303 50.0917 10.6611C50.2915 10.6918 50.2837 10.7505 50.4834 10.7812C50.6311 10.8027 50.7784 10.7242 50.9075 10.7518C51.0508 10.7822 51.2149 10.6734 51.3456 10.7029C51.4834 10.7348 51.5819 10.9381 51.7183 10.9643C51.8547 10.9906 51.9781 11.1752 52.1225 11.1909C52.2524 11.2056 52.4191 10.9303 52.5682 10.9315C52.6863 10.9324 52.8124 10.9505 52.938 10.9742C53.0564 10.9973 53.1563 11.1025 53.2777 11.1351C53.3991 11.1677 53.4954 11.2727 53.6149 11.307C53.7343 11.3413 53.9102 11.1426 54.0285 11.1676C54.1467 11.1925 54.259 11.1745 54.3804 11.1812C54.5017 11.1879 54.7258 11.1055 54.8459 11.0787C54.9173 11.2023 54.8002 11.6256 54.8882 11.7188C54.9983 11.834 55.2164 11.7845 55.3299 11.7999C55.4543 11.816 55.5337 11.7216 55.6559 11.6654C55.7781 11.6091 55.8259 11.4199 55.9335 11.3645C56.0826 11.2879 56.2374 11.6211 56.3566 11.711C56.4534 11.7826 56.7121 11.673 56.8307 11.7702C56.9305 11.8513 56.8923 12.2135 57.0325 12.2641C57.1478 12.3055 57.3335 12.0704 57.4904 12.0629C57.6108 12.0584 57.6964 11.9533 57.8469 11.9084C57.964 11.8722 58.1369 11.8195 58.2779 11.7535C58.3996 11.8083 58.4751 12.1822 58.5937 12.2294C58.7122 12.2766 58.8948 12.1895 59.0174 12.2296C59.1401 12.2697 59.2396 12.4323 59.3666 12.4634C59.4935 12.4946 59.6387 12.4992 59.7684 12.5176C59.898 12.536 60.0366 12.6346 60.169 12.6402C60.3014 12.6458 60.4266 12.3398 60.5602 12.327C60.6939 12.3142 60.9217 12.1783 61.0546 12.1506C61.1443 12.2717 61.1544 12.5947 61.2556 12.6815C61.3671 12.7763 61.5254 12.7504 61.6506 12.8055C61.7759 12.8606 61.8585 13.0831 61.9992 13.0986C62.14 13.1141 62.2934 13.1063 62.4369 13.0831C62.5694 13.0609 62.6946 12.8845 62.8311 12.8311C62.9638 12.8831 63.2185 12.8047 63.3314 12.8811C63.4373 12.9534 63.3776 13.3363 63.4788 13.449C63.5985 13.4018 63.7625 13.5522 63.9029 13.5473C64.0287 13.5432 64.143 13.366 64.2833 13.3889C64.4074 13.4087 64.5719 13.2684 64.7096 13.3022C64.8347 13.3332 64.9596 13.3938 65.0932 13.4329C65.218 13.4694 65.2598 13.8057 65.3917 13.8446C65.5235 13.8835 65.7579 13.5259 65.8879 13.5647C66.0179 13.6035 66.0364 14.04 66.1686 14.0733C66.3009 14.1067 66.4372 14.133 66.5699 14.1608C66.7025 14.1887 66.8558 14.1291 66.9908 14.1497C67.1258 14.1703 67.2989 13.8287 67.4326 13.8418C67.5663 13.8549 67.6824 13.9113 67.8167 13.9151C67.951 13.919 68.0541 14.3411 68.1803 14.3574C68.3173 14.3745 68.4322 14.3696 68.5576 14.3969C68.6921 14.4249 68.8317 14.3532 68.9566 14.3879C69.0815 14.4226 69.2331 14.387 69.3577 14.4254C69.4824 14.4638 69.5907 14.5789 69.7171 14.6174C69.8435 14.6559 69.959 14.7733 70.0895 14.8047C70.2201 14.8361 70.3855 14.7088 70.5188 14.7274C70.6467 14.7439 70.7818 14.8145 70.9199 14.8168C71.0471 14.8183 71.1741 14.642 71.3115 14.6276C71.4361 14.6142 71.4409 14.6497 71.5776 14.6204C71.4429 14.5961 71.5223 14.3721 71.4087 14.3326C71.2826 14.2885 71.0147 14.6068 70.906 14.5491C70.7883 14.489 70.7524 14.2753 70.6463 14.2067C70.5402 14.1382 70.4324 14.0676 70.3243 14.0008C70.2163 13.9339 70.0774 13.9427 69.9613 13.8863C69.7766 13.7974 69.8454 13.6467 69.6605 13.5596C69.4757 13.4725 69.4179 13.5962 69.2332 13.5073C69.0484 13.4184 69.1427 13.2158 68.956 13.1286C68.7694 13.0414 68.6084 13.3911 68.4235 13.3041C68.2387 13.217 68.3523 12.9713 68.1658 12.8822C67.9793 12.7932 67.9681 12.822 67.7816 12.733C67.5951 12.6439 67.6312 12.5705 67.4446 12.4815C67.2581 12.3924 67.11 12.7135 66.9252 12.6264C66.7403 12.5394 66.805 12.3957 66.6202 12.3068C66.4355 12.2179 66.4959 12.0833 66.3111 11.9962C66.2038 11.9442 66.1359 11.719 66.0026 11.6745C65.8836 11.6346 65.7109 11.7373 65.5864 11.697C65.4619 11.6568 65.3516 11.5953 65.2333 11.5444C65.1096 11.4931 64.967 11.5035 64.8628 11.4332C64.7499 11.3585 64.5907 11.3196 64.5199 11.2146C64.4161 11.061 64.5333 10.7396 64.4459 10.663C64.3329 10.5625 64.1284 10.5222 63.9814 10.4656C63.8699 10.4225 63.6159 10.6973 63.4514 10.632C63.2674 10.558 63.252 10.5958 63.0681 10.5217C62.8841 10.4476 63.0057 10.1414 62.8217 10.0673C62.6378 9.99326 62.6269 10.0184 62.443 9.94437C62.259 9.87031 62.2103 9.99468 62.0263 9.92063C61.8424 9.84657 61.8223 9.89887 61.6385 9.82297C61.4547 9.74708 61.4901 9.65698 61.3063 9.58109C61.1225 9.50519 61.0826 9.60611 60.8987 9.53205C60.7147 9.458 60.6837 9.53729 60.498 9.46126C60.3725 9.40984 60.2598 9.27969 60.1501 9.21085C60.0403 9.14202 60.0095 8.93428 59.8922 8.86862C59.775 8.80296 59.6 8.96289 59.468 8.92583C59.3521 8.8936 59.2515 8.71985 59.106 8.72073C58.9514 8.61726 59.0096 8.53986 58.8808 8.40487C58.7521 8.26988 58.6135 8.4046 58.4847 8.26961C58.356 8.13462 58.6231 7.80152 58.4666 7.69976C58.3101 7.598 58.1387 7.93969 57.9666 7.87758C57.7946 7.81548 57.8518 7.64912 57.6779 7.58689C57.504 7.52466 57.572 7.33314 57.3982 7.27091C57.2243 7.20868 57.0648 7.66601 56.891 7.60378C56.7722 7.56024 56.7695 7.18408 56.6572 7.1521C56.5377 7.11777 56.3251 7.45102 56.211 7.41891C56.0968 7.38681 56.0847 6.98962 55.9711 6.95015C55.8575 6.91067 55.7341 6.93163 55.6217 6.87557C55.5198 6.82395 55.2597 7.00567 55.1539 6.93156C55.0482 6.85745 55.161 6.44314 55.0548 6.37641C54.9485 6.30967 54.7034 6.45911 54.5932 6.39581C54.4831 6.3325 54.4428 6.12965 54.3306 6.0699C54.2184 6.01015 54.0326 6.09153 53.9184 6.0335C53.8043 5.97547 53.6902 5.91745 53.5742 5.85929C53.4582 5.80113 53.4855 5.46599 53.3678 5.40586C53.2502 5.34573 53.0018 5.56716 52.8862 5.50347C52.7707 5.43979 52.5894 5.50854 52.4759 5.44129C52.3676 5.37812 52.2691 5.27859 52.1577 5.20778C52.0514 5.14105 51.9627 5.0311 51.8533 4.95858C51.7491 4.88829 51.6075 4.85795 51.5002 4.78002C51.3999 4.7063 51.4678 4.38698 51.3626 4.3055C51.2644 4.22821 51.2183 4.08238 51.1132 3.99905C51.0169 3.92005 50.8493 3.92309 50.7499 3.83646C50.6557 3.7539 50.5065 3.72859 50.4072 3.64012C50.4175 3.6501 50.1615 3.721 49.9479 3.57635C49.8439 3.50421 49.9824 3.08613 49.8697 2.9819C49.767 2.88949 49.6073 2.88566 49.5209 2.76847C49.4346 2.65128 49.2169 2.61744 49.1682 2.48252C49.1195 2.3476 49.3447 2.19678 49.3534 2.04738C49.36 1.92747 49.3327 1.84962 49.4081 1.70862C49.4688 1.59621 49.2618 1.27977 49.3556 1.16228C49.4376 1.05693 49.6244 1.01265 49.7242 0.912259C49.824 0.811864 49.9779 0.770827 50.0842 0.681998C50.1905 0.59317 50.2598 0.435074 50.3724 0.359654C50.4926 0.279215 50.7397 0.439181 50.8564 0.382572C50.994 0.314463 51.058 0.102283 51.1759 0.0809435C51.338 0.0516013 51.6017 -0.050233 51.696 0.0304825C51.8195 0.137319 51.8025 0.404663 51.9219 0.438991C52.061 0.478405 52.2431 0.681977 52.3825 0.66585C52.5219 0.649724 52.6446 0.456476 52.7849 0.427449C52.9251 0.398422 53.0385 0.363797 53.1807 0.358982C53.3229 0.354167 53.4463 0.436931 53.5821 0.444634C53.718 0.452337 53.8565 0.397245 53.9934 0.416133C54.1303 0.435021 54.2514 0.523187 54.386 0.54932C54.5206 0.575452 54.7229 0.284092 54.8554 0.313783C54.9879 0.343474 55.0523 0.748026 55.1849 0.775873C55.3175 0.803721 55.5306 0.437217 55.6638 0.457693C55.8042 0.478679 55.926 0.479836 56.0584 0.485442C56.1997 0.493527 56.2929 0.770466 56.4269 0.753958C56.5755 0.812565 56.5309 0.852031 56.6647 0.941076C56.7985 1.03012 56.7661 1.07784 56.8998 1.16689C56.9519 1.20203 57.2255 1.08792 57.352 0.996801C57.4343 0.937773 57.4462 1.02751 57.5197 0.940071C57.6109 1.03909 57.8442 0.644366 57.978 0.707482C58.096 0.762082 58.0992 1.13085 58.242 1.16868C58.3688 1.20167 58.5584 0.989063 58.702 1.01583C58.833 1.04171 58.939 1.24176 59.0809 1.26656C59.2139 1.28888 59.3712 1.19993 59.5112 1.22644C59.6512 1.25296 59.8278 1.095 59.9655 1.12876C60.1031 1.16252 60.2166 1.30753 60.3518 1.35038C60.4871 1.39323 60.5165 1.72496 60.6492 1.77689C60.782 1.82883 61.0481 1.56233 61.1745 1.62678C61.3009 1.69123 61.3504 1.84102 61.4497 1.87763C61.5773 1.9255 61.662 2.01478 61.7774 2.02846C61.8929 2.04213 62.0176 2.33796 62.1545 2.33092C62.2622 2.32553 62.3874 1.88986 62.5283 1.87755C62.7211 1.90407 62.7533 1.80819 62.9433 1.84748C63.1333 1.88677 63.0923 2.08205 63.2822 2.12319C63.4721 2.16432 63.505 2.00735 63.6949 2.04849C63.8848 2.08962 63.8496 2.25384 64.0396 2.29313C64.2297 2.33242 64.2567 2.20653 64.4466 2.24767C64.6365 2.2888 64.6108 2.37034 64.8037 2.39501C64.9538 2.38149 65.0711 2.75643 65.2088 2.76426C65.3592 2.77114 65.5985 2.29164 65.7298 2.33791C65.8612 2.38419 65.8748 2.73332 65.9856 2.83926C66.081 2.93116 66.0923 3.18382 66.1675 3.32987C66.3065 3.31927 66.5544 3.05337 66.6919 3.06304C66.8295 3.07271 66.9325 3.34108 67.069 3.3655C67.2055 3.38992 67.301 3.53182 67.4349 3.56717C67.5689 3.60251 67.7086 3.58086 67.8405 3.61977C67.9723 3.65867 68.0941 3.7376 68.226 3.77651C68.3578 3.81541 68.5475 3.67876 68.6779 3.71201C68.7673 3.73496 68.9714 3.75485 69.1299 3.72525C69.2884 3.69566 69.2313 3.6546 69.3074 3.78774C69.3998 3.94796 69.7465 3.82789 69.8418 3.8957C69.9611 3.98373 69.9989 4.01602 70.1594 4.00879C70.2816 4.00442 70.4393 4.16737 70.6052 4.13644C70.7342 4.11218 70.8057 4.28573 70.9417 4.31752C71.0669 4.3467 71.2605 4.12882 71.3892 4.18602C71.518 4.24323 71.5661 4.43923 71.6852 4.50318C71.8044 4.56712 71.9328 4.62985 72.0506 4.68814C72.1806 4.75284 72.3321 4.79683 72.4499 4.82919C72.6408 4.88151 72.6628 4.80156 72.8537 4.85388C73.0447 4.9062 73.1038 4.68626 73.2947 4.73858C73.4857 4.7909 73.4853 4.79644 73.6762 4.84876C73.8672 4.90108 73.8794 4.85563 74.0722 4.90808C74.2649 4.96053 74.1612 5.34957 74.3539 5.40201C74.5467 5.45446 74.5716 5.35807 74.7626 5.41039C74.9535 5.46271 74.9432 5.50643 75.136 5.55703C75.3289 5.60764 75.4023 5.34054 75.5931 5.39471C75.7839 5.44887 75.8057 5.39669 75.9998 5.45663C76.1938 5.51658 76.0774 5.90472 76.2714 5.96467C76.4655 6.02461 76.4872 5.94837 76.6812 6.00832C76.8753 6.06826 76.9375 5.85595 77.1315 5.91589C77.2687 5.95702 77.3735 6.0959 77.505 6.14033C77.6365 6.18477 77.7435 6.31822 77.8711 6.36609C78.0058 6.4163 78.1392 6.45902 78.2647 6.51044C78.4008 6.56632 78.6067 6.43262 78.7286 6.48379C78.8662 6.54348 78.9968 6.60081 79.1151 6.65173C79.2579 6.71548 79.3957 6.7474 79.5087 6.79608C79.6853 6.87147 79.727 7.1837 79.8095 7.20061C79.951 7.23094 80.1173 7.09076 80.2524 7.10952C80.3875 7.12828 80.5039 7.33464 80.6445 7.35379C80.785 7.37293 80.9257 7.31243 81.0672 7.34276C81.1979 7.37232 81.2758 7.55745 81.4161 7.60621C81.6025 7.67117 81.6 7.68026 81.7865 7.74522C81.9729 7.81019 82.0022 7.72891 82.1886 7.79387C82.375 7.85884 82.4709 7.58223 82.6591 7.64733C82.8473 7.71242 82.8063 7.82991 82.9945 7.895C83.1828 7.96009 83.2427 7.78097 83.4307 7.84791C83.6188 7.91484 83.5116 8.224 83.6998 8.28909C83.888 8.35418 83.995 8.0487 84.1812 8.11735C84.378 8.18861 84.276 8.47591 84.4709 8.54889C84.6659 8.62186 84.6838 8.57312 84.8806 8.64622C85.0774 8.71932 85.0188 8.88001 85.2137 8.95298C85.4086 9.02596 85.4469 8.92125 85.6437 8.99435C85.8404 9.06745 85.7997 9.18126 85.9946 9.25423C86.1896 9.32721 86.1623 9.40491 86.359 9.47801C86.4902 9.52613 86.7029 9.29478 86.8098 9.32637C86.9381 9.36502 87.0374 9.45349 87.1515 9.48559C87.2657 9.5177 87.4219 9.41758 87.5479 9.46163C87.6526 9.49863 87.6488 9.83727 87.7775 9.89448C87.9752 9.98061 87.9536 10.0291 88.1513 10.1152C88.3489 10.2013 88.4014 10.0754 88.5991 10.1615C88.7967 10.2477 88.9579 9.87006 89.1555 9.95619C89.3532 10.0423 89.1928 10.4348 89.3947 10.5119C89.5648 10.5758 89.6382 10.3605 89.8108 10.4153C89.9833 10.47 89.9548 10.5661 90.1273 10.6209C90.2999 10.6756 90.2597 10.808 90.4341 10.8628C90.5587 10.9012 90.6878 11.0307 90.8312 11.0611C90.9638 11.089 91.1232 10.9946 91.261 11.0266C91.3988 11.0585 91.5254 11.0692 91.6551 11.1135C91.7847 11.1578 91.9249 11.1566 92.0419 11.2259C92.1588 11.2953 92.2434 11.3864 92.3359 11.4929C92.4285 11.5994 92.5562 11.6714 92.654 11.7542C92.7604 11.845 92.9617 11.7499 93.0778 11.8062C93.1939 11.8625 93.2589 12.0245 93.3922 12.0432C93.5184 12.0595 93.6551 12.132 93.7951 12.1067C93.9168 12.0838 93.9723 12.2506 94.1073 12.1935C94.3056 12.2444 94.2681 12.2085 94.4525 12.3029C94.6368 12.3974 94.8342 11.9964 95.0167 12.0907C95.1992 12.1851 95.1334 12.3193 95.3159 12.4137C95.4984 12.508 95.3605 12.789 95.5448 12.8835C95.7291 12.9779 95.8354 12.7595 96.0222 12.8448C96.209 12.9302 96.2662 12.7639 96.45 12.8397C96.6338 12.9156 96.6183 12.9553 96.8023 13.0294C96.9862 13.1034 96.8865 13.3575 97.0721 13.4335C97.2578 13.5096 97.3929 13.1653 97.5769 13.2394C97.6936 13.2865 97.6338 13.8008 97.749 13.8441C97.8641 13.8874 98.0752 13.68 98.1923 13.7216C98.3094 13.7632 98.3959 13.9044 98.513 13.946C98.6301 13.9876 98.7999 13.8754 98.9188 13.9171C99.0377 13.9588 99.1866 13.9119 99.3054 13.9554C99.4242 13.999 99.5096 14.1291 99.6263 14.1762C99.743 14.2233 99.9034 14.1679 100.02 14.2187C100.136 14.2694 100.135 14.5657 100.25 14.6237C100.364 14.6818 100.417 14.8281 100.529 14.8897C100.641 14.9513 100.906 14.6255 101.046 14.6593C101.173 14.6905 101.217 15.14 101.356 15.1664C101.494 15.1927 101.596 15.2333 101.724 15.2738C101.853 15.3143 101.915 15.3576 102.028 15.434C102.141 15.5105 102.159 15.5377 102.241 15.6601C102.323 15.7826 102.73 15.5408 102.855 15.5978C102.98 15.6547 103.035 15.8827 103.177 15.9019C103.32 15.9212 103.472 15.8153 103.608 15.8285C103.763 15.8431 103.796 16.201 103.911 16.2499C104.095 16.3294 104.09 16.3403 104.274 16.4198C104.457 16.4994 104.621 16.1072 104.805 16.1868C104.989 16.2664 104.912 16.4481 105.096 16.5276C105.279 16.6072 105.255 16.6666 105.439 16.7462C105.622 16.8258 105.565 16.9607 105.749 17.0403C105.933 17.1198 105.935 17.1163 106.118 17.1959C106.302 17.2755 106.345 17.173 106.529 17.2525C106.712 17.3321 106.725 17.3034 106.909 17.383C107.024 17.4336 107.113 17.5085 107.215 17.5582C107.317 17.608 107.402 17.7232 107.509 17.7733C107.611 17.8231 107.842 17.5875 107.959 17.6328C108.062 17.6733 108.056 18.06 108.179 18.0983C108.355 18.1533 108.423 17.9395 108.599 17.9945C108.776 18.0495 108.832 17.8719 109.008 17.9269C109.184 17.9819 109.057 18.3897 109.233 18.4483C109.43 18.5141 109.454 18.4361 109.651 18.5018C109.849 18.5676 109.869 18.506 110.066 18.5736C110.264 18.6412 110.377 18.2991 110.574 18.3667C110.771 18.4343 110.848 18.399 111.024 18.5095C111.046 18.6333 111.193 18.9492 111.2 19.0626C111.207 19.1854 111.162 19.3341 111.156 19.4503C111.15 19.5666 111.037 19.6938 111.016 19.8127C110.995 19.9316 110.799 19.8697 110.767 19.9878C110.571 20.0574 110.594 19.9645 110.386 19.985C110.177 20.0056 110.171 19.9274 109.963 19.9479C109.754 19.9684 109.768 20.1231 109.561 20.1419C109.355 20.1607 109.271 20.4938 109.106 20.3654C108.926 20.2269 109.239 20.0415 109.186 19.8192C109.132 19.5969 109.268 19.4213 109.12 19.2497C108.984 19.0902 108.689 19.4916 108.492 19.4204C108.295 19.3491 108.334 19.2389 108.137 19.1676C107.94 19.0963 108.019 18.8723 107.822 18.801C107.625 18.7298 107.528 19.0099 107.331 18.9387C107.134 18.8674 107.115 18.9217 106.919 18.8504C106.775 18.7996 106.76 18.4411 106.641 18.3939C106.502 18.3396 106.322 18.4325 106.2 18.3832C106.069 18.3314 106.016 18.074 105.887 18.026C105.763 17.9802 105.563 18.1365 105.422 18.0933C105.237 18.0377 105.27 17.9252 105.085 17.8696C104.9 17.814 104.835 18.0353 104.65 17.9797C104.465 17.9241 104.51 17.7717 104.325 17.7142C104.14 17.6568 104.086 17.8215 103.905 17.757C103.708 17.6875 103.787 17.4745 103.592 17.3979C103.397 17.3212 103.391 17.343 103.196 17.2645C103.001 17.186 102.888 17.4817 102.693 17.4032C102.499 17.3247 102.576 17.1283 102.382 17.0498C102.187 16.9713 102.218 16.8957 102.023 16.8172C101.829 16.7387 101.846 16.6973 101.652 16.6188C101.457 16.5403 101.495 16.4429 101.3 16.3644C101.106 16.2859 101.086 16.3401 100.891 16.2634C100.787 16.2209 100.583 16.4825 100.455 16.4605C100.34 16.4395 100.219 16.5088 100.094 16.4944C99.9699 16.4801 99.894 16.0859 99.7731 16.0718C99.6522 16.0578 99.4577 16.47 99.3411 16.447C99.2174 16.4217 99.1952 16.0127 99.0874 15.968C98.9708 15.9191 98.9282 15.8531 98.8412 15.7711C98.7491 15.6831 98.5336 15.7217 98.4072 15.6572C98.2965 15.6013 98.2382 15.3453 98.1049 15.3007C97.9858 15.2609 97.8449 15.2213 97.7092 15.1859C97.5858 15.155 97.4193 15.2729 97.2833 15.2411C97.1581 15.2119 96.9625 15.4834 96.8283 15.4517C96.7031 15.4225 96.6703 14.9832 96.5381 14.9498C96.4129 14.9188 96.2579 15.0023 96.1261 14.9634C95.9942 14.9245 95.9418 14.6875 95.8121 14.6432C95.6824 14.5989 95.5181 14.7114 95.3924 14.6618C95.2668 14.6122 95.1688 14.5313 95.0436 14.4761C94.9183 14.421 94.6989 14.5927 94.5777 14.5304C94.4566 14.4682 94.306 14.4632 94.2049 14.4005C94.0935 14.3297 94.0814 14.114 93.9662 14.0707C93.851 14.0274 93.7512 14.1797 93.6139 14.1923C93.5059 14.2013 93.3577 14.1113 93.2209 14.1683C93.1406 14.0423 93.0914 13.837 92.9783 13.7642C92.8652 13.6914 92.74 13.5585 92.6067 13.514C92.4734 13.4694 92.3405 13.4193 92.2088 13.3786C92.0236 13.3211 91.9927 13.4245 91.8076 13.367C91.6225 13.3096 91.6885 13.0957 91.5034 13.0382C91.3182 12.9807 91.2301 13.2764 91.045 13.2189C90.8599 13.1615 90.8952 13.0473 90.7101 12.9898C90.525 12.9324 90.5224 12.9433 90.3373 12.8858C90.1522 12.8283 90.1995 12.6724 90.0144 12.6149C89.8293 12.5575 89.7321 12.8784 89.5471 12.8191C89.3621 12.7598 89.4143 12.5875 89.2291 12.5301C89.044 12.4726 89.0902 12.437 88.9225 12.3381C88.7253 12.2205 88.6882 12.3087 88.5152 12.1558C88.3423 12.0029 88.3573 11.9706 88.156 11.8583C88.0188 11.8949 87.8736 11.8643 87.753 11.8725C87.616 11.8814 87.4917 11.9412 87.3679 11.9177C87.244 11.8941 87.1992 11.6521 87.0755 11.6008C86.9518 11.5495 86.6514 11.8895 86.5326 11.82C86.4243 11.7569 86.4103 11.5429 86.2975 11.4646C86.1022 11.4231 86.0897 11.6259 85.8908 11.6101C85.6918 11.5942 85.7109 11.3493 85.5119 11.3334C85.313 11.3176 85.3362 11.2192 85.1388 11.1812C85.0219 11.1119 84.9757 10.992 84.858 10.9337C84.7402 10.8754 84.5544 10.9309 84.4343 10.8798C84.3142 10.8288 84.1176 10.9612 83.9935 10.9155C83.8694 10.8697 83.7211 10.9093 83.5948 10.8689C83.4685 10.8286 83.3891 10.6378 83.2608 10.601C83.1324 10.5642 83.0673 10.3003 82.9388 10.2653C82.8103 10.2304 82.6192 10.4392 82.4907 10.4042C82.3622 10.3692 82.2647 10.2291 82.1364 10.1922C82.008 10.1554 81.9358 9.96701 81.8086 9.91362C81.6814 9.86023 81.3926 10.1899 81.2639 10.1327C81.1351 10.0755 81.0295 9.99957 80.8984 9.9496C80.7674 9.89964 80.669 9.82421 80.5294 9.79216C80.3987 9.7626 80.2254 9.79487 80.0822 9.7885C79.8942 9.71972 80.0155 9.41712 79.8344 9.32845C79.6533 9.23978 79.5619 9.45372 79.3745 9.37757C79.2012 9.30613 79.3205 8.95523 79.1408 8.89815C78.9611 8.84106 78.9611 8.84106 78.7832 8.78411C78.6054 8.72715 78.5777 8.81039 78.398 8.75331C78.2183 8.69622 78.1644 8.86838 77.9865 8.81143C77.8086 8.75447 77.8722 8.54782 77.6926 8.49073C77.5129 8.43365 77.4732 8.55864 77.2953 8.50168C77.1174 8.44472 77.0616 8.61673 76.882 8.55965C76.7664 8.52189 76.6178 8.61701 76.4836 8.58535C76.3638 8.55655 76.3452 8.04595 76.2126 8.01626C76.0891 7.98905 75.8965 8.26995 75.7675 8.24236C75.6385 8.21477 75.4876 8.31713 75.3587 8.28769C75.2298 8.25826 75.1408 8.07607 75.014 8.04307C74.8871 8.01008 74.7451 8.03896 74.6203 8.00241C74.4956 7.96586 74.3443 7.99597 74.2199 7.95389C74.0956 7.9118 73.9376 7.93403 73.8175 7.88299C73.6974 7.83195 73.61 7.67764 73.4923 7.61935C73.3745 7.56107 73.3575 7.31171 73.2459 7.24275C73.1344 7.17379 72.9929 7.19347 72.8857 7.11555C72.7633 7.19954 72.6351 7.18683 72.5072 7.16858C72.3794 7.15033 72.3528 6.85585 72.2327 6.8048C72.0916 6.74302 71.8608 6.89531 71.7571 6.89542C71.6171 6.89484 71.4998 6.7514 71.3629 6.73251C71.226 6.71362 71.1142 6.64835 70.9802 6.61485C70.8461 6.58134 70.7151 6.58139 70.5816 6.54052C70.4481 6.49964 70.2878 6.55504 70.1581 6.51073C70.0284 6.46643 69.816 6.64224 69.6865 6.5961C69.5569 6.54995 69.4832 6.33177 69.3534 6.28931C69.2236 6.24685 69.1318 6.02557 68.9978 5.99206C68.8101 5.94553 68.7102 6.35706 68.5226 6.30868C68.335 6.2603 68.3705 6.11833 68.1847 6.07008C67.9989 6.02182 68.0143 5.95809 67.8268 5.90971C67.6392 5.86133 67.6515 5.8159 67.4638 5.76936C67.2761 5.72282 67.263 5.77931 67.0753 5.73277C66.8876 5.68623 66.8494 5.84099 66.6618 5.79261C66.4743 5.74423 66.4662 5.7807 66.2785 5.73416C66.0908 5.68762 66.1644 5.39093 65.9767 5.34439C65.789 5.29785 65.7484 5.46168 65.5625 5.41527C65.3766 5.36886 65.4329 5.13762 65.2453 5.08924C65.0577 5.04086 65.0704 4.98989 64.8827 4.94335C64.695 4.89682 64.7079 4.84216 64.5222 4.79391C64.3364 4.74565 64.2076 5.25886 64.02 5.21048C63.8324 5.16211 63.9645 4.62875 63.7769 4.58037C63.6411 4.54674 63.4652 4.66771 63.3292 4.63592C63.1932 4.60414 63.0652 4.53588 62.9273 4.50581C62.7894 4.47574 62.6201 4.60645 62.4841 4.57466C62.3481 4.54287 62.1546 4.73482 62.0188 4.69935C61.8831 4.66388 61.7974 4.43376 61.664 4.39104C61.5306 4.34832 61.338 4.44959 61.2088 4.39791C61.0797 4.34623 61.0431 4.06403 60.9184 4.00155C60.7936 3.93907 60.6828 3.6794 60.5645 3.60255C60.443 3.64957 60.3014 4.13594 60.1736 4.14361C60.0457 4.15129 59.8927 3.99978 59.7648 3.98153C59.637 3.96328 59.5298 3.80574 59.4081 3.77865C59.2755 3.74896 59.1161 3.86924 58.9998 3.84254C58.8637 3.8126 58.7417 3.81327 58.6081 3.80016C58.4744 3.78706 58.3503 3.61165 58.2161 3.60591C58.0819 3.60018 57.9291 3.83391 57.7915 3.82424C57.654 3.81456 57.5848 3.32446 57.4483 3.30004C57.3117 3.27563 57.0757 3.70907 56.9426 3.66266C56.82 3.62071 56.791 3.30938 56.6647 3.24309C56.5736 3.19408 56.4737 2.95927 56.3306 2.92513C56.2142 2.89842 56.0116 3.29716 55.8798 3.28234C55.7481 3.26752 55.637 2.90783 55.5113 2.9101C55.3765 2.91358 55.2335 3.03318 55.1191 3.05662C54.9752 3.08539 54.6416 3.06934 54.5586 3.13759C54.5084 3.28222 54.7772 3.52149 54.8293 3.60849C54.8865 3.69956 54.9546 3.7914 55.079 3.83348C55.1838 3.86863 55.2864 4.09067 55.4039 4.10078C55.5215 4.1109 55.7039 3.81817 55.8058 3.81792C55.9898 3.89198 56.068 3.76229 56.2433 3.8561C56.4186 3.94992 56.3636 4.05902 56.539 4.15099C56.7144 4.24297 56.691 4.29133 56.8663 4.38514C57.0416 4.47896 57.0777 4.32778 57.2659 4.39288C57.4213 4.38158 57.4435 4.73871 57.5576 4.77081C57.7003 4.81048 57.8786 4.73228 57.9824 4.8081C58.0949 4.89009 58.1097 5.09299 58.2072 5.18133C58.3116 5.27387 58.3923 5.47214 58.5178 5.52357C58.6433 5.57499 58.7492 5.67319 58.8641 5.72016C58.9896 5.77159 59.1898 5.61529 59.3096 5.67002C59.4294 5.72475 59.5738 5.71452 59.6965 5.78056C59.8034 5.83808 59.7761 6.14914 59.8999 6.22452C60.0064 6.28757 60.2856 6.01645 60.4058 6.06565C60.526 6.11485 60.5953 6.26787 60.7161 6.3097C60.8368 6.35152 60.8574 6.653 60.9779 6.69851C61.0984 6.74402 61.2429 6.68012 61.3554 6.73618C61.4679 6.79224 61.6756 6.68276 61.7794 6.75859C61.8832 6.83441 61.912 6.99385 61.9979 7.09249C62.0788 7.18337 62.1546 7.3202 62.2208 7.43968C62.3509 7.40067 62.4786 7.10964 62.5996 7.09592C62.7333 7.0831 62.8618 7.4292 62.9842 7.44707C63.1137 7.46729 63.2056 7.4793 63.3181 7.53536C63.4306 7.59143 63.4772 7.67805 63.5726 7.76995C63.6612 7.85582 63.8309 7.8733 63.9028 7.98947C64.0351 7.99508 64.1801 8.00342 64.3062 8.0197C64.4324 8.03598 64.5794 7.9889 64.7027 8.0198C64.8261 8.0507 65.0234 7.90902 65.144 7.95269C65.2646 7.99636 65.4116 8.05299 65.5275 8.11115C65.6435 8.16931 65.6591 8.43896 65.7705 8.50976C65.8819 8.58056 66.0738 8.54219 66.1772 8.62355C66.2806 8.7049 66.1325 9.07783 66.2297 9.16986C66.3338 9.26793 66.6342 9.10758 66.744 9.17641C66.8607 9.24944 66.9614 9.31762 67.0832 9.37064C67.205 9.42365 67.2505 9.70651 67.3767 9.74872C67.5029 9.79093 67.7725 9.42283 67.8984 9.46873C68.0243 9.51462 68.0301 9.87245 68.1512 9.93467C68.2602 9.98864 68.534 9.76714 68.6383 9.8356C68.7427 9.90405 68.7385 10.1445 68.8412 10.2091C68.944 10.2738 68.949 10.539 69.0562 10.5928C69.1633 10.6467 69.3705 10.4686 69.4886 10.4954C69.6068 10.5223 69.7144 10.6206 69.8413 10.6017C69.9534 10.5855 70.0915 10.3545 70.2139 10.2946C70.3075 10.3863 70.2692 10.8022 70.3843 10.8973C70.4874 10.9842 70.8081 10.7938 70.9239 10.8797C71.0398 10.9657 70.962 11.3213 71.0802 11.4C71.1983 11.4787 71.3259 11.5525 71.4447 11.622C71.5635 11.6914 71.7403 11.6853 71.8597 11.7474C71.9896 11.814 72.1613 11.7779 72.285 11.8292C72.4246 11.8872 72.5466 11.9624 72.668 11.9951C72.8251 12.0376 72.9848 12.3007 73.0982 12.292C73.2427 12.2799 73.3323 12.1177 73.4484 12.1481C73.5806 12.1833 73.584 12.3669 73.6881 12.439C73.7973 12.5153 74.0916 12.3396 74.1814 12.433C74.2764 12.5304 74.4598 12.5341 74.5465 12.6217C74.6466 12.7231 74.517 13.1437 74.6283 13.1904C74.7502 13.2416 74.9649 13.0344 75.0858 13.0726C75.2069 13.1107 75.3498 13.0689 75.4732 13.0998C75.5965 13.1307 75.7048 13.2457 75.828 13.2785C75.9512 13.3112 76.1374 13.1724 76.2602 13.2107C76.383 13.249 76.4413 13.5068 76.5593 13.5614C76.6773 13.616 76.8031 13.6637 76.9123 13.7399C77.0147 13.8101 77.1309 13.8905 77.2279 13.9862C77.3146 14.072 77.3228 14.2651 77.4059 14.3766C77.5885 14.4968 77.5936 14.5009 77.7868 14.5997C77.9799 14.6984 77.9649 14.7307 78.1579 14.8313C78.3509 14.9319 78.3952 14.8443 78.5882 14.9449C78.7812 15.0455 78.786 15.0292 78.9584 15.1636C79.1309 15.2979 78.9738 15.4369 79.1171 15.597C79.2605 15.7571 79.5136 15.5193 79.6588 15.6795C79.8039 15.8397 79.8972 15.8074 80.0096 15.9931C80.1023 16.1496 79.9403 16.2549 79.9953 16.4292C80.0504 16.6034 80.2664 16.5316 80.3214 16.7058C80.3765 16.8801 80.0133 17.0009 80.0683 17.1751C80.1234 17.3494 80.105 17.274 80.0795 17.4556C80.0472 17.6829 80.3777 17.7932 80.269 17.9948C80.1602 18.1965 79.9781 18.0966 79.8693 18.2982C79.7605 18.4999 79.7987 18.5266 79.6297 18.6795C79.4592 18.6213 79.3373 18.6738 79.2049 18.6941C79.0505 18.7166 78.9287 18.7673 78.8024 18.8566C78.6761 18.9458 78.4558 18.7933 78.3392 18.8999C78.2213 18.8953 78.133 19.3225 77.9842 19.2917C77.8551 19.2659 77.7491 19.1955 77.6099 19.1838C77.4706 19.1722 77.3114 19.2388 77.1762 19.2719C76.9605 19.2363 76.9709 19.0889 76.7625 19.0261C76.5541 18.9633 76.5351 19.0268 76.3265 18.9658C76.118 18.9049 76.1206 18.8939 75.9104 18.831C75.7002 18.768 75.7592 18.5759 75.5425 18.5532C75.3657 18.5334 75.3607 18.4756 75.1826 18.4983C75.0046 18.521 74.9856 18.3511 74.8077 18.3719C74.6299 18.3928 74.6601 18.6616 74.4822 18.6824C74.3502 18.6972 74.2244 18.6754 74.1122 18.6675C73.9819 18.6583 73.8271 18.7641 73.7147 18.7321C73.5935 18.6977 73.5901 18.3585 73.481 18.3064C73.3719 18.2543 73.1421 18.4437 73.0353 18.3843C72.9285 18.325 72.774 18.3752 72.6652 18.3194C72.5564 18.2636 72.5241 18.0761 72.4049 18.0381C72.3017 18.0049 72.165 17.7249 72.0289 17.7468C71.9168 17.763 71.7848 17.8038 71.6592 17.8301C71.5411 17.8551 71.4795 18.2657 71.3586 18.2775C71.2377 18.2894 71.0595 18.3398 70.9409 18.3204C70.8222 18.3009 70.8666 17.8503 70.7588 17.7797C70.6668 17.7177 70.2773 17.9533 70.1999 17.8386C70.1107 17.7101 70.1756 17.3572 70.0344 17.3473C69.9023 17.338 69.7434 17.5287 69.6037 17.5485C69.4531 17.5694 69.2717 17.7437 69.1537 17.715C68.9516 17.6656 69.0164 17.3905 68.8145 17.3393C68.6126 17.288 68.5771 17.43 68.3751 17.3806C68.173 17.3312 68.1144 17.5697 67.9107 17.5183C67.707 17.467 67.7997 17.079 67.5978 17.0278C67.3959 16.9765 67.3761 17.0511 67.1742 16.9998C66.9722 16.9486 66.9628 16.9794 66.7589 16.9299C66.555 16.8804 66.5188 17.0334 66.315 16.9838C66.1737 16.9498 66.0624 16.8253 65.9293 16.803C65.7873 16.7801 65.6568 16.7209 65.5216 16.704C65.3864 16.6871 65.2866 16.4504 65.1483 16.4259C65.01 16.4013 64.7719 16.8124 64.6349 16.7694C64.5086 16.729 64.5088 16.2086 64.3751 16.1437C64.1963 16.0996 64.1658 16.1456 63.9824 16.1161C63.7989 16.0865 63.7679 16.2954 63.5844 16.2659C63.401 16.2363 63.4009 16.2381 63.2192 16.2087C63.0376 16.1792 63.0285 16.2305 62.8451 16.2009C62.6617 16.1713 62.6246 16.4132 62.4412 16.3836C62.3171 16.3638 62.177 16.2873 62.0483 16.2541C61.9197 16.221 61.9342 15.7053 61.8095 15.6669C61.6849 15.6285 61.5377 15.6793 61.415 15.6392C61.2923 15.5991 61.1016 15.7505 60.9825 15.7106C60.8545 15.6683 60.7784 15.4574 60.6608 15.4232C60.5271 15.3841 60.3682 15.4452 60.2512 15.4277C60.1037 15.4044 59.9251 15.2547 59.8179 15.2787C59.6996 15.3056 59.5941 15.7463 59.475 15.7324C59.3559 15.7184 59.3497 15.2643 59.2389 15.2102C59.1281 15.1561 59.1333 15.0824 59.0468 14.993C58.9653 14.9113 58.7738 14.9182 58.7164 14.803L58.7258 14.7981Z" fill="#8AD49C"/>
</svg>
