<svg width="139" height="45" viewBox="0 0 139 45" fill="none" xmlns="http://www.w3.org/2000/svg">
<path d="M57.2017 8.16847C57.405 8.21373 57.6182 8.47383 57.8214 8.48849C58.0246 8.50315 58.2547 8.27248 58.4603 8.26878C58.6782 8.26513 58.8702 8.14939 59.0703 8.13405C59.2946 8.11634 59.5175 8.8159 59.7117 8.80176C59.9577 8.78472 60.2466 8.10316 60.4143 8.12506C60.6604 8.15392 60.3549 8.57349 60.3511 8.78095C60.349 8.90641 60.4937 8.99679 60.376 9.21983C60.3049 9.35427 60.5677 9.88748 60.3532 10.0282C60.1657 10.1507 59.6447 10.2086 59.4085 10.1981C59.1851 10.1901 59.0211 10.0807 58.8082 10.1089C58.5953 10.137 58.4237 10.3073 58.2118 10.3556C57.9999 10.404 57.6953 10.0732 57.4824 10.1167C57.2695 10.1602 57.0766 10.6333 56.8607 10.6468C56.6083 10.6626 56.3707 10.3283 56.1246 10.3148C55.8785 10.3012 55.648 10.213 55.3946 10.2086C55.1594 10.2031 54.8776 9.93909 54.6159 9.96955C54.396 9.99402 54.2141 10.5057 53.9972 10.5296C53.7803 10.5535 53.5623 10.6924 53.3449 10.7138C53.1275 10.7352 52.8954 10.5785 52.6775 10.5974C52.4596 10.6164 52.2198 10.1959 52.0019 10.2148C51.784 10.2338 51.5861 10.8483 51.3687 10.8697C51.1514 10.8911 50.9184 10.6401 50.701 10.6615C50.4837 10.6829 50.266 10.7631 50.0486 10.7845C49.8312 10.8059 49.6011 10.6743 49.3842 10.6981C49.1673 10.722 48.969 11.0176 48.7496 11.0446C48.5303 11.0715 48.288 10.8198 48.0692 10.8492C47.8503 10.8786 47.6638 11.1718 47.446 11.2061C47.2282 11.2403 47.0383 11.4117 46.8215 11.4509C46.5273 11.5033 46.5052 11.3649 46.2075 11.4155C45.9099 11.466 45.8963 11.3693 45.6021 11.4217C45.3079 11.4741 45.3516 11.7637 45.0569 11.8137C44.7622 11.8636 44.707 11.5177 44.4093 11.5682C44.192 11.6049 43.9355 11.3741 43.7211 11.4102C43.5067 11.4463 43.3036 11.6128 43.0857 11.6471C42.8679 11.6813 42.6351 11.6421 42.4177 11.6788C42.2004 11.7155 41.9591 11.6652 41.7428 11.7068C41.5265 11.7484 41.3248 11.9223 41.1105 11.9737C40.8962 12.0251 40.7601 12.3693 40.5472 12.428C40.3344 12.4868 40.0793 12.4138 39.869 12.4848C39.6586 12.5558 39.5228 12.8107 39.3188 12.8676C39.1149 12.9246 38.8139 12.6722 38.605 12.7199C38.396 12.7677 38.2511 13.1136 38.0372 13.1522C37.8233 13.1907 37.5888 13.0677 37.3729 13.0964C37.157 13.1252 36.9442 13.0028 36.7268 13.0242C36.5094 13.0456 36.3437 13.3652 36.1248 13.3793C35.8169 13.4549 35.8173 13.4267 35.5129 13.5195C35.2084 13.6123 35.272 13.7881 34.971 13.8827C34.6701 13.9773 34.601 13.7898 34.297 13.8851C33.9931 13.9803 34.0498 14.1371 33.7488 14.2317C33.4478 14.3263 33.4513 14.5093 33.1408 14.5727C32.8883 14.5579 32.5619 14.03 32.3599 14.0662C32.1223 14.1095 32.0462 14.5512 31.8477 14.6351C31.6493 14.719 31.2116 14.4154 31.0067 14.5133C30.8127 14.604 30.676 14.7186 30.4494 14.7853C30.2228 14.852 30.1993 15.4462 29.9845 15.5104C29.7697 15.5747 29.4759 15.4178 29.2616 15.4845C29.0473 15.5512 28.7516 15.3998 28.5373 15.4665C28.323 15.5332 28.0566 15.4651 27.8423 15.5318C27.628 15.5985 27.5021 15.9023 27.2889 15.9739C27.0756 16.0456 26.9531 16.3359 26.7403 16.41C26.5276 16.484 26.3425 16.6034 26.1302 16.6799C25.9179 16.7564 25.4416 16.2336 25.2304 16.3151C25.0191 16.3965 24.8608 16.5869 24.6501 16.6708C24.459 16.7455 24.3067 16.9348 24.1023 17.0199C23.9063 17.1008 23.9344 17.6308 23.7325 17.7129C23.5306 17.7949 23.1625 17.546 22.9631 17.625C22.7636 17.704 22.6193 17.9325 22.4213 18.0035C22.2061 18.0806 22.0187 18.249 21.8241 18.3066C21.5743 18.3805 21.3134 18.3394 21.1016 18.403C20.8553 18.4788 20.5233 18.271 20.3135 18.3445C20.0835 18.4246 19.9605 18.7125 19.7498 18.8116C19.5391 18.9108 19.4282 19.1069 19.2141 19.2348C19.03 19.3439 18.5358 19.1258 18.3282 19.2702C18.1933 19.3641 18.3422 19.8823 18.1197 19.9992C17.9533 20.0893 17.4394 19.6992 17.2321 19.8002C17.0529 19.8878 16.9238 20.0698 16.7219 20.1671C16.5397 20.2554 16.4779 20.5563 16.279 20.653C16.0939 20.7418 15.8712 20.7822 15.6752 20.8784C15.4792 20.9745 15.1341 20.8076 14.9411 20.9032C14.7481 20.9987 14.5566 21.0863 14.3641 21.1843C14.1715 21.2822 14.1765 21.6538 13.988 21.756C13.7995 21.8583 13.8113 22.2182 13.6292 22.3217C13.3338 22.4892 12.9993 22.0421 12.701 22.2101C12.4026 22.3782 12.7031 22.7787 12.4077 22.9461C12.1124 23.1136 11.9188 22.8597 11.6235 23.0271C11.3281 23.1946 11.2416 23.1025 10.9552 23.2835C10.6904 23.4498 10.8892 23.6695 10.6368 23.8511C10.3844 24.0328 10.3067 23.9542 10.0568 24.1328C9.8068 24.3114 10.018 24.5311 9.76504 24.7103C9.51212 24.8895 9.31779 24.6919 9.06192 24.8717C8.80604 25.0515 8.62258 24.8619 8.37016 25.0436C8.11775 25.2252 8.46388 25.5781 8.21147 25.7598C7.95905 25.9414 7.98229 25.9647 7.72987 26.1464C7.47745 26.3281 7.14318 25.9881 6.89076 26.1697C6.72691 26.2874 6.74307 26.5928 6.58035 26.7612C6.44073 26.9071 6.48187 27.1539 6.34184 27.3279C6.21706 27.4861 5.89083 27.5475 5.76659 27.7234C5.64972 27.8902 5.31221 27.9718 5.2008 28.1502C5.08938 28.3286 5.46758 28.6877 5.35913 28.8655C5.25067 29.0433 4.90775 29.1286 4.8052 29.3052C4.70266 29.4818 4.35336 29.5811 4.25673 29.7565C4.1601 29.9319 4.09658 30.1337 3.99995 30.309C3.89644 30.496 3.68779 30.6356 3.59361 30.8079C3.49944 30.9802 3.85077 31.2529 3.81131 31.4217C3.76744 31.5991 3.49328 31.7648 3.50068 31.9368C3.50807 32.1088 4.01512 32.1788 4.06195 32.3478C4.10878 32.5169 3.42796 32.8931 3.49498 33.0555C3.56201 33.2179 4.11961 33.2036 4.1945 33.3592C4.26939 33.5149 4.29998 33.6949 4.37537 33.853C4.45077 34.0112 4.3257 34.2434 4.38877 34.4014C4.45383 34.5693 4.34518 34.8518 4.37868 35.0159C4.52882 35.1026 4.92235 35.1294 5.10946 35.2163C5.27979 35.2963 5.42164 35.4179 5.59397 35.5077C5.7663 35.5976 6.02115 35.5787 6.16446 35.6924C6.30777 35.806 6.04533 36.1045 6.12909 36.2584C6.22722 36.4374 6.54236 36.6384 6.68458 36.7165C6.851 36.8076 7.37501 36.2516 7.56445 36.2894C7.75389 36.3273 7.6855 36.8975 7.85828 36.9745C8.0449 37.0589 8.36508 36.9527 8.55119 37.0346C8.7373 37.1166 8.866 37.2944 9.05703 37.3703C9.24805 37.4461 9.62706 37.2207 9.82055 37.2935C10.014 37.3663 10.1874 37.461 10.3828 37.5283C10.5782 37.5955 10.8276 37.5498 11.025 37.6115C11.2224 37.6733 11.2982 37.9691 11.501 38.0272C11.7038 38.0853 11.9168 38.1031 12.1241 38.1526C12.3313 38.2022 12.4895 38.3587 12.6982 38.4003C12.9069 38.4419 13.0711 38.6278 13.2817 38.6639C13.4923 38.7 13.7196 38.697 13.9371 38.7215C14.1546 38.746 14.4192 38.669 14.6526 38.7413C14.8697 38.8092 15.1262 38.8283 15.3399 38.9097C15.5536 38.9911 15.7758 39.0836 15.9791 39.1594C16.222 39.2477 16.5065 39.0875 16.7038 39.1187C17.0155 39.1673 16.9823 39.2761 17.2965 39.3217C17.6107 39.3673 17.5843 39.4492 17.8985 39.4948C18.2127 39.5404 18.2308 39.478 18.542 39.5242C18.8533 39.5704 18.9119 39.3747 19.2266 39.4227C19.5413 39.4708 19.342 40.1238 19.6567 40.1719C19.9714 40.2199 20.1355 39.6659 20.4497 39.7114C20.682 39.7482 20.8064 40.1311 21.0189 40.1464C21.2507 40.1654 21.4868 40.13 21.7072 40.1386C21.9276 40.1472 22.1845 39.9722 22.4118 39.9845C22.6392 39.9968 22.7865 40.3265 23.0164 40.351C23.2275 40.3743 23.4072 40.455 23.638 40.4997C23.8403 40.54 24.0891 40.4765 24.2943 40.501C24.4995 40.5254 24.6839 40.7199 24.8901 40.734C25.0962 40.7481 25.3965 40.2275 25.6041 40.2336C25.8116 40.2397 26.02 40.1589 26.23 40.1619C26.4401 40.165 26.6417 40.1417 26.8537 40.1393C27.0657 40.1368 27.2692 40.108 27.4812 40.1056C27.6932 40.1031 27.8614 40.625 28.0739 40.625C28.2864 40.625 28.5091 40.4035 28.7191 40.4065C28.9292 40.4096 29.1479 40.3343 29.3589 40.3423C29.57 40.3502 29.8091 40.1789 30.0212 40.1918C30.3363 40.2117 30.266 40.6215 30.5811 40.6414C30.8962 40.6613 30.8972 40.6662 31.2128 40.6885C31.5284 40.7108 31.5051 40.8381 31.8232 40.8573C32.1413 40.8766 32.2368 40.3187 32.5549 40.338C32.873 40.3573 32.8099 40.7121 33.125 40.7319C33.4401 40.7518 33.4426 40.7794 33.7651 40.7748C33.976 40.7215 34.2121 40.8978 34.4103 40.8727C34.6232 40.8445 34.8415 40.2693 35.0426 40.2741C35.2438 40.279 35.4697 40.4651 35.6665 40.5091C35.8634 40.5531 35.9091 40.8678 36.0923 40.9504C36.2621 41.028 36.553 40.6879 36.7121 40.8034C36.9312 40.7 37.0463 40.7505 37.2502 40.6936C37.4833 40.6281 37.7485 40.4643 37.963 40.4435C38.1986 40.4209 38.4734 40.4847 38.6908 40.4939C38.9211 40.5056 39.0469 41.0464 39.2634 41.066C39.4928 41.088 39.8024 40.5528 40.0213 40.554C40.2402 40.5553 40.3892 40.6065 40.6154 40.5527C40.8209 40.5031 41.0816 40.6336 41.2932 40.5087C41.5143 40.5657 41.8383 40.2673 42.0549 40.3022C42.2714 40.3371 42.4035 40.6674 42.6284 40.6827C42.8533 40.698 43.1 40.4282 43.3278 40.4277C43.5556 40.4271 43.762 40.7141 43.9897 40.6982C44.2175 40.6824 44.4243 40.4283 44.6555 40.399C44.8867 40.3697 45.167 40.8228 45.3967 40.7861C45.6263 40.7494 45.7986 40.6428 46.0273 40.6013C46.2433 40.649 46.4651 40.272 46.6943 40.2482C46.9023 40.2262 47.1128 40.5481 47.351 40.553C47.667 40.5625 47.6989 40.3264 48.0145 40.3334C48.33 40.3404 48.3315 40.3478 48.6476 40.3572C48.9637 40.3667 48.9189 40.7356 49.2345 40.7426C49.55 40.7497 49.6354 40.0816 49.9544 40.0905C50.2735 40.0993 50.2218 40.4799 50.5422 40.4655C50.8844 40.4518 50.8988 40.6581 51.2423 40.6211C51.5859 40.5842 51.5513 40.0375 51.8919 40.0012C52.0969 39.9797 52.3319 40.437 52.5671 40.4425C52.8023 40.4481 53.0386 40.3233 53.2541 40.3227C53.51 40.3241 53.6221 40.0435 53.8009 39.984C54.0166 39.9093 54.3284 40.1238 54.5176 40.1005C54.7311 40.0748 54.9756 39.8846 55.1728 39.9004C55.3701 39.9163 55.4944 40.2992 55.6967 40.3242C55.8989 40.3493 56.0891 40.4814 56.3031 40.4887C56.5171 40.4961 56.7715 40.3242 56.9878 40.2826C57.1889 40.2416 57.3937 40.1436 57.6031 40.083C57.8125 40.0224 57.8763 39.5655 58.0827 39.5055C58.2891 39.4455 58.5725 39.5815 58.7794 39.5393C58.9864 39.497 59.2227 39.7193 59.4337 39.7119C59.6447 39.7046 59.8673 39.4371 60.076 39.4787C60.4241 39.4791 60.4098 39.4693 60.7568 39.4495C61.1039 39.4297 61.1067 39.7455 61.4538 39.7257C61.8008 39.7058 61.8038 39.3429 62.1538 39.3225C62.5038 39.3021 62.4796 39.6515 62.8248 39.6678C63.0425 39.7535 63.0994 40.0021 63.2681 40.0442C63.4951 40.0999 63.8648 39.3917 64.0581 39.388C64.2514 39.3842 64.4057 39.567 64.6368 39.5224C64.8172 39.4856 64.9922 39.3019 65.2322 39.2555C65.4451 39.212 65.7414 39.5776 65.9666 39.5342C66.1918 39.4908 66.3572 39.2146 66.5789 39.1693C66.8007 39.1241 67.0867 39.4689 67.3064 39.4291C67.5262 39.3893 67.6788 38.9448 67.8991 38.9075C68.1194 38.8702 68.3223 38.6272 68.5436 38.5948C68.7649 38.5624 69.0462 39.1709 69.2665 39.1489C69.4868 39.1269 69.6978 38.7572 69.9137 38.7438C70.1602 38.7292 70.4488 38.4534 70.6648 38.4705C70.8991 38.4865 71.0463 38.9361 71.2716 38.9386C71.497 38.9411 71.7225 38.8389 71.9634 38.7821C72.163 38.7337 72.2441 38.4671 72.4755 38.3484C72.6788 38.2431 73.0532 38.4933 73.2809 38.4468C73.5086 38.4003 73.6928 38.5337 73.928 38.524C74.1632 38.5142 74.3713 38.3722 74.6011 38.3815C74.8309 38.3907 75.0281 38.5571 75.2525 38.57C75.4768 38.5829 75.7705 38.1657 75.9919 38.1639C76.2285 38.1615 76.4253 38.1596 76.6421 38.1205C76.957 38.0638 76.9324 37.9132 77.2473 37.8566C77.5622 37.8 77.6033 38.0314 77.9182 37.9748C78.2331 37.9182 78.2255 37.8661 78.5399 37.8071C78.8543 37.748 78.8212 37.5557 79.1386 37.496C79.4559 37.4364 79.5322 37.8852 79.8471 37.8286C80.162 37.7719 80.1589 37.7419 80.4738 37.6853C80.7887 37.6287 80.7822 37.5815 81.0966 37.5225C81.411 37.4634 81.4531 37.6997 81.7704 37.6401C82.0878 37.5804 82.0738 37.5118 82.3911 37.4521C82.7085 37.3924 82.716 37.4445 83.0339 37.3873C83.3517 37.33 83.2728 36.7771 83.5902 36.7328C83.8002 36.7358 84.027 36.8962 84.2246 36.8839C84.4341 36.8692 84.6127 36.718 84.8098 36.6879C85.007 36.6579 85.273 36.9353 85.4706 36.8924C85.6682 36.8495 85.8527 36.7123 86.0513 36.659C86.2498 36.6058 86.4001 36.3914 86.5986 36.3381C86.7972 36.2848 86.9587 36.0656 87.1588 36.0196C87.3588 35.9737 87.6624 36.4348 87.8674 36.398C88.1946 36.3414 88.2077 36.4357 88.5349 36.3791C88.8622 36.3225 88.7558 35.6656 89.08 35.6096C89.4043 35.5536 89.467 35.9363 89.7942 35.8797C90.1215 35.8231 90.117 35.801 90.4412 35.7451C90.7655 35.6891 90.8111 35.9579 91.1354 35.9019C91.4597 35.8459 91.4064 35.4944 91.7307 35.4385C92.0549 35.3825 92.0509 35.3476 92.3781 35.291C92.7053 35.2344 92.7033 35.2246 93.0306 35.168C93.3578 35.1114 93.3277 34.9339 93.6549 34.8773C93.9822 34.8207 94.0144 35.2198 94.3408 35.2195C94.5967 35.2209 94.7369 34.7916 94.9767 34.8498C95.2165 34.9081 95.0024 35.0207 95.2542 34.9718C95.506 34.923 95.6065 35.2342 95.8107 35.0879C96.0149 34.9416 96.0302 34.9563 96.2373 34.8094C96.3879 34.7021 96.3451 34.2056 96.5736 34.1182C96.7677 34.0428 97.1303 34.3107 97.353 34.2551C97.5757 34.1994 97.7893 34.2502 98.0077 34.2184C98.226 34.1866 98.4608 33.7074 98.6664 33.7037C98.9114 33.6971 99.1821 33.8766 99.3603 33.9193C99.6252 33.98 99.7858 33.9218 99.9524 33.9235C100.209 33.9297 100.281 33.9966 100.479 33.9103C100.64 33.8391 100.822 33.7307 101.076 33.6354C101.274 33.5619 101.556 33.6753 101.758 33.6085C101.96 33.5418 102.264 33.7832 102.471 33.7232C102.677 33.6632 102.728 33.1425 102.933 33.088C103.137 33.0335 103.311 32.8321 103.516 32.78C103.721 32.728 104.018 33.0067 104.224 32.9595C104.43 32.9124 104.671 33.0037 104.878 32.9614C105.085 32.9192 105.255 32.6651 105.463 32.6277C105.67 32.5904 105.859 32.3834 106.067 32.3461C106.374 32.2937 106.676 32.5229 106.849 32.434C107.038 32.3366 107.013 31.8341 107.289 31.7394C107.606 31.6314 107.837 32.1914 108.154 32.081C108.47 31.9705 108.336 31.6457 108.652 31.5352C108.968 31.4248 109.09 31.7213 109.407 31.6133C109.724 31.5053 109.589 31.1781 109.905 31.0676C110.222 30.9571 110.345 31.261 110.661 31.1505C110.978 31.0401 110.831 30.6847 111.148 30.5766C111.465 30.4686 111.557 30.6923 111.873 30.5842C112.19 30.4762 112.032 30.0951 112.348 29.9846C112.665 29.8741 112.822 30.2552 113.139 30.1472C113.456 30.0392 113.42 29.9546 113.736 29.8442C114.053 29.7337 113.96 29.5051 114.276 29.3971C114.593 29.2891 114.579 29.2511 114.896 29.1406C115.212 29.0301 115.381 29.437 115.697 29.3265C115.902 29.2567 115.904 28.6924 116.113 28.619C116.323 28.5455 116.597 28.6479 116.804 28.5775C117.011 28.5071 117.367 28.8148 117.575 28.7468C117.782 28.6789 117.832 28.1814 118.037 28.1165C118.243 28.0516 118.558 28.268 118.767 28.2074C118.977 28.1468 119.099 27.7646 119.307 27.712C119.515 27.6593 119.96 28.0584 120.169 28.0131C120.295 27.8598 120.39 27.6337 120.53 27.5184C120.683 27.3928 120.602 26.9348 120.783 26.8569C120.964 26.7791 121.289 26.9808 121.499 26.9557C121.682 26.9336 121.824 26.7363 122.042 26.7504C122.175 26.6443 122.464 26.792 122.638 26.667C122.791 26.5567 123.017 26.5157 123.185 26.4024C123.353 26.289 123.22 25.8186 123.384 25.7212C123.571 25.6091 123.98 25.819 124.142 25.7374C124.436 25.5932 124.531 25.7397 124.824 25.5931C125.118 25.4464 124.977 25.2227 125.271 25.0784C125.565 24.9342 125.605 24.9974 125.902 24.8526C126.199 24.7078 126.097 24.5575 126.386 24.4041C126.695 24.2416 126.647 24.1852 126.95 24.0135C127.254 23.8418 127.378 24.0104 127.679 23.8393C127.979 23.6682 128.033 23.7363 128.334 23.5652C128.635 23.394 128.443 23.1346 128.747 22.9653C128.91 22.8734 129.067 22.7955 129.232 22.6828C129.385 22.5749 129.646 22.5701 129.797 22.45C129.948 22.3299 130.041 22.1679 130.183 22.0447C130.324 21.9215 130.489 21.8087 130.62 21.6824C130.865 21.4487 130.901 21.4745 131.149 21.2402C131.396 21.0059 131.689 21.2192 131.934 20.9855C132.179 20.7518 131.771 20.455 132.018 20.2182C132.167 20.0754 132.142 19.8459 132.278 19.6804C132.413 19.5149 133.195 19.6794 133.314 19.5071C133.433 19.3349 132.908 18.9215 133.004 18.7437C133.1 18.5658 133.034 18.3753 133.11 18.1913C133.187 18.0073 133.522 17.8981 133.576 17.711C133.63 17.5239 133.438 17.336 133.467 17.1489C133.497 16.9617 133.825 16.7876 133.824 16.6015C133.823 16.4155 134.026 16.1902 133.995 16.0077C133.964 15.8253 133.477 15.7792 133.408 15.6046C133.317 15.4495 133.156 15.3523 133.034 15.1782C132.926 15.0242 133.38 14.5512 133.258 14.3875C133.135 14.2237 132.426 14.4169 132.302 14.2611C132.178 14.1053 132.616 13.6151 132.493 13.4642C132.365 13.3041 132.4 13.0545 132.284 12.9048C132.196 12.7901 131.904 12.6302 131.72 12.5274C131.567 12.4413 130.995 12.7952 130.841 12.6889C130.687 12.5826 130.468 12.4284 130.374 12.2843C130.288 12.1512 130.578 11.7781 130.58 11.5915C130.357 11.4458 130.325 11.4114 130.056 11.3311C129.787 11.2507 129.527 11.7733 129.258 11.6929C128.989 11.6126 129.116 11.3571 128.847 11.2768C128.578 11.1965 128.566 11.1964 128.313 11.0898C128.153 10.9566 128.137 10.6817 127.985 10.5724C127.819 10.4507 127.771 10.1849 127.603 10.0865C127.435 9.98814 126.805 10.479 126.616 10.3977C126.427 10.3163 126.453 9.92839 126.242 9.86414C126.052 9.80607 125.854 9.74185 125.632 9.69531C125.308 9.57259 125.231 9.69049 124.916 9.55311C124.602 9.41573 124.744 9.20805 124.43 9.07067C124.115 8.93329 123.947 9.17945 123.632 9.04207C123.318 8.90468 123.507 8.61085 123.179 8.49423C122.997 8.48025 122.793 8.33829 122.558 8.30457C122.365 8.2777 122.143 8.31011 121.926 8.27032C121.727 8.23425 121.558 8.11565 121.346 8.0722C121.147 8.03123 120.892 8.12659 120.689 8.07888C120.485 8.03117 120.207 8.17726 120.005 8.1265C119.804 8.07573 119.701 7.79819 119.503 7.74682C119.305 7.69546 119.201 7.43078 119.005 7.37636C118.8 7.31885 118.426 7.63235 118.239 7.57612C118.029 7.51187 117.834 7.44705 117.655 7.38656C117.437 7.31127 117.305 7.14687 117.149 7.0791C116.94 6.99159 116.744 6.83007 116.518 6.77679C116.291 6.72351 115.921 6.97765 115.704 6.90726C115.486 6.83687 115.203 6.76446 115.022 6.63296C114.863 6.51745 114.76 6.54102 114.643 6.34545C114.475 6.4845 114.333 6.10771 114.172 6.17885C113.975 6.26764 113.869 6.52133 113.677 6.53241C113.486 6.54349 113.23 6.60334 113.037 6.56117C112.843 6.519 112.551 6.62465 112.369 6.56231C112.186 6.49998 112.247 5.99768 112.069 5.93964C111.881 5.87852 111.557 6.17931 111.373 6.15308C111.155 6.12369 111.058 5.65094 110.85 5.62709C110.642 5.60323 110.329 5.94261 110.116 5.92241C109.902 5.90222 109.655 6.00127 109.441 5.97862C109.227 5.95598 109.008 5.92658 108.793 5.89903C108.578 5.87149 108.494 5.39878 108.277 5.36389C108.061 5.32899 107.798 5.49226 107.586 5.44881C107.374 5.40536 107.245 5.1969 107.035 5.1455C106.749 5.07614 106.734 5.1073 106.452 5.03734C106.17 4.96737 106.214 4.85366 105.932 4.78369C105.65 4.71373 105.478 5.11104 105.193 5.03923C104.907 4.96742 104.831 5.15142 104.542 5.08021C104.253 5.009 104.405 4.6667 104.105 4.63096C103.893 4.67441 103.692 4.85561 103.472 4.87762C103.252 4.89964 103.032 4.65114 102.811 4.65785C102.591 4.66456 102.388 4.6652 102.167 4.65416C101.946 4.64312 101.701 4.81807 101.484 4.79358C101.266 4.76909 100.977 4.98124 100.767 4.94758C100.557 4.91393 100.493 4.41924 100.284 4.37764C100.075 4.33604 99.9716 4.0689 99.7668 4.01629C99.562 3.96368 99.2564 4.1562 99.056 4.09504C98.8557 4.03388 98.5391 4.18781 98.3437 4.12054C98.1482 4.05327 98.0045 3.95248 97.8169 3.87851C97.5922 3.93967 97.3156 3.58024 97.1027 3.62369C96.8751 3.67016 96.7485 4.25733 96.5302 4.28914C96.3 4.32337 96.0392 3.78466 95.8208 3.80117C95.5906 3.82009 95.3944 3.83973 95.1765 3.84339C94.9462 3.84701 94.7306 3.96757 94.5132 3.95838C94.2834 3.94915 93.9746 4.42808 93.7586 4.41094C93.5298 4.39131 93.3175 4.30196 93.103 4.27686C92.8761 4.25173 92.796 3.66336 92.5844 3.63766C92.3576 3.61253 92.1179 3.61551 91.9054 3.60021C91.6766 3.58059 91.4072 3.70956 91.1923 3.71261C90.8905 3.71297 90.882 3.82189 90.5807 3.8247C90.2795 3.82751 90.289 3.72348 89.9873 3.72384C89.6855 3.7242 89.6936 3.61284 89.3919 3.6132C89.0901 3.61356 89.072 3.82649 88.7702 3.82685C88.4685 3.8272 88.4777 3.75134 88.1749 3.7468C87.8411 3.74094 87.8141 3.97098 87.4793 3.96023C87.1445 3.94948 87.134 4.0486 86.7991 4.03784C86.4643 4.02709 86.5276 3.55235 86.1932 3.54404C85.8589 3.53574 85.7885 4.08084 85.4572 4.07194C85.1258 4.06303 85.1538 3.83789 84.8189 3.82714C84.4841 3.81638 84.4846 3.81883 84.1503 3.81053C83.816 3.80223 83.8035 3.90684 83.4692 3.89854C83.1349 3.89023 83.1623 3.66265 82.8305 3.65129C82.4986 3.63994 82.4789 3.81491 82.1441 3.81946C81.8094 3.82401 81.8085 3.5333 81.4644 3.55251C81.1203 3.57172 81.1144 4.1011 80.7703 4.12031C80.4263 4.13951 80.4282 3.7717 80.0841 3.79091C79.74 3.81012 79.7396 3.85357 79.3926 3.87338C79.0455 3.89319 79.0477 3.78304 78.7036 3.80225C78.3595 3.82146 78.3534 4.30493 78.0094 4.32414C77.6653 4.34335 77.6646 4.12915 77.3206 4.14835C76.9765 4.16756 76.9754 3.96621 76.6313 3.98542C76.3666 4.00118 76.208 3.72226 75.9722 3.68363C75.7241 3.64498 75.4243 3.79039 75.185 3.74992C74.9458 3.70945 74.6596 3.65049 74.4048 3.66935C74.0651 3.6953 74.0674 3.7969 73.7278 3.82285C73.3881 3.84881 73.3894 3.96081 73.0498 3.98677C72.7101 4.01272 72.7001 3.60142 72.3575 3.62798C72.0149 3.65453 72.0191 3.73533 71.6765 3.76189C71.4793 3.77662 71.3166 4.27678 71.1051 4.31229C70.8937 4.34779 70.6879 4.44084 70.4809 4.46779C70.2739 4.49473 70.0715 4.06146 69.8688 4.04925C69.6661 4.03704 69.5153 4.05251 69.3253 3.98159C69.1555 3.91929 68.9107 4.00243 68.7525 3.87652C68.5492 3.96651 68.412 4.10933 68.2111 4.18097C68.0101 4.25261 67.7422 4.19248 67.5343 4.24512C67.3264 4.29777 67.1317 4.49061 66.9207 4.52856C66.7098 4.56651 66.4849 4.71704 66.2685 4.74334C66.0522 4.76965 65.8148 4.70838 65.5989 4.72184C65.383 4.7353 65.1655 4.52965 64.9505 4.5327C64.7356 4.53576 64.4899 4.84106 64.2739 4.83922C64.058 4.83737 63.8631 4.622 63.6466 4.6177C63.4302 4.61341 63.2258 4.53265 63.0094 4.52835C62.7929 4.52406 62.5511 4.78776 62.3351 4.78591C62.1191 4.78407 61.9466 4.25541 61.7316 4.25847C61.5166 4.26152 61.3001 4.73949 61.096 4.75053C60.8919 4.76158 60.6832 4.53882 60.4806 4.55721C60.278 4.5756 60.0564 4.31976 59.8508 4.33875C59.6453 4.35775 59.4668 5.03718 59.2607 5.05372C59.0547 5.07027 58.8413 4.59841 58.6343 4.61005C58.4272 4.6217 58.198 5.14309 57.9919 5.14433C57.7858 5.14558 57.6339 4.62799 57.4283 4.61639C57.2227 4.60478 57.0168 4.68253 56.8121 4.66052C56.6858 4.64547 56.4705 5.05429 56.1748 5.08404C55.988 5.10431 55.7296 4.57785 55.4891 4.60654C55.291 4.63168 55.1086 5.0057 54.8804 5.03443C54.6764 5.06077 54.4411 4.87404 54.2159 4.90216C54.0089 4.92911 53.8114 5.16845 53.5891 5.19596C53.3668 5.22348 53.1617 5.24492 52.9419 5.26938C52.7221 5.29385 52.4922 4.89171 52.2743 4.91067C52.0564 4.92963 51.8609 5.37522 51.6421 5.38928C51.3325 5.41165 51.337 5.61485 51.0304 5.63662C50.7238 5.65838 50.7207 5.61308 50.4141 5.63485C50.1075 5.65661 50.1048 5.59846 49.7953 5.62083C49.4857 5.6432 49.4889 5.7191 49.1793 5.74147C48.8697 5.76384 48.8636 5.35683 48.5541 5.3792C48.351 5.39514 48.1451 5.29173 47.9356 5.30643C47.7261 5.32113 47.5259 5.48702 47.3188 5.49867C47.1118 5.51031 46.9031 5.63457 46.699 5.64561C46.4949 5.65665 46.2718 5.90633 46.0701 5.91432C45.8562 5.92227 45.6815 5.35321 45.4848 5.35509C45.2634 5.3569 45.0577 5.51116 44.8684 5.50388C44.6356 5.49526 44.3789 5.71607 44.2126 5.68621C43.929 5.6395 44.0871 5.4031 44.0596 5.28368C44.0068 5.06994 43.9179 5.02684 43.9978 4.87529C44.0841 4.70969 43.8817 4.26111 44.0998 4.1528C44.2736 4.06884 44.6061 4.11324 44.8465 4.05396C45.0431 4.00617 45.2918 4.06258 45.5278 4.02715C45.7338 3.9953 45.9484 3.85454 46.1801 3.82767C46.391 3.80502 46.6326 4.14354 46.8593 4.12277C47.0742 4.10441 47.285 3.83941 47.5088 3.81924C47.7326 3.79907 47.9331 3.55913 48.1564 3.53651C48.3796 3.5139 48.6148 3.83588 48.8341 3.80897C49.0534 3.78205 49.31 4.02821 49.5283 3.9964C49.7467 3.96459 49.9506 3.71118 50.1669 3.66958C50.3832 3.62797 50.6 3.55821 50.8015 3.50432C51.003 3.45043 51.2344 3.4976 51.4433 3.44985C51.6522 3.4021 51.8081 3.27587 52.0309 3.2508C52.2296 3.22811 52.4551 3.3071 52.6849 3.31633C53.0171 3.26893 52.9463 2.81645 53.2745 2.74946C53.6026 2.68247 53.7066 3.19196 54.0348 3.12497C54.363 3.05798 54.258 2.52828 54.5866 2.46374C54.9153 2.3992 54.9108 2.37715 55.2424 2.31201C55.5741 2.24686 55.6486 2.62713 55.9768 2.56014C56.2459 2.50522 56.4318 2.52595 56.6369 2.51981C56.8661 2.51129 57.0902 2.59822 57.3392 2.58057C57.5364 2.56584 57.7874 2.42274 58.0579 2.35987C58.2515 2.31268 58.3568 2.57187 58.637 2.61674C58.8599 2.65287 59.1796 2.01607 59.4379 1.98377C59.6572 1.95685 60.0103 2.32875 60.248 2.18071C60.3898 2.09054 60.5599 1.76237 60.8346 1.765C61.0535 1.76624 61.2643 2.0294 61.4842 2.03554C61.7569 2.04366 61.9566 1.89062 62.1088 1.82129C62.3235 1.72643 62.466 1.3988 62.6552 1.34487C62.8734 1.28246 63.1858 1.37945 63.3943 1.35985C63.6028 1.34025 63.7918 1.75329 64.0157 1.76372C64.2144 1.77163 64.4439 1.31145 64.6732 1.33353C65 1.30509 64.9915 1.4446 65.3168 1.39351C65.6421 1.34243 65.6517 1.43487 65.9775 1.38623C66.3032 1.33759 66.3537 1.73554 66.6794 1.6869C67.0052 1.63827 66.9306 1.06154 67.2564 1.0129C67.5821 0.964261 67.5625 0.807528 67.8853 0.759493C68.2081 0.711458 68.2433 0.974723 68.5691 0.926085C68.8949 0.877446 68.9188 0.617411 69.2462 0.606723C69.4303 0.678857 69.6397 0.980565 69.8257 1.0319C70.0221 1.08876 70.2238 0.945523 70.4231 0.955887C70.6223 0.966249 70.7325 1.05347 70.9389 0.993474C71.1222 0.940754 71.6054 1.28609 71.7889 1.15932C71.9725 1.03255 71.7876 0.353296 71.965 0.301783C72.1679 0.239941 72.4747 0.61109 72.6724 0.614106C72.8701 0.617121 72.9827 0.851844 73.1751 0.889117C73.3675 0.926388 73.7102 0.583422 73.8937 0.622506C74.1029 0.666558 74.2464 1.03785 74.4293 1.02858C74.6551 1.01821 74.8907 1.16149 75.1155 1.14622C75.3403 1.13095 75.5722 1.03003 75.7995 1.0117C76.0267 0.993383 76.2575 1.02281 76.4843 1.00204C76.711 0.981274 76.9262 0.707706 77.1505 0.689989C77.3748 0.672272 77.6023 0.761053 77.8301 0.745181C78.0578 0.72931 78.2754 0.784407 78.5007 0.771589C78.726 0.758772 78.9637 0.263723 79.1905 0.258252C79.4173 0.252783 79.6481 0.29751 79.873 0.297543C80.0978 0.297576 80.2904 0.561908 80.5177 0.574187C80.745 0.586467 80.9055 0.829281 81.1289 0.852566C81.3523 0.875852 81.6545 0.530932 81.877 0.56462C82.0743 0.595787 82.246 0.818444 82.4497 0.820253C82.6533 0.822061 82.8805 0.803739 83.0861 0.784745C83.2916 0.76575 83.5079 0.708844 83.7075 0.675755C83.9071 0.642668 84.0975 0.48898 84.2951 0.446095C84.4927 0.403209 84.7244 0.0446222 84.9185 -0.000111238C85.0971 0.0450788 85.4392 0.181929 85.6727 0.269504C85.8795 0.347211 85.9958 0.32857 86.2285 0.337194C86.4613 0.345817 86.7594 0.81058 86.9863 0.669857C87.0217 0.647314 87.1141 0.5417 87.4883 0.534205C87.6693 0.530439 87.8785 0.589796 88.1221 0.591107C88.3163 0.592277 88.5657 0.21477 88.797 0.216045C88.9976 0.218458 89.2217 0.139541 89.4471 0.142023C89.6507 0.143831 89.8047 0.701814 90.0275 0.70735C90.2346 0.711004 90.4596 0.606382 90.6796 0.612521C90.8995 0.618662 91.1373 0.320071 91.3542 0.326814C91.5712 0.333557 91.7624 0.470584 91.9764 0.47793C92.1904 0.485277 92.3855 0.611292 92.599 0.61619C92.8125 0.621086 93.024 0.616187 93.238 0.623533C93.452 0.630881 93.7017 0.360474 93.9157 0.367822C94.1298 0.375167 94.3438 0.382516 94.5548 0.390464C94.7659 0.398414 94.9876 0.368451 95.1992 0.378848C95.4107 0.389248 95.5721 0.772215 95.7831 0.780165C95.9942 0.788115 96.246 0.573413 96.4546 0.584417C96.6632 0.595419 96.8444 0.86461 97.05 0.876216C97.268 0.887858 97.4994 0.784481 97.7056 0.798535C97.927 0.812024 98.1002 1.04202 98.3029 1.05423C98.5278 1.06956 98.7329 1.09402 98.9302 1.10989C99.162 1.12891 99.391 1.02859 99.5794 1.04627C99.859 1.07339 99.9501 0.674613 100.23 0.701732C100.509 0.72885 100.473 0.897051 100.752 0.92417C101.032 0.95129 101.094 0.693806 101.374 0.723375C101.654 0.752943 101.553 1.19698 101.836 1.2235C102.037 1.24366 102.303 0.809275 102.513 0.812326C102.723 0.815377 102.887 1.2259 103.096 1.2265C103.306 1.2271 103.52 1.16039 103.723 1.17505C103.927 1.18971 104.037 1.44279 104.231 1.48986C104.425 1.53693 104.644 1.44636 104.818 1.54356C104.977 1.63092 105.136 1.9227 105.27 2.06629C105.477 1.94999 105.787 1.98883 105.98 1.9545C106.194 1.91594 106.346 1.5302 106.556 1.551C106.767 1.5718 106.936 1.6904 107.147 1.72895C107.473 1.78741 107.534 1.60154 107.86 1.66001C108.186 1.71847 108.042 2.14341 108.368 2.20187C108.694 2.26034 108.671 2.32881 108.997 2.38728C109.323 2.44574 109.384 2.25987 109.71 2.31833C109.879 2.34758 110.196 1.80564 110.414 1.81483C110.603 1.8221 110.726 2.39163 110.927 2.39649C111.128 2.40135 111.367 2.11011 111.561 2.12413C111.767 2.13573 111.938 2.29473 112.117 2.32707C112.328 2.36562 112.358 2.5738 112.498 2.65743C112.713 2.78718 112.859 3.02016 113.037 3.0935C113.263 3.18779 113.621 3.10191 113.834 3.13741C114.048 3.17291 114.301 3.16201 114.554 3.17926C114.761 3.19331 115 3.12667 115.26 3.15006C115.461 3.16777 115.638 3.23867 115.852 3.30477C116.046 3.36469 116.268 3.38062 116.471 3.45404C116.674 3.52745 116.99 3.34047 117.192 3.39613C117.394 3.45179 117.516 3.67186 117.727 3.69511C117.938 3.71835 118.162 3.81814 118.382 3.78083C118.603 3.74351 118.734 4.02542 118.939 4.04987C119.157 4.07437 119.306 4.02094 119.499 4.09127C119.692 4.16159 120.248 3.70112 120.429 3.7916C120.611 3.88209 120.658 4.15579 120.838 4.23893C121.032 4.32945 121.025 4.81047 121.222 4.85449C121.432 4.90099 121.767 4.61064 121.969 4.64855C122.18 4.68955 122.462 4.50186 122.664 4.53977C122.866 4.57768 123.067 4.67434 123.27 4.7147C123.472 4.75507 123.537 5.16286 123.738 5.21362C123.939 5.26438 124.391 4.85318 124.584 4.9235C124.777 4.99382 124.548 5.68352 124.728 5.77706C124.907 5.8706 125.315 5.65206 125.48 5.76881C125.635 5.87513 125.656 6.10042 125.803 6.23365C125.94 6.35889 126.277 6.27723 126.475 6.3543C126.655 6.42459 126.886 6.34692 127.101 6.38976C127.3 6.43072 127.457 6.58234 127.67 6.61539C127.884 6.64844 128.141 6.51943 128.348 6.55369C128.555 6.58795 128.654 6.98114 128.848 7.02821C129.062 7.079 129.145 7.25856 129.315 7.34106C129.486 7.42356 130.008 7.02358 130.191 7.10366C130.374 7.18375 130.193 7.79463 130.378 7.87167C130.564 7.9487 130.725 8.04586 130.905 8.12655C131.084 8.20724 131.237 8.30621 131.411 8.39056C131.586 8.47491 131.728 8.56834 131.889 8.66305C132.06 8.7633 132.712 8.36491 132.855 8.47855C132.999 8.59218 132.881 8.93764 132.996 9.06465C133.112 9.19167 133.381 9.2414 133.488 9.37758C133.596 9.51375 133.225 9.95946 133.342 10.0914C133.458 10.2233 133.614 10.4006 133.757 10.5142C133.901 10.6279 134.496 10.2563 134.676 10.3394C134.839 10.4133 134.868 10.7188 135.077 10.7604C135.285 10.802 135.403 10.9541 135.583 11.0703C135.753 11.1785 135.693 11.4256 135.84 11.5741C135.977 11.7146 136.085 11.838 136.204 11.9999C136.324 12.1618 136.586 12.2256 136.696 12.3893C136.807 12.553 136.969 12.6985 137.08 12.8519C137.205 13.023 137.297 13.2209 137.426 13.3553C137.555 13.4897 137.566 13.6611 137.661 13.7973C137.769 13.9463 138.304 13.883 138.375 14.0343C138.447 14.193 137.93 14.5104 137.971 14.6782C138.011 14.846 138.393 14.9236 138.411 15.0987C138.426 15.264 138.734 15.4154 138.733 15.5942C138.733 15.76 138.029 15.96 138.02 16.1405C138.01 16.321 138.157 16.5283 138.171 16.7297C138.183 16.9133 138.308 17.0869 138.32 17.2784C138.331 17.47 138.914 17.6394 138.9 17.826C138.885 18.0127 138.857 18.2965 138.789 18.4763C138.721 18.656 138.543 18.978 138.39 19.1318C138.237 19.2856 138.088 19.3439 137.991 19.471C137.874 19.6224 137.68 19.6647 137.605 19.8279C137.541 19.9685 137.05 20.0356 136.99 20.2239C136.93 20.4123 136.816 20.5478 136.731 20.7232C136.647 20.8986 136.453 21.0021 136.345 21.1695C136.238 21.3369 136.346 21.5801 136.221 21.7383C136.096 21.8964 136.217 22.201 136.075 22.3523C135.934 22.5037 135.509 22.4603 135.357 22.6036C135.204 22.747 134.942 22.7903 134.783 22.93C134.623 23.0697 134.909 23.5804 134.746 23.7158C134.583 23.8511 134.286 23.8736 134.119 24.0071C133.952 24.1407 133.527 24.0489 133.363 24.1818C133.199 24.3148 133.358 24.7314 133.198 24.8686C132.991 25.0461 132.932 25.2369 132.789 25.3962C132.639 25.5672 132.099 25.4579 131.906 25.6275C131.752 25.7635 131.74 26.0364 131.486 26.1826C131.216 26.3373 131.03 26.0919 130.757 26.2472C130.484 26.4025 130.665 26.6386 130.394 26.7933C130.124 26.948 130.024 26.818 129.753 26.9726C129.483 27.1273 129.678 27.3861 129.407 27.5384C129.136 27.6906 129.002 27.5164 128.732 27.6711C128.462 27.8257 128.597 28.0073 128.324 28.1626C128.051 28.3179 127.869 28.0744 127.598 28.229C127.328 28.3837 127.346 28.4107 127.076 28.5654C126.805 28.72 127.069 29.0745 126.798 29.2292C126.528 29.3839 126.348 29.1478 126.074 29.303C125.876 29.4151 125.619 29.4266 125.43 29.5239C125.229 29.6262 125.006 29.6666 124.806 29.7584C124.606 29.8502 124.342 29.8097 124.135 29.8954C123.928 29.9811 123.774 30.1324 123.56 30.2169C123.25 30.3415 123.434 30.7147 123.123 30.8393C122.813 30.9639 122.862 31.0662 122.552 31.1908C122.241 31.3154 122.006 30.8428 121.693 30.968C121.38 31.0932 121.646 31.6282 121.336 31.7528C121.025 31.8774 120.786 31.3981 120.476 31.5251C120.166 31.6521 120.141 31.6037 119.831 31.7283C119.521 31.8528 119.612 32.0459 119.302 32.1705C118.992 32.295 118.858 32.0315 118.545 32.1567C118.334 32.2405 118.111 32.3396 117.908 32.4296C117.704 32.5196 117.604 32.7978 117.397 32.8859C117.19 32.9741 117.147 33.4422 116.931 33.5144C116.715 33.5866 116.336 33.1026 116.107 33.1466C115.892 33.1907 115.684 33.3811 115.448 33.3883C115.263 33.5206 114.877 33.4106 114.684 33.5189C114.49 33.6273 114.438 33.8983 114.23 33.984C114.023 34.0697 113.817 34.0862 113.597 34.1413C113.377 34.1964 113.21 34.5698 112.981 34.5936C112.752 34.6175 112.485 34.7281 112.251 34.7146C112.033 34.7029 111.852 34.4313 111.624 34.3884C111.471 34.5422 111.49 34.8495 111.325 34.9751C111.149 35.108 110.833 35.1138 110.644 35.2161C110.456 35.3184 110.164 35.2631 109.959 35.3433C109.754 35.4235 109.528 35.3904 109.312 35.4473C109.096 35.5042 108.903 35.5281 108.68 35.566C108.457 35.604 108.268 35.7803 108.043 35.8084C107.826 35.8629 107.528 35.6252 107.307 35.6753C107.087 35.7255 106.971 36.1854 106.75 36.2356C106.53 36.2857 106.274 36.1797 106.053 36.2299C105.832 36.28 105.618 36.3443 105.397 36.3969C105.177 36.4495 104.9 36.2866 104.684 36.341C104.467 36.3955 104.361 36.8866 104.144 36.9411C103.927 36.9955 103.638 36.8172 103.42 36.8796C103.202 36.942 102.936 36.8789 102.722 36.9456C102.508 37.0123 102.352 37.2585 102.142 37.3319C101.932 37.4054 101.724 37.5015 101.515 37.5823C101.307 37.6631 101.129 37.6791 100.926 37.7715C100.751 37.6694 100.57 37.686 100.403 37.6384C100.2 37.5803 99.9752 37.2639 99.786 37.2872C99.5967 37.3105 99.628 37.9165 99.4508 38.0292C99.3007 38.1237 98.9865 38.0781 98.8558 38.2374C98.546 38.3492 98.5633 38.5396 98.2371 38.601C97.9109 38.6625 97.8508 38.338 97.5275 38.3989C97.2042 38.4598 97.1712 38.2981 96.8485 38.3614C96.5257 38.4248 96.5042 38.3194 96.1814 38.3828C95.8587 38.4461 95.8902 38.6157 95.5645 38.6797C95.2388 38.7436 95.2883 39.0014 94.9655 39.0647C94.6428 39.1281 94.6628 39.2414 94.3366 39.3028C94.0104 39.3643 93.9728 39.15 93.647 39.214C93.3213 39.2779 93.2632 38.9632 92.94 39.024C92.6167 39.0849 92.6793 39.4217 92.3531 39.4832C92.0268 39.5447 92.0008 39.402 91.6746 39.4635C91.3483 39.525 91.3103 39.3235 90.9875 39.3869C90.6648 39.4502 90.7699 40.0105 90.4437 40.072C90.1175 40.1335 90.1105 40.0992 89.7872 40.1601C89.4639 40.221 89.45 40.1677 89.1272 40.231C88.9291 40.2714 88.6369 40.3489 88.4209 40.3318C88.2178 40.3171 88.0755 39.8767 87.8659 39.8761C87.6564 39.8755 87.4981 40.2165 87.2902 40.2845C87.1114 40.344 86.6317 40.0005 86.4591 40.1505C86.2316 40.2582 86.1252 40.2952 85.8991 40.3644C85.6582 40.4365 85.5373 40.5836 85.2938 40.5976C85.0503 40.6116 84.8063 40.8349 84.5655 40.7718C84.3544 40.7179 84.1566 40.3373 83.9408 40.2155C83.7479 40.357 83.4889 40.6726 83.291 40.7743C83.0729 40.8826 82.9545 41.1925 82.7303 41.2561C82.5062 41.3198 82.2297 41.5497 81.9936 41.5698C81.7575 41.59 81.5894 40.9175 81.3537 40.8942C81.1179 40.8708 80.8276 41.2593 80.6002 41.2011C80.4047 41.2997 80.3004 41.5429 80.0881 41.6194C79.8758 41.6959 79.5776 41.5629 79.3554 41.621C79.1332 41.6791 78.9349 41.8089 78.7092 41.8499C78.4835 41.8909 78.2738 42.0255 78.0461 42.0567C77.8184 42.0879 77.6014 42.2164 77.3746 42.2371C77.1479 42.2579 76.9197 42.1361 76.6925 42.1544C76.4653 42.1727 76.2431 41.8991 76.0188 41.9168C75.7945 41.9345 75.5785 42.0833 75.3537 42.0985C75.1289 42.1138 74.9085 42.0899 74.6842 42.1076C74.4599 42.1253 74.2213 41.7862 73.998 41.8088C73.7747 41.8314 73.5701 42.1718 73.3448 42.1999C73.1196 42.228 72.8766 42.0786 72.6523 42.1116C72.4281 42.1446 72.1874 42.1274 71.9681 42.1696C71.737 42.2142 71.5346 42.2938 71.3099 42.3244C71.0851 42.355 70.8672 42.5245 70.6404 42.5452C70.4137 42.566 70.1825 42.9117 69.9547 42.9276C69.727 42.9435 69.4916 42.7109 69.2634 42.7243C69.0351 42.7377 68.8012 42.4971 68.5735 42.513C68.3457 42.5289 68.131 43.1213 67.9018 43.1451C67.6726 43.1689 67.4423 42.9914 67.2121 43.0256C66.9997 43.0562 66.7959 42.9932 66.6126 43.0153C66.4051 43.0398 66.2112 42.9952 66.0194 43.0063C65.8276 43.0174 65.6238 43.1049 65.4255 43.0995C65.2396 43.094 65.0198 43.2996 64.8152 43.2776C64.5953 43.2868 64.4397 43.3543 64.2203 43.3812C64.001 43.4081 63.7426 43.0322 63.5223 43.0695C63.302 43.1068 63.1247 43.3701 62.9045 43.4074C62.6842 43.4447 62.4319 43.1594 62.2101 43.1894C61.9883 43.2193 61.7929 43.1674 61.5711 43.182C61.3493 43.1967 61.1809 43.1264 60.9581 43.1209C60.7352 43.1154 60.3822 43.8151 60.1632 43.7833C59.9698 43.7564 59.9051 43.0016 59.7054 43.0041C59.5057 43.0066 59.2815 43.2361 59.0809 43.2489C58.8803 43.2618 58.6933 43.2209 58.4921 43.2313C58.291 43.2418 58.091 43.4689 57.8918 43.4585C57.6925 43.4481 57.5223 43.7457 57.3264 43.7066C57.0006 43.7399 56.9975 43.4982 56.6742 43.5591C56.3509 43.6199 56.388 43.8318 56.0648 43.8927C55.7415 43.9536 55.6814 43.629 55.3581 43.6899C55.0349 43.7508 55.0254 43.5231 54.7 43.5589C54.3747 43.5947 54.3666 44.2036 54.0245 44.2173C53.6823 44.231 53.6882 44.0334 53.346 44.0471C53.0039 44.0608 53.0098 43.8784 52.6676 43.8921C52.3255 43.9058 52.3167 44.1194 51.9746 44.1331C51.6325 44.1468 51.6311 44.1701 51.286 44.1844C50.9409 44.1987 50.9496 43.9698 50.6069 43.9811C50.2643 43.9923 50.2514 44.3216 49.9093 44.3353C49.5672 44.349 49.587 43.6917 49.2449 43.7054C48.9027 43.7191 48.8784 44.3696 48.5333 44.3839C48.3011 44.3931 48.1388 44.0052 47.9662 43.9894C47.7526 43.9692 47.6221 43.6769 47.4308 43.6598C47.2394 43.6428 47.0059 44.2186 46.7806 44.2467C46.6096 44.2689 46.3894 43.8239 46.1633 43.8931C45.836 43.919 45.8541 44.0378 45.5272 44.0357C45.2003 44.0335 45.2223 43.779 44.8954 43.7768C44.5685 43.7746 44.5317 44.198 44.2023 44.1989C43.873 44.1998 43.8812 44.1344 43.5548 44.1347C43.2284 44.1349 43.2523 43.8596 42.9259 43.8599C42.5995 43.8602 42.5607 44.2738 42.2343 44.2741C41.9079 44.2744 41.8849 44.5087 41.5585 44.509C41.3642 44.5078 41.1809 44.3488 40.9556 44.3616C40.7544 44.372 40.5457 44.3151 40.3244 44.3322C40.1213 44.3482 39.914 44.615 39.6927 44.6322C39.4861 44.6463 39.2723 44.1719 39.0534 44.186C38.8345 44.2001 38.631 44.4253 38.4141 44.4339C38.1972 44.4424 38.0059 44.2595 37.7904 44.2601C37.5749 44.2607 37.3955 44.106 37.1815 44.0986C36.9675 44.0913 36.7908 44.01 36.5812 43.9941C36.3716 43.9782 36.1061 44.262 35.897 44.2333C35.7071 44.2082 35.4696 44.2669 35.2605 44.2229C35.0676 44.1831 35.0175 43.757 34.8148 43.7142C34.612 43.6714 34.2376 44.1153 34.0398 44.0816C33.8419 44.048 33.6861 43.8579 33.4869 43.8475C33.2689 43.8359 33.0041 43.474 32.8085 43.5114C32.5803 43.5554 32.4093 43.7434 32.2052 43.7698C31.9741 43.7991 31.7757 44.0947 31.5716 44.1058C31.3404 44.1198 31.1285 43.987 30.9273 43.9821C30.6985 43.9778 30.4982 43.932 30.2941 43.9124C30.0746 43.8934 29.7684 44.234 29.5627 44.2071C29.357 44.1802 29.2649 43.6836 29.0504 43.6585C28.8358 43.6334 28.6115 43.6358 28.3906 43.6248C28.1696 43.6138 27.8916 43.6093 27.6579 43.6417C27.4243 43.674 27.2577 43.8535 27.041 43.7727C26.8776 43.7116 26.7082 43.6059 26.5563 43.4047C26.3637 43.4874 26.1635 43.6533 25.9719 43.7103C25.7684 43.7697 25.5632 44.0769 25.3641 44.0972C25.1649 44.1174 24.8312 44.1268 24.6339 44.0957C24.4366 44.0645 24.3344 43.7001 24.1562 43.6114C23.9982 43.5314 23.7628 43.6152 23.6209 43.4783C23.4035 43.515 23.2745 43.0336 23.0595 43.052C22.8446 43.0703 22.6255 43.5054 22.4076 43.5091C22.1896 43.5128 21.9677 43.4815 21.7502 43.4723C21.5328 43.4631 21.3912 43.1016 21.1772 43.079C20.9631 43.0563 20.6003 43.6177 20.3883 43.5896C20.1762 43.5615 20.0939 43.0832 19.8838 43.0496C19.6737 43.0159 19.3233 43.4268 19.1132 43.3932C18.903 43.3595 18.7818 43.0525 18.5717 43.0189C18.3616 42.9852 18.2349 42.6513 18.0258 42.6226C17.8166 42.5938 17.5182 42.8971 17.3047 42.8769C17.0911 42.8567 16.9151 42.7038 16.7119 42.6739C16.5087 42.6439 16.2076 42.8738 16.0058 42.8359C15.8041 42.798 15.7789 42.2673 15.5791 42.2239C15.3793 42.1804 14.989 42.5918 14.7911 42.5429C14.5933 42.494 14.5815 41.9988 14.3807 41.9505C14.1799 41.9022 13.9766 41.857 13.7758 41.8086C13.575 41.7603 13.3223 41.8349 13.1195 41.7921C12.9168 41.7493 12.6631 41.8495 12.4584 41.8122C12.2537 41.7749 12.0503 41.699 11.8382 41.6556C11.6261 41.6121 11.552 41.2496 11.3419 41.2007C11.1317 41.1517 10.8413 41.3284 10.6385 41.2702C10.4357 41.2121 10.3683 40.9427 10.1749 40.8699C9.98138 40.7971 9.52476 41.1251 9.33961 41.0327C9.15445 40.9404 8.81781 40.981 8.65281 40.8667C8.62761 40.8489 8.7937 40.3047 8.43539 40.1788C8.26956 40.1208 7.87735 40.3871 7.64981 40.2984C7.47261 40.2299 7.21084 40.2451 7.00449 40.1545C6.82579 40.0787 6.70346 39.8868 6.50548 39.792C6.32823 39.7083 5.97212 39.8345 5.7825 39.7355C5.60722 39.6462 5.62396 39.2907 5.43976 39.188C5.26643 39.0932 5.06849 39.0137 4.88674 38.9079C4.71537 38.8077 4.53021 38.7153 4.35338 38.6034C4.18742 38.4995 4.14629 38.2528 3.97537 38.1397C3.80446 38.0266 3.64382 37.8884 3.46453 37.7795C3.28525 37.6707 3.14531 37.5283 2.97144 37.4158C2.79756 37.3033 2.52784 37.2946 2.36971 37.1687C2.21157 37.0428 2.10561 36.8858 1.97846 36.7306C1.85921 36.584 2.02317 36.3311 1.93687 36.1497C1.86047 35.9866 1.26039 35.9739 1.21989 35.7755C1.18539 35.6065 1.06383 35.5088 0.995846 35.3569C0.927865 35.2049 1.08695 34.9734 0.998279 34.8256C0.909602 34.6779 0.486137 34.7005 0.394504 34.5534C0.302872 34.4062 0.789837 34.0007 0.706074 33.8468C0.642138 33.7297 0.777336 33.5924 0.752162 33.4087C0.731031 33.2599 0.0065147 33.1808 0.000122756 33.0137C-0.00626919 32.8466 0.336847 32.6566 0.335412 32.4987C0.332933 32.3206 0.387173 32.1488 0.377412 32.0104C0.366063 31.8341 0.250191 31.6588 0.267908 31.474C0.285626 31.2892 0.329496 31.1119 0.365953 30.9284C0.40241 30.7449 0.889747 30.6428 0.9479 30.46C1.00605 30.2772 0.322775 29.9625 0.397712 29.7864C0.472648 29.6104 0.623542 29.4444 0.707848 29.2689C0.792154 29.0935 0.792545 28.8842 0.887221 28.7144C0.981897 28.5445 1.25869 28.437 1.36323 28.2702C1.46778 28.1034 1.48741 27.8978 1.60182 27.7341C1.71624 27.5704 1.85039 27.4129 1.97222 27.2554C2.09405 27.0978 2.43264 27.0517 2.55843 26.8984C2.68421 26.7452 2.93939 26.6676 3.07505 26.5174C3.2107 26.3672 3.55089 26.359 3.69 26.2107C3.82911 26.0624 3.6353 25.7014 3.77887 25.5598C3.92244 25.4182 4.10057 25.2951 4.24809 25.1578C4.39562 25.0205 4.39834 24.7623 4.55227 24.6262C4.70621 24.4902 5.21598 24.6489 5.37388 24.5172C5.53177 24.3855 5.39605 23.9922 5.5584 23.8672C5.72076 23.7422 5.77378 23.4889 5.94008 23.3682C6.10639 23.2475 6.4467 23.2852 6.61697 23.1688C6.78723 23.0524 7.23351 23.2471 7.40823 23.1374C7.58295 23.0278 7.7478 22.915 7.93043 22.814C8.11307 22.7129 7.99465 22.163 8.18224 22.0711C8.31074 22.0066 8.38577 21.8611 8.60962 21.6904C8.75623 21.5788 9.38529 21.8995 9.58112 21.7575C9.73956 21.6435 9.48101 21.0558 9.67392 20.9297C9.84223 20.8188 10.3805 21.1324 10.5789 21.018C10.7581 20.915 10.8031 20.6226 11.007 20.5198C11.194 20.4255 11.2864 20.1387 11.4957 20.0475C11.6907 19.9618 12.0682 20.2266 12.2829 20.1471C12.4691 20.0784 12.5639 19.8039 12.7451 19.6955C12.9154 19.5944 12.8517 19.2221 13.023 19.1106C13.1942 18.9991 13.7198 19.3256 13.8999 19.2276C14.0801 19.1295 14.1827 18.9683 14.3822 18.9046C14.5817 18.8409 14.7659 18.7625 14.9823 18.7515C15.1466 18.6057 15.1802 18.3028 15.3584 18.1797C15.5365 18.0566 15.8348 18.0391 16.0292 17.9356C16.2237 17.8321 16.4602 17.7838 16.6705 17.6975C16.8808 17.6112 17.188 17.819 17.4058 17.7541C17.6235 17.6892 17.672 17.0364 17.8962 16.988C18.1204 16.9397 18.4456 17.5521 18.6733 17.5209C18.901 17.4897 19.2113 17.3957 19.439 17.3799C19.6162 17.2519 19.69 16.8592 19.8726 16.7428C20.0552 16.6264 20.2442 16.5113 20.4347 16.4035C20.6252 16.2957 20.786 16.1328 20.9854 16.0385C21.1848 15.9442 21.2463 15.5515 21.4541 15.4682C21.662 15.385 21.9296 15.3533 22.1439 15.2866C22.3582 15.2199 22.7784 15.8001 22.9987 15.7474C23.2189 15.6948 23.4284 15.5143 23.6546 15.4757C23.8585 15.3729 23.9521 15.017 24.155 14.9245C24.3579 14.8321 24.6822 14.9573 24.89 14.874C25.0978 14.7908 25.2511 14.5911 25.4663 14.514C25.6816 14.4369 25.9644 14.5552 26.1812 14.4854C26.3979 14.4157 26.4232 13.7854 26.6415 13.7229C26.8597 13.6605 27.2576 14.1764 27.4798 14.1183C27.702 14.0601 27.9398 14.0933 28.1595 14.0382C28.3792 13.9831 28.4389 13.2795 28.6626 13.2287C28.8863 13.178 29.2288 13.6337 29.4525 13.5829C29.6762 13.5321 29.8455 13.2603 30.0692 13.2095C30.2929 13.1587 30.5046 13.0645 30.7254 13.0143C30.9461 12.9642 31.2719 13.0967 31.4856 12.9969C31.6993 12.8972 31.7461 12.5227 31.9692 12.4389C32.1751 12.3612 32.4735 12.7672 32.7175 12.7403C32.9255 12.7183 33.1306 12.3651 33.3797 12.4087C33.6724 12.3489 33.5826 12.1351 33.8609 12.0349C34.1392 11.9347 34.3302 12.3576 34.608 12.2549C34.8858 12.1523 34.7696 11.8851 35.0474 11.7825C35.3252 11.6799 35.3051 11.5513 35.5988 11.4964C35.8534 11.5516 36.0081 12.0533 36.1862 12.0655C36.4327 12.0815 36.8438 12.0282 37.0502 11.9529C37.2221 11.8897 37.0713 11.2265 37.2962 11.0913C37.4498 10.9987 37.9306 11.3777 38.1877 11.2946C38.3813 11.2321 38.4479 10.698 38.6883 10.6387C38.8967 10.5885 39.1753 10.7613 39.4118 10.713C39.6247 10.6695 39.8228 10.4632 40.0515 10.4217C40.2683 10.3825 40.4804 10.2295 40.7066 10.191C40.9328 10.1525 41.1908 10.3907 41.418 10.357C41.6452 10.3234 41.8241 9.94754 42.0513 9.91392C42.2785 9.8803 42.5229 10.0065 42.7472 9.97344C42.9714 9.94043 43.2228 10.1009 43.4441 10.0685C43.6654 10.0361 43.9394 10.3373 44.1577 10.3055C44.3909 10.2707 44.5535 9.72464 44.7797 9.68612C45.0059 9.6476 45.2265 9.53623 45.4527 9.49771C45.6789 9.45919 45.9009 9.35518 46.1301 9.31606C46.3592 9.27693 46.6245 9.44477 46.8536 9.40565C47.0828 9.36653 47.3547 9.62741 47.5844 9.59074C47.814 9.55406 47.9973 9.16964 48.231 9.13726C48.4646 9.10488 48.7106 9.28429 48.9428 9.25987C49.2676 9.22163 49.2532 9.03064 49.5781 8.9924C49.9029 8.95416 49.9316 9.35144 50.2569 9.31565C50.5822 9.27987 50.5433 8.7724 50.8681 8.73416C51.1929 8.69593 51.1944 8.70328 51.5193 8.66504C51.8441 8.6268 51.8343 8.50375 52.1592 8.46552C52.4031 8.43868 52.6684 9.11939 52.87 9.0961C53.1051 9.07107 53.3029 8.59181 53.5174 8.58631C53.7318 8.5808 53.8622 8.99306 54.0955 9.01944C54.2913 9.04326 54.5687 8.65236 54.8016 8.70689C55.1117 8.68697 55.1292 8.93856 55.4352 8.88374C55.7412 8.82893 55.7593 8.94771 56.0653 8.8929C56.3714 8.83808 56.5487 8.96772 56.8264 8.83449C57.1573 8.67509 56.9365 8.19709 57.2456 8.17227L57.2017 8.16847Z" fill="#8B62CC"/>
</svg>
