<svg width="100" height="22" viewBox="0 0 100 22" fill="none" xmlns="http://www.w3.org/2000/svg">
<path d="M72.6379 5.00001C72.4904 4.96251 72.2879 5.12999 72.0929 5.16749C71.9329 5.19749 71.8429 5.495 71.6654 5.55C71.5004 5.6025 71.2904 5.52249 71.1229 5.57749C70.9554 5.63249 70.6654 5.28249 70.5029 5.32499C70.3179 5.37249 70.2104 5.71751 70.0529 5.72251C69.8654 5.72751 69.6629 5.31749 69.4779 5.32749C69.2929 5.33749 69.1454 6.02498 68.9629 6.03748C68.7804 6.04998 68.5554 5.625 68.3729 5.645C68.1904 5.665 67.9879 5.5925 67.8029 5.6175C67.6179 5.6425 67.4754 5.95249 67.2929 5.98249C67.1104 6.01249 66.8504 5.65251 66.6679 5.69001C66.4854 5.72751 66.3654 6.06499 66.1854 6.10749C66.0054 6.14999 65.7379 5.87249 65.5554 5.91999C65.3729 5.96749 65.3179 6.5575 65.1379 6.6125C64.8454 6.645 64.8304 6.5725 64.5354 6.5875C64.2404 6.6025 64.2304 6.38 63.9354 6.395C63.6404 6.41 63.6329 6.24749 63.3379 6.26249C63.0429 6.27749 63.0729 6.88 62.7779 6.895C62.4829 6.91 62.4179 6.24749 62.1279 6.29249C61.8779 6.33249 61.9729 6.80501 61.7304 6.87501C61.4879 6.94501 61.3879 6.59498 61.1429 6.66248C60.8979 6.72998 60.9129 6.77751 60.6679 6.84751C60.4229 6.91751 60.4779 7.11 60.2354 7.18C60.0454 7.235 59.8279 7.12751 59.6404 7.15501C59.4529 7.18251 59.2529 7.05001 59.0654 7.06251C58.8779 7.07501 58.6954 7.585 58.5054 7.5875C58.3154 7.59 58.1129 7.3325 57.9254 7.3325C57.7379 7.3325 57.5329 7.29501 57.3454 7.31001C57.1579 7.32501 56.9329 7.25749 56.7479 7.29749C56.5629 7.33749 56.2954 7.285 56.1179 7.3625C55.9579 7.4325 55.9354 7.82751 55.7729 7.87751C55.6104 7.92751 55.4704 8.15501 55.3029 8.18751C55.1354 8.22001 54.8729 7.69 54.7029 7.71C54.5329 7.73 54.4204 8.36251 54.2504 8.37501C54.0804 8.38751 53.8679 7.72499 53.6979 7.73249C53.5279 7.73999 53.3579 7.78249 53.1854 7.78999C53.0129 7.79749 52.8354 7.81499 52.6654 7.82499C52.5104 7.83499 52.4854 8.47249 52.3179 8.54249C52.1704 8.60249 51.9554 8.5075 51.7979 8.585C51.6404 8.6625 51.5279 8.83 51.3704 8.895C51.2129 8.96 51.0104 9.02751 50.8479 9.06251C50.6854 9.09751 50.4979 9.09499 50.3279 9.07249C50.0554 9.11499 50.0604 9.06001 49.7929 9.12501C49.5254 9.19001 49.4854 9.0225 49.2179 9.085C48.9504 9.1475 48.9329 9.08 48.6654 9.145C48.3979 9.21 48.4104 9.2675 48.1429 9.3325C47.8754 9.3975 47.9579 9.83249 47.6854 9.88249C47.4129 9.93249 47.3254 9.40501 47.0504 9.43751C46.7754 9.47001 46.7729 9.46 46.4979 9.4925C46.2229 9.525 46.2529 9.78001 45.9779 9.81501C45.7029 9.85001 45.7154 9.96 45.4379 9.9925C45.1604 10.025 45.1754 10.145 44.9004 10.18C44.7104 10.2025 44.4779 9.835 44.3104 9.87C44.1254 9.9075 44.0029 10.165 43.8354 10.21C43.6579 10.2575 43.4654 10.2225 43.2954 10.275C43.1254 10.3275 42.9829 10.48 42.8079 10.5325C42.6429 10.5825 42.5104 10.8325 42.3279 10.8775C42.1454 10.9225 41.9079 10.785 41.7254 10.815C41.5429 10.845 41.3104 10.5525 41.1254 10.575C40.9404 10.5975 40.7554 10.5725 40.5704 10.59C40.3854 10.6075 40.2229 10.8475 40.0379 10.8675C39.8529 10.8875 39.6329 10.6075 39.4479 10.6325C39.2629 10.6575 39.1729 11.26 38.9879 11.295C38.8029 11.33 38.5954 11.1525 38.4129 11.2C38.2304 11.2475 37.9679 11.0175 37.7904 11.0825C37.6129 11.1475 37.5129 11.41 37.3404 11.4925C37.0429 11.535 37.0354 11.4525 36.7329 11.4675C36.4304 11.4825 36.4479 11.8675 36.1479 11.88C35.8479 11.8925 35.8954 11.86 35.5979 11.9175C35.4554 12.035 35.4329 12.0675 35.2929 12.1525C35.1404 12.2475 34.8454 12.125 34.6929 12.1875C34.5329 12.255 34.2829 12.025 34.1179 12.07C33.9529 12.115 33.8554 12.45 33.6829 12.48C33.5204 12.5075 33.3779 12.73 33.2029 12.7575C33.0404 12.7825 32.8729 12.7675 32.6954 12.7975C32.4079 12.8475 32.3354 12.4225 32.0504 12.4725C31.7654 12.5225 31.7704 12.56 31.4829 12.61C31.1954 12.66 31.2054 12.7225 30.9204 12.7775C30.6579 12.8275 30.6529 12.81 30.3904 12.8675C30.1279 12.925 30.1429 12.9925 29.8829 13.05C29.6229 13.1075 29.6879 13.415 29.4254 13.4725C29.1629 13.53 29.1704 13.56 28.9079 13.615C28.6454 13.67 28.6029 13.475 28.3404 13.5325C28.0779 13.59 27.9779 13.125 27.7154 13.18C27.4529 13.235 27.5954 13.9 27.3329 13.9575C27.0704 14.015 27.0204 13.7875 26.7579 13.8425C26.4804 13.9 26.5104 14.05 26.2304 14.1075C25.9504 14.165 25.9354 14.085 25.6554 14.14C25.3754 14.195 25.3229 13.935 25.0429 13.9925C24.7629 14.05 24.7579 14.025 24.4804 14.0825C24.2029 14.14 24.1554 13.92 23.8779 13.9775C23.6004 14.035 23.6929 14.5025 23.4129 14.56C23.1329 14.6175 23.1354 14.605 22.8579 14.67C22.6004 14.73 22.4929 14.2975 22.2379 14.3625C21.9829 14.4275 22.1279 14.99 21.8704 15.055C21.6129 15.12 21.5004 14.675 21.2429 14.7425C20.9854 14.81 20.9779 14.7775 20.7229 14.845C20.4679 14.9125 20.4804 14.9525 20.2229 15.0125C19.9654 15.0725 19.9629 15.065 19.7029 15.12C19.4429 15.175 19.4629 15.285 19.2029 15.34C18.9429 15.395 18.9304 15.34 18.6679 15.395C18.4054 15.45 18.4279 15.55 18.1654 15.605C17.9029 15.66 17.9104 15.6975 17.6479 15.7525C17.3854 15.8075 17.4454 16.09 17.1829 16.145C16.9204 16.2 16.7879 15.575 16.5279 15.63C16.2679 15.685 16.2779 15.7425 16.0129 15.7975C15.7479 15.8525 15.8129 16.145 15.5529 16.21C15.2929 16.275 15.2704 16.22 15.0079 16.2975C14.7454 16.375 14.8054 16.585 14.5429 16.6625C14.2804 16.74 14.2704 16.7075 14.0054 16.785C13.7404 16.8625 13.7629 16.935 13.4979 17.0125C13.2329 17.09 13.0929 16.61 12.8279 16.6875C12.6604 16.7375 12.5829 17.105 12.4129 17.1475C12.2429 17.19 12.1029 17.375 11.9304 17.4125C11.7579 17.45 11.5554 17.345 11.3829 17.3775C11.2104 17.41 11.0329 17.425 10.8629 17.455C10.6929 17.485 10.5129 17.4975 10.3429 17.5275C10.1729 17.5575 10.0454 17.8725 9.87541 17.9025C9.70541 17.9325 9.5079 17.8275 9.3379 17.8575C9.1679 17.8875 9.00043 17.955 8.83293 17.99C8.66543 18.025 8.42041 17.7575 8.25541 17.8C8.08041 17.8425 7.91791 17.9275 7.75791 17.9775C7.58541 18.03 7.4304 18.1225 7.2754 18.1875C7.1079 18.2575 6.9504 18.3325 6.8054 18.4175C6.6504 18.51 6.49291 18.525 6.34291 18.555C6.17791 18.59 6.02042 18.8425 5.85792 18.84C5.69542 18.8375 5.52792 18.5475 5.36292 18.545C5.19792 18.6 5.00791 18.6475 4.84541 18.715C4.68291 18.7825 4.6254 19.0825 4.4654 19.1575C4.3054 19.2325 3.94541 18.8875 3.78541 18.965C3.62541 19.0425 3.60041 19.39 3.44291 19.4675C3.28541 19.545 3.17042 19.7175 3.01042 19.7925C2.85042 19.8675 2.55542 19.6275 2.39292 19.695C2.23042 19.7625 2.17541 20.0925 2.00791 20.15C1.84041 20.2075 1.6004 20 1.4304 20.0425C1.2604 20.085 1.09792 20.0325 0.922922 20.06C0.747922 20.0875 0.607899 20.5225 0.430399 20.53C0.265399 20.48 0.0204064 20.2425 0.000406384 20.0575C-0.0145936 19.9075 0.390425 19.755 0.425425 19.5925C0.462925 19.405 0.0803991 19.105 0.117899 18.9975C0.182899 18.8175 0.695403 18.985 0.840403 18.8775C0.975403 18.775 0.885409 18.235 1.06541 18.1675C1.22791 18.1075 1.5679 18.54 1.7454 18.485C2.0154 18.4 1.9804 18.29 2.2479 18.205C2.5154 18.12 2.56543 18.2775 2.83543 18.195C3.10543 18.1125 3.11041 18.1325 3.38041 18.0475C3.65041 17.9625 3.50293 17.4975 3.77293 17.4125C4.04293 17.3275 4.12793 17.6025 4.39793 17.52C4.66793 17.4375 4.62292 17.295 4.89292 17.2075C5.12792 17.13 5.02542 16.8275 5.26042 16.7475C5.49542 16.6675 5.5754 16.905 5.8104 16.825C6.0454 16.745 6.17541 17.125 6.41041 17.045C6.64541 16.965 6.6054 16.8475 6.8404 16.7675C7.0754 16.6875 6.92291 16.2125 7.16041 16.14C7.39791 16.0675 7.42542 16.0875 7.67542 16.0175C7.92542 15.9475 7.95292 16.045 8.20292 15.975C8.45292 15.905 8.54792 16.2525 8.80042 16.1825C9.05292 16.1125 8.97291 15.825 9.22291 15.7575C9.47291 15.69 9.4954 15.7675 9.7479 15.6975C10.0004 15.6275 9.9904 15.6 10.2429 15.53C10.4004 15.4875 10.6354 15.3825 10.8554 15.39C11.0454 15.3975 11.2904 15.88 11.4829 15.845C11.6754 15.81 11.6929 15.34 11.8454 15.1975C11.9729 15.075 12.3179 15.2525 12.4979 15.165C12.6579 15.09 12.7879 14.9675 12.9779 14.91C13.1504 14.86 13.3754 15.0525 13.5654 15.0125C13.7429 14.975 13.8379 14.515 14.0254 14.48C14.2129 14.445 14.4754 14.8525 14.6629 14.8175C14.8504 14.7825 14.9729 14.435 15.1579 14.395C15.3429 14.355 15.5454 14.3775 15.7254 14.33C15.9054 14.2825 16.1729 14.43 16.3479 14.3675C16.5229 14.305 16.5104 13.6425 16.6779 13.56C16.9304 13.4925 16.9354 13.415 17.1929 13.365C17.4504 13.315 17.5479 13.83 17.8054 13.78C18.0629 13.73 18.0129 13.47 18.2679 13.4225C18.5229 13.375 18.5829 13.68 18.8404 13.63C19.0979 13.58 19.0229 13.2 19.2804 13.15C19.5379 13.1 19.6679 13.57 19.9154 13.485C20.0979 13.345 20.3404 13.2675 20.4854 13.18C20.6779 13.065 20.6154 12.4625 20.7904 12.415C20.9654 12.3675 21.2204 12.74 21.4379 12.74C21.6104 12.74 21.8079 12.235 22.0329 12.25C22.1829 12.2425 22.4729 12.8575 22.6704 12.7825C22.8329 12.72 22.7904 12.0325 22.9704 11.975C23.1504 11.9175 23.4179 11.99 23.5979 11.9825C23.7779 11.975 23.9954 12.545 24.1679 12.63C24.3329 12.515 24.5754 12.1475 24.7029 11.99C24.8304 11.8325 24.8779 11.755 24.9829 11.575C25.1804 11.6325 25.3004 11.3375 25.4804 11.3475C25.6804 11.3575 25.9154 11.74 26.0979 11.7025C26.2804 11.665 26.3879 11.2625 26.5654 11.195C26.7429 11.1275 26.9004 11.0175 27.0729 10.9375C27.2454 10.8575 27.3779 10.6525 27.5554 10.58C27.7329 10.5075 27.9604 10.465 28.1479 10.4225C28.4004 10.3675 28.4904 10.7825 28.7429 10.7275C28.9954 10.6725 28.9429 10.4425 29.1954 10.3875C29.4479 10.3325 29.4229 10.2225 29.6729 10.165C29.9229 10.1075 29.9479 10.2175 30.2004 10.165C30.4529 10.1125 30.3879 9.84001 30.6379 9.78001C30.9154 9.71251 31.0754 10.36 31.3504 10.2875C31.6254 10.215 31.4704 9.60251 31.7479 9.53001C32.0254 9.45751 32.0354 9.505 32.3129 9.4325C32.5904 9.36 32.5854 9.3475 32.8629 9.2775C33.1404 9.20751 33.1954 9.42749 33.4729 9.35749C33.6479 9.31249 33.7954 9.13251 33.9704 9.09251C34.1454 9.05251 34.3979 9.3675 34.5754 9.33C34.7529 9.29249 34.8829 9.03 35.0604 8.9925C35.2379 8.955 35.4954 9.28 35.6704 9.24C35.8454 9.2 36.0079 9.05749 36.1829 9.00999C36.3579 8.96249 36.4479 8.62749 36.6204 8.56999C36.7929 8.51249 37.0629 8.7125 37.2304 8.645C37.3979 8.5775 37.6279 8.59749 37.7904 8.51249C37.9604 8.42499 38.0729 8.33501 38.2404 8.28001C38.4179 8.22001 38.5654 8.22251 38.7429 8.18751C38.9204 8.15251 39.0229 7.58498 39.2079 7.56748C39.3929 7.54998 39.5854 7.6225 39.7704 7.6125C39.9554 7.6025 40.1604 8.05249 40.3479 8.03999C40.5354 8.02749 40.7029 7.79 40.8904 7.77C41.0679 7.75 41.3104 7.7125 41.5054 7.6175C41.6779 7.535 41.9004 7.52501 42.0804 7.43501C42.2604 7.34501 42.4229 7.39001 42.6104 7.34751C42.8079 7.30251 42.8729 7.10249 43.0679 7.16999C43.3854 7.27999 43.4554 6.78249 43.6154 6.69749C43.7879 6.60749 44.1379 6.92499 44.4179 6.85999C44.6979 6.79499 44.5979 6.365 44.8779 6.3C45.1579 6.235 45.1504 6.20249 45.4329 6.13749C45.7154 6.07249 45.8654 6.7175 46.1454 6.6525C46.4254 6.5875 46.3854 6.41001 46.6654 6.34501C46.9454 6.28001 46.8329 5.78998 47.1129 5.72498C47.3004 5.67998 47.5529 5.92249 47.7304 5.88499C47.9204 5.84499 48.1154 5.87 48.2954 5.8375C48.4854 5.8025 48.6629 5.735 48.8429 5.705C49.0329 5.6725 49.1779 5.3925 49.3579 5.3625C49.5479 5.3325 49.7904 5.65998 49.9729 5.62998C50.1554 5.59998 50.3854 5.75998 50.5654 5.72498C50.7454 5.68998 50.9004 5.45748 51.0804 5.41248C51.2604 5.36748 51.3804 5.10249 51.5579 5.04499C51.7354 4.98749 51.8829 4.88998 52.0579 4.81748C52.2329 4.74498 52.4929 4.90501 52.6454 4.84501C52.8229 4.77501 53.0429 4.95001 53.2029 4.90501C53.3779 4.85751 53.4654 4.48749 53.6454 4.47999C53.8104 4.47249 53.9604 4.6725 54.1504 4.705C54.3079 4.7325 54.5004 4.63999 54.6879 4.69749C54.8754 4.75499 55.0379 4.66498 55.2279 4.56748C55.3779 4.48998 55.7029 4.64251 55.8779 4.53001C56.0304 4.43251 55.8854 3.7675 56.0654 3.6825C56.2304 3.605 56.5304 3.71249 56.7279 3.67249C56.9029 3.63749 57.1304 3.63 57.3354 3.6425C57.5079 3.655 57.7354 3.66498 57.9354 3.72498C58.1029 3.77498 58.1829 3.85499 58.3704 3.94749C58.4904 3.76749 58.7629 3.89501 58.9004 3.78001C59.0579 3.64751 59.1654 3.53 59.3429 3.4625C59.5204 3.395 59.6704 3.19499 59.8654 3.16499C60.0604 3.13499 60.2429 2.815 60.4429 2.805C60.6429 2.795 60.8679 3.42251 61.0629 3.41001C61.2579 3.39751 61.4779 3.32499 61.6679 3.28999C61.9329 3.23999 61.9454 3.30749 62.2104 3.25749C62.4754 3.20749 62.4304 2.96499 62.6954 2.91499C62.9604 2.86499 62.9304 2.67999 63.1979 2.63999C63.4804 2.59749 63.4854 2.59001 63.7704 2.56001C64.0554 2.53001 64.0554 2.53999 64.3404 2.50999C64.6254 2.47999 64.6629 2.8075 64.9479 2.775C65.2329 2.7425 65.1929 2.39249 65.4779 2.35999C65.7629 2.32749 65.7504 2.22001 66.0354 2.18751C66.3204 2.15501 66.3379 2.31751 66.6229 2.28501C66.7804 2.26751 66.9804 2.355 67.1879 2.3075C67.3554 2.27 67.6279 2.56249 67.8204 2.51249C67.9904 2.46749 68.0904 2.11001 68.2804 2.06001C68.4529 2.01251 68.7054 2.23501 68.8929 2.18751C69.0679 2.14251 69.1629 1.76751 69.3479 1.72001C69.5329 1.67251 69.6604 1.42749 69.8479 1.38499C70.0354 1.34249 70.2504 1.48249 70.4354 1.44499C70.6204 1.40749 70.8304 1.56251 71.0179 1.53501C71.2054 1.50751 71.3704 1.39501 71.5579 1.37501C71.7454 1.35501 71.9079 1.07 72.0954 1.0575C72.2829 1.045 72.4829 1.38001 72.6704 1.37751C72.8579 1.37501 73.0404 1.30001 73.2254 1.31001C73.4104 1.32001 73.5904 1.375 73.7754 1.3975C73.9604 1.42 74.2079 1.0825 74.3929 1.1175C74.5779 1.1525 74.7229 1.54251 74.9029 1.59501C75.0429 1.47251 75.1204 1.125 75.3129 1.025C75.4904 0.932503 75.8329 1.22999 76.0279 1.16999C76.2229 1.10999 76.3779 1.04501 76.5679 1.03501C76.7929 1.02251 76.8554 1.1 77.0204 1.1825C77.2179 1.2825 77.5204 1.0825 77.6754 1.1175C77.8804 1.165 78.0104 0.857498 78.1829 0.832498C78.3554 0.807498 78.5079 0.789999 78.7029 0.739999C78.8654 0.699999 79.1354 1.12999 79.3429 1.10749C79.6079 1.07749 79.6054 1.03999 79.8704 1.00749C80.1354 0.974985 80.1004 0.664988 80.3654 0.634988C80.6304 0.604988 80.6529 0.782511 80.9179 0.752511C81.1829 0.722511 81.1654 0.562507 81.4304 0.530007C81.6954 0.497507 81.7154 0.652504 81.9804 0.620004C82.2454 0.587504 82.2354 0.49 82.5004 0.46C82.7654 0.43 82.7954 0.68 83.0629 0.6475C83.3304 0.615 83.3129 0.472483 83.5804 0.442483C83.8479 0.412483 83.8279 0.0775087 84.0954 0.0625087C84.3629 0.0475087 84.3729 0.0925099 84.6304 0.0950099C84.8879 0.0975099 84.8829 0.497509 85.1404 0.500009C85.3979 0.502509 85.3979 0.52751 85.6554 0.53251C85.9129 0.53751 85.9204 -0.00249135 86.1779 8.65388e-06C86.3304 8.65388e-06 86.4629 0.662485 86.6604 0.694985C86.8279 0.724985 87.0579 0.480003 87.2354 0.525003C87.4129 0.570003 87.6454 0.442504 87.8104 0.495004C88.0004 0.557504 88.0629 0.922492 88.2029 0.982492C88.3679 1.05499 88.5129 1.105 88.6504 1.2075C88.7879 1.31 89.0804 1.2675 89.1954 1.3975C89.3104 1.5275 88.9779 1.95999 89.0679 2.10999C89.1579 2.25999 89.8904 2.0775 89.9604 2.24C90.0304 2.4025 89.8104 2.68749 89.8604 2.85499C89.9104 3.02249 89.8554 3.21749 89.8929 3.38749C89.9304 3.55749 89.7704 3.755 89.7954 3.925C89.8204 4.095 90.0129 4.22249 90.0279 4.38999C89.8879 4.52499 89.6429 4.455 89.5079 4.5575C89.3554 4.6725 89.4454 5.115 89.2954 5.205C89.1379 5.2975 88.8229 5.095 88.6604 5.1775C88.4979 5.26 88.5579 5.75751 88.3929 5.84251C88.2404 5.92251 87.9504 5.75499 87.7879 5.85499C87.6429 5.94249 87.2754 5.73999 87.1204 5.85499C86.9829 5.95499 86.8879 6.16499 86.7404 6.28999C86.6054 6.40499 86.6054 6.67249 86.4504 6.75749C86.2954 6.84249 86.0804 6.765 85.9154 6.83C85.7504 6.895 85.6029 6.95999 85.4304 7.00749C85.2579 7.05499 85.1404 7.28499 84.9704 7.32749C84.8004 7.36999 84.6604 7.55001 84.4904 7.59251C84.3204 7.63501 84.0804 7.45499 83.9154 7.50999C83.7504 7.56499 83.7404 7.98 83.5854 8.055C83.4129 8.14 83.2079 8.12749 83.0554 8.19999C82.8879 8.27999 82.6929 8.28499 82.5329 8.35749C82.3729 8.42999 82.1629 8.3925 81.9904 8.4625C81.8354 8.525 81.6629 8.56999 81.4804 8.63749C81.2354 8.72749 81.1179 8.405 80.8729 8.4925C80.6279 8.58 80.7579 8.935 80.5129 9.025C80.2679 9.115 80.3804 9.41749 80.1354 9.50749C79.8904 9.59749 79.7804 9.29499 79.5354 9.38499C79.2904 9.47499 79.1729 9.15 78.9279 9.24C78.6829 9.33 78.9179 9.97001 78.6754 10.06C78.4329 10.15 78.4154 10.1075 78.1704 10.1975C77.9254 10.2875 77.8129 9.97999 77.5679 10.07C77.3229 10.16 77.3779 10.3075 77.1329 10.3975C76.8879 10.4875 76.8904 10.49 76.6454 10.58C76.4004 10.67 76.4229 10.7325 76.1779 10.8225C75.9804 10.895 75.8104 10.98 75.6579 11.03C75.4629 11.0925 75.2404 10.965 75.0779 11.015C74.9154 11.065 74.7604 11.1375 74.5754 11.21C74.4279 11.2675 74.1654 11.1125 73.9754 11.2025C73.7154 11.325 73.6379 11.1625 73.3779 11.285C73.1179 11.4075 73.1729 11.5275 72.9129 11.65C72.6529 11.7725 72.8229 12.1375 72.5629 12.26C72.4104 12.3325 72.0854 11.84 71.8579 11.8625C71.6654 11.88 71.5104 12.3325 71.3079 12.3725C71.1054 12.4125 71.0554 12.6175 70.8879 12.73C70.7329 12.835 70.3404 12.5325 70.2479 12.7425C69.9654 12.88 70.1179 13.3675 69.8104 13.4325C69.5029 13.4975 69.4629 13.31 69.1554 13.3775C68.8479 13.445 68.7354 13.0275 68.4354 13.1225C68.2929 13.2275 68.3504 13.745 68.2079 13.845C68.0654 13.945 67.6679 13.6775 67.5204 13.7725C67.3729 13.8675 67.3829 14.215 67.2329 14.305C67.0829 14.395 66.8179 14.2875 66.6629 14.3725C66.5079 14.4575 66.4229 14.67 66.2629 14.7475C66.1029 14.825 66.0329 15.105 65.8704 15.175C65.7079 15.245 65.4979 15.2175 65.3329 15.2775C65.1679 15.3375 64.9229 15.1675 64.7554 15.22C64.5879 15.2725 64.4729 15.5175 64.3004 15.56C64.1279 15.6025 63.8829 15.27 63.7079 15.3025C63.5154 15.34 63.5204 15.985 63.3554 16.0525C63.1804 16.1225 63.0279 16.1175 62.8729 16.2125C62.7179 16.3075 62.6329 16.465 62.4854 16.5775C62.3379 16.69 61.7829 16.2675 61.6354 16.3825C61.4879 16.4975 61.3729 16.6075 61.2179 16.715C61.0779 16.8125 60.9779 16.855 60.8179 16.9225C60.6579 16.99 60.5704 17.2725 60.4254 17.3625C60.2804 17.4525 60.5054 17.7975 60.4204 17.96C60.3529 18.09 60.0129 18.0725 60.0104 18.28C60.1704 18.095 60.4704 18.2925 60.6204 18.2175C60.8229 18.115 60.8679 17.805 61.0554 17.81C61.2629 17.815 61.4629 17.8125 61.6579 17.8225C61.9304 17.8375 61.9179 18.1125 62.1904 18.1275C62.4629 18.1425 62.4904 17.6225 62.7654 17.6375C63.0404 17.6525 63.0429 17.5775 63.3179 17.5925C63.5929 17.6075 63.5729 17.9875 63.8479 17.985C64.0229 17.955 64.1554 17.6575 64.3204 17.635C64.4954 17.6125 64.7154 18.0475 64.8829 18.0325C65.0504 18.0175 65.2129 17.9175 65.3804 17.91C65.5479 17.9025 65.7204 17.42 65.8879 17.42C66.0554 17.42 66.2104 18.17 66.3804 18.1775C66.5504 18.185 66.7079 18.1825 66.8804 18.195C67.0529 18.2075 67.2729 17.535 67.4479 17.55C67.6229 17.565 67.7579 18.03 67.9329 18.0475C68.1929 18.035 68.1929 17.9575 68.4529 17.9325C68.7129 17.9075 68.7029 17.8125 68.9629 17.7875C69.2229 17.7625 69.2429 17.9775 69.5029 17.9525C69.7629 17.9275 69.7604 17.9125 70.0229 17.8875C70.2854 17.8625 70.2604 17.63 70.5204 17.605C70.7804 17.58 70.7954 17.74 71.0554 17.715C71.3154 17.69 71.3379 17.9025 71.5979 17.8775C71.8579 17.8525 71.8304 17.5575 72.0904 17.535C72.3654 17.5125 72.3404 17.1325 72.6129 17.115C72.8854 17.0975 72.9129 17.5025 73.1879 17.485C73.4629 17.4675 73.4679 17.555 73.7429 17.5375C74.0179 17.52 74.0329 17.7625 74.3079 17.745C74.5829 17.7275 74.5354 17.01 74.8104 16.9925C75.0854 16.975 75.1179 17.4775 75.3904 17.46C75.6629 17.4425 75.6454 17.1375 75.9179 17.12C76.1904 17.1025 76.1879 17.0525 76.4629 17.035C76.7379 17.0175 76.7654 17.4325 77.0379 17.415C77.3104 17.3975 77.3154 17.45 77.5904 17.43C77.8654 17.41 77.8404 17.045 78.1154 17.025C78.3904 17.005 78.4154 17.375 78.6904 17.3575C78.9654 17.34 78.9379 16.93 79.2129 16.9125C79.4004 16.9 79.5829 16.925 79.7429 16.9275C79.9254 16.93 80.0704 17.1825 80.2379 17.21C80.4054 17.2375 80.6204 17.0575 80.7929 17.1125C80.9454 17.1625 81.0329 17.68 81.2054 17.7575C81.3554 17.7175 81.6379 17.5575 81.8129 17.5025C81.9679 17.455 82.0979 17.305 82.2654 17.255C82.4329 17.205 82.5004 16.8325 82.6654 16.7925C82.8304 16.7525 83.0979 17.2475 83.2654 17.22C83.4329 17.1925 83.5329 16.445 83.7004 16.44C83.9679 16.4325 83.9854 16.96 84.2529 16.9525C84.5204 16.945 84.5054 16.48 84.7729 16.47C85.0404 16.46 85.0479 16.68 85.3154 16.6725C85.5829 16.665 85.5979 17.085 85.8654 17.0775C86.1329 17.07 86.1279 16.93 86.3979 16.9225C86.6679 16.915 86.6529 16.48 86.9204 16.47C87.0879 16.465 87.2454 16.5325 87.4254 16.5C87.5954 16.47 87.7454 16.3275 87.9179 16.2925C88.0904 16.2575 88.2979 16.32 88.4704 16.3C88.6429 16.28 88.8629 16.245 89.0329 16.265C89.2029 16.285 89.2129 16.785 89.3704 16.8675C89.5929 16.9875 89.9379 16.8725 90.1154 16.8575C90.3279 16.84 90.4504 16.5175 90.6379 16.4325C90.8254 16.3475 91.0729 16.47 91.2829 16.4575C91.5604 16.4425 91.5604 16.425 91.8379 16.4125C92.1154 16.4 92.1304 16.6475 92.4079 16.6325C92.6854 16.6175 92.6779 16.47 92.9579 16.455C93.2379 16.44 93.2179 16.09 93.4954 16.075C93.7729 16.06 93.7754 16.0975 94.0529 16.0825C94.3304 16.0675 94.3429 16.2975 94.6229 16.2825C94.9029 16.2675 94.9154 16.5225 95.1929 16.5075C95.4704 16.4925 95.4504 16.0925 95.7304 16.0775C96.0104 16.0625 96.0004 15.875 96.2804 15.86C96.5604 15.845 96.5704 16.075 96.8504 16.06C97.0354 16.05 97.2254 16.035 97.4154 16.04C97.6054 16.045 97.7404 16.4175 97.9229 16.4475C98.1054 16.4775 98.3779 16.1125 98.5529 16.175C98.7279 16.2375 98.8929 16.38 99.0429 16.4875C99.1929 16.595 99.4254 16.6725 99.5379 16.83C99.6404 16.9725 99.8779 17.345 99.9429 17.5375C99.7704 17.605 99.2454 17.44 99.0704 17.5325C98.8954 17.625 98.8329 17.9075 98.6654 18C98.4979 18.0925 98.4029 18.41 98.2279 18.4775C98.0429 18.5525 97.7604 18.55 97.5779 18.565C97.2654 18.59 97.2529 18.4225 96.9379 18.4475C96.6229 18.4725 96.6129 18.3275 96.3004 18.3525C95.9879 18.3775 95.9729 18.19 95.6579 18.215C95.4504 18.2325 95.2804 18.5575 95.0929 18.565C94.8879 18.575 94.6729 18.21 94.4829 18.22C94.2929 18.23 94.1504 18.92 93.9554 18.945C93.7604 18.97 93.4729 18.3825 93.2754 18.4275C93.0929 18.4675 92.9379 18.7075 92.7379 18.7725C92.5729 18.8275 92.4229 19.185 92.2079 19.2075C92.0179 19.225 91.8029 19.3375 91.6029 19.3425C91.4029 19.3475 91.1979 19.305 91.0079 19.31C90.7929 19.315 90.5479 18.665 90.3754 18.685C90.0979 18.715 90.1154 18.8975 89.8379 18.925C89.5604 18.9525 89.5904 19.25 89.3129 19.28C89.0354 19.31 89.0304 19.275 88.7529 19.305C88.4754 19.335 88.4379 19 88.1604 19.03C87.8829 19.06 87.9279 19.6725 87.6479 19.6875C87.4704 19.67 87.2804 19.2275 87.1079 19.2175C86.9354 19.2075 86.7554 19.0125 86.5804 19.01C86.4054 19.0075 86.2279 19.3975 86.0554 19.4025C85.8829 19.4075 85.7029 19.315 85.5279 19.325C85.3529 19.335 85.1454 18.9675 84.9704 18.9825C84.7954 18.9975 84.6329 19.1825 84.4579 19.2C84.2829 19.2175 84.1004 19.165 83.9254 19.185C83.7504 19.205 83.5954 19.365 83.4204 19.385C83.2454 19.405 83.0829 19.5075 82.9079 19.525C82.7329 19.5425 82.5829 19.79 82.4079 19.8075C82.1454 19.8325 82.1254 19.6225 81.8604 19.6475C81.5954 19.6725 81.5679 19.3525 81.3029 19.3775C81.0379 19.4025 81.0929 19.9625 80.8279 19.9875C80.5629 20.0125 80.5629 19.9875 80.2979 20.01C80.0329 20.0325 80.0304 19.995 79.7679 20.02C79.5054 20.045 79.5179 20.1775 79.2529 20.2025C78.9879 20.2275 78.9379 19.685 78.6729 19.71C78.4079 19.735 78.4029 19.6675 78.1379 19.6925C77.8729 19.7175 77.9354 20.36 77.6704 20.385C77.4054 20.41 77.3704 20.0225 77.1054 20.0475C76.8404 20.0725 76.8479 20.145 76.5854 20.17C76.3229 20.195 76.3504 20.4975 76.0854 20.5225C75.8204 20.5475 75.8004 20.335 75.5379 20.3575C75.2754 20.38 75.2929 20.585 75.0279 20.61C74.7629 20.635 74.7579 20.5625 74.4929 20.5875C74.2279 20.6125 74.1954 20.27 73.9304 20.295C73.6654 20.32 73.6529 20.0975 73.3879 20.1175C73.1054 20.1375 73.1129 20.15 72.8304 20.165C72.5479 20.18 72.5779 20.7575 72.2954 20.7725C72.0129 20.7875 71.9854 20.275 71.7029 20.29C71.4204 20.305 71.4179 20.28 71.1354 20.295C70.8529 20.31 70.8554 20.3625 70.5704 20.3775C70.2854 20.3925 70.3129 20.8525 70.0304 20.8675C69.7479 20.8825 69.7454 20.8425 69.4629 20.8575C69.1804 20.8725 69.1679 20.66 68.8854 20.675C68.6029 20.69 68.5979 20.6025 68.3129 20.6175C68.0279 20.6325 68.0229 20.4925 67.7379 20.5075C67.4529 20.5225 67.4854 21.11 67.2004 21.125C66.9154 21.14 66.8854 20.4475 66.6004 20.4575C66.3154 20.4675 66.3404 21.165 66.0604 21.17C65.7804 21.175 65.7779 21.0825 65.4954 21.09C65.2129 21.0975 65.2154 21.2125 64.9354 21.2175C64.6554 21.2225 64.6504 21.0375 64.3679 21.045C64.1879 21.05 63.9904 20.605 63.8079 20.6125C63.6254 20.62 63.4454 20.6725 63.2629 20.68C63.0804 20.6875 62.9179 21.1075 62.7354 21.115C62.5529 21.1225 62.3529 20.645 62.1704 20.6525C61.9879 20.66 61.8129 20.7925 61.6304 20.795C61.4479 20.7975 61.2704 20.625 61.0904 20.6225C60.9104 20.62 60.7204 21.02 60.5379 21.0125C60.3554 21.005 60.1654 21.065 59.9829 21.0475C59.8004 21.03 59.6654 20.6425 59.4854 20.6175C59.3229 20.595 59.0554 21.01 58.8979 20.9575C58.7404 20.905 58.6504 20.67 58.4954 20.61C58.3404 20.55 58.2029 20.4675 58.0429 20.4175C57.8829 20.3675 57.7604 20.105 57.5929 20.085C57.4379 20.065 57.2804 20.21 57.1079 20.23C56.8479 20.08 56.7129 20.255 56.4804 20.0625C56.2479 19.87 56.2054 19.9225 55.9729 19.7325C55.7404 19.5425 56.1604 19.125 55.9654 18.8975C55.9504 18.72 55.3529 18.775 55.3604 18.6025C55.3679 18.43 55.9079 18.295 55.9354 18.125C55.9629 17.955 55.8329 17.7575 55.8854 17.59C55.9379 17.4225 55.8629 17.2 55.9379 17.0425C56.0129 16.885 56.3504 16.8775 56.4454 16.73C56.5404 16.5825 56.7329 16.5525 56.8504 16.42C56.9679 16.2875 56.9329 16.05 57.0654 15.935C57.1979 15.82 57.2479 15.615 57.3979 15.515C57.5479 15.415 57.6929 15.3275 57.8504 15.2475C58.0079 15.1675 58.2804 15.405 58.4479 15.3425C58.6154 15.28 58.6504 14.8675 58.8229 14.825C59.0179 14.775 59.2279 14.8375 59.3904 14.7775C59.5729 14.71 59.6254 14.4325 59.7779 14.3375C59.9304 14.2425 60.2604 14.36 60.3929 14.22C60.5104 14.095 60.6479 14.0325 60.7579 13.86C61.0004 13.6875 61.0554 13.8375 61.3179 13.6975C61.5804 13.5575 61.3029 13.0425 61.5654 12.9025C61.8279 12.7625 61.9029 12.895 62.1704 12.7625C62.4229 12.6375 62.5629 12.935 62.8204 12.82C63.0779 12.705 62.9579 12.435 63.2154 12.3175C63.4729 12.2 63.4504 12.1475 63.7079 12.0325C63.9654 11.9175 64.0004 11.99 64.2579 11.8725C64.4429 11.79 64.5829 11.59 64.7629 11.53C64.9429 11.47 65.2279 11.67 65.4054 11.585C65.5704 11.5075 65.6129 11.23 65.7729 11.09C65.8629 11.0125 66.1104 11.05 66.2754 10.955C66.4104 10.8775 66.4104 10.505 66.5504 10.435C66.7179 10.3525 66.9079 10.315 67.0204 10.2675C67.2604 10.1675 67.4054 10.5125 67.6429 10.4125C67.8804 10.3125 67.8829 10.315 68.1229 10.215C68.3629 10.115 68.4079 10.22 68.6454 10.12C68.8829 10.02 68.6704 9.50751 68.9079 9.40751C69.1454 9.30751 69.2029 9.4375 69.4429 9.3375C69.6829 9.2375 69.8879 9.72 70.1279 9.62C70.3679 9.52 70.1529 9.01001 70.3904 8.90751C70.6804 8.78001 70.6729 8.76749 70.9629 8.63749C71.2529 8.50749 71.3604 8.7475 71.6504 8.6175C71.9404 8.4875 71.8504 8.24499 72.1504 8.13999C72.4279 8.04499 72.4229 7.95749 72.7079 7.88749C72.9929 7.81749 72.9954 7.82749 73.2804 7.75749C73.5654 7.68749 73.6904 8.20999 73.9754 8.13999C74.2604 8.06999 74.1179 7.48749 74.4054 7.41749C74.6929 7.34749 74.7654 7.66499 75.0454 7.57499C75.1679 7.49499 75.0429 7.22249 75.1479 7.04249C75.2404 6.88499 75.6479 7.055 75.7604 6.925C75.9504 6.94 76.0779 7.01751 76.2529 7.00251C76.4404 6.98751 76.5554 6.5 76.7279 6.4575C76.9004 6.415 76.9929 6.20499 77.1629 6.13999C77.3329 6.07499 77.6879 6.46249 77.8529 6.38249C78.0179 6.30249 78.2679 6.3925 78.4304 6.305C78.5929 6.2175 78.7629 6.17751 78.9304 6.09251C79.0979 6.00751 78.9754 5.35501 79.1479 5.28001C79.2629 5.23001 79.5554 5.3025 79.7504 5.305C79.9179 5.305 80.1304 5.6 80.2829 5.5575C80.4454 5.5125 80.5904 5.31499 80.6529 5.13249C80.6929 5.01249 80.5979 4.9875 80.5604 4.775C80.3079 4.6825 80.3479 4.57749 80.0779 4.57749C79.8079 4.57749 79.8104 4.8675 79.5404 4.8675C79.2704 4.8675 79.2679 4.44749 78.9979 4.44999C78.7279 4.45249 78.7304 4.90501 78.4604 4.90751C78.1904 4.91001 78.1629 4.3125 77.8929 4.335C77.7204 4.39 77.5829 4.74751 77.4229 4.78251C77.2479 4.82251 77.1154 5.1325 76.9504 5.1525C76.7779 5.175 76.5654 4.7025 76.3954 4.7075C76.2254 4.7125 76.0629 4.97501 75.8879 4.97251C75.7229 4.97001 75.5504 5.0275 75.3729 5.0225C75.2104 5.0175 75.0454 4.8425 74.8654 4.8375C74.6929 4.835 74.4404 4.67749 74.2354 4.73499C74.0654 4.78249 73.8704 4.72249 73.6704 4.76499C73.4929 4.80249 73.3804 5.37251 73.1779 5.37501C72.9979 5.37501 72.8379 5.0425 72.6379 4.9925V5.00001Z" fill="#C5A3E7"/>
</svg>
