<svg width="58" height="61" viewBox="0 0 58 61" fill="none" xmlns="http://www.w3.org/2000/svg">
<g clip-path="url(#clip0_1287_2)">
<path d="M38.2092 29.725C38.2092 34.35 33.9792 35.3149 28.7592 35.3149C23.5392 35.3149 19.3092 34.35 19.3092 29.725C19.3092 25.1 23.5392 21.3549 28.7592 21.3549C33.9792 21.3549 38.2092 25.1 38.2092 29.725Z" fill="white"/>
<path d="M47.0943 15.43C48.3843 11.63 48.7543 4.72 48.0843 2.15C47.8193 1.12 46.9643 0.34 45.9093 0.17C45.2293 0.06 44.5443 0 43.8693 0C38.3243 0 34.6393 3.69 33.1243 5.57C31.7143 5.29 30.2443 5.15 28.7593 5.15C27.2743 5.15 25.8043 5.29 24.3943 5.57C22.8743 3.69 19.1893 0 13.6493 0C12.9793 0 12.2893 0.055 11.6093 0.17C10.5543 0.34 9.69927 1.12 9.43427 2.145C8.75927 4.72 9.13427 11.63 10.4243 15.43C7.09927 20.78 6.17927 27.12 8.19427 30.925C9.34927 33.11 11.3543 34.315 13.8443 34.315C13.8893 34.315 13.9443 34.315 13.9843 34.315C15.1593 34.28 16.2793 33.875 17.2243 33.14C19.2193 31.59 20.8343 29.21 22.5343 27.175C23.4243 26.11 24.7393 25.485 26.1293 25.485H31.3743C32.6993 25.485 33.9743 26.04 34.8493 27.04C36.7343 29.185 38.4643 31.72 40.2893 33.14C41.2643 33.9 42.4543 34.315 43.6493 34.32H43.6643C46.1543 34.32 48.1643 33.115 49.3193 30.93C51.3343 27.12 50.4143 20.78 47.0943 15.43Z" fill="#231F20"/>
<path d="M45.1042 15.635C46.4242 12.74 47.0492 5.24 46.3592 2.595C46.2692 2.245 45.9792 1.98 45.6192 1.925C45.0142 1.825 44.4292 1.78 43.8642 1.78C37.5192 1.78 33.8592 7.565 33.8592 7.565C32.2792 7.155 30.5792 6.93 28.7542 6.93C26.9292 6.93 25.2292 7.155 23.6492 7.565C23.6492 7.565 19.9892 1.78 13.6442 1.78C13.0792 1.78 12.4992 1.825 11.8942 1.925C11.5342 1.985 11.2442 2.245 11.1542 2.595C10.4642 5.235 11.0892 12.74 12.4092 15.635C7.36423 23.06 7.70923 32.535 13.8492 32.535C14.3542 32.535 15.0292 32.43 14.9092 32.43C10.5992 32.43 6.79423 26.04 15.9292 14.795C17.7442 12.56 19.5492 11.755 21.0992 11.755C24.5592 11.755 24.8392 15 27.6492 15H29.8692C31.8442 15 32.9792 13.29 32.9842 13.29C33.7942 12.425 34.9992 11.755 36.4192 11.755C37.9692 11.755 39.7792 12.555 41.5942 14.795C50.7242 26.04 46.9242 32.43 42.6142 32.43C42.4892 32.43 43.1692 32.535 43.6742 32.535C49.8142 32.535 50.1592 23.055 45.1092 15.635H45.1042ZM13.8492 13.755C12.6442 9.84 12.6392 6.15 12.7142 4.54C12.7342 4.11 13.1792 3.825 13.5742 3.995C16.5692 5.275 18.3742 8.1 18.9942 9.225C19.0492 9.325 19.0142 9.455 18.9142 9.515C16.9392 10.665 15.2442 12.125 13.8492 13.76V13.755ZM43.6692 13.755C42.2292 12.075 40.4792 10.57 38.4242 9.405C38.9342 8.44 40.7692 5.355 43.9442 3.995C44.3392 3.825 44.7842 4.11 44.8042 4.54C44.8792 6.145 44.8742 9.84 43.6692 13.755Z" fill="white"/>
<path d="M31.9642 28.03C31.3842 28.715 30.6242 29.24 29.9942 29.6C29.2242 30.04 28.2892 30.04 27.5192 29.6C26.8892 29.24 26.1292 28.715 25.5492 28.03C25.1192 27.52 25.4992 26.74 26.1642 26.74H31.3442C32.0092 26.74 32.3942 27.525 31.9592 28.03H31.9642Z" fill="#231F20"/>
<path d="M20.2742 23.835C22.7181 23.835 24.6992 21.8538 24.6992 19.41C24.6992 16.9661 22.7181 14.985 20.2742 14.985C17.8304 14.985 15.8492 16.9661 15.8492 19.41C15.8492 21.8538 17.8304 23.835 20.2742 23.835Z" fill="white"/>
<path d="M20.2742 22.36C21.9035 22.36 23.2242 21.0392 23.2242 19.41C23.2242 17.7808 21.9035 16.46 20.2742 16.46C18.645 16.46 17.3242 17.7808 17.3242 19.41C17.3242 21.0392 18.645 22.36 20.2742 22.36Z" fill="#231F20" stroke="#231F20" stroke-width="0.125" stroke-miterlimit="10"/>
<path d="M37.2442 23.835C39.6881 23.835 41.6692 21.8538 41.6692 19.41C41.6692 16.9661 39.6881 14.985 37.2442 14.985C34.8004 14.985 32.8192 16.9661 32.8192 19.41C32.8192 21.8538 34.8004 23.835 37.2442 23.835Z" fill="white"/>
<path d="M37.2442 22.36C38.8735 22.36 40.1942 21.0392 40.1942 19.41C40.1942 17.7808 38.8735 16.46 37.2442 16.46C35.615 16.46 34.2942 17.7808 34.2942 19.41C34.2942 21.0392 35.615 22.36 37.2442 22.36Z" fill="#231F20" stroke="#231F20" stroke-width="0.125" stroke-miterlimit="10"/>
</g>
<path d="M36.9877 41.4449C38.1817 41.2625 39.3747 41.2631 40.5537 41.4588L40.5537 41.4588C41.6123 41.6344 42.5629 42.0409 43.3665 42.6233C44.0313 41.9435 44.9576 41.5134 45.9779 41.5134H48.8614C49.1943 41.5134 49.5158 41.5591 49.8201 41.6452C50.1067 41.5595 50.409 41.5126 50.7197 41.511L50.7243 41.511H50.7279C51.3217 41.5097 52.3934 41.5085 53.9527 41.511L53.9527 41.511C55.8237 41.5132 57.3948 42.9433 57.4963 44.8671C57.592 46.6705 57.3898 48.4962 56.6593 50.0699C57.0484 50.6884 57.2148 51.4342 57.1129 52.1851L57.1129 52.1852L56.464 56.9713C56.4603 57.0125 56.4557 57.0541 56.45 57.0962C56.2606 58.4811 55.2254 59.6485 53.8592 59.9931V60.1074L52.9787 60.0961C52.1 60.0849 50.9047 59.8699 49.7296 59.2147C49.1186 59.7122 48.3398 60.0157 47.4978 60.0157H44.473C43.4296 60.0157 42.5081 59.5985 41.8495 58.9287C40.9425 59.5304 39.911 59.9562 38.8056 60.1419L38.7382 60.1529C37.521 60.3461 36.3047 60.3492 35.1029 60.1498C34.0237 59.9707 33.0571 59.5517 32.244 58.9512C31.573 59.6293 30.6432 60.0554 29.624 60.0554H26.619C26.1236 60.0554 25.6544 59.9551 25.2304 59.7727C24.8026 59.954 24.333 60.0554 23.8423 60.0554H20.2281C19.8402 60.0554 19.4677 59.9923 19.1206 59.875C18.7682 59.9917 18.3927 60.0554 18.0047 60.0554H14.6052C13.7353 60.0554 12.9559 59.7404 12.3634 59.2238C11.2229 59.7481 9.99663 60.0095 8.9339 60.1478C6.54572 60.4585 4.17018 60.2311 3.79264 60.2099C1.43083 60.0779 -0.281536 58.02 0.0385001 55.6642L0.595483 51.556C0.699036 50.7909 1.05087 50.1152 1.55384 49.5982C1.21035 48.586 1.21806 47.4997 1.4793 46.4129L1.48112 46.4056C1.48116 46.4054 1.48121 46.4052 1.48126 46.405C2.32095 42.9336 5.66959 41.7532 7.9267 41.4367C10.1733 41.1217 12.7564 41.4029 14.6477 42.2362C15.3097 41.8074 16.0971 41.5532 16.9352 41.5532H20.0891C20.5991 41.5532 21.0741 41.6652 21.495 41.865C22.1583 41.6118 22.9014 41.4502 23.7158 41.4502C23.7518 41.4502 23.7873 41.451 23.8222 41.4523C24.7647 41.4661 25.7342 41.6657 26.5778 42.183C27.2282 41.78 27.9882 41.5519 28.7667 41.5519H30.9764C32.0359 41.5519 33.0428 41.9795 33.7604 42.711C34.697 42.0805 35.7684 41.6382 36.9184 41.4557L36.9861 41.4449H36.9877Z" fill="#231F20"/>
<path d="M37.055 42.3142C38.1839 42.135 39.3061 42.1328 40.4116 42.3163C41.6459 42.5211 42.7024 43.0823 43.5106 43.8823C43.983 42.9959 44.9203 42.3827 45.9782 42.3827H48.8616C49.2074 42.3827 49.533 42.4474 49.8287 42.5645C50.1075 42.447 50.411 42.3817 50.7253 42.3803L50.7299 42.3802C51.3227 42.379 52.3933 42.3778 53.9515 42.3802C55.372 42.3817 56.552 43.4614 56.6284 44.9132C56.7301 46.828 56.4725 48.6776 55.6349 50.1648C56.1161 50.6616 56.3482 51.3583 56.2517 52.0683L55.6001 56.8746C55.5973 56.9092 55.5936 56.9438 55.5889 56.9784C55.4175 58.2316 54.3181 59.2444 52.9901 59.2268V59.2269C52.0937 59.2154 50.7983 58.956 49.6051 58.1099C49.1093 58.7391 48.341 59.1464 47.498 59.1464H44.4732C43.39 59.1464 42.4899 58.5658 42.0214 57.7184C41.0495 58.5283 39.8757 59.0921 38.6021 59.2943C37.4731 59.4735 36.3509 59.4756 35.2454 59.2922C33.9923 59.0843 32.9226 58.5089 32.1099 57.6893C31.6281 58.5773 30.6835 59.1861 29.6242 59.1861H26.6192C26.1026 59.1861 25.6307 59.0431 25.235 58.7972C24.8249 59.0437 24.3477 59.1861 23.8425 59.1861H20.2283C19.8288 59.1861 19.4558 59.0978 19.1253 58.9407C18.7811 59.0982 18.4011 59.1861 18.0049 59.1861H14.6054C13.7411 59.1861 13.0056 58.7747 12.5531 58.1511C12.4955 58.1839 12.4377 58.2157 12.3797 58.2465C11.2547 58.8441 9.96708 59.1367 8.82194 59.2857C6.53358 59.5835 4.25554 59.3652 3.84172 59.3419C1.98376 59.2383 0.648633 57.6322 0.90009 55.7811L1.4571 51.6727C1.56045 50.9087 1.99716 50.257 2.60177 49.8494C2.10872 48.8874 2.04321 47.7872 2.32474 46.6161C2.32477 46.616 2.32481 46.6158 2.32485 46.6157C3.02858 43.6914 5.87149 42.6027 8.04763 42.2975C10.3183 41.9791 12.923 42.3183 14.6457 43.1967C14.6466 43.1972 14.6476 43.1977 14.6485 43.1982C14.6494 43.1986 14.6503 43.199 14.6511 43.1995C14.6821 43.2153 14.7126 43.2316 14.7428 43.2483C15.3399 42.7352 16.1103 42.4224 16.9354 42.4224H20.0893C20.6064 42.4224 21.0648 42.576 21.4378 42.8317C22.106 42.5238 22.868 42.3195 23.716 42.3195C23.7435 42.3195 23.771 42.3201 23.7985 42.3213C24.8348 42.3345 25.8221 42.5995 26.5814 43.2596C27.1804 42.7302 27.9663 42.4212 28.7669 42.4212H30.9766C32.072 42.4212 33.082 43.006 33.5934 43.9255C34.5735 43.0966 35.7629 42.5193 37.0549 42.3142H37.055Z" fill="white"/>
<path d="M4.15591 47.0563C4.99216 43.5814 11.1821 43.5417 13.7938 44.8766C14.1034 45.0336 14.2857 45.3411 14.2858 45.6917C14.2858 45.7373 14.2827 45.7837 14.2764 45.8306L13.795 49.3812C13.795 49.3812 13.795 49.3815 13.795 49.3819C13.795 49.3822 13.795 49.3825 13.795 49.3825C13.625 50.6355 12.3359 49.38 10.8595 49.1951C10.4681 49.1461 10.2753 49.3753 10.2754 49.6001C10.2754 49.7337 10.3435 49.8658 10.4786 49.937C12.6646 51.0883 13.46 52.0276 13.4603 53.2937C13.4604 53.6825 13.3855 54.1022 13.2528 54.5683C12.2044 58.2541 4.93884 57.5172 3.94747 57.4613C3.18195 57.4192 2.66332 56.7927 2.7663 56.0347L3.32336 51.9257C3.37424 51.5473 3.74646 51.2496 4.12736 51.2831C6.14849 51.4593 7.23535 51.9679 8.16589 52.8475C8.44588 53.1121 8.75424 52.8193 8.75417 52.4431C8.75415 52.3342 8.72828 52.2183 8.6684 52.1069C7.68575 50.2757 3.27996 50.7 4.15591 47.0563Z" fill="#231F20"/>
<path d="M37.3501 44.1744C38.288 44.0255 39.2062 44.0255 40.1032 44.1744C42.0028 44.4895 43.3055 46.0527 43.3676 48.0439C43.3718 48.1817 43.3743 48.3196 43.3752 48.4575C43.3764 48.6528 43.3741 48.8482 43.3685 49.0436C43.3642 49.192 43.3579 49.3404 43.3497 49.4888C43.3451 49.5716 43.3399 49.6545 43.3341 49.7373C43.3092 50.081 43.0028 50.3713 42.6678 50.3713H39.035C38.7819 50.3713 38.5833 50.2013 38.5374 49.9532C38.499 49.7472 38.4059 49.5301 38.1851 49.4718C38.0722 49.442 37.9555 49.442 37.834 49.4718C37.5771 49.5351 37.3426 49.849 37.2446 50.2497C37.1553 50.6194 37.1056 50.9891 37.0945 51.3588C37.0833 51.7583 37.2334 52.0734 37.4729 52.1367C37.5858 52.1664 37.7024 52.1664 37.824 52.1367C38.061 52.0784 38.2136 51.86 38.3079 51.6516C38.4196 51.4047 38.664 51.2372 38.9171 51.2372H42.5512C42.8459 51.2372 43.057 51.4619 43.0571 51.7499C43.0571 51.7893 43.0532 51.8298 43.045 51.8711C42.9321 52.4356 42.7906 53.0001 42.6194 53.5646C42.0177 55.5545 40.2918 57.119 38.3067 57.4341C37.3687 57.5829 36.4505 57.5829 35.5535 57.4341C33.654 57.1189 32.3512 55.5545 32.2892 53.5646C32.2321 51.7248 32.4815 49.8837 33.0373 48.0439C33.6391 46.0539 35.3649 44.4895 37.3501 44.1744Z" fill="#231F20"/>
<path d="M50.7337 44.2637C51.3243 44.2625 52.3925 44.2612 53.9484 44.2637C54.3888 44.2637 54.7251 44.5801 54.7474 45.013C54.9335 48.5178 53.7089 50.9035 50.9831 51.1566C50.7766 51.1759 50.6468 51.3581 50.6467 51.524C50.6467 51.6242 50.6941 51.7183 50.8007 51.767C51.4707 52.0734 52.6953 51.9096 53.771 51.4047C54.0998 51.2496 54.4323 51.4717 54.3851 51.8153L53.7201 56.7207L53.7226 56.7232C53.6754 57.0681 53.3578 57.3485 53.0141 57.3435C51.9508 57.3298 49.9037 56.8075 48.9644 54.1353C48.8553 53.8239 48.3714 53.9442 48.3466 54.2891C48.3406 54.3715 48.335 54.4559 48.3298 54.5422C48.3181 54.7347 48.3082 54.9369 48.3011 55.1475C48.2917 55.4221 48.2868 55.711 48.2881 56.0113C48.2887 56.1559 48.2908 56.3032 48.2944 56.4527C48.3056 56.877 47.9272 57.2629 47.4979 57.2629H44.473C43.8936 57.2629 43.4867 56.7927 43.5661 56.2133L45.0773 45.0602C45.1368 44.6222 45.54 44.2662 45.978 44.2662H48.8614C49.2994 44.2662 49.6071 44.621 49.5476 45.0602L49.1369 48.0885C49.0959 48.3949 49.4508 48.5488 49.6915 48.3255C50.2519 47.8052 50.3958 47.0653 50.396 46.3611C50.3961 45.7557 50.2901 45.1766 50.2511 44.786C50.225 44.5193 50.4595 44.265 50.7337 44.2637Z" fill="#231F20"/>
<path d="M23.7158 44.2036C23.7158 44.2039 23.7158 44.2042 23.7158 44.2042C25.5557 44.2042 25.9786 45.2418 25.9789 46.502C25.979 47.1352 25.8725 47.8246 25.7853 48.4669L24.6886 56.557C24.6327 56.9688 24.2543 57.3026 23.8424 57.3026H20.2282C19.846 57.3026 19.5766 57.0173 19.5765 56.6582C19.5765 56.593 19.5854 56.5253 19.6041 56.4565C20.0172 54.9418 20.6596 51.7559 20.6601 49.9401C20.6602 49.2856 20.577 48.8091 20.3696 48.653C19.5507 48.0364 19.0197 54.2618 18.8559 56.5111C18.8249 56.9403 18.4353 57.3026 18.0048 57.3026H14.6052C14.1946 57.3026 13.9055 56.9688 13.9613 56.557L15.4427 45.621C15.5407 44.8952 16.2095 44.3059 16.9353 44.3059H20.0892C20.3893 44.3059 20.5839 44.5308 20.584 44.7965C20.584 44.9021 20.5533 45.0141 20.4862 45.121C20.3448 45.3443 20.2431 45.5564 20.1686 45.7425C20.1588 45.767 20.1544 45.7903 20.1544 45.8119C20.1543 45.9458 20.3249 46.0143 20.4403 45.8914C21.2356 45.0391 22.361 44.2029 23.7158 44.2029C23.7158 44.2029 23.7158 44.2032 23.7158 44.2036Z" fill="#231F20"/>
<path d="M30.6725 48.2399C31.2073 48.1456 31.6316 48.5488 31.5596 49.0785L30.5559 56.4825C30.4951 56.9353 30.0782 57.3026 29.6241 57.3026H26.6191C26.1662 57.3026 25.8486 56.9353 25.9106 56.4825L26.6526 51.0065C26.7605 50.21 27.299 49.4743 28.0558 49.1058H28.0571C28.7308 48.7771 29.6378 48.4222 30.6725 48.2399Z" fill="#231F20"/>
<path d="M30.9765 44.3047C31.6552 44.3047 32.1353 44.822 32.0485 45.4584L32.051 45.4597L31.9455 46.235C31.8648 46.8305 31.3289 47.333 30.6886 47.4161C30.0497 47.4992 29.4293 47.6419 28.871 47.8032C27.9516 48.0674 27.1352 47.4459 27.2531 46.575L27.407 45.4386C27.4913 44.8121 28.1005 44.3047 28.7668 44.3047H30.9765Z" fill="#231F20"/>
<defs>
<clipPath id="clip0_1287_2">
<rect width="43.25" height="35.31" fill="white" transform="translate(7.13423)"/>
</clipPath>
</defs>
</svg>
