<svg width="252" height="62" viewBox="0 0 252 62" fill="none" xmlns="http://www.w3.org/2000/svg">
<g clip-path="url(#clip0_1287_30033)">
<path d="M82.473 50.5097C82.473 58.3687 75.2853 60.0084 66.4153 60.0084C57.5452 60.0084 50.3575 58.3687 50.3575 50.5097C50.3575 42.6507 57.5452 36.2871 66.4153 36.2871C75.2853 36.2871 82.473 42.6507 82.473 50.5097Z" fill="white"/>
<path d="M97.5707 26.2192C99.7628 19.7621 100.391 8.02039 99.253 3.65336C98.8027 1.90314 97.3498 0.57774 95.5572 0.28887C94.4017 0.101954 93.2377 0 92.0907 0C82.6684 0 76.4068 6.27018 73.8324 9.46474C71.4365 8.98895 68.9386 8.75106 66.4153 8.75106C63.8919 8.75106 61.394 8.98895 58.9981 9.46474C56.4153 6.27018 50.1536 0 40.7398 0C39.6013 0 38.4289 0.0934579 37.2734 0.28887C35.4807 0.57774 34.0278 1.90314 33.5775 3.64486C32.4306 8.02039 33.0678 19.7621 35.2598 26.2192C29.6098 35.3101 28.0465 46.0833 31.4705 52.5488C33.4331 56.2617 36.8401 58.3093 41.0712 58.3093C41.1476 58.3093 41.2411 58.3093 41.3091 58.3093C43.3057 58.2498 45.2088 57.5616 46.8146 56.3127C50.2046 53.6788 52.9488 49.6347 55.8375 46.1767C57.3498 44.367 59.5843 43.305 61.9463 43.305H70.8588C73.1103 43.305 75.2768 44.2481 76.7636 45.9473C79.9667 49.5922 82.9063 53.8997 86.0074 56.3127C87.6642 57.6041 89.6863 58.3093 91.7169 58.3178H91.7424C95.9735 58.3178 99.3889 56.2702 101.352 52.5573C104.776 46.0833 103.212 35.3101 97.5707 26.2192Z" fill="#231F20"/>
<path d="M94.1892 26.5676C96.4322 21.6483 97.4942 8.90401 96.3218 4.40954C96.1688 3.8148 95.6761 3.36451 95.0643 3.27105C94.0363 3.10112 93.0422 3.02466 92.0822 3.02466C81.3005 3.02466 75.0813 12.8547 75.0813 12.8547C72.3965 12.158 69.5078 11.7757 66.4067 11.7757C63.3056 11.7757 60.4169 12.158 57.7321 12.8547C57.7321 12.8547 51.5129 3.02466 40.7313 3.02466C39.7712 3.02466 38.7857 3.10112 37.7576 3.27105C37.1459 3.373 36.6531 3.8148 36.5002 4.40954C35.3277 8.89552 36.3897 21.6483 38.6327 26.5676C30.0601 39.1844 30.6463 55.2846 41.0796 55.2846C41.9377 55.2846 43.0847 55.1062 42.8808 55.1062C35.5571 55.1062 29.0915 44.2481 44.614 25.1402C47.6981 21.3424 50.7653 19.9745 53.3991 19.9745C59.2784 19.9745 59.7542 25.4886 64.5291 25.4886H68.3014C71.6574 25.4886 73.586 22.5829 73.5945 22.5829C74.9709 21.113 77.0185 19.9745 79.4314 19.9745C82.0652 19.9745 85.1408 21.3339 88.2249 25.1402C103.739 44.2481 97.2818 55.1062 89.9581 55.1062C89.7457 55.1062 90.9012 55.2846 91.7593 55.2846C102.193 55.2846 102.779 39.1759 94.1977 26.5676H94.1892ZM41.0796 23.373C39.032 16.7205 39.0236 10.4503 39.151 7.71455C39.185 6.98388 39.9411 6.49959 40.6123 6.78846C45.7015 8.96349 48.7687 13.7638 49.8222 15.6755C49.9157 15.8454 49.8562 16.0663 49.6863 16.1682C46.3303 18.1224 43.4501 20.6032 41.0796 23.3815V23.373ZM91.7508 23.373C89.3039 20.5183 86.3303 17.9609 82.8383 15.9813C83.7049 14.3416 86.823 9.09942 92.2181 6.78846C92.8893 6.49959 93.6455 6.98388 93.6795 7.71455C93.8069 10.4418 93.7984 16.7205 91.7508 23.373Z" fill="white"/>
<path d="M71.8612 47.6295C70.8756 48.7935 69.5842 49.6856 68.5137 50.2973C67.2053 51.045 65.6165 51.045 64.3081 50.2973C63.2376 49.6856 61.9462 48.7935 60.9606 47.6295C60.2299 46.7629 60.8756 45.4375 62.0056 45.4375H70.8077C71.9377 45.4375 72.5919 46.7714 71.8527 47.6295H71.8612Z" fill="#231F20"/>
<path d="M51.9971 40.5012C56.1498 40.5012 59.5162 37.1348 59.5162 32.9821C59.5162 28.8294 56.1498 25.463 51.9971 25.463C47.8444 25.463 44.478 28.8294 44.478 32.9821C44.478 37.1348 47.8444 40.5012 51.9971 40.5012Z" fill="white"/>
<path d="M51.9971 37.9949C54.7655 37.9949 57.0098 35.7506 57.0098 32.9821C57.0098 30.2136 54.7655 27.9694 51.9971 27.9694C49.2286 27.9694 46.9843 30.2136 46.9843 32.9821C46.9843 35.7506 49.2286 37.9949 51.9971 37.9949Z" fill="#231F20" stroke="#231F20" stroke-width="0.212404" stroke-miterlimit="10"/>
<path d="M80.8333 40.5012C84.986 40.5012 88.3524 37.1348 88.3524 32.9821C88.3524 28.8294 84.986 25.463 80.8333 25.463C76.6806 25.463 73.3142 28.8294 73.3142 32.9821C73.3142 37.1348 76.6806 40.5012 80.8333 40.5012Z" fill="white"/>
<path d="M80.8332 37.9949C83.6017 37.9949 85.846 35.7506 85.846 32.9821C85.846 30.2136 83.6017 27.9694 80.8332 27.9694C78.0648 27.9694 75.8205 30.2136 75.8205 32.9821C75.8205 35.7506 78.0648 37.9949 80.8332 37.9949Z" fill="#231F20" stroke="#231F20" stroke-width="0.212404" stroke-miterlimit="10"/>
</g>
<path d="M181.936 2.67537C184.285 2.3164 186.632 2.31765 188.952 2.70259L188.952 2.70265C191.035 3.0482 192.905 3.84799 194.486 4.99385C195.794 3.65629 197.617 2.81017 199.624 2.81016H205.298C205.953 2.81016 206.585 2.90006 207.184 3.06939C207.748 2.90075 208.343 2.80853 208.954 2.80548L208.963 2.80537H208.97C210.138 2.80292 212.247 2.80042 215.315 2.80532L215.315 2.80537C218.996 2.8097 222.088 5.62339 222.287 9.40868C222.475 12.9569 222.078 16.549 220.64 19.6453C221.406 20.8622 221.733 22.3295 221.533 23.8071L221.533 23.8072L220.256 33.224C220.249 33.305 220.24 33.387 220.228 33.4697C219.856 36.1946 217.819 38.4916 215.131 39.1696V39.3945L213.399 39.3723C211.67 39.3501 209.318 38.9272 207.006 37.6381C205.804 38.6169 204.271 39.2141 202.615 39.2141H196.663C194.611 39.2141 192.797 38.3933 191.502 37.0754C189.717 38.2592 187.688 39.0969 185.512 39.4623L185.38 39.484C182.985 39.8641 180.592 39.8703 178.227 39.4779C176.104 39.1256 174.202 38.3011 172.602 37.1196C171.282 38.4538 169.453 39.2922 167.447 39.2922H161.535C160.56 39.2922 159.637 39.0947 158.803 38.736C157.961 39.0927 157.037 39.2922 156.072 39.2922H148.961C148.197 39.2922 147.465 39.168 146.782 38.9373C146.088 39.1669 145.349 39.2922 144.586 39.2922H137.897C136.186 39.2922 134.652 38.6724 133.487 37.656C131.243 38.6875 128.83 39.2018 126.739 39.4739C122.04 40.0853 117.366 39.6379 116.623 39.5961C111.976 39.3364 108.607 35.2874 109.237 30.6522L110.333 22.5692C110.537 21.0639 111.229 19.7344 112.218 18.7173C111.543 16.7257 111.558 14.5883 112.072 12.4501L112.075 12.4357C112.075 12.4353 112.076 12.4349 112.076 12.4346C113.728 5.60433 120.316 3.2819 124.757 2.65917C129.178 2.03933 134.26 2.59277 137.981 4.2322C139.284 3.38849 140.833 2.88834 142.482 2.88833H148.687C149.691 2.88833 150.625 3.10877 151.453 3.50183C152.758 3.00381 154.22 2.68573 155.823 2.68572C155.894 2.68572 155.964 2.68729 156.032 2.68995C157.887 2.71696 159.794 3.10981 161.454 4.12758C162.734 3.3346 164.229 2.88589 165.761 2.88588H170.108C172.193 2.88588 174.174 3.72723 175.586 5.16634C177.429 3.92586 179.537 3.05569 181.799 2.69652L181.933 2.67537H181.936Z" fill="#231F20"/>
<path d="M182.068 4.38562C184.289 4.03307 186.497 4.02879 188.672 4.38974C191.101 4.79262 193.18 5.89683 194.77 7.47089C195.699 5.72683 197.543 4.52042 199.625 4.52042H205.298C205.978 4.52042 206.619 4.6477 207.201 4.87803C207.749 4.64701 208.347 4.51843 208.965 4.51563L208.974 4.51557C210.14 4.51312 212.247 4.51068 215.313 4.51557C218.108 4.51853 220.429 6.64272 220.58 9.49925C220.78 13.2668 220.273 16.9058 218.625 19.8321C219.572 20.8093 220.028 22.1802 219.838 23.5773L218.556 33.0337C218.551 33.1017 218.544 33.1698 218.534 33.2379C218.197 35.7037 216.034 37.6964 213.421 37.6618V37.6619C211.657 37.6393 209.109 37.129 206.761 35.4642C205.785 36.7022 204.274 37.5036 202.615 37.5036H196.664C194.533 37.5035 192.762 36.3613 191.84 34.6939C189.927 36.2875 187.618 37.3968 185.112 37.7946C182.891 38.1471 180.683 38.1514 178.508 37.7904C176.042 37.3814 173.938 36.2493 172.338 34.6368C171.391 36.3839 169.532 37.5817 167.448 37.5817H161.535C160.519 37.5817 159.591 37.3003 158.812 36.8166C158.005 37.3016 157.066 37.5817 156.072 37.5817H148.961C148.175 37.5817 147.441 37.4079 146.791 37.0988C146.114 37.4087 145.366 37.5817 144.587 37.5817H137.898C136.197 37.5817 134.75 36.7722 133.86 35.5453C133.747 35.6098 133.633 35.6724 133.519 35.733C131.305 36.9089 128.772 37.4845 126.519 37.7776C122.016 38.3635 117.534 37.9341 116.72 37.8882C113.064 37.6843 110.437 34.5243 110.932 30.8823L112.028 22.7988C112.231 21.2956 113.091 20.0135 114.28 19.2113C113.31 17.3185 113.181 15.1539 113.735 12.8498C113.735 12.8495 113.735 12.8492 113.735 12.8489C115.12 7.09528 120.714 4.95322 124.995 4.35283C129.463 3.72636 134.588 4.39373 137.977 6.12201C137.979 6.12294 137.981 6.12392 137.983 6.12485C137.984 6.12573 137.986 6.12659 137.988 6.12747C138.049 6.15854 138.109 6.19058 138.168 6.22357C139.343 5.214 140.859 4.59859 142.482 4.59859H148.688C149.705 4.59859 150.607 4.90067 151.341 5.40389C152.655 4.79801 154.155 4.39598 155.823 4.39598C155.877 4.39598 155.932 4.39723 155.986 4.3996C158.024 4.42566 159.967 4.947 161.461 6.24567C162.64 5.20407 164.186 4.59614 165.761 4.59614H170.109C172.264 4.59614 174.251 5.74674 175.257 7.55585C177.186 5.92501 179.526 4.78917 182.068 4.38562H182.068Z" fill="white"/>
<path d="M117.338 13.7156C118.983 6.87849 131.162 6.80041 136.301 9.42686C136.91 9.73571 137.269 10.3407 137.269 11.0306C137.269 11.1204 137.263 11.2117 137.251 11.3039L136.303 18.2899C136.303 18.2899 136.303 18.2905 136.303 18.2911C136.303 18.2918 136.303 18.2924 136.303 18.2924C135.969 20.7577 133.433 18.2875 130.528 17.9238C129.757 17.8274 129.378 18.2782 129.378 18.7205C129.378 18.9834 129.512 19.2433 129.778 19.3835C134.079 21.6487 135.644 23.4967 135.645 25.9879C135.645 26.7529 135.498 27.5785 135.237 28.4956C133.174 35.7476 118.878 34.2977 116.928 34.1878C115.422 34.1048 114.401 32.8722 114.604 31.3808L115.7 23.2963C115.8 22.5518 116.532 21.966 117.282 22.0319C121.259 22.3785 123.397 23.3793 125.228 25.11C125.779 25.6305 126.385 25.0545 126.385 24.3142C126.385 24.0999 126.334 23.8719 126.217 23.6527C124.283 20.0499 115.615 20.8847 117.338 13.7156Z" fill="#231F20"/>
<path d="M182.649 8.04525C184.494 7.75233 186.301 7.75233 188.066 8.04525C191.803 8.66525 194.366 11.7409 194.488 15.6586C194.497 15.9298 194.502 16.2011 194.503 16.4724C194.506 16.8568 194.501 17.2412 194.49 17.6256C194.482 17.9176 194.469 18.2096 194.453 18.5016C194.444 18.6646 194.434 18.8275 194.422 18.9905C194.374 19.6666 193.771 20.2378 193.112 20.2378H185.964C185.466 20.2378 185.075 19.9034 184.985 19.4152C184.909 19.01 184.726 18.5829 184.292 18.4681C184.069 18.4096 183.84 18.4096 183.601 18.4681C183.095 18.5926 182.634 19.2102 182.441 19.9986C182.265 20.726 182.168 21.4534 182.146 22.1808C182.124 22.9668 182.419 23.5868 182.89 23.7113C183.113 23.7699 183.342 23.7699 183.581 23.7113C184.047 23.5966 184.348 23.167 184.533 22.7569C184.753 22.2712 185.234 21.9416 185.732 21.9416H192.882C193.462 21.9416 193.877 22.3837 193.878 22.9504C193.878 23.0278 193.87 23.1076 193.854 23.1889C193.631 24.2995 193.353 25.4102 193.016 26.5208C191.832 30.4361 188.437 33.5142 184.531 34.1342C182.685 34.4271 180.879 34.4271 179.114 34.1342C175.377 33.5141 172.813 30.4361 172.691 26.5208C172.579 22.9009 173.07 19.2785 174.163 15.6586C175.347 11.7433 178.743 8.66525 182.649 8.04525Z" fill="#231F20"/>
<path d="M208.981 8.22102C210.143 8.21858 212.245 8.21614 215.307 8.22102C216.173 8.22102 216.835 8.84345 216.879 9.69534C217.245 16.591 214.835 21.285 209.472 21.783C209.066 21.821 208.81 22.1796 208.81 22.5058C208.81 22.7029 208.904 22.8883 209.113 22.9839C210.431 23.5868 212.841 23.2646 214.957 22.2711C215.604 21.966 216.259 22.4029 216.166 23.0791L214.857 32.7306L214.862 32.7355C214.769 33.4141 214.144 33.9657 213.468 33.9559C211.376 33.9291 207.348 32.9014 205.5 27.6437C205.286 27.031 204.334 27.2678 204.285 27.9464C204.273 28.1084 204.262 28.2744 204.252 28.4444C204.229 28.823 204.209 29.2208 204.195 29.6352C204.177 30.1755 204.167 30.744 204.17 31.3348C204.171 31.6194 204.175 31.9091 204.182 32.2033C204.204 33.0382 203.46 33.7973 202.615 33.7973H196.663C195.523 33.7973 194.723 32.8722 194.879 31.7323L197.852 9.78809C197.969 8.92644 198.763 8.22586 199.625 8.22586H205.298C206.159 8.22586 206.765 8.924 206.648 9.78809L205.84 15.7464C205.759 16.3494 206.457 16.652 206.931 16.2127C208.034 15.1889 208.317 13.7333 208.317 12.3477C208.317 11.1565 208.109 10.0171 208.032 9.24864C207.981 8.72384 208.442 8.22346 208.981 8.22102Z" fill="#231F20"/>
<path d="M155.823 8.10265C155.823 8.10326 155.823 8.10387 155.823 8.10387C159.443 8.10387 160.275 10.1454 160.276 12.6249C160.276 13.8708 160.066 15.2273 159.895 16.4909L157.737 32.4084C157.627 33.2188 156.882 33.8754 156.072 33.8754H148.961C148.209 33.8754 147.679 33.3142 147.679 32.6076C147.679 32.4793 147.696 32.3461 147.733 32.2107C148.546 29.2304 149.81 22.9622 149.811 19.3895C149.811 18.1018 149.647 17.1643 149.239 16.8571C147.628 15.644 146.583 27.8927 146.261 32.3181C146.2 33.1627 145.433 33.8754 144.586 33.8754H137.897C137.089 33.8754 136.521 33.2188 136.631 32.4084L139.545 10.8914C139.738 9.46348 141.054 8.30403 142.482 8.30403H148.687C149.278 8.30403 149.661 8.74655 149.661 9.26929C149.661 9.47702 149.6 9.69741 149.469 9.90774C149.19 10.3471 148.99 10.7645 148.844 11.1306C148.824 11.1787 148.816 11.2246 148.816 11.267C148.816 11.5305 149.151 11.6653 149.378 11.4235C150.943 9.74661 153.157 8.10143 155.823 8.10142C155.823 8.10142 155.823 8.10204 155.823 8.10265Z" fill="#231F20"/>
<path d="M169.51 16.0443C170.563 15.8588 171.397 16.6521 171.256 17.6943L169.281 32.2619C169.161 33.1529 168.341 33.8754 167.448 33.8754H161.535C160.644 33.8754 160.019 33.1529 160.141 32.2619L161.601 21.4876C161.813 19.9205 162.873 18.473 164.362 17.7481H164.364C165.69 17.1012 167.474 16.4031 169.51 16.0443Z" fill="#231F20"/>
<path d="M170.108 8.30158C171.444 8.30158 172.389 9.31944 172.218 10.5716L172.223 10.5741L172.015 12.0997C171.856 13.2713 170.802 14.2599 169.542 14.4235C168.285 14.587 167.064 14.8677 165.966 15.1851C164.157 15.705 162.551 14.4821 162.783 12.7685L163.085 10.5326C163.251 9.29992 164.45 8.30158 165.761 8.30158H170.108Z" fill="#231F20"/>
<path d="M115.466 57.74C114.876 57.74 114.336 57.65 113.846 57.47C113.366 57.29 112.956 57.03 112.616 56.69C112.276 56.35 112.026 55.94 111.866 55.46C111.676 55.09 111.686 54.77 111.896 54.5C112.106 54.23 112.381 54.11 112.721 54.14C113.071 54.17 113.316 54.375 113.456 54.755C113.536 55.095 113.671 55.375 113.861 55.595C114.061 55.815 114.296 55.98 114.566 56.09C114.846 56.2 115.146 56.255 115.466 56.255C115.836 56.255 116.156 56.195 116.426 56.075C116.706 55.955 116.916 55.79 117.056 55.58C117.206 55.37 117.281 55.125 117.281 54.845C117.281 54.535 117.186 54.27 116.996 54.05C116.806 53.82 116.566 53.63 116.276 53.48C115.996 53.33 115.601 53.15 115.091 52.94C114.441 52.67 113.906 52.415 113.486 52.175C113.066 51.925 112.706 51.595 112.406 51.185C112.116 50.775 111.971 50.265 111.971 49.655C111.971 49.095 112.111 48.6 112.391 48.17C112.681 47.73 113.081 47.39 113.591 47.15C114.101 46.91 114.676 46.79 115.316 46.79C115.856 46.79 116.351 46.875 116.801 47.045C117.261 47.215 117.651 47.46 117.971 47.78C118.291 48.1 118.531 48.48 118.691 48.92C118.851 49.28 118.831 49.595 118.631 49.865C118.431 50.125 118.161 50.24 117.821 50.21C117.491 50.17 117.246 49.96 117.086 49.58C116.976 49.17 116.766 48.85 116.456 48.62C116.146 48.39 115.776 48.275 115.346 48.275C115.046 48.275 114.776 48.33 114.536 48.44C114.306 48.55 114.121 48.705 113.981 48.905C113.841 49.095 113.771 49.325 113.771 49.595C113.771 49.935 113.871 50.225 114.071 50.465C114.271 50.695 114.521 50.89 114.821 51.05C115.121 51.2 115.531 51.375 116.051 51.575C116.711 51.835 117.241 52.08 117.641 52.31C118.051 52.53 118.401 52.84 118.691 53.24C118.981 53.64 119.126 54.14 119.126 54.74C119.126 55.35 118.966 55.88 118.646 56.33C118.336 56.78 117.901 57.13 117.341 57.38C116.791 57.62 116.166 57.74 115.466 57.74ZM120.286 50.585C120.286 50.405 120.326 50.25 120.406 50.12C120.496 49.99 120.606 49.895 120.736 49.835C120.866 49.765 121.006 49.73 121.156 49.73C121.306 49.73 121.446 49.765 121.576 49.835C121.706 49.895 121.811 49.99 121.891 50.12C121.981 50.25 122.026 50.405 122.026 50.585V56.81C122.026 56.99 121.981 57.145 121.891 57.275C121.811 57.405 121.706 57.505 121.576 57.575C121.446 57.635 121.306 57.665 121.156 57.665C121.006 57.665 120.866 57.635 120.736 57.575C120.606 57.505 120.496 57.405 120.406 57.275C120.326 57.145 120.286 56.99 120.286 56.81V50.585ZM125.986 53.285C125.986 52.755 125.896 52.33 125.716 52.01C125.546 51.69 125.316 51.465 125.026 51.335C124.736 51.195 124.416 51.125 124.066 51.125C123.656 51.125 123.296 51.21 122.986 51.38C122.686 51.55 122.451 51.805 122.281 52.145C122.121 52.485 122.036 52.895 122.026 53.375H121.516C121.516 52.615 121.631 51.955 121.861 51.395C122.091 50.835 122.436 50.405 122.896 50.105C123.356 49.795 123.921 49.64 124.591 49.64C125.161 49.64 125.681 49.76 126.151 50C126.631 50.24 127.011 50.615 127.291 51.125C127.581 51.625 127.726 52.26 127.726 53.03V56.78C127.726 56.97 127.681 57.135 127.591 57.275C127.511 57.405 127.406 57.505 127.276 57.575C127.156 57.645 127.016 57.68 126.856 57.68C126.626 57.68 126.421 57.6 126.241 57.44C126.071 57.28 125.986 57.06 125.986 56.78V53.285ZM132.788 57.74C131.998 57.74 131.293 57.575 130.673 57.245C130.053 56.905 129.568 56.43 129.218 55.82C128.868 55.21 128.693 54.505 128.693 53.705C128.693 52.945 128.858 52.255 129.188 51.635C129.528 51.015 130.003 50.53 130.613 50.18C131.223 49.82 131.908 49.64 132.668 49.64C133.378 49.64 134.013 49.785 134.573 50.075C135.143 50.365 135.603 50.785 135.953 51.335C136.313 51.885 136.533 52.535 136.613 53.285C136.653 53.575 136.593 53.8 136.433 53.96C136.283 54.11 136.063 54.185 135.773 54.185H130.073L130.088 53.03H135.173L134.963 53.225C134.963 52.815 134.863 52.445 134.663 52.115C134.473 51.775 134.203 51.51 133.853 51.32C133.513 51.13 133.118 51.035 132.668 51.035C132.238 51.035 131.848 51.13 131.498 51.32C131.158 51.5 130.888 51.755 130.688 52.085C130.498 52.405 130.403 52.765 130.403 53.165L130.388 54.05C130.388 54.49 130.493 54.88 130.703 55.22C130.923 55.56 131.213 55.83 131.573 56.03C131.943 56.22 132.353 56.315 132.803 56.315C133.263 56.315 133.658 56.225 133.988 56.045C134.328 55.855 134.593 55.605 134.783 55.295C134.993 55.045 135.233 54.955 135.503 55.025C135.773 55.085 135.958 55.245 136.058 55.505C136.158 55.755 136.103 56 135.893 56.24C135.563 56.69 135.128 57.055 134.588 57.335C134.048 57.605 133.448 57.74 132.788 57.74ZM141.022 57.74C140.252 57.74 139.577 57.56 138.997 57.2C138.417 56.84 137.967 56.35 137.647 55.73C137.337 55.11 137.182 54.425 137.182 53.675C137.182 52.905 137.342 52.215 137.662 51.605C137.992 50.995 138.452 50.515 139.042 50.165C139.632 49.815 140.322 49.64 141.112 49.64C141.502 49.64 141.877 49.705 142.237 49.835C142.607 49.955 142.937 50.135 143.227 50.375C143.527 50.615 143.777 50.905 143.977 51.245L144.097 53.69L143.947 56C143.807 56.35 143.597 56.66 143.317 56.93C143.037 57.19 142.697 57.39 142.297 57.53C141.907 57.67 141.482 57.74 141.022 57.74ZM141.442 56.195C141.922 56.195 142.352 56.085 142.732 55.865C143.112 55.645 143.407 55.35 143.617 54.98C143.837 54.6 143.947 54.17 143.947 53.69C143.947 53.22 143.837 52.8 143.617 52.43C143.407 52.05 143.112 51.75 142.732 51.53C142.352 51.31 141.922 51.2 141.442 51.2C140.952 51.2 140.517 51.31 140.137 51.53C139.757 51.74 139.457 52.035 139.237 52.415C139.027 52.785 138.922 53.21 138.922 53.69C138.922 54.18 139.027 54.615 139.237 54.995C139.457 55.365 139.757 55.66 140.137 55.88C140.517 56.09 140.952 56.195 141.442 56.195ZM143.947 50.6C143.947 50.42 143.987 50.265 144.067 50.135C144.157 50.005 144.267 49.91 144.397 49.85C144.527 49.78 144.667 49.745 144.817 49.745C144.967 49.745 145.107 49.78 145.237 49.85C145.367 49.91 145.472 50.005 145.552 50.135C145.642 50.265 145.687 50.42 145.687 50.6V56.825C145.687 57.005 145.642 57.16 145.552 57.29C145.472 57.42 145.367 57.52 145.237 57.59C145.107 57.65 144.967 57.68 144.817 57.68C144.667 57.68 144.527 57.65 144.397 57.59C144.267 57.52 144.157 57.42 144.067 57.29C143.987 57.16 143.947 57.005 143.947 56.825V50.6ZM148.015 57.68C147.855 57.68 147.71 57.64 147.58 57.56C147.45 57.48 147.345 57.375 147.265 57.245C147.195 57.115 147.16 56.97 147.16 56.81V47.12C147.16 46.88 147.245 46.675 147.415 46.505C147.585 46.335 147.785 46.25 148.015 46.25C148.175 46.25 148.32 46.29 148.45 46.37C148.58 46.45 148.685 46.555 148.765 46.685C148.845 46.815 148.885 46.96 148.885 47.12C148.885 47.47 148.885 47.81 148.885 48.14C148.885 48.47 148.885 48.79 148.885 49.1C148.875 49.95 148.865 50.68 148.855 51.29C148.845 51.9 148.825 52.455 148.795 52.955L152.32 50.06C152.59 49.8 152.88 49.695 153.19 49.745C153.5 49.785 153.695 49.935 153.775 50.195C153.865 50.445 153.775 50.7 153.505 50.96L149.875 53.975L149.905 52.85L153.61 56.39C153.82 56.61 153.865 56.855 153.745 57.125C153.625 57.385 153.42 57.555 153.13 57.635C152.85 57.715 152.6 57.625 152.38 57.365L148.81 53.915C148.82 54.105 148.83 54.3 148.84 54.5C148.85 54.7 148.855 54.91 148.855 55.13C148.865 55.39 148.87 55.66 148.87 55.94C148.88 56.22 148.885 56.51 148.885 56.81C148.885 56.96 148.845 57.1 148.765 57.23C148.695 57.36 148.595 57.47 148.465 57.56C148.335 57.64 148.185 57.68 148.015 57.68ZM163.616 57.155C162.846 57.625 161.966 57.81 160.976 57.71C159.996 57.62 159.151 57.23 158.441 56.54C157.741 55.84 157.391 54.89 157.391 53.69C157.391 52.49 157.741 51.545 158.441 50.855C159.151 50.165 160.001 49.78 160.991 49.7C161.981 49.61 162.861 49.795 163.631 50.255C163.931 50.395 164.096 50.595 164.126 50.855C164.156 51.115 164.066 51.335 163.856 51.515C163.656 51.685 163.411 51.73 163.121 51.65C162.611 51.32 162.036 51.18 161.396 51.23C160.766 51.27 160.226 51.51 159.776 51.95C159.326 52.39 159.101 52.975 159.101 53.705C159.101 54.385 159.316 54.95 159.746 55.4C160.176 55.84 160.701 56.095 161.321 56.165C161.951 56.235 162.546 56.1 163.106 55.76C163.396 55.68 163.641 55.73 163.841 55.91C164.041 56.08 164.126 56.3 164.096 56.57C164.066 56.83 163.906 57.025 163.616 57.155ZM165.317 47.12C165.317 46.94 165.357 46.785 165.437 46.655C165.527 46.515 165.637 46.415 165.767 46.355C165.897 46.285 166.032 46.25 166.172 46.25C166.332 46.25 166.477 46.285 166.607 46.355C166.737 46.415 166.842 46.515 166.922 46.655C167.002 46.785 167.042 46.94 167.042 47.12V56.81C167.042 56.99 167.002 57.145 166.922 57.275C166.842 57.405 166.737 57.505 166.607 57.575C166.477 57.645 166.332 57.68 166.172 57.68C166.032 57.68 165.897 57.645 165.767 57.575C165.637 57.505 165.527 57.405 165.437 57.275C165.357 57.145 165.317 56.99 165.317 56.81V47.12ZM168.504 50.585C168.504 50.405 168.544 50.25 168.624 50.12C168.714 49.99 168.824 49.895 168.954 49.835C169.084 49.765 169.219 49.73 169.359 49.73C169.519 49.73 169.664 49.765 169.794 49.835C169.924 49.895 170.029 49.99 170.109 50.12C170.189 50.25 170.229 50.405 170.229 50.585V56.81C170.229 56.99 170.189 57.145 170.109 57.275C170.029 57.405 169.924 57.505 169.794 57.575C169.664 57.645 169.519 57.68 169.359 57.68C169.219 57.68 169.084 57.645 168.954 57.575C168.824 57.505 168.714 57.405 168.624 57.275C168.544 57.145 168.504 56.99 168.504 56.81V50.585ZM169.359 48.83C169.079 48.83 168.839 48.735 168.639 48.545C168.449 48.345 168.354 48.105 168.354 47.825C168.354 47.545 168.449 47.305 168.639 47.105C168.839 46.905 169.079 46.805 169.359 46.805C169.649 46.805 169.889 46.905 170.079 47.105C170.279 47.305 170.379 47.545 170.379 47.825C170.379 48.105 170.279 48.345 170.079 48.545C169.889 48.735 169.649 48.83 169.359 48.83ZM177.555 57.155C176.785 57.625 175.905 57.81 174.915 57.71C173.935 57.62 173.09 57.23 172.38 56.54C171.68 55.84 171.33 54.89 171.33 53.69C171.33 52.49 171.68 51.545 172.38 50.855C173.09 50.165 173.94 49.78 174.93 49.7C175.92 49.61 176.8 49.795 177.57 50.255C177.87 50.395 178.035 50.595 178.065 50.855C178.095 51.115 178.005 51.335 177.795 51.515C177.595 51.685 177.35 51.73 177.06 51.65C176.55 51.32 175.975 51.18 175.335 51.23C174.705 51.27 174.165 51.51 173.715 51.95C173.265 52.39 173.04 52.975 173.04 53.705C173.04 54.385 173.255 54.95 173.685 55.4C174.115 55.84 174.64 56.095 175.26 56.165C175.89 56.235 176.485 56.1 177.045 55.76C177.335 55.68 177.58 55.73 177.78 55.91C177.98 56.08 178.065 56.3 178.035 56.57C178.005 56.83 177.845 57.025 177.555 57.155ZM180.111 57.68C179.951 57.68 179.806 57.64 179.676 57.56C179.546 57.48 179.441 57.375 179.361 57.245C179.291 57.115 179.256 56.97 179.256 56.81V47.12C179.256 46.88 179.341 46.675 179.511 46.505C179.681 46.335 179.881 46.25 180.111 46.25C180.271 46.25 180.416 46.29 180.546 46.37C180.676 46.45 180.781 46.555 180.861 46.685C180.941 46.815 180.981 46.96 180.981 47.12C180.981 47.47 180.981 47.81 180.981 48.14C180.981 48.47 180.981 48.79 180.981 49.1C180.971 49.95 180.961 50.68 180.951 51.29C180.941 51.9 180.921 52.455 180.891 52.955L184.416 50.06C184.686 49.8 184.976 49.695 185.286 49.745C185.596 49.785 185.791 49.935 185.871 50.195C185.961 50.445 185.871 50.7 185.601 50.96L181.971 53.975L182.001 52.85L185.706 56.39C185.916 56.61 185.961 56.855 185.841 57.125C185.721 57.385 185.516 57.555 185.226 57.635C184.946 57.715 184.696 57.625 184.476 57.365L180.906 53.915C180.916 54.105 180.926 54.3 180.936 54.5C180.946 54.7 180.951 54.91 180.951 55.13C180.961 55.39 180.966 55.66 180.966 55.94C180.976 56.22 180.981 56.51 180.981 56.81C180.981 56.96 180.941 57.1 180.861 57.23C180.791 57.36 180.691 57.47 180.561 57.56C180.431 57.64 180.281 57.68 180.111 57.68ZM193.613 57.74C192.823 57.74 192.113 57.565 191.483 57.215C190.853 56.865 190.353 56.385 189.983 55.775C189.623 55.155 189.443 54.46 189.443 53.69C189.443 52.93 189.623 52.24 189.983 51.62C190.353 51 190.853 50.515 191.483 50.165C192.123 49.815 192.833 49.64 193.613 49.64C194.403 49.64 195.118 49.815 195.758 50.165C196.398 50.515 196.898 51 197.258 51.62C197.618 52.24 197.798 52.93 197.798 53.69C197.798 54.46 197.618 55.155 197.258 55.775C196.898 56.385 196.398 56.865 195.758 57.215C195.118 57.565 194.403 57.74 193.613 57.74ZM193.613 56.195C194.093 56.195 194.523 56.085 194.903 55.865C195.283 55.645 195.583 55.345 195.803 54.965C196.023 54.585 196.133 54.16 196.133 53.69C196.133 53.22 196.023 52.795 195.803 52.415C195.583 52.035 195.283 51.735 194.903 51.515C194.523 51.295 194.093 51.185 193.613 51.185C193.143 51.185 192.718 51.295 192.338 51.515C191.958 51.735 191.658 52.035 191.438 52.415C191.228 52.795 191.123 53.22 191.123 53.69C191.123 54.16 191.228 54.585 191.438 54.965C191.658 55.345 191.958 55.645 192.338 55.865C192.718 56.085 193.143 56.195 193.613 56.195ZM198.864 50.585C198.864 50.405 198.904 50.25 198.984 50.12C199.074 49.99 199.184 49.895 199.314 49.835C199.444 49.765 199.584 49.73 199.734 49.73C199.884 49.73 200.024 49.765 200.154 49.835C200.284 49.895 200.389 49.99 200.469 50.12C200.559 50.25 200.604 50.405 200.604 50.585V56.81C200.604 56.99 200.559 57.145 200.469 57.275C200.389 57.405 200.284 57.505 200.154 57.575C200.024 57.635 199.884 57.665 199.734 57.665C199.584 57.665 199.444 57.635 199.314 57.575C199.184 57.505 199.074 57.405 198.984 57.275C198.904 57.145 198.864 56.99 198.864 56.81V50.585ZM204.564 53.285C204.564 52.755 204.474 52.33 204.294 52.01C204.124 51.69 203.894 51.465 203.604 51.335C203.314 51.195 202.994 51.125 202.644 51.125C202.234 51.125 201.874 51.21 201.564 51.38C201.264 51.55 201.029 51.805 200.859 52.145C200.699 52.485 200.614 52.895 200.604 53.375H200.094C200.094 52.615 200.209 51.955 200.439 51.395C200.669 50.835 201.014 50.405 201.474 50.105C201.934 49.795 202.499 49.64 203.169 49.64C203.739 49.64 204.259 49.76 204.729 50C205.209 50.24 205.589 50.615 205.869 51.125C206.159 51.625 206.304 52.26 206.304 53.03V56.78C206.304 56.97 206.259 57.135 206.169 57.275C206.089 57.405 205.984 57.505 205.854 57.575C205.734 57.645 205.594 57.68 205.434 57.68C205.204 57.68 204.999 57.6 204.819 57.44C204.649 57.28 204.564 57.06 204.564 56.78V53.285ZM207.675 47.12C207.675 46.94 207.715 46.785 207.795 46.655C207.885 46.515 207.995 46.415 208.125 46.355C208.255 46.285 208.39 46.25 208.53 46.25C208.69 46.25 208.835 46.285 208.965 46.355C209.095 46.415 209.2 46.515 209.28 46.655C209.36 46.785 209.4 46.94 209.4 47.12V56.81C209.4 56.99 209.36 57.145 209.28 57.275C209.2 57.405 209.095 57.505 208.965 57.575C208.835 57.645 208.69 57.68 208.53 57.68C208.39 57.68 208.255 57.645 208.125 57.575C207.995 57.505 207.885 57.405 207.795 57.275C207.715 57.145 207.675 56.99 207.675 56.81V47.12ZM212.317 59.99L213.277 57.635L210.412 50.93C210.272 50.6 210.312 50.315 210.532 50.075C210.762 49.825 211.037 49.715 211.357 49.745C211.687 49.765 211.917 49.945 212.047 50.285C212.527 51.505 212.962 52.62 213.352 53.63C213.532 54.09 213.692 54.52 213.832 54.92C213.972 55.31 214.097 55.685 214.207 56.045H214.132C214.232 55.685 214.347 55.315 214.477 54.935C214.617 54.555 214.767 54.14 214.927 53.69C215.097 53.22 215.287 52.705 215.497 52.145C215.717 51.575 215.957 50.96 216.217 50.3C216.337 49.96 216.557 49.775 216.877 49.745C217.197 49.705 217.467 49.805 217.687 50.045C217.907 50.275 217.952 50.56 217.822 50.9L213.892 60.59C213.762 60.91 213.537 61.085 213.217 61.115C212.907 61.155 212.647 61.06 212.437 60.83C212.227 60.61 212.187 60.33 212.317 59.99ZM219.963 57.74C219.783 57.74 219.618 57.695 219.468 57.605C219.318 57.525 219.198 57.41 219.108 57.26C219.028 57.11 218.988 56.945 218.988 56.765C218.988 56.495 219.083 56.27 219.273 56.09C219.463 55.9 219.693 55.805 219.963 55.805C220.143 55.805 220.303 55.85 220.443 55.94C220.593 56.02 220.713 56.135 220.803 56.285C220.893 56.425 220.938 56.585 220.938 56.765C220.938 57.035 220.843 57.265 220.653 57.455C220.463 57.645 220.233 57.74 219.963 57.74ZM219.963 54.755C219.813 54.755 219.678 54.72 219.558 54.65C219.448 54.58 219.353 54.49 219.273 54.38C219.203 54.26 219.168 54.125 219.168 53.975L219.108 47.72C219.098 47.57 219.128 47.43 219.198 47.3C219.278 47.16 219.383 47.05 219.513 46.97C219.643 46.88 219.793 46.835 219.963 46.835C220.123 46.835 220.268 46.88 220.398 46.97C220.528 47.05 220.633 47.16 220.713 47.3C220.793 47.43 220.828 47.57 220.818 47.72L220.743 53.975C220.743 54.125 220.708 54.26 220.638 54.38C220.568 54.49 220.473 54.58 220.353 54.65C220.233 54.72 220.103 54.755 219.963 54.755Z" fill="white"/>
<defs>
<clipPath id="clip0_1287_30033">
<rect width="73.4919" height="60" fill="white" transform="translate(29.6692)"/>
</clipPath>
</defs>
</svg>
