<svg width="139" height="16" viewBox="0 0 139 16" fill="none" xmlns="http://www.w3.org/2000/svg">
<path d="M70.2172 13.941C69.9899 13.9242 70.0026 13.7832 69.7774 13.7687C69.5522 13.7543 69.5485 13.774 69.3235 13.7573C69.0985 13.7407 69.1203 13.3852 68.893 13.3706C68.6656 13.356 68.6409 13.749 68.4135 13.7344C68.1861 13.7198 68.1988 13.5189 67.9715 13.5021C67.7443 13.4853 67.7346 13.7064 67.5086 13.703C67.3409 13.7216 67.1642 13.4712 67.0014 13.4836C66.8385 13.4959 66.6737 13.5348 66.509 13.5426C66.3443 13.5503 66.1746 13.3559 66.0103 13.3571C65.8461 13.3582 65.6838 13.5725 65.5177 13.5691C65.3516 13.5656 65.1721 13.894 65.0063 13.8862C64.8405 13.8783 64.6963 13.4884 64.5309 13.4761C64.3654 13.4639 64.1851 13.6524 64.0178 13.6356C63.8504 13.6188 63.6743 13.7211 63.5071 13.7021C63.3399 13.6831 63.1982 13.4996 63.0312 13.4784C62.8878 13.4678 62.7121 13.2951 62.5616 13.3194C62.4202 13.3423 62.2555 13.2901 62.1047 13.3189C61.963 13.3461 61.8861 13.8462 61.7342 13.8594C61.5914 13.871 61.4535 13.426 61.2996 13.408C61.1609 13.3933 61.0108 13.4132 60.8616 13.3623C60.6282 13.3384 60.598 13.8663 60.3635 13.8578C60.129 13.8493 60.1452 13.3315 59.9129 13.3232C59.6806 13.3149 59.6753 13.4454 59.4408 13.4369C59.2063 13.4284 59.1991 13.6763 58.9644 13.6701C58.7298 13.6638 58.732 13.6041 58.4975 13.5956C58.263 13.5872 58.2742 13.2553 58.0396 13.249C57.8049 13.2427 57.8202 13.2461 57.587 13.22C57.4093 13.1625 57.1823 13.6226 57.0219 13.6019C56.8419 13.5775 56.707 13.1815 56.5402 13.1869C56.3646 13.1917 56.1616 13.0281 55.9915 13.0488C55.8214 13.0694 55.6835 13.3432 55.5112 13.3637C55.3389 13.3842 55.181 13.2705 55.0014 13.2683C54.7597 13.2682 54.7588 13.49 54.5194 13.4878C54.28 13.4856 54.2781 13.481 54.0364 13.4809C53.7946 13.4808 53.7937 13.7624 53.5519 13.7623C53.3102 13.7622 53.3128 13.5161 53.0711 13.516C52.8293 13.5159 52.833 13.1058 52.5914 13.1034C52.3498 13.1011 52.3479 13.3671 52.1085 13.365C51.8691 13.3628 51.8656 13.5599 51.6262 13.5578C51.3868 13.5556 51.3849 13.6109 51.1433 13.6086C50.9017 13.6062 50.9034 13.1627 50.6617 13.1626C50.4199 13.1624 50.4064 13.645 50.1654 13.6339C49.896 13.6184 49.9096 13.3732 49.6432 13.3468C49.3768 13.3204 49.3867 13.1859 49.118 13.1593C48.8494 13.1328 48.8372 13.2672 48.5686 13.2407C48.432 13.2284 48.2503 13.3458 48.0556 13.3381C47.8943 13.3306 47.7306 13.5337 47.5552 13.5362C47.3798 13.5388 47.1791 12.9827 47.016 12.9995C46.8304 13.019 46.6024 13.0421 46.4616 13.0871C46.305 13.1354 46.274 13.7343 46.1102 13.7599C45.9463 13.7855 45.7298 13.2948 45.5628 13.3024C45.3959 13.31 45.2377 13.7397 45.0695 13.7339C44.9014 13.7282 44.7483 13.5194 44.5806 13.507C44.4129 13.4946 44.2804 13.2164 44.1153 13.1998C43.9502 13.1831 43.7526 13.5146 43.5875 13.4979C43.4224 13.4813 43.2577 13.5179 43.0925 13.5035C42.9272 13.489 42.772 13.4576 42.6064 13.4476C42.4407 13.4375 42.2454 13.0793 42.0702 13.1085C41.9063 13.1363 41.8005 13.5166 41.6272 13.5504C41.4539 13.5841 41.2689 13.5061 41.0973 13.5178C40.9256 13.5295 40.8072 13.2102 40.6341 13.1819C40.4742 13.1546 40.2662 13.3876 40.1036 13.3068C39.9773 13.2443 39.7847 13.0304 39.57 13.0234C39.393 13.017 39.0988 13.4566 38.9311 13.3843C38.7808 13.3177 38.7706 13.155 38.6786 12.9597C38.4495 12.9982 38.4195 12.8629 38.2298 12.9997C38.04 13.1365 38.1187 13.2421 37.9311 13.3791C37.7435 13.5161 37.6997 13.3886 37.4775 13.4542C37.3629 13.3238 37.3472 13.296 37.2367 13.2301C37.0943 13.1464 36.9034 13.1789 36.764 13.173C36.6159 13.1665 36.5351 13.4489 36.3924 13.4894C36.2497 13.5298 36.0836 13.4665 35.9427 13.5116C35.8018 13.5566 35.6189 13.5408 35.4742 13.5479C35.236 13.5591 35.2395 13.6015 35.0012 13.6149C34.7629 13.6284 34.7423 13.2165 34.5041 13.2277C34.266 13.2389 34.2671 13.2834 34.0311 13.2948C33.7952 13.3062 33.7962 13.3817 33.5581 13.3929C33.3199 13.4041 33.3386 13.7804 33.1005 13.7916C32.8623 13.8028 32.8698 13.9409 32.6294 13.952C32.3891 13.963 32.3793 13.8248 32.1413 13.8338C31.8789 13.8432 31.8743 13.8451 31.6122 13.8501C31.3501 13.8551 31.3397 13.3353 31.0776 13.3403C30.8155 13.3454 30.8158 13.5206 30.5539 13.5234C30.2919 13.5262 30.2896 13.4684 30.0252 13.4732C29.7609 13.4781 29.7661 13.8578 29.5021 13.8582C29.278 13.8594 29.2769 13.4246 29.0529 13.4235C28.829 13.4225 28.8269 13.9303 28.6029 13.9293C28.379 13.9282 28.3794 13.773 28.1554 13.7719C27.9314 13.7709 27.9318 13.6157 27.7077 13.6169C27.4836 13.618 27.4831 13.9551 27.2589 13.9563C27.0704 13.9557 26.8884 13.4476 26.7517 13.4663C26.5904 13.4877 26.4481 13.5526 26.2822 13.5758C26.1456 13.5945 26.0207 13.7228 25.8338 13.7312C25.5624 13.7421 25.5778 14.1337 25.3085 14.1448C25.0393 14.156 25.0324 14.009 24.761 14.02C24.4896 14.031 24.4729 13.6261 24.2037 13.6372C23.9345 13.6484 23.943 14.0128 23.6723 14.015C23.4391 14.0177 23.439 13.9001 23.2065 13.894C22.9741 13.8879 22.969 14.136 22.7366 14.1299C22.5041 14.1238 22.5079 13.9222 22.2777 13.9163C22.0474 13.9103 22.0383 14.1537 21.8058 14.1476C21.5734 14.1415 21.5843 13.6343 21.3517 13.6304C21.119 13.6265 21.1134 13.8524 20.88 13.8595C20.6465 13.8666 20.6503 13.8159 20.4249 13.8347C20.1994 13.8535 20.2126 14.0054 19.9872 14.0242C19.7618 14.043 19.7403 13.793 19.5147 13.814C19.2892 13.835 19.2758 13.6854 19.0504 13.7042C18.825 13.7231 18.8417 13.9173 18.6161 13.9383C18.3905 13.9593 18.3859 13.8414 18.161 13.8536C17.9026 13.8678 17.9288 14.4132 17.6708 14.4229C17.4127 14.4327 17.4103 14.346 17.1523 14.3558C16.8942 14.3655 16.8905 14.2654 16.6327 14.273C16.3748 14.2805 16.3638 13.9492 16.1058 13.959C15.8478 13.9687 15.8565 14.2111 15.5964 14.2185C15.3363 14.2259 15.337 14.186 15.0784 14.2046C14.8487 14.2209 14.8515 14.2433 14.6232 14.2708C14.3949 14.2983 14.4234 14.5421 14.1952 14.5696C13.9669 14.5971 13.9545 14.4942 13.7262 14.5217C13.4979 14.5491 13.4414 14.0836 13.2131 14.1111C12.9848 14.1385 13.004 14.2997 12.7757 14.3271C12.5474 14.3546 12.5883 14.7015 12.3578 14.7288C12.1273 14.7561 12.1062 14.5616 11.8761 14.5845C11.6459 14.6074 11.637 14.6378 11.396 14.6577C11.1549 14.6776 11.1364 14.4477 10.8954 14.4676C10.6544 14.4875 10.6857 14.8736 10.4426 14.8911C10.1996 14.9086 10.1712 14.5427 9.93012 14.5626C9.68909 14.5825 9.69197 14.6337 9.45093 14.6536C9.2099 14.6735 9.22159 14.8451 8.97901 14.856C8.76085 14.8665 8.76161 15.0063 8.54173 15.01C8.32186 15.0137 8.32186 14.9538 8.10182 14.9597C7.88178 14.9657 7.87659 14.586 7.65671 14.5897C7.43684 14.5934 7.43791 14.609 7.21804 14.6127C6.99817 14.6164 7.00573 15.0539 6.78806 15.0578C6.62808 15.0615 6.47209 14.9213 6.34242 14.9051C6.19068 14.8872 6.0872 14.5468 5.94618 14.5342C5.80515 14.5215 5.64512 14.7359 5.49029 14.76C5.36462 14.7795 5.21517 14.7907 5.05978 14.8524C4.83575 14.9423 4.83951 14.9514 4.61768 15.0415C4.39586 15.1316 4.33947 14.9943 4.11544 15.0842C3.89141 15.1741 3.90504 15.1396 3.67178 15.2045C3.42716 15.2729 3.44023 15.2162 3.18858 15.2597C2.93693 15.3032 2.92965 15.2516 2.678 15.2951C2.42635 15.3386 2.49658 15.7386 2.24493 15.7821C1.99327 15.8256 1.9869 15.7919 1.73525 15.8354C1.4836 15.8789 1.4791 15.9096 1.24214 15.8145C1.0332 15.7302 0.992517 15.7406 0.875897 15.5478C0.759276 15.3551 0.921704 15.2584 0.807453 15.0636C0.693202 14.8689 0.407656 15.0407 0.293405 14.8459C0.179154 14.6512 0.186097 14.6472 0.0716827 14.4547C-0.0249971 14.2923 0.000702612 13.9747 0.0107314 13.8091C0.0237822 13.6326 0.460496 13.5762 0.53573 13.4287C0.590215 13.3218 0.607007 12.9748 0.837584 12.9763C1.05035 12.9788 1.37926 13.3602 1.47608 13.2809C1.60148 13.1748 1.6111 12.9249 1.75081 12.8354C1.89051 12.7459 2.05923 12.714 2.20678 12.6384C2.35434 12.5628 2.44362 12.3454 2.59665 12.2857C2.74968 12.226 2.94626 12.2672 3.10288 12.2189C3.25951 12.1706 3.48277 12.3911 3.64062 12.3562C3.79848 12.3213 3.8708 11.7632 4.03225 11.7397C4.27222 11.7042 4.36323 12.3032 4.60557 12.2657C4.84791 12.2281 4.77178 11.7279 5.01175 11.6924C5.25172 11.6569 5.30119 11.9777 5.54336 11.9424C5.78554 11.9071 5.81186 12.0909 6.0542 12.0534C6.29654 12.0158 6.25713 11.7689 6.49947 11.7314C6.63853 11.7106 6.73712 11.4872 6.88239 11.4425C7.02766 11.3978 7.14995 11.154 7.29579 11.1315C7.44163 11.109 7.57555 11.6978 7.72614 11.7312C7.8572 11.7586 8.07801 11.5021 8.21521 11.5965C8.36924 11.7033 8.51659 11.9604 8.68384 11.9484C8.85109 11.9363 9.00705 11.7172 9.16735 11.6492C9.32765 11.5812 9.43122 11.3803 9.57813 11.3136C9.75942 11.2316 9.96248 11.3353 10.1011 11.35C10.2448 11.3873 10.4072 11.3505 10.5601 11.3529C10.713 11.3553 10.8491 11.2545 11.0014 11.2347C11.1537 11.2149 11.3498 11.4423 11.4987 11.409C11.6475 11.3756 11.7912 11.2931 11.9361 11.2528C12.081 11.2125 12.1876 11.0008 12.328 10.9624C12.4819 10.9205 12.5911 10.6735 12.7285 10.6459C12.8952 10.6117 13.1041 10.6959 13.2344 10.7033C13.3892 10.7103 13.5662 10.5659 13.7024 10.5849C13.8517 10.6048 13.9444 11.1817 14.0861 11.1855C14.2277 11.1893 14.3435 10.823 14.4951 10.7832C14.6195 10.7503 14.6623 10.5915 14.8058 10.5112C14.9122 10.4525 15.2268 10.6066 15.4106 10.6712C15.549 10.7192 15.8001 10.6535 15.9383 10.7347C16.087 10.8233 16.0268 10.8876 16.1246 10.9747C16.2416 10.8325 16.4387 10.9868 16.563 10.8962C16.706 10.7914 16.8834 10.8223 17.038 10.7716C17.1926 10.7209 17.3377 10.7383 17.5049 10.7263C17.6722 10.7143 17.8182 10.6896 17.9884 10.6977C18.1586 10.7059 18.3234 10.667 18.4911 10.6794C18.6587 10.6918 18.8323 10.6537 18.9989 10.6505C19.2456 10.6443 19.2482 10.7288 19.4949 10.7226C19.7416 10.7164 19.7318 10.2788 19.9807 10.2728C20.2295 10.2668 20.2365 10.6222 20.483 10.6182C20.7296 10.6143 20.7333 10.7144 20.9798 10.7104C21.2263 10.7065 21.2221 10.4333 21.4687 10.4272C21.6197 10.425 21.7916 10.7106 21.9436 10.6952C22.0956 10.6798 22.2377 10.5572 22.388 10.5351C22.5382 10.5129 22.6738 10.3898 22.8242 10.3655C22.9746 10.3411 23.1505 10.5116 23.3005 10.4939C23.4504 10.4761 23.5679 9.99678 23.7194 9.98802C23.8709 9.97926 24.0471 10.1453 24.1997 10.1522C24.3522 10.159 24.5144 10.2154 24.6655 10.2421C24.8166 10.2688 24.9471 10.5735 25.0942 10.6243C25.2537 10.5673 25.4271 10.4115 25.5858 10.3656C25.7445 10.3196 25.9159 10.3412 26.0759 10.3065C26.236 10.2717 26.3467 9.88507 26.5102 9.86388C26.6736 9.8427 26.8627 9.86556 27.0274 9.85778C27.1921 9.85 27.3813 9.72202 27.5471 9.72984C27.7129 9.73767 27.8617 10.0947 28.0267 10.1135C28.1916 10.1324 28.2898 10.4547 28.4536 10.4889C28.6175 10.5232 28.8475 10.2319 29.0081 10.2793C29.1688 10.3267 29.3332 10.1126 29.4909 10.1708C29.656 10.1276 29.7797 10.2543 29.942 10.2197C30.1042 10.1851 30.2421 9.94022 30.4083 9.91258C30.5745 9.88495 30.8282 10.4738 30.9937 10.455C31.1593 10.4361 31.2793 9.83281 31.4464 9.82298C31.6135 9.81316 31.7986 10.0398 31.967 10.0411C32.1355 10.0425 32.2981 10.1832 32.466 10.1934C32.6338 10.2036 32.8935 10.4113 33.0627 10.4327C33.1826 10.3107 33.2861 10.1409 33.4187 10.0886C33.5671 10.0308 33.633 10.1 33.7849 10.1157C33.9368 10.1313 34.2139 9.71265 34.3551 9.78298C34.505 9.85617 34.6131 9.80427 34.7527 9.83677C34.9097 9.87278 34.9851 10.0225 35.1341 10.018C35.283 10.0135 35.4395 10.1471 35.5904 10.1161C35.7413 10.0851 35.9033 10.1148 36.055 10.0728C36.2067 10.0308 36.3306 9.91574 36.4821 9.87593C36.7113 9.86626 36.7069 10.0456 36.9372 10.0515C37.1674 10.0575 37.1779 9.61684 37.4059 9.62261C37.6339 9.62838 37.6244 9.9981 37.8544 10.0062C38.0845 10.0144 38.0911 9.71543 38.3192 9.7212C38.5472 9.72697 38.5509 9.64737 38.7789 9.65314C39.0069 9.65892 39.0082 9.67234 39.2361 9.68032C39.4088 9.68422 39.5789 10.2935 39.7435 10.2879C39.908 10.2823 40.0593 9.7656 40.2244 9.7534C40.3894 9.7412 40.5594 9.72269 40.7266 9.71066C40.8939 9.69863 41.0779 10.0605 41.2467 10.0574C41.4155 10.0544 41.5706 9.96607 41.7432 9.97218C42.0065 9.98056 42.0029 10.0601 42.2662 10.0685C42.5295 10.0769 42.5295 10.0769 42.7929 10.0853C43.0562 10.0937 43.0722 9.63791 43.3354 9.6485C43.5985 9.65909 43.5765 10.2874 43.8398 10.2958C44.1032 10.3042 44.113 9.96109 44.3756 9.94946C44.528 9.89862 44.6316 9.63787 44.7823 9.60909C44.9331 9.58031 45.1314 9.59719 45.2831 9.58622C45.4347 9.57526 45.6139 9.76153 45.7685 9.77075C45.9231 9.77996 46.032 10.1074 46.1853 10.1343C46.3386 10.1612 46.5344 9.94273 46.6845 9.98267C46.8346 10.0226 47.0249 10.2984 47.1718 10.3514C47.3139 10.2599 47.3177 9.63908 47.4634 9.58775C47.6184 9.53266 47.8617 9.60166 48.0203 9.58677C48.1789 9.57188 48.3532 9.82433 48.5137 9.84285C48.6743 9.86138 48.8386 9.82917 48.9947 9.87842C49.1507 9.92767 49.3003 9.97423 49.4509 10.0386C49.6014 10.103 49.7348 10.1883 49.8776 10.2676C49.9774 10.1175 50.2101 10.2101 50.3151 10.1402C50.4549 10.0485 50.4687 9.65249 50.6107 9.6519C50.7617 9.64975 50.8525 10.1023 50.9985 10.1375C51.1533 10.1733 51.3613 10.0002 51.4989 9.99929C51.6918 10.0002 51.8541 9.66619 52.0118 9.66233C52.194 9.65806 52.3678 10.0081 52.5359 10.0139C52.7041 10.0196 52.841 10.1185 53.0246 10.1542C53.1778 10.1833 53.3667 10.2084 53.553 10.2687C53.8119 10.2768 53.7921 9.82505 54.0531 9.80442C54.3142 9.7838 54.3463 10.2187 54.6052 10.1979C54.864 10.1771 54.8598 10.1147 55.1186 10.0939C55.3775 10.0731 55.3898 10.236 55.6509 10.2154C55.9119 10.1947 55.9037 10.0965 56.1624 10.0779C56.4212 10.0571 56.5787 9.54754 56.415 9.39125C56.3403 9.3214 56.0868 9.20949 55.8518 9.20764C55.71 9.20603 55.5359 9.19093 55.3492 9.19488C55.1959 9.19906 55.0341 9.3468 54.8568 9.34478C54.6994 9.34423 54.5199 9.58163 54.3476 9.57111C54.1888 9.55936 54.0299 9.399 53.8607 9.37761C53.7003 9.35688 53.5841 9.09764 53.4181 9.06318C53.2521 9.02872 52.9927 9.38661 52.83 9.33687C52.6673 9.28713 52.6223 8.93556 52.4652 8.8707C52.3081 8.80585 52.1906 8.50436 52.0414 8.42235C51.88 8.4459 51.6448 8.62594 51.4862 8.64083C51.3277 8.65572 51.1809 8.87112 51.0205 8.87923C50.8602 8.88734 50.6954 8.86627 50.5337 8.86318C50.372 8.8601 50.2028 8.95851 50.0416 8.9488C49.8804 8.9391 49.7187 8.87613 49.5581 8.8576C49.3976 8.83907 49.2739 8.56152 49.1139 8.53637C48.9538 8.51123 48.7432 8.77958 48.5858 8.74798C48.4284 8.71638 48.2365 8.79314 48.0796 8.75492C47.9227 8.71671 47.8048 8.51056 47.6486 8.46352C47.4924 8.41648 47.4559 8.01006 47.3022 7.95877C47.1485 7.90748 46.9046 8.38631 46.7512 8.33061C46.5912 8.39419 46.4042 8.07426 46.2424 8.10222C46.0806 8.13019 45.9423 8.0512 45.7763 8.04558C45.6104 8.03996 45.3772 8.49298 45.2137 8.45427C45.0502 8.41557 45.044 7.90047 44.8892 7.83358C44.7344 7.76668 44.5031 7.89598 44.3588 7.80767C44.2092 7.8809 44.1411 8.26182 43.9987 8.29787C43.8428 8.33515 43.6107 8.20486 43.4575 8.20684C43.3043 8.20882 43.0981 8.29781 42.9404 8.27063C42.7915 8.24409 42.7415 7.75019 42.5851 7.70536C42.4418 7.6637 42.1735 7.99212 42.0198 7.94083C41.877 7.89256 41.8685 7.4372 41.715 7.3837C41.5723 7.33322 41.3578 7.47484 41.2041 7.42355C41.0613 7.37528 40.8403 7.5741 40.6839 7.52927C40.5384 7.48745 40.4028 7.43085 40.2459 7.39263C40.0977 7.35727 39.9952 7.12345 39.8378 7.09185C39.6891 7.06311 39.5853 7.2373 39.4251 7.21437C39.1973 7.26407 39.2606 7.36858 39.0418 7.44778C38.823 7.52698 38.6122 6.92801 38.3914 7.00484C38.2456 7.05617 37.9713 7.40632 37.8042 7.20542C37.6881 7.06596 37.805 6.44464 37.7048 6.27086C37.4908 6.25503 37.4344 6.47712 37.2298 6.54407C37.0252 6.61101 37.1696 7.05868 36.965 7.12563C36.7604 7.19257 36.6735 7.1684 36.4579 7.17464C36.3381 7.05487 36.1421 6.8252 36.0197 6.74073C35.8847 6.64646 35.7199 6.68529 35.5823 6.62632C35.4342 6.55991 35.4042 6.18504 35.256 6.14968C35.1078 6.11432 34.8905 6.47313 34.7364 6.4573C34.5823 6.44147 34.444 6.15175 34.2889 6.14916C34.1338 6.14656 33.9698 6.08563 33.817 6.08099C33.6533 6.07553 33.5404 5.83207 33.3914 5.80774C33.2291 5.78243 32.9796 6.15659 32.8405 6.08863C32.7013 6.02066 32.4638 5.96317 32.3558 5.83319C32.2663 5.72453 32.2981 5.47403 32.2304 5.30932C32.1836 5.19273 32.4929 4.90949 32.4322 4.74085C32.3826 4.60188 31.8358 4.61689 31.7895 4.46263C31.7433 4.30838 31.9281 4.08914 31.8922 3.94452C31.8518 3.77073 31.7719 3.62065 31.7636 3.4936C31.8135 3.32871 31.9994 3.24486 32.0828 3.10684C32.1662 2.96883 32.0827 2.68759 32.1977 2.57188C32.3128 2.45616 32.5967 2.54594 32.7363 2.45866C32.8758 2.37138 32.9208 2.09299 33.0738 2.03332C33.2268 1.97366 33.3857 1.80574 33.5476 1.77557C33.7095 1.7454 33.9167 1.85386 34.0809 1.8527C34.2451 1.85153 34.4149 1.95505 34.5745 1.98681C34.7341 2.01858 34.7995 1.82376 34.9478 1.88797C35.0232 1.73827 35.234 1.918 35.3308 1.83865C35.4486 1.74533 35.6142 1.93504 35.7494 1.90733C35.8845 1.87961 35.9822 1.75817 36.1245 1.75316C36.2669 1.74816 36.4556 1.8065 36.5885 1.77862C36.7621 1.74044 36.9289 1.7949 37.0839 1.76865C37.2568 1.73929 37.393 1.60741 37.5542 1.58827C37.7153 1.56913 37.8559 1.28674 38.0234 1.2725C38.1908 1.25826 38.3598 1.37279 38.5338 1.35904C38.69 1.34619 38.8396 1.15317 39.0182 1.13755C39.2416 1.11636 39.2672 1.39997 39.4906 1.37878C39.714 1.35759 39.6874 1.08721 39.9108 1.06602C40.1341 1.04483 40.1481 1.18562 40.3691 1.16647C40.5902 1.14733 40.6051 1.27487 40.8263 1.25351C41.0475 1.23216 41.0253 0.96211 41.2465 0.940756C41.4677 0.919403 41.4794 0.940229 41.7036 0.939057C41.88 0.983156 42.0611 0.843508 42.2225 0.851004C42.3993 0.859643 42.5511 1.02615 42.7168 1.00513C42.8825 0.984109 43.0155 0.805405 43.1823 0.768943C43.3492 0.73248 43.4815 0.562591 43.6487 0.521716C43.8159 0.480841 44.0776 0.930528 44.2504 0.903379C44.4029 0.88138 44.5141 0.516937 44.6661 0.501557C44.8181 0.486177 45.0017 0.883499 45.1553 0.8749C45.309 0.866301 45.4545 0.819373 45.6078 0.815186C45.7612 0.810999 45.9112 0.311932 46.0643 0.312158C46.2173 0.312383 46.3728 0.519063 46.5279 0.521658C46.683 0.524253 46.8319 0.730474 46.9869 0.733068C47.142 0.735663 47.2919 0.868738 47.4448 0.87117C47.5976 0.873602 47.7556 0.656815 47.9087 0.65704C48.0617 0.657266 48.2124 0.448818 48.3656 0.446837C48.5188 0.444857 48.6644 0.395725 48.818 0.389333C49.0672 0.378924 49.0933 0.95538 49.3425 0.944971C49.5917 0.934563 49.5887 0.825648 49.8379 0.81524C50.0871 0.804831 50.0837 0.700308 50.3328 0.692106C50.5818 0.683904 50.5588 0.245233 50.801 0.238748C51.0433 0.232262 51.0527 0.554589 51.295 0.548104C51.5373 0.541618 51.5323 0.399287 51.7725 0.390432C52.0127 0.381577 52.0104 0.292679 52.2527 0.286194C52.4949 0.279708 52.4966 0.37742 52.739 0.368729C52.9814 0.360037 52.9907 0.6247 53.2309 0.615845C53.4711 0.60699 53.4656 0.411386 53.708 0.402694C53.9504 0.394003 53.9474 0.285094 54.1875 0.278445C54.4275 0.271797 54.4434 0.656716 54.6858 0.648024C54.9283 0.639332 54.9201 0.179563 55.1621 0.17749C55.404 0.175416 55.4038 0.687807 55.6519 0.692841C55.8999 0.697875 55.9002 0.604721 56.146 0.609592C56.3919 0.614463 56.3967 0.399663 56.6425 0.404535C56.8884 0.409406 56.8891 0.460469 57.1349 0.46534C57.3808 0.470212 57.3768 0.733868 57.6226 0.738739C57.8685 0.74361 57.8701 0.752607 58.1159 0.757478C58.2688 0.75991 58.426 0.463206 58.5733 0.451912C58.7205 0.440618 58.8732 0.145793 59.0196 0.145529C59.166 0.145266 59.2723 0.627807 59.4158 0.667253C59.5528 0.704004 59.8797 0.393237 60.0096 0.496008C60.1144 0.579172 60.0767 0.909124 60.1772 1.04965C60.3916 1.03001 60.4245 1.03466 60.6199 0.942635C60.8152 0.850609 60.7134 0.636791 60.9088 0.544764C61.1041 0.452737 61.1446 0.535586 61.3401 0.441353C61.5356 0.34712 61.486 0.0284736 61.701 1.21885e-05C61.85 0.115281 62.0443 0.426881 62.194 0.473434C62.3607 0.527912 62.516 0.76785 62.6843 0.771424C62.8526 0.774998 63.0067 0.340559 63.1786 0.326647C63.3504 0.312735 63.5444 0.269401 63.7146 0.27755C63.9755 0.287975 63.9593 0.688252 64.2204 0.696472C64.4815 0.704691 64.4875 0.503283 64.7485 0.513708C65.0095 0.524133 65.0145 0.367029 65.2754 0.377454C65.5364 0.38788 65.5297 0.569268 65.7906 0.579693C66.0516 0.590119 66.0464 0.780497 66.3077 0.786511C66.569 0.792524 66.5659 0.384133 66.8186 0.387288C67.0712 0.390443 67.0672 0.594226 67.3198 0.59738C67.5725 0.600534 67.5687 0.802112 67.8212 0.807474C68.0736 0.812834 68.074 0.777365 68.3267 0.780519C68.5793 0.783674 68.577 0.874454 68.8297 0.877609C69.0823 0.880763 69.0869 0.548376 69.3396 0.55153C69.5922 0.554685 69.5887 0.751844 69.8413 0.754998C70.0341 0.758161 70.253 0.437192 70.4082 0.46863C70.5744 0.500883 70.6996 1.08686 70.8825 1.07376C71.0275 1.0623 71.1198 0.654346 71.308 0.568448C71.439 0.507151 71.6519 0.538405 71.8252 0.564529C71.9722 0.586489 72.0908 0.781603 72.2469 0.830852C72.403 0.880102 72.5194 1.07504 72.6629 1.11449C72.839 1.163 73.0799 1.05437 73.2079 1.03278C73.3943 1.0022 73.5544 1.02735 73.7145 1.02145C73.8969 1.01497 74.0606 0.900636 74.2283 0.913034C74.396 0.925432 74.5267 1.25674 74.7024 1.28082C74.865 1.30171 75.0515 1.26892 75.2343 1.28687C75.4964 1.3129 75.5496 0.742359 75.8117 0.76839C76.0737 0.794421 76.026 1.28997 76.288 1.316C76.5501 1.34203 76.5683 1.15483 76.8282 1.18069C77.088 1.20656 77.0811 1.29924 77.3432 1.32527C77.6052 1.3513 77.619 1.07505 77.8823 1.08343C78.1258 1.09034 78.1143 1.09614 78.3589 1.08761C78.6035 1.07908 78.6002 0.974591 78.8426 0.965899C79.085 0.957208 79.0954 1.17757 79.3401 1.16683C79.5849 1.1561 79.5879 1.11639 79.8317 1.11889C80.0557 1.11992 80.0516 1.23495 80.2747 1.24702C80.4979 1.25908 80.4901 1.39383 80.7131 1.4081C80.9361 1.42237 80.9382 1.39369 81.1614 1.40575C81.3845 1.41782 81.3911 1.29851 81.6163 1.31294C81.8415 1.32737 81.8438 1.26546 82.0668 1.27973C82.2102 1.29033 82.3525 1.28532 82.5018 1.2764C82.6511 1.26747 82.8021 1.0546 82.9484 1.05655C83.0947 1.05849 83.2789 1.17638 83.4202 1.21566C83.5615 1.25495 83.6952 1.39571 83.8189 1.49358C83.9238 1.57454 83.9524 1.60769 84.0443 1.74536C84.2934 1.7061 84.1541 1.48951 84.382 1.37771C84.6098 1.2659 84.7993 1.7635 85.0416 1.69712C85.2036 1.75568 85.3528 1.32752 85.5138 1.37048C85.6748 1.41343 85.7711 1.75994 85.9353 1.78982C86.0994 1.81971 86.2826 1.80219 86.45 1.819C86.6173 1.83581 86.7947 1.687 86.965 1.69295C87.1354 1.69889 87.3035 1.97527 87.4747 1.97018C87.6458 1.9651 87.8226 2.0048 87.992 1.99293C88.1615 1.98106 88.2759 1.87417 88.4458 1.85568C88.7196 1.93359 88.6386 2.09842 88.9012 2.20656C89.1638 2.31471 89.2972 1.92087 89.5745 1.9813C89.7392 1.91362 89.8495 1.80197 90.0142 1.79419C90.1789 1.78641 90.4074 1.78556 90.5741 1.8112C90.7408 1.83683 90.9195 1.85005 91.0816 1.87756C91.2525 1.90573 91.3768 2.38517 91.5369 2.37926C91.6971 2.37336 91.8646 2.17725 92.0265 2.17813C92.1884 2.17901 92.3639 2.11435 92.5274 2.12422C92.6908 2.13408 92.8875 1.99338 93.0499 2.01648C93.2124 2.03958 93.3124 2.42626 93.4736 2.46702C93.6347 2.50777 93.7728 2.56013 93.9279 2.62262C94.083 2.68511 94.2418 2.87653 94.3885 2.96279C94.5322 2.90909 94.6292 2.37726 94.7787 2.33508C94.9282 2.2929 95.1545 2.56248 95.3111 2.54522C95.4676 2.52796 95.6025 2.5335 95.7628 2.55644C95.9075 2.57824 96.0171 2.80595 96.1699 2.87048C96.3973 2.91392 96.4769 2.4074 96.7056 2.4354C96.9342 2.46339 96.9195 2.60205 97.1481 2.63005C97.3767 2.65804 97.3481 2.8955 97.5789 2.92366C97.8097 2.95182 97.8564 2.56042 98.0874 2.58637C98.3184 2.61233 98.304 2.71775 98.5348 2.74591C98.7018 2.76713 98.8744 2.68229 99.0374 2.69878C99.2003 2.71526 99.3613 2.78705 99.5244 2.80132C99.6943 2.81389 99.8236 3.28484 99.9847 3.29675C100.157 3.30948 100.358 2.83638 100.517 2.84592C100.694 2.85897 100.857 2.92431 101.012 2.93573C101.197 2.94943 101.348 3.15579 101.493 3.17317C101.709 3.20019 101.989 2.9459 102.092 2.98903C102.237 3.04629 102.27 3.34155 102.403 3.37797C102.551 3.41775 102.724 3.20431 102.862 3.22562C103.009 3.24758 103.114 3.51924 103.259 3.53001C103.405 3.54078 103.561 3.34606 103.709 3.35479C103.85 3.36523 103.955 3.80553 104.107 3.8234C104.342 3.85189 104.349 3.79027 104.584 3.81875C104.819 3.84724 104.856 3.53054 105.092 3.55682C105.327 3.5831 105.291 3.89098 105.526 3.91725C105.762 3.94353 105.786 3.73903 106.021 3.76751C106.256 3.796 106.256 3.80041 106.491 3.82669C106.727 3.85297 106.689 4.1763 106.925 4.20258C107.16 4.22886 107.23 3.64839 107.465 3.67467C107.701 3.70095 107.664 4.01545 107.899 4.04393C108.135 4.07242 108.111 4.27473 108.346 4.30101C108.582 4.32729 108.639 3.848 108.874 3.87648C109.11 3.90497 109.062 4.30295 109.298 4.33143C109.533 4.35992 109.549 4.23688 109.784 4.26536C110.019 4.29385 110.049 4.04316 110.284 4.07164C110.519 4.10013 110.49 4.34421 110.725 4.3727C110.961 4.40118 110.982 4.23416 111.217 4.26044C111.453 4.28672 111.416 4.60122 111.651 4.6275C111.887 4.65378 111.875 4.75053 112.113 4.77697C112.35 4.80341 112.364 4.67799 112.599 4.70648C112.835 4.73496 112.84 4.6954 113.077 4.72405C113.229 4.74192 113.438 4.40028 113.585 4.42665C113.732 4.45302 113.856 4.65745 114.003 4.68602C114.149 4.7146 114.255 4.9642 114.404 4.99295C114.552 5.02169 114.739 4.8026 114.891 4.82709C115.042 4.85159 115.175 4.87919 115.327 4.89044C115.48 4.9017 115.614 5.1889 115.767 5.18913C115.92 5.18935 116.11 4.86845 116.262 4.85307C116.48 4.90689 116.374 5.2584 116.583 5.3382C116.792 5.418 116.731 5.58209 116.943 5.66206C117.154 5.74202 117.354 5.14235 117.569 5.20482C117.724 5.20963 117.784 5.38268 117.936 5.37612C118.087 5.36957 118.234 5.23406 118.388 5.22767C118.542 5.22128 118.708 5.58184 118.861 5.57986C119.014 5.57788 119.178 5.37482 119.332 5.39285C119.486 5.41089 119.554 5.7753 119.704 5.81745C119.845 5.85894 120.11 5.57242 120.254 5.64512C120.375 5.70737 120.563 5.57481 120.741 5.62128C120.896 5.66154 120.937 6.24796 121.099 6.27768C121.278 6.31092 121.503 6.03249 121.639 6.04923C121.879 6.07804 121.91 5.82754 122.15 5.85856C122.389 5.88958 122.344 6.25888 122.584 6.2899C122.823 6.32092 122.834 6.24183 123.073 6.27285C123.313 6.30386 123.338 6.10612 123.578 6.13493C123.818 6.16374 123.779 6.48029 124.021 6.50927C124.262 6.53824 124.244 6.66995 124.485 6.70113C124.646 6.72186 124.827 6.60665 124.988 6.62077C125.149 6.63488 125.303 6.77711 125.462 6.78886C125.62 6.8006 125.813 6.43999 125.974 6.45411C126.135 6.46822 126.302 6.49827 126.46 6.52105C126.618 6.54382 126.818 6.44551 126.975 6.48152C127.132 6.51754 127.242 6.76747 127.396 6.82317C127.549 6.87888 127.718 6.90027 127.866 6.9755C128.013 7.05074 128.145 6.94734 128.282 7.04398C128.439 6.99568 128.576 7.35853 128.731 7.33448C128.886 7.31044 129.032 7.27471 129.192 7.27322C129.352 7.27173 129.503 7.23854 129.664 7.25707C129.824 7.27559 129.927 7.50722 130.084 7.54324C130.241 7.57925 130.389 7.55472 130.543 7.6038C130.697 7.65289 130.895 7.76512 131.046 7.82507C131.215 7.78436 131.396 7.29199 131.544 7.2963C131.708 7.30175 131.874 7.48484 132.024 7.5314C132.173 7.57795 132.38 7.54442 132.523 7.61491C132.667 7.68541 132.671 8.01622 132.814 8.09113C132.963 8.17094 133.174 8.13775 133.338 8.14762C133.501 8.15749 133.655 7.99363 133.821 7.97482C133.986 7.956 134.15 7.77738 134.309 7.7669C134.482 7.75535 134.613 8.20645 134.763 8.253C134.99 8.32529 134.965 8.40544 135.19 8.47756C135.415 8.54968 135.592 7.98825 135.82 8.05833C136.048 8.12841 135.943 8.45786 136.171 8.53015C136.398 8.60243 136.404 8.58288 136.63 8.655C136.781 8.70171 136.926 8.96309 137.102 8.98276C137.265 8.99924 137.476 8.70425 137.641 8.74092C137.807 8.77758 138 8.81178 138.148 8.90483C138.278 8.98758 138.434 9.12116 138.545 9.27573C138.631 9.39747 138.743 9.74731 138.655 9.88279C138.585 9.98853 138.18 9.8233 138.048 9.90445C137.929 9.97775 137.939 10.4443 137.799 10.4783C137.659 10.5123 137.388 10.5167 137.253 10.4911C137.012 10.4445 137.085 10.0595 136.842 10.0127C136.599 9.96592 136.605 9.9486 136.362 9.90181C136.119 9.85503 136.045 10.2577 135.805 10.2111C135.564 10.1644 135.623 9.84937 135.382 9.80496C135.142 9.76054 135.156 9.67954 134.914 9.63496C134.671 9.59038 134.597 9.98423 134.356 9.93981C134.116 9.89539 134.139 9.75739 133.899 9.71297C133.658 9.66855 133.644 9.73848 133.401 9.6917C133.158 9.64491 133.176 9.55529 132.935 9.51088C132.695 9.46646 132.691 9.47952 132.448 9.43494C132.205 9.39036 132.238 9.21753 131.998 9.17091C131.757 9.12429 131.809 8.84641 131.566 8.79963C131.323 8.75284 131.245 9.17518 131.002 9.1306C130.76 9.08602 130.737 9.2174 130.494 9.17061C130.251 9.12382 130.308 8.83082 130.065 8.78624C129.822 8.74166 129.847 8.61928 129.604 8.57249C129.361 8.5257 129.328 8.71395 129.085 8.66717C128.842 8.62038 128.816 8.76703 128.573 8.72245C128.33 8.67786 128.383 8.38234 128.139 8.34217C127.896 8.302 127.841 8.69052 127.602 8.65509C127.363 8.61966 127.439 8.09298 127.2 8.05755C126.961 8.02212 126.916 8.32934 126.677 8.29611C126.437 8.26289 126.478 7.98197 126.239 7.94654C126 7.9111 125.955 8.22053 125.716 8.1851C125.476 8.14967 125.517 7.86656 125.278 7.83113C125.039 7.7957 124.99 8.13144 124.751 8.09601C124.511 8.06058 124.542 7.84994 124.303 7.81451C124.064 7.77908 124.011 8.13892 123.772 8.10349C123.533 8.06806 123.583 7.71025 123.344 7.67482C123.105 7.63939 123.093 7.71392 122.853 7.68511C122.614 7.6563 122.6 7.87705 122.371 7.85347C122.142 7.82989 122.137 7.86502 121.908 7.84143C121.679 7.81785 121.718 7.43481 121.487 7.40886C121.256 7.38291 121.208 7.85181 120.98 7.82602C120.751 7.80023 120.767 7.64173 120.538 7.61594C120.309 7.59015 120.347 7.23798 120.116 7.21203C119.885 7.18607 119.844 7.58898 119.613 7.56523C119.381 7.54148 119.41 7.27961 119.181 7.25603C118.952 7.23244 118.919 7.52725 118.69 7.50367C118.461 7.48008 118.507 7.03543 118.276 7.00948C118.045 6.98353 118.037 7.06939 117.805 7.04564C117.684 7.03226 117.413 7.31828 117.285 7.24231C117.173 7.1741 117.19 6.87814 117.081 6.79686C116.965 6.70846 116.854 6.80227 116.752 6.73929C116.588 6.79593 116.412 6.57659 116.252 6.60913C116.083 6.64543 115.921 6.58466 115.753 6.6011C115.586 6.61755 115.42 7.02233 115.255 7.01671C115.089 7.01109 114.934 6.66697 114.767 6.65016C114.6 6.63335 114.462 6.45901 114.295 6.43117C114.129 6.40333 113.925 6.60126 113.759 6.569C113.593 6.53675 113.44 6.44116 113.274 6.41112C113.108 6.38107 112.916 6.51551 112.749 6.48987C112.512 6.45681 112.504 6.50943 112.267 6.47637C112.03 6.4433 112.054 6.26543 111.817 6.23017C111.58 6.1949 111.59 6.12461 111.35 6.08918C111.111 6.05375 111.073 6.33043 110.834 6.295C110.595 6.25957 110.598 6.24427 110.359 6.20884C110.12 6.17341 110.138 6.04832 109.901 6.01305C109.664 5.97778 109.645 6.02519 109.395 5.98673C109.145 5.94828 109.151 5.92433 108.901 5.88367C108.651 5.84301 108.658 5.80805 108.408 5.7696C108.158 5.73114 108.19 5.41852 107.939 5.39551C107.71 5.37414 107.678 5.80214 107.446 5.79604C107.213 5.78994 107.212 5.93399 106.981 5.92806C106.751 5.92212 106.768 5.33554 106.535 5.32944C106.303 5.32334 106.289 5.84577 106.058 5.83983C105.828 5.8339 105.825 5.94455 105.592 5.93624C105.36 5.92794 105.367 5.7155 105.137 5.70736C104.907 5.69922 104.9 5.87399 104.668 5.86568C104.436 5.85738 104.444 5.62727 104.211 5.62117C104.034 5.61695 103.86 5.48427 103.67 5.4392C103.507 5.40049 103.228 5.62612 103.097 5.42342C102.956 5.49509 102.956 5.62152 102.808 5.64825C102.659 5.67499 102.459 5.20103 102.302 5.19607C102.145 5.19111 101.938 5.68154 101.784 5.65688C101.631 5.63223 101.565 5.11935 101.414 5.08824C101.263 5.05712 101.129 4.88531 100.983 4.85894C100.825 4.82954 100.632 4.82858 100.486 4.82002C100.268 4.80387 100.235 5.28056 100.014 5.26425C99.7938 5.24794 99.7937 5.27899 99.5729 5.26488C99.3521 5.25077 99.3752 4.93971 99.1545 4.92339C98.9339 4.90708 98.9396 4.82987 98.7212 4.81372C98.5028 4.79757 98.467 5.28291 98.2484 5.26896C98.0079 5.25118 98.0254 5.01514 97.7849 4.99736C97.5444 4.97958 97.5461 4.95749 97.3056 4.93971C97.0651 4.92193 97.0772 4.75868 96.8367 4.7409C96.5963 4.72312 96.6079 4.56649 96.3674 4.54871C96.1269 4.53093 96.0834 5.11997 95.8429 5.10219C95.6025 5.08441 95.6256 4.77113 95.3852 4.75335C95.1447 4.73557 95.1455 4.72453 94.905 4.70675C94.6646 4.68896 94.6549 4.81914 94.4145 4.80136C94.174 4.78358 94.189 4.58061 93.9485 4.56283C93.7081 4.54505 93.6901 4.78771 93.4497 4.76993C93.2092 4.75215 93.2286 4.48963 92.9859 4.47169C92.7433 4.45375 92.7527 4.35683 92.51 4.33888C92.3666 4.32828 92.1664 4.39556 91.9689 4.39649C91.7957 4.3992 91.6347 4.32739 91.4628 4.31246C91.271 4.29606 91.0671 4.38303 90.9307 4.30861C90.7186 4.3262 90.7585 4.53767 90.5544 4.59799C90.3503 4.65832 90.3342 4.51517 90.1215 4.51275C89.9954 4.38808 90.0099 4.13182 89.8712 4.05724C89.7197 3.97727 89.4104 4.22948 89.2483 4.20197C89.0862 4.17445 88.9247 4.16915 88.7593 4.18576C88.5939 4.20237 88.4114 4.15116 88.25 4.20356C88.0887 4.25595 87.9841 4.23047 87.8321 4.30574C87.6811 4.1881 87.472 4.40555 87.2991 4.37501C87.1261 4.34447 86.9698 4.38837 86.7918 4.39518C86.6139 4.40198 86.4 4.53479 86.232 4.5268C85.969 4.51401 85.9933 4.06552 85.7304 4.05052C85.4676 4.03552 85.457 4.2388 85.1939 4.22601C84.9309 4.21321 84.9278 4.28618 84.6647 4.27338C84.4017 4.26059 84.3922 4.4196 84.1293 4.4046C83.8665 4.3896 83.8877 3.98301 83.6246 3.97022C83.375 3.95619 83.358 4.27657 83.1084 4.26255C82.8588 4.24852 82.879 3.85519 82.6294 3.84116C82.3797 3.82714 82.3625 4.14972 82.1129 4.1357C81.8633 4.12168 81.8575 4.22995 81.6079 4.21593C81.3583 4.2019 81.3586 4.1975 81.109 4.18348C80.8594 4.16945 80.8798 3.77391 80.6301 3.75989C80.3805 3.74586 80.3697 3.92251 80.1201 3.90849C79.8704 3.89446 79.8771 3.74412 79.6275 3.7301C79.3779 3.71608 79.3756 3.74695 79.126 3.73292C78.8764 3.7189 78.8817 3.61727 78.6298 3.60309C78.378 3.5889 78.3601 3.95134 78.1083 3.93716C77.9493 3.92762 77.791 4.08894 77.6338 4.08398C77.4767 4.07902 77.3247 3.79494 77.1672 3.79438C77.0098 3.79383 76.8517 3.92188 76.6941 3.92354C76.5365 3.92519 76.3762 3.69374 76.2185 3.69539C76.0609 3.69705 75.9031 3.70092 75.7455 3.70257C75.5879 3.70423 75.4293 3.86993 75.2718 3.86938C75.1144 3.86883 74.948 4.07836 74.7909 4.0734C74.6338 4.06843 74.4892 3.65403 74.3322 3.64686C74.1753 3.63969 74.0403 3.42563 73.8816 3.41168C73.7229 3.39772 73.5525 3.60252 73.3943 3.58195C73.2361 3.56137 73.0502 3.73617 72.8949 3.70693C72.7395 3.6777 72.6043 3.61667 72.4496 3.57862C72.2063 3.5695 72.2039 3.2122 71.9594 3.21852C71.715 3.22485 71.7298 3.71395 71.4853 3.72027C71.2409 3.7266 71.2291 3.22663 70.9868 3.23311C70.7445 3.2396 70.7439 3.24843 70.4994 3.25475C70.2549 3.26107 70.2723 3.38656 70.0293 3.37303C69.8576 3.32484 69.6402 3.71471 69.4917 3.68376C69.3192 3.64661 69.1983 3.57111 69.0441 3.55749C68.8786 3.54525 68.7066 3.05118 68.5436 3.06575C68.3895 3.08096 68.1964 3.14212 68.027 3.18283C67.8802 3.21856 67.7434 3.38811 67.5751 3.44443C67.4319 3.49151 67.3128 3.60248 67.137 3.60945C66.9813 3.61568 66.831 3.51807 66.6615 3.50109C66.4919 3.48412 66.361 3.36573 66.2011 3.33838C66.0412 3.31102 65.8436 3.4628 65.6886 3.42915C65.5137 3.39404 65.3945 3.29648 65.2502 3.26807C64.9288 3.11564 64.8455 3.28251 64.5341 3.11309C64.4381 3.06162 64.4707 3.19046 64.3572 3.28632C64.2624 3.36804 63.9298 3.12608 63.8416 3.17944C63.693 3.26828 63.7273 3.76544 63.5735 3.80509C63.4197 3.84474 63.1949 3.67508 63.0305 3.67845C62.8662 3.68182 62.698 3.67604 62.5327 3.6616C62.3674 3.64716 62.1954 3.72317 62.0345 3.70905C61.8737 3.69494 61.7117 3.48553 61.5515 3.49143C61.3914 3.49733 61.2326 3.66528 61.075 3.66693C60.9174 3.66859 60.7576 3.39945 60.5981 3.39653C60.4386 3.39361 60.256 3.85259 60.0972 3.84084C59.9384 3.8291 59.8011 3.4951 59.6428 3.47674C59.4844 3.45837 59.3214 3.47294 59.1641 3.44134C59.0067 3.40973 58.8762 3.28474 58.7195 3.24432C58.5628 3.20389 58.2832 3.56472 58.1297 3.51123C58.002 3.46851 57.9646 3.28386 57.7951 3.29573C57.657 3.30326 57.4886 3.15107 57.3287 3.18361C57.1868 3.21304 56.981 3.02702 56.8272 3.06667C56.6848 3.10272 56.5802 3.31682 56.4309 3.3568C56.2815 3.39677 56.1319 3.41009 55.9851 3.44582C55.8383 3.48154 55.7097 3.60068 55.5611 3.62962C55.4126 3.65856 55.2684 3.77878 55.1208 3.79448C54.9733 3.81019 54.8155 3.4547 54.6672 3.45039C54.5102 3.44322 54.4038 3.50191 54.2602 3.46467C54.1058 3.4222 53.8825 3.80274 53.7372 3.78756C53.5831 3.77173 53.4619 3.82043 53.3128 3.82715C53.1637 3.83387 52.9831 3.45675 52.8332 3.4745C52.6832 3.49225 52.5394 3.54814 52.3849 3.56777C52.2304 3.5874 52.1063 3.76455 51.9501 3.7774C51.7939 3.79024 51.6292 3.85792 51.4809 3.85361C51.3238 3.84864 51.1756 3.72235 51.0209 3.71534C50.8661 3.70833 50.7236 3.83532 50.5655 3.8436C50.4186 3.85048 50.3058 3.96637 50.1439 3.99654C49.9819 4.02671 49.7897 3.98587 49.622 4.00452C49.4543 4.02317 49.272 3.84777 49.1051 3.85539C48.9382 3.86301 48.772 4.13022 48.6056 4.13122C48.4391 4.13222 48.2691 3.94218 48.1033 3.93435C47.9375 3.92653 47.77 3.85203 47.6066 3.84217C47.4432 3.8323 47.2516 4.05328 47.0906 4.04137C46.9185 4.02864 46.7827 3.55501 46.6239 3.54327C46.4474 3.53022 46.2601 3.93336 46.103 3.9284C45.9192 3.92368 45.7528 3.71397 45.6032 3.7273C45.4068 3.74383 45.1844 3.54106 45.0603 3.60064C44.8076 3.65738 44.9151 4.21324 44.6591 4.25641C44.403 4.29958 44.3325 3.8729 44.0765 3.91607C43.8204 3.95925 43.8941 4.40169 43.6381 4.44486C43.382 4.48804 43.3088 4.039 43.0527 4.08217C42.7966 4.12534 42.8087 4.20164 42.5527 4.24481C42.2966 4.28798 42.396 4.56376 42.154 4.65677C42.3075 4.71027 42.3015 4.67209 42.4535 4.7166C42.6054 4.76112 42.8459 4.50829 43.0008 4.54414C43.1556 4.57999 43.2745 4.80174 43.4319 4.83334C43.5893 4.86494 43.7807 4.70607 43.9387 4.72885C44.0967 4.75162 44.2524 4.77645 44.413 4.79497C44.5735 4.8135 44.6933 5.20388 44.8519 5.21783C45.0106 5.23179 45.2057 4.87355 45.3666 4.88767C45.5275 4.90178 45.6971 4.73687 45.8604 4.74894C46.0236 4.76101 46.175 4.81436 46.3382 4.82643C46.5015 4.8385 46.6542 4.90303 46.8151 4.91715C46.976 4.93126 47.1419 4.87698 47.3026 4.8933C47.4633 4.90962 47.5846 5.28013 47.7475 5.29662C47.9104 5.3131 48.0501 5.43435 48.2105 5.45508C48.3708 5.47582 48.541 5.36419 48.7035 5.38729C48.8659 5.41039 49.033 5.34068 49.1951 5.36819C49.4514 5.41154 49.4866 5.20562 49.7429 5.24897C49.9992 5.29233 49.9159 5.78971 50.1722 5.83307C50.4285 5.87642 50.4519 5.74061 50.7082 5.78397C50.9645 5.82732 50.9999 5.61921 51.2584 5.66273C51.5169 5.70625 51.4836 6.03651 51.7439 6.05576C51.8953 6.01815 52.089 5.91934 52.2394 5.89497C52.3898 5.87061 52.5064 5.43338 52.6579 5.42461C52.8094 5.41585 52.9881 5.54884 53.1405 5.55789C53.2929 5.56694 53.4466 5.67813 53.5951 5.70907C53.7437 5.74002 53.9339 5.68754 54.0786 5.74038C54.2233 5.79323 54.224 6.14377 54.3603 6.22039C54.4966 6.29701 54.7133 6.1866 54.8369 6.28447C54.9998 6.24106 55.121 6.01268 55.2826 5.98692C55.4442 5.96116 55.6563 6.24301 55.8211 6.23302C55.986 6.22303 56.1367 6.46488 56.3025 6.4727C56.4683 6.48052 56.6323 6.30187 56.797 6.32514C56.9616 6.3484 57.1205 6.36015 57.2819 6.39649C57.4434 6.43283 57.5008 6.52582 57.6591 6.57523C57.7745 6.75456 58.0193 6.80372 58.1682 6.83025C58.3279 6.85981 58.6015 6.88003 58.7667 6.80573C58.9227 6.7352 58.9997 6.26398 59.129 6.16486C59.2627 6.27678 59.2598 6.79564 59.4006 6.87259C59.5498 6.95461 59.8944 6.58303 60.0505 6.63228C60.2066 6.68153 60.3389 6.69131 60.5036 6.71457C60.6682 6.73784 60.7997 7.08917 60.9682 7.09054C61.1367 7.09191 61.308 7.11567 61.4774 7.1038C61.6469 7.09193 61.7801 7.15057 61.9476 7.13413C62.1638 7.15011 62.1609 7.07003 62.3759 7.10146C62.591 7.13289 62.5645 7.31063 62.7796 7.34206C62.9947 7.37348 63.0803 6.78534 63.2953 6.81677C63.5104 6.8482 63.449 7.25846 63.6637 7.29431C63.9092 7.33464 63.9572 7.04539 64.2025 7.08793C64.4478 7.13047 64.4097 7.34502 64.6528 7.3874C64.8959 7.42977 64.9215 7.29414 65.1666 7.33888C65.4117 7.38362 65.4506 7.15804 65.6959 7.20058C65.9412 7.24312 65.918 7.3767 66.1611 7.41908C66.4041 7.46145 66.3419 7.82285 66.5872 7.86539C66.8325 7.90792 66.9054 7.49185 67.1505 7.5366C67.2994 7.56313 67.4103 7.7133 67.542 7.73191C67.6848 7.75134 67.8166 7.85869 67.9482 7.90835C68.0712 7.95516 68.1114 8.3707 68.2278 8.47691C68.3715 8.42321 68.5577 7.88467 68.7058 7.86235C68.8538 7.84002 69.0378 7.69169 69.1905 7.69633C69.3433 7.70097 69.4957 7.94957 69.6471 7.97186C69.7985 7.99415 69.9901 7.83308 70.1384 7.86623C70.2868 7.89938 70.3941 8.12915 70.5399 8.16655C70.6858 8.20396 70.8715 8.09124 71.0174 8.12865C71.1632 8.16605 71.2878 8.28175 71.4318 8.31458C71.5757 8.3474 71.6555 8.82797 71.8003 8.84977C72.0308 8.88234 72.116 8.2698 72.3467 8.30016C72.5774 8.33053 72.5286 8.6907 72.7592 8.72107C72.9899 8.75143 72.965 8.93813 73.1956 8.96849C73.4263 8.99886 73.4743 8.64973 73.705 8.68009C73.9356 8.71046 73.8934 9.01122 74.1261 9.04396C74.3588 9.07669 74.3375 9.21484 74.5702 9.24758C74.8029 9.28031 74.8104 9.20989 75.0431 9.24263C75.188 9.26222 75.375 9.31374 75.5516 9.32459C75.7127 9.3365 75.879 9.12698 76.0379 9.16757C76.1969 9.20816 76.2964 9.36191 76.4236 9.47114C76.5716 9.47986 76.7895 9.56252 76.9468 9.56528C77.1041 9.56804 77.2574 9.14463 77.4125 9.14723C77.5676 9.14982 77.7194 9.19654 77.874 9.20575C78.0286 9.21496 78.1619 9.45108 78.3138 9.46675C78.4657 9.48242 78.5692 9.703 78.7177 9.73395C78.8663 9.7649 79.0867 9.48398 79.2294 9.53445C79.372 9.58493 79.4311 9.80667 79.5653 9.88092C79.6996 9.95517 79.8036 10.0183 79.9225 10.1203C80.0414 10.2222 80.2014 10.3073 80.3332 10.3858C80.4649 10.4643 80.6588 10.452 80.8003 10.5179C80.9418 10.5838 81.189 10.3914 81.3354 10.451C81.4818 10.5106 81.6908 10.6237 81.8346 10.6898C81.8799 10.7974 82.0356 11.0906 82.0546 11.2539C82.0713 11.3883 81.6075 11.6002 81.6302 11.7438C81.6528 11.8874 81.807 12.0231 81.8596 12.1512C81.9162 12.2862 81.9401 12.3523 82.0534 12.4406C81.9888 12.6532 82.2167 12.7809 82.09 12.9645C81.9633 13.1481 82.0245 13.1904 81.8978 13.374C81.7711 13.5576 81.3697 13.2862 81.2452 13.4699C81.1532 13.6051 81.1307 13.6988 80.9446 13.756C80.788 13.8043 80.6668 14.0926 80.4894 14.1216C80.3121 14.1506 80.1055 14.0644 79.947 14.1081C79.7354 14.0903 79.7564 13.9565 79.5491 13.9101C79.3418 13.8638 79.3387 13.8746 79.1292 13.8281C78.9197 13.7815 78.8667 14.0194 78.6573 13.9706C78.448 13.9219 78.4478 13.9241 78.2405 13.8777C78.1008 13.8474 78.0463 13.8944 77.8949 13.932C77.7572 13.9639 77.5355 13.6925 77.3884 13.7326C77.2412 13.7727 77.127 13.9972 76.9827 13.9998C76.8383 14.0025 76.7584 13.7637 76.6175 13.6889C76.4766 13.6142 76.2823 13.6619 76.1522 13.6523C76.0066 13.6415 75.8125 13.4763 75.677 13.5085C75.5415 13.5406 75.3945 13.5785 75.2565 13.6149C75.1186 13.6513 75.0426 13.7788 74.8982 13.7814C74.6736 13.7892 74.6853 14.1405 74.4629 14.1485C74.2405 14.1564 74.2336 14.0095 74.0092 14.0151C73.7847 14.0207 73.7922 14.2497 73.5676 14.2575C73.343 14.2653 73.3298 13.8739 73.1053 13.8795C72.8809 13.8851 72.8732 14.2882 72.6498 14.2806C72.4065 14.2715 72.4233 13.8934 72.1811 13.8688C71.939 13.8443 71.9322 13.9059 71.6876 13.8834C71.4431 13.8608 71.4649 13.6561 71.2205 13.6314C70.9761 13.6067 70.9437 13.6842 70.7017 13.7173C70.4417 13.7535 70.454 13.9474 70.2093 13.9271L70.2172 13.941Z" fill="#E99898"/>
</svg>
