<svg width="51" height="29" viewBox="0 0 51 29" fill="none" xmlns="http://www.w3.org/2000/svg">
<path d="M10.618 15.3009C10.4505 15.411 10.5246 15.9169 10.3673 16.0013C10.1889 16.0952 9.94049 16.0541 9.77532 16.1206C9.58917 16.1966 9.43808 16.4026 9.26751 16.4519C9.07424 16.5076 8.807 16.2449 8.63341 16.2777C8.43543 16.3138 8.28499 16.5981 8.1094 16.6199C7.90942 16.645 7.73392 16.6486 7.55964 16.6838C7.36646 16.7213 7.28243 16.8401 7.11787 16.9224C6.95332 17.0047 6.76247 16.9179 6.62675 17.0711C6.51762 17.1955 6.28303 17.2053 6.18524 17.3982C6.01463 17.385 5.83048 17.1231 5.6679 17.1539C5.50532 17.1847 5.29249 17.3076 5.14072 17.3728C4.98896 17.438 4.82915 17.6024 4.691 17.6923C4.53356 17.7949 4.51344 18.1145 4.34928 18.1865C4.18512 18.2585 3.94443 18.1104 3.77045 18.1535C3.59648 18.1965 3.4859 18.7554 3.30381 18.7727C3.12172 18.79 2.89832 18.6182 2.71532 18.6118C2.53231 18.6054 2.36247 18.3659 2.18026 18.3389C1.99805 18.3119 1.85815 18.1306 1.68012 18.0892C1.5021 18.0478 1.24115 18.3182 1.06662 18.2648C0.892092 18.2114 0.642158 18.3365 0.470423 18.2735C0.298688 18.2105 0.213677 17.8316 0.0464379 17.7621C0.107042 17.5897 -0.033289 17.3562 0.00762774 17.2066C0.055531 17.0331 0.0321581 16.8987 0.0514714 16.7429C0.0718772 16.5744 0.375404 16.444 0.36181 16.2761C0.350921 16.1167 0.228342 15.9742 0.187645 15.801C0.153361 15.6504 0.0859211 15.399 0.0294247 15.2263C0.199892 14.9895 0.462031 15.2429 0.685128 15.0579C0.908225 14.8728 0.835179 14.7839 1.05828 14.5989C1.28137 14.4138 1.34111 14.4859 1.56491 14.2985C1.7887 14.1111 1.89998 14.2476 2.12377 14.0602C2.25791 13.9482 2.31663 13.8091 2.45099 13.7232C2.59464 13.6322 2.466 13.0454 2.61677 12.9747C2.76753 12.904 3.16 13.3984 3.31827 13.3377C3.58251 13.235 3.5052 13.0354 3.76944 12.9327C4.03369 12.8299 3.96418 12.6482 4.23013 12.5486C4.49607 12.4489 4.67544 12.9151 4.93968 12.8124C5.20392 12.7096 5.01845 12.2287 5.28269 12.1259C5.54694 12.0232 5.70697 12.4395 5.97362 12.3374C6.24026 12.2354 6.01002 11.6398 6.27357 11.5395C6.53711 11.4391 6.74972 11.9879 7.01636 11.8858C7.28301 11.7838 7.12328 11.3754 7.38992 11.2733C7.65657 11.1713 7.72336 11.3443 7.99 11.2423C8.19196 11.1657 8.48131 11.2629 8.68126 11.1753C8.88121 11.0877 9.07712 10.9156 9.20302 10.7335C9.37371 10.7285 9.52877 10.8309 9.69515 10.796C9.86153 10.7612 9.93722 10.3848 10.0996 10.3279C10.262 10.271 10.5566 10.5469 10.7122 10.4776C10.8677 10.4083 10.9659 10.2051 11.1205 10.1303C11.275 10.0556 11.4136 9.95529 11.5667 9.8853C11.7199 9.81531 11.9076 9.84131 12.0635 9.77992C12.2025 9.73185 12.3187 9.69018 12.5244 9.70837C12.6967 9.72467 12.8974 9.75966 13.076 9.75436C13.2546 9.74906 13.6029 9.85826 13.7552 9.76458C13.8888 9.6811 13.7091 9.01951 13.7908 8.81936C14.0362 8.70072 14.1161 8.65888 14.3831 8.60903C14.6502 8.55918 14.6887 8.75786 14.9558 8.70801C15.2229 8.65816 15.405 9.19546 15.6572 9.08922C15.7535 8.91936 15.6681 8.40761 15.7783 8.27045C15.9007 8.11858 15.9975 7.92023 16.1364 7.80965C16.2853 7.69157 16.4004 7.4126 16.5676 7.33891C16.7349 7.26521 17.1042 7.85701 17.2905 7.82531C17.4658 7.79561 17.5801 7.72474 17.7734 7.73154C17.9485 7.73824 18.1753 7.29911 18.365 7.33611C18.5403 7.36891 18.8175 7.56155 19.0148 7.40284C19.1744 7.27486 19.0252 6.74974 19.1797 6.61245C19.3756 6.44034 19.7584 6.25233 19.9205 6.25004C20.1056 6.24923 20.2953 6.63513 20.4568 6.61704C20.6379 6.59424 20.783 6.41776 20.9433 6.36807C21.1036 6.31838 21.2054 6.14752 21.362 6.06553C21.507 5.98795 21.5925 5.84621 21.741 5.73842C21.862 5.65386 22.2385 5.89885 22.4659 5.82442C22.6502 5.76352 22.7763 5.40185 22.9688 5.36674C23.1943 5.32561 23.429 5.50328 23.5879 5.52089C23.789 5.54558 24.0302 5.60275 24.1977 5.53695C24.3653 5.47116 24.5524 5.33815 24.7075 5.23487C24.8625 5.13158 24.8035 4.62752 24.9626 4.54623C25.1123 4.47004 25.4393 4.74226 25.5941 4.67537C25.749 4.60849 25.914 4.57839 26.073 4.5153C26.2319 4.45222 26.4243 4.49781 26.5843 4.44022C26.7443 4.38263 26.8426 4.16128 27.0008 4.10059C27.1591 4.0399 27.2345 3.78066 27.3894 3.71377C27.5443 3.64688 27.9102 4.02678 28.0623 3.9513C28.2145 3.87581 28.1635 3.41574 28.3089 3.32786C28.4442 3.24748 28.6793 3.06595 28.902 3.03443C29.0955 3.00482 29.5907 3.49524 29.7387 3.35346C29.8539 3.2438 29.6311 2.75712 29.6632 2.5035C29.8513 2.5192 30.0781 2.42897 30.2557 2.41817C30.4333 2.40737 30.5634 2.2109 30.739 2.1709C30.9147 2.1309 31.0719 2.14542 31.2443 2.08102C31.4167 2.01662 31.8352 2.51079 32.0005 2.4261C32.1657 2.34141 32.2195 2.03158 32.3755 1.93379C32.5316 1.836 32.6539 1.68413 32.8024 1.57635C32.951 1.46857 33.0231 1.04173 33.1676 0.930148C33.3513 0.996645 33.587 1.17981 33.762 1.20472C33.9569 1.23281 34.1122 1.29882 34.2867 1.27152C34.473 1.23982 34.59 1.13325 34.7491 1.03376C34.9083 0.934274 35.1742 0.977827 35.2931 0.819761C35.3954 0.682903 35.2055 0.190209 35.2789 0.000668178C35.4699 -0.0114384 35.8771 0.146136 36.0718 0.148127C36.2665 0.150119 36.4759 0.1017 36.6688 0.118792C36.8617 0.135885 37.1006 0.012752 37.2911 0.0473456C37.4815 0.0819391 37.674 0.252532 37.8598 0.311828C38.0456 0.371125 38.2641 0.434705 38.4381 0.516607C38.6122 0.59851 38.487 1.18958 38.6424 1.29989C38.7977 1.4102 38.8086 1.3014 38.8107 1.4999C38.8136 1.6778 39.1854 1.90319 39.1488 2.08261C39.1027 2.30354 38.8218 2.50819 38.8662 2.63307C38.9502 2.80072 39.1619 2.9144 39.2476 3.08515C39.3333 3.25591 39.0349 3.58307 39.1058 3.75993C39.1767 3.93679 39.4807 4.00183 39.5172 4.18951C39.5537 4.37719 39.7153 4.54659 39.6999 4.7426C39.6863 4.92351 39.5173 5.0748 39.4487 5.26574C39.3923 5.42377 39.7826 5.65716 39.7622 5.82567C39.7418 5.99418 39.4592 6.11504 39.4625 6.28263C39.4658 6.45023 39.2599 6.62985 39.2742 6.79544C39.2885 6.96103 39.3598 7.12759 39.3693 7.29179C39.3788 7.45598 39.1421 7.61621 39.1365 7.77862C39.1329 7.95202 39.1838 8.06319 39.1456 8.22131C39.1021 8.40654 38.9824 8.5852 38.9513 8.76362C38.9202 8.94204 38.9871 9.1594 38.9632 9.33991C38.9393 9.52043 39.1512 9.74091 39.1328 9.92042C39.1144 10.0999 39.2305 10.3004 39.2138 10.483C39.1971 10.6656 39.2329 10.8557 39.2131 11.04C39.1933 11.2243 38.7147 11.348 38.6894 11.5333C38.6512 11.8164 39.0552 11.8689 39.0177 12.1496C38.9803 12.4303 38.807 12.4085 38.7688 12.6916C38.7307 12.9747 39.009 13.0115 38.9716 13.2922C38.9341 13.5729 38.5875 13.5293 38.5517 13.8131C38.516 14.097 38.5064 14.0942 38.4683 14.3773C38.4448 14.5475 38.5894 14.7484 38.5422 14.9196C38.495 15.0907 38.2037 15.1699 38.1445 15.3376C38.0853 15.5052 38.227 15.7339 38.1685 15.8992C38.11 16.0644 38.1691 16.2639 38.1178 16.4312C38.0665 16.5985 37.8664 16.7225 37.8295 16.894C37.7926 17.0656 37.9905 17.2534 37.9807 17.4302C37.9709 17.607 37.8468 17.7557 37.8679 17.9337C37.887 18.1007 38.0322 18.4606 38.0856 18.635C38.2888 18.4468 37.7534 18.041 37.8913 17.7999C38.0291 17.5588 38.4038 17.7746 38.5409 17.536C38.6781 17.2973 38.8633 17.4033 39.0036 17.1629C39.1439 16.9225 38.6237 16.6253 38.764 16.3849C38.9042 16.1445 39.448 16.459 39.5859 16.218C39.7237 15.9769 39.1752 15.661 39.3154 15.4206C39.4557 15.1802 39.9396 15.4591 40.0798 15.2187C40.1681 15.0673 40.2706 14.9748 40.3646 14.8485C40.4638 14.7134 40.2462 14.3428 40.3513 14.2145C40.4563 14.0863 40.447 13.8857 40.5524 13.7471C40.6457 13.6233 40.7031 13.4889 40.7993 13.3373C40.8955 13.1856 40.9115 13.0054 41.0026 12.8445C41.0937 12.6835 41.756 12.8503 41.8423 12.6879C41.9286 12.5256 41.8012 12.2567 41.8892 12.0975C41.9772 11.9382 42.1672 11.8399 42.257 11.6838C42.3467 11.5276 41.9605 11.0741 42.056 10.9249C42.1516 10.7756 42.7372 10.9461 42.8434 10.8052C42.9495 10.6642 43.0689 10.5401 43.1911 10.4065C43.3134 10.2728 43.3166 10.029 43.443 9.89912C43.5693 9.76925 43.775 9.70673 43.8965 9.57546C44.018 9.4442 44.0709 9.23566 44.1856 9.092C44.3003 8.94834 44.2432 8.69737 44.3384 8.54021C44.4336 8.38306 44.9344 8.42468 45.006 8.25024C45.0735 8.09021 44.4596 7.70325 44.5031 7.51802C44.5455 7.3455 45.0084 7.28494 45.0844 7.1222C45.1604 6.95946 45.237 6.81251 45.3364 6.65916C45.4357 6.5058 45.2482 6.15701 45.3581 6.01195C45.468 5.86689 46.0335 6.08877 46.1452 5.94681C46.2568 5.80485 46.0913 5.45204 46.2029 5.31008C46.3145 5.16811 46.3956 5.01467 46.5001 4.87061C46.6045 4.72655 46.8098 4.65614 46.906 4.50448C47.0023 4.35283 47.2324 4.2688 47.3132 4.10745C47.394 3.94611 47.5212 3.92064 47.6558 3.79836C47.7903 3.67609 47.9935 3.63107 48.1239 3.505C48.2474 3.38473 48.1188 3.00361 48.2058 2.83886C48.281 2.69672 48.0121 2.49347 48.0368 2.29235C48.0554 2.13894 48.6399 2.21532 48.7854 2.09103C48.9095 1.98657 48.987 1.94402 49.1518 1.88783C49.3166 1.83164 49.4085 1.65009 49.5698 1.6684C49.7462 1.6885 50.0393 1.57593 50.1506 1.71247C50.2984 1.89349 50.5519 2.23025 50.5219 2.39596C50.4919 2.56168 50.0384 2.66143 49.9099 2.81671C49.7904 2.95897 49.6319 3.07426 49.5031 3.20343C49.3523 3.35482 49.2563 3.53257 49.1976 3.6717C49.1285 3.82864 49.0196 3.9792 48.96 4.15714C48.9045 4.32067 48.8703 4.50079 48.8097 4.67322C48.7491 4.84565 48.7623 5.04215 48.6807 5.20589C48.5992 5.36964 48.722 5.68137 48.6138 5.82953C48.5177 5.96298 47.9964 5.82167 47.8854 5.97944C47.7834 6.12419 48.0407 6.51935 47.9407 6.67511C47.8406 6.83086 47.7746 6.9861 47.6887 7.13815C47.5924 7.308 47.3654 7.37213 47.3049 7.52636C47.2336 7.7087 46.8005 7.73884 46.7282 7.91568C46.6559 8.09252 47.0585 8.4805 46.979 8.65524C46.8995 8.82999 46.4715 8.85123 46.3896 9.02527C46.3077 9.19932 46.1662 9.3456 46.0818 9.51894C45.9975 9.69229 45.9407 9.87882 45.8563 10.0522C45.772 10.2255 45.8296 10.4662 45.7446 10.6419C45.6596 10.8177 45.3663 10.8859 45.2813 11.0617C45.1963 11.2374 45.4382 11.5604 45.3556 11.7368C45.241 11.9873 45.1057 11.9245 44.9904 12.1774C44.8752 12.4302 44.7744 12.3827 44.6599 12.6331C44.5453 12.8836 44.6646 12.9391 44.5493 13.192C44.434 13.4449 44.6273 13.5324 44.5096 13.7845C44.4322 13.9521 44.0831 13.9885 44.0164 14.1461C43.9445 14.3126 44.194 14.6274 44.1177 14.7822C44.0414 14.9371 43.962 15.1561 43.8607 15.2985C43.7593 15.4408 43.1932 15.1407 43.0521 15.2584C42.9249 15.3646 43.2636 15.8381 43.0904 15.9231C43.1295 16.1376 42.9264 16.2451 42.8691 16.4419C42.8118 16.6388 42.5722 16.7643 42.4676 16.9448C42.363 17.1252 42.5395 17.476 42.4408 17.6452C42.3487 17.8006 41.7948 17.7175 41.7198 17.8858C41.6448 18.054 41.6955 18.2823 41.6277 18.4526C41.5599 18.623 41.5531 18.8163 41.4925 18.9887C41.4319 19.1611 41.4323 19.3565 41.37 19.5259C41.3077 19.6952 41.3156 19.9006 41.2444 20.0647C41.1732 20.2289 40.8103 20.2144 40.7228 20.3451C40.6249 20.4937 40.6062 20.6653 40.5018 20.7912C40.3975 20.917 40.3471 21.108 40.2465 21.248C40.1459 21.388 39.9688 21.4953 39.8952 21.6587C39.7824 21.9123 39.9643 21.9939 39.849 22.2467C39.7338 22.4996 39.5011 22.3954 39.3883 22.649C39.2754 22.9025 39.6088 23.0543 39.4959 23.3078C39.3831 23.5614 39.234 23.492 39.0979 23.7361C38.9617 23.9803 38.7563 23.845 38.5969 24.0798C38.4374 24.3146 38.5089 24.3641 38.3495 24.5989C38.19 24.8336 38.2663 24.8845 38.1061 25.1217C37.946 25.3589 38.1164 25.471 37.9563 25.7082C37.7961 25.9454 37.5743 25.7949 37.4149 26.0297C37.2554 26.2645 37.4707 26.4104 37.3105 26.6476C37.1503 26.8848 37.1174 26.8726 36.9032 27.0629C36.7172 27.04 36.5432 27.1013 36.372 27.1348C36.1922 27.171 36.126 27.3626 35.9738 27.4563C35.8215 27.55 35.2782 27.2695 35.17 27.4176C35.067 27.5569 35.2992 27.9578 35.2485 28.1409C35.0786 28.1253 34.8905 28.0471 34.7135 27.993C34.5486 27.9424 34.5274 27.5769 34.363 27.4978C34.1985 27.4187 33.8824 27.673 33.7283 27.576C33.5743 27.4791 33.5902 27.1739 33.4506 27.063C33.3111 26.9521 32.8722 27.1628 32.7519 27.0393C32.6234 26.9082 32.458 26.6178 32.357 26.4817C32.3514 26.2327 32.8649 26.2754 32.9077 26.0301C32.9504 25.7848 32.9408 25.782 32.9836 25.5367C33.0263 25.2913 32.5779 25.2129 32.6214 24.9652C32.6648 24.7174 33.1289 24.751 33.1185 24.5006C33.0073 24.3458 32.951 24.1368 32.9218 23.933C32.8935 23.7529 32.4854 23.5716 32.5043 23.3636C32.5217 23.1786 32.8322 23.0242 32.8775 22.8239C32.921 22.6387 32.7299 22.3826 32.7889 22.1889C32.8479 21.9951 33.345 21.9602 33.4098 21.7733C33.4746 21.5865 33.6235 21.3252 33.6869 21.1432C33.6442 20.9589 33.1365 20.7799 33.1136 20.617C33.0881 20.4273 32.8421 20.2437 32.8381 20.0785C32.8339 19.8872 33.3824 19.7292 33.4032 19.5686C33.4298 19.3785 33.3617 19.2102 33.4119 19.0556C33.4722 18.8753 33.372 18.6378 33.4528 18.4947C33.5453 18.3289 33.5642 18.1027 33.6621 17.9724C33.7803 17.8167 33.9712 17.7421 34.0612 17.6121C34.1767 17.4478 34.4899 17.3645 34.4914 17.1983C34.4931 17.0764 34.4719 16.7109 34.3391 16.5499C34.2162 16.3996 33.762 16.4392 33.7424 16.3007C33.8249 16.1425 33.7196 15.9139 33.7747 15.7425C33.8298 15.5711 34.4429 15.549 34.4805 15.3751C34.5181 15.2012 33.8585 14.8999 33.8859 14.7255C33.9132 14.5512 34.3317 14.4283 34.3559 14.2557C34.3801 14.0831 34.6469 13.9446 34.6783 13.7741C34.7108 13.5909 34.1571 13.2657 34.2087 13.1063C34.2639 12.9348 34.7397 12.8833 34.7739 12.7032C34.8081 12.523 34.5825 12.3142 34.5992 12.1316C34.6159 11.9489 34.4811 11.7769 34.4899 11.5946C34.4987 11.4123 34.904 11.2543 34.9087 11.0682C34.9106 10.8917 34.5183 10.7098 34.5206 10.523C34.5218 10.3489 34.8472 10.1702 34.8488 9.98581C34.8507 9.80931 35.0078 9.63632 35.0125 9.45022C35.0168 9.27442 34.6311 9.07883 34.6413 8.89173C34.6504 8.71732 35.0392 8.5623 35.0542 8.37659C35.0688 8.20119 34.7076 7.98409 34.7298 7.80048C34.7492 7.62647 35.0274 7.47571 35.0544 7.2935C35.0768 7.13598 35.3734 7.01142 35.4466 6.79578C35.5198 6.58014 34.9722 6.41294 34.9075 6.23268C34.8533 6.07891 35.0691 5.90999 34.8038 5.81974C34.7094 5.95629 34.5418 5.94138 34.4153 6.04515C34.2888 6.14892 34.3345 6.5554 34.1888 6.63538C34.0432 6.71536 33.7943 6.6221 33.6392 6.68108C33.484 6.74007 33.2882 6.68828 33.1327 6.73937C32.9772 6.79045 32.9251 7.18408 32.7728 7.23347C32.5922 7.29027 32.3594 7.1418 32.1905 7.21239C32.0215 7.28299 31.755 7.14293 31.5854 7.21593C31.4157 7.28892 31.1987 7.22055 31.0222 7.28115C30.8457 7.34174 30.8023 7.93837 30.6177 7.97317C30.4331 8.00797 30.1969 7.6476 30.0029 7.64321C29.8271 7.63891 29.8093 7.91492 29.6144 7.86863C29.6149 8.04583 29.63 8.19082 29.5106 8.37739C29.3635 8.60537 28.9117 8.58322 28.7766 8.5465C28.5737 8.47441 28.4172 8.6632 28.2259 8.7299C28.0346 8.79661 27.6555 8.52482 27.4894 8.63012C27.2917 8.75483 27.325 9.45451 27.1703 9.48499C26.9802 9.5208 26.7469 9.27583 26.5709 9.30793C26.3839 9.34203 26.2527 9.6319 26.0784 9.6671C25.8907 9.70361 25.6897 9.59822 25.514 9.63822C25.3297 9.68092 25.1403 9.65183 24.9683 9.70592C24.7964 9.76002 24.5939 9.74013 24.4232 9.80763C24.2525 9.87512 24.086 9.94641 23.9224 10.0342C23.7589 10.122 23.6005 10.2009 23.4441 10.309C23.2976 10.4096 23.2444 10.6284 23.0964 10.752C22.9616 10.8663 22.9597 11.1053 22.8234 11.2427C22.7678 11.2995 22.3103 11.0465 22.0491 11.1658C21.9045 11.233 21.9185 11.7396 21.7223 11.8231C21.562 11.891 21.2199 11.5545 21.0344 11.6281C20.8693 11.6946 20.8203 12.0865 20.6386 12.156C20.4711 12.2218 20.2244 12.1032 20.0434 12.1703C19.8625 12.2374 19.5543 11.9185 19.3764 11.9839C19.1986 12.0493 19.1851 12.5427 19.008 12.6057C18.8308 12.6687 18.5666 12.4851 18.3925 12.5464C18.2185 12.6077 18.1574 13.0143 17.9833 13.0756C17.8093 13.1369 17.5636 13.0238 17.3909 13.0803C17.2183 13.1367 17.0129 13.1447 16.8378 13.2005C16.6534 13.2614 16.5188 13.4643 16.35 13.5167C16.1584 13.5755 15.9825 13.6519 15.8175 13.7002C15.6156 13.7586 15.4474 13.8893 15.293 13.9277C15.1386 13.9661 14.8012 13.5242 14.6542 13.5908C14.5073 13.6574 14.3859 13.8329 14.2457 13.9119C14.1055 13.9909 14.1318 14.3839 13.993 14.458C13.8449 14.5373 13.6259 14.458 13.4776 14.5111C13.2919 14.5768 13.123 14.6917 12.936 14.744C12.7489 14.7963 12.5166 14.6819 12.3278 14.7311C12.1391 14.7803 12.0536 15.1902 11.8675 15.248C11.6815 15.3058 11.5073 15.3228 11.3276 15.4033C11.148 15.4838 10.7863 15.2145 10.6196 15.3222L10.618 15.3009Z" fill="#F78763"/>
</svg>
