<svg width="25" height="25" viewBox="0 0 25 25" fill="none" xmlns="http://www.w3.org/2000/svg">
<path fill-rule="evenodd" clip-rule="evenodd" d="M13.2687 2.01156L13.5439 3.68933C13.6587 4.39029 13.1904 5.05239 12.4967 5.18422L13.7721 6.28129L13.8625 6.36742C13.9477 6.45829 14.0197 6.56398 14.0734 6.68215L14.2783 7.13445C14.362 7.31881 14.279 7.5266 14.1091 7.61148L16.3458 7.24458C17.2194 7.10127 18.0657 7.36823 18.6884 7.90336L18.6895 7.90417L19.9959 9.02684C20.0674 9.08828 20.1358 9.15347 20.2011 9.22179C20.4124 9.44286 20.5903 9.69865 20.7236 9.98219L20.724 9.98412L24.0321 17.9888C24.6663 19.5272 23.705 21.2557 22.0639 21.5249L22.0552 21.5263C21.3136 21.6477 20.5561 21.4522 19.9667 20.9872C19.9645 20.9854 19.9226 20.9519 19.8519 20.8961C19.7428 20.8102 19.5652 20.6705 19.3609 20.5096C19.0883 20.2947 18.7665 20.0413 18.4938 19.8265L18.494 19.8274L18.004 19.4407L17.8882 19.3499L17.7784 19.2719C17.7405 19.2479 17.7016 19.2257 17.6617 19.2059C17.6217 19.1862 17.5808 19.1683 17.5392 19.1528C17.4975 19.1373 17.4549 19.1244 17.4119 19.1133L17.282 19.0871C17.1502 19.0673 17.0148 19.0677 16.8806 19.0896L9.53926 20.2939C9.1817 20.3526 8.86565 20.5589 8.66764 20.8624L7.22107 23.0779C6.81038 23.7072 6.15447 24.1345 5.41335 24.2562L5.40564 24.2574L5.25756 24.2778C5.06033 24.2988 4.86632 24.2964 4.678 24.2739C4.5838 24.2627 4.49093 24.2468 4.3999 24.2255C4.2031 24.1795 4.01596 24.1075 3.83851 24.0187C3.72905 23.964 3.62257 23.9043 3.52239 23.835C3.44747 23.7832 3.37508 23.7279 3.30607 23.6686L3.30495 23.6678L1.99857 22.5452C1.40895 22.0385 1.04687 21.2689 1.10337 20.4119L1.68083 11.7699L1.68051 11.768C1.8236 10.5226 2.77632 9.4705 4.07426 9.25755L8.49853 8.53181C8.4279 8.52205 8.36285 8.49358 8.31075 8.44881L7.00421 7.32517C6.91758 7.25074 6.86558 7.13621 6.87834 7.01034L6.92793 6.51631C6.98111 5.9925 7.37871 5.57073 7.89786 5.48535L9.09476 5.28902L8.96466 4.49591C8.84814 3.784 9.33268 3.1105 10.0443 2.99371L10.956 2.84417C10.992 2.83826 11.0163 2.80297 11.0106 2.76692L10.7354 1.08915L11.9612 0.888076L13.2687 2.01156ZM2.56084 22.5944C2.60616 22.7183 2.66047 22.8377 2.72336 22.9518C2.66048 22.8377 2.60616 22.7183 2.56084 22.5944ZM2.44283 22.1586L2.44395 22.1594L2.44283 22.1586ZM3.02328 12.6601C3.00812 12.7363 2.996 12.8138 2.98705 12.8916L2.98721 12.8926L2.98833 12.8934L2.98801 12.8915C2.99697 12.8135 3.00905 12.7362 3.02425 12.6599L3.02328 12.6601ZM8.61591 17.428C8.58806 17.4456 8.55828 17.4602 8.52733 17.4732C8.59515 17.4448 8.65623 17.4055 8.70809 17.3565L8.61591 17.428ZM7.03835 13.3008C6.70892 13.3548 6.48491 13.6658 6.53872 13.9953L6.63689 14.5938C6.64071 14.618 6.62401 14.6412 6.59983 14.6454L6.00138 14.7435C5.69267 14.7945 5.48079 15.0712 5.49966 15.3771L5.59506 15.3614C5.60841 15.3594 5.62171 15.3631 5.63132 15.3713L6.8584 16.4268L7.08487 16.3897C7.41407 16.3353 7.63652 16.0249 7.58258 15.6955L7.48441 15.097C7.48064 15.0727 7.49813 15.0493 7.52243 15.0453L8.11991 14.9472C8.429 14.8965 8.64155 14.6197 8.6226 14.3136L8.5272 14.3292C8.51368 14.3313 8.50058 14.3268 8.49078 14.3184L7.26386 13.2638L7.03835 13.3008ZM15.8069 14.2999C15.6234 14.3654 15.4571 14.4851 15.3348 14.6554L15.285 14.7318C15.2812 14.7382 15.278 14.7449 15.2744 14.7514C15.2219 14.8454 15.188 14.9453 15.1685 15.0468C15.3524 14.9814 15.519 14.8618 15.6415 14.6912C15.7281 14.5706 15.7806 14.4366 15.8069 14.2999ZM18.906 13.079C18.8894 13.1079 18.8715 13.1364 18.8517 13.1641C18.7916 13.2478 18.7206 13.3196 18.6425 13.3785L18.6434 13.3784C18.7213 13.3195 18.7918 13.2476 18.8517 13.1641C18.8717 13.1362 18.8903 13.1079 18.907 13.0788L18.906 13.079ZM9.82017 14.7307L9.81874 14.728L9.23227 14.2235L9.23018 14.2228L9.82017 14.7307ZM18.9761 12.2392C18.9983 12.2992 19.0149 12.3611 19.0252 12.4241C19.015 12.3614 18.9983 12.2999 18.9763 12.2401L18.9761 12.2392ZM17.7086 11.6494C17.5255 11.715 17.3596 11.8349 17.2375 12.0048C17.151 12.1253 17.0975 12.2596 17.0711 12.3963C17.2551 12.3308 17.4217 12.2112 17.5442 12.0406C17.6307 11.9201 17.6823 11.7862 17.7086 11.6494ZM18.7031 11.8416L18.704 11.8414L18.7031 11.8416ZM3.91449 11.0888C3.80117 11.1917 3.69633 11.3032 3.60105 11.4223C3.69632 11.3032 3.80118 11.1917 3.91449 11.0888ZM18.9185 8.44355C18.9512 8.45301 18.9834 8.46355 19.0156 8.47414C18.9342 8.44735 18.8516 8.42347 18.7676 8.40399L18.9185 8.44355ZM9.20521 6.60787C9.0105 6.63981 8.83287 6.71958 8.68414 6.83387L8.76134 6.77964C8.89295 6.6945 9.04324 6.63544 9.20537 6.60883L10.4021 6.41154L9.20521 6.60787ZM11.6281 6.21142L12.824 6.01525L12.8238 6.01428L11.6279 6.21046L11.6281 6.21142ZM10.2564 5.48738L10.2574 5.48722L10.2564 5.48738Z" fill="url(#paint0_linear_668_36969)"/>
<path fill-rule="evenodd" clip-rule="evenodd" d="M13.2687 2.01156L13.5439 3.68933C13.6587 4.39029 13.1904 5.05239 12.4967 5.18422L13.7721 6.28129L13.8625 6.36742C13.9477 6.45829 14.0197 6.56398 14.0734 6.68215L14.2783 7.13445C14.362 7.31881 14.279 7.5266 14.1091 7.61148L16.3458 7.24458C17.2194 7.10127 18.0657 7.36823 18.6884 7.90336L18.6895 7.90417L19.9959 9.02684C20.0674 9.08828 20.1358 9.15347 20.2011 9.22179C20.4124 9.44286 20.5903 9.69865 20.7236 9.98219L20.724 9.98412L24.0321 17.9888C24.6663 19.5272 23.705 21.2557 22.0639 21.5249L22.0552 21.5263C21.3136 21.6477 20.5561 21.4522 19.9667 20.9872C19.9645 20.9854 19.9226 20.9519 19.8519 20.8961C19.7428 20.8102 19.5652 20.6705 19.3609 20.5096C19.0883 20.2947 18.7665 20.0413 18.4938 19.8265L18.494 19.8274L18.004 19.4407L17.8882 19.3499L17.7784 19.2719C17.7405 19.2479 17.7016 19.2257 17.6617 19.2059C17.6217 19.1862 17.5808 19.1683 17.5392 19.1528C17.4975 19.1373 17.4549 19.1244 17.4119 19.1133L17.282 19.0871C17.1502 19.0673 17.0148 19.0677 16.8806 19.0896L9.53926 20.2939C9.1817 20.3526 8.86565 20.5589 8.66764 20.8624L7.22107 23.0779C6.81038 23.7072 6.15447 24.1345 5.41335 24.2562L5.40564 24.2574L5.25756 24.2778C5.06033 24.2988 4.86632 24.2964 4.678 24.2739C4.5838 24.2627 4.49093 24.2468 4.3999 24.2255C4.2031 24.1795 4.01596 24.1075 3.83851 24.0187C3.72905 23.964 3.62257 23.9043 3.52239 23.835C3.44747 23.7832 3.37508 23.7279 3.30607 23.6686L3.30495 23.6678L1.99857 22.5452C1.40895 22.0385 1.04687 21.2689 1.10337 20.4119L1.68083 11.7699L1.68051 11.768C1.8236 10.5226 2.77632 9.4705 4.07426 9.25755L8.49853 8.53181C8.4279 8.52205 8.36285 8.49358 8.31075 8.44881L7.00421 7.32517C6.91758 7.25074 6.86558 7.13621 6.87834 7.01034L6.92793 6.51631C6.98111 5.9925 7.37871 5.57073 7.89786 5.48535L9.09476 5.28902L8.96466 4.49591C8.84814 3.784 9.33268 3.1105 10.0443 2.99371L10.956 2.84417C10.992 2.83826 11.0163 2.80297 11.0106 2.76692L10.7354 1.08915L11.9612 0.888076L13.2687 2.01156ZM2.56084 22.5944C2.60616 22.7183 2.66047 22.8377 2.72336 22.9518C2.66048 22.8377 2.60616 22.7183 2.56084 22.5944ZM2.44283 22.1586L2.44395 22.1594L2.44283 22.1586ZM3.02328 12.6601C3.00812 12.7363 2.996 12.8138 2.98705 12.8916L2.98721 12.8926L2.98833 12.8934L2.98801 12.8915C2.99697 12.8135 3.00905 12.7362 3.02425 12.6599L3.02328 12.6601ZM8.61591 17.428C8.58806 17.4456 8.55828 17.4602 8.52733 17.4732C8.59515 17.4448 8.65623 17.4055 8.70809 17.3565L8.61591 17.428ZM7.03835 13.3008C6.70892 13.3548 6.48491 13.6658 6.53872 13.9953L6.63689 14.5938C6.64071 14.618 6.62401 14.6412 6.59983 14.6454L6.00138 14.7435C5.69267 14.7945 5.48079 15.0712 5.49966 15.3771L5.59506 15.3614C5.60841 15.3594 5.62171 15.3631 5.63132 15.3713L6.8584 16.4268L7.08487 16.3897C7.41407 16.3353 7.63652 16.0249 7.58258 15.6955L7.48441 15.097C7.48064 15.0727 7.49813 15.0493 7.52243 15.0453L8.11991 14.9472C8.429 14.8965 8.64155 14.6197 8.6226 14.3136L8.5272 14.3292C8.51368 14.3313 8.50058 14.3268 8.49078 14.3184L7.26386 13.2638L7.03835 13.3008ZM15.8069 14.2999C15.6234 14.3654 15.4571 14.4851 15.3348 14.6554L15.285 14.7318C15.2812 14.7382 15.278 14.7449 15.2744 14.7514C15.2219 14.8454 15.188 14.9453 15.1685 15.0468C15.3524 14.9814 15.519 14.8618 15.6415 14.6912C15.7281 14.5706 15.7806 14.4366 15.8069 14.2999ZM18.906 13.079C18.8894 13.1079 18.8715 13.1364 18.8517 13.1641C18.7916 13.2478 18.7206 13.3196 18.6425 13.3785L18.6434 13.3784C18.7213 13.3195 18.7918 13.2476 18.8517 13.1641C18.8717 13.1362 18.8903 13.1079 18.907 13.0788L18.906 13.079ZM9.82017 14.7307L9.81874 14.728L9.23227 14.2235L9.23018 14.2228L9.82017 14.7307ZM18.9761 12.2392C18.9983 12.2992 19.0149 12.3611 19.0252 12.4241C19.015 12.3614 18.9983 12.2999 18.9763 12.2401L18.9761 12.2392ZM17.7086 11.6494C17.5255 11.715 17.3596 11.8349 17.2375 12.0048C17.151 12.1253 17.0975 12.2596 17.0711 12.3963C17.2551 12.3308 17.4217 12.2112 17.5442 12.0406C17.6307 11.9201 17.6823 11.7862 17.7086 11.6494ZM18.7031 11.8416L18.704 11.8414L18.7031 11.8416ZM3.91449 11.0888C3.80117 11.1917 3.69633 11.3032 3.60105 11.4223C3.69632 11.3032 3.80118 11.1917 3.91449 11.0888ZM18.9185 8.44355C18.9512 8.45301 18.9834 8.46355 19.0156 8.47414C18.9342 8.44735 18.8516 8.42347 18.7676 8.40399L18.9185 8.44355ZM9.20521 6.60787C9.0105 6.63981 8.83287 6.71958 8.68414 6.83387L8.76134 6.77964C8.89295 6.6945 9.04324 6.63544 9.20537 6.60883L10.4021 6.41154L9.20521 6.60787ZM11.6281 6.21142L12.824 6.01525L12.8238 6.01428L11.6279 6.21046L11.6281 6.21142ZM10.2564 5.48738L10.2574 5.48722L10.2564 5.48738Z" fill="#98B9F3"/>
<path fill-rule="evenodd" clip-rule="evenodd" d="M16.3458 7.24456C17.6444 7.03154 18.8826 7.72421 19.4161 8.85869L19.4162 8.85966L19.5195 9.10893L22.7255 16.8651C23.3597 18.4035 22.3983 20.1319 20.7573 20.4012L20.7486 20.4027C20.0069 20.5242 19.2487 20.3288 18.6592 19.8637L16.5816 18.2262C16.2969 18.0017 15.9308 17.9074 15.573 17.9661L8.23267 19.1702C7.87492 19.2289 7.55813 19.4352 7.36009 19.7389L5.91448 21.9542C5.50374 22.5836 4.84705 23.0111 4.10579 23.1327L4.09808 23.1339C2.45698 23.403 0.99384 22.0723 1.10332 20.4119L1.66243 12.0381L1.68062 11.7689L1.68046 11.768C1.82349 10.5225 2.77617 9.47047 4.07421 9.25754L16.3458 7.24456ZM5.7308 12.1773C5.40138 12.2314 5.17832 12.5421 5.23213 12.8717L5.3303 13.4701C5.33432 13.4946 5.31694 13.5188 5.29243 13.5228L4.69495 13.6209C4.36537 13.6749 4.1422 13.9855 4.19628 14.3152L4.30219 14.9609C4.35647 15.2904 4.66712 15.5136 4.99657 15.4596L5.59405 15.3616C5.61843 15.3576 5.64242 15.3741 5.64661 15.3985L5.74478 15.9969C5.79886 16.3266 6.10958 16.5496 6.43915 16.4956L7.08386 16.3898C7.41344 16.3358 7.63757 16.025 7.58349 15.6953L7.48532 15.0968C7.48153 15.0725 7.498 15.0492 7.52238 15.0452L8.11986 14.9472C8.44931 14.8932 8.67332 14.5822 8.6195 14.2527L8.51358 13.607C8.4595 13.2773 8.14783 13.0545 7.81825 13.1085L7.22076 13.2065C7.19626 13.2105 7.17303 13.193 7.16901 13.1685L7.07084 12.5701C7.01655 12.2406 6.70494 12.0175 6.3755 12.0716L5.7308 12.1773ZM15.414 13.3044C14.9684 12.9845 14.3482 13.0861 14.0282 13.5317C13.7082 13.9776 13.81 14.5983 14.2557 14.9185C14.7014 15.2387 15.3214 15.1369 15.6415 14.6912C15.9615 14.2453 15.8597 13.6246 15.414 13.3044ZM17.3168 10.6548C16.8711 10.3346 16.2502 10.4365 15.9301 10.8823C15.6105 11.328 15.7121 11.9489 16.1576 12.269C16.6032 12.5892 17.2242 12.4872 17.5443 12.0415C17.8643 11.5958 17.7624 10.9751 17.3168 10.6548ZM11.9611 0.888061L12.2363 2.56583C12.3531 3.27781 11.8694 3.95188 11.1578 4.06884L10.2452 4.21854C10.2091 4.22448 10.1845 4.25871 10.1904 4.29482L10.3204 5.08697L11.5172 4.89063C12.0359 4.80576 12.5483 5.07987 12.7659 5.55865L12.9717 6.0108C13.0711 6.22972 12.9358 6.4835 12.6984 6.52272L7.29983 7.40828C7.06293 7.44686 6.85307 7.24969 6.87733 7.01049L6.92788 6.51629C6.98104 5.99246 7.37848 5.56975 7.89765 5.48438L9.09551 5.28788L8.96557 4.49574C8.84882 3.78368 9.33232 3.10952 10.0441 2.99273L10.9567 2.84303C10.9927 2.83692 11.0174 2.80278 11.0115 2.76675L10.7363 1.08898L11.9611 0.888061Z" fill="#6C0F0F"/>
<path fill-rule="evenodd" clip-rule="evenodd" d="M16.3458 7.24456C17.6444 7.03154 18.8826 7.72421 19.4161 8.85869L19.4162 8.85966L19.5195 9.10893L22.7255 16.8651C23.3597 18.4035 22.3983 20.1319 20.7573 20.4012L20.7486 20.4027C20.0069 20.5242 19.2487 20.3288 18.6592 19.8637L16.5816 18.2262C16.2969 18.0017 15.9308 17.9074 15.573 17.9661L8.23267 19.1702C7.87492 19.2289 7.55813 19.4352 7.36009 19.7389L5.91448 21.9542C5.50374 22.5836 4.84705 23.0111 4.10579 23.1327L4.09808 23.1339C2.45698 23.403 0.99384 22.0723 1.10332 20.4119L1.66243 12.0381L1.68062 11.7689L1.68046 11.768C1.82349 10.5225 2.77617 9.47047 4.07421 9.25754L16.3458 7.24456ZM5.7308 12.1773C5.40138 12.2314 5.17832 12.5421 5.23213 12.8717L5.3303 13.4701C5.33432 13.4946 5.31694 13.5188 5.29243 13.5228L4.69495 13.6209C4.36537 13.6749 4.1422 13.9855 4.19628 14.3152L4.30219 14.9609C4.35647 15.2904 4.66712 15.5136 4.99657 15.4596L5.59405 15.3616C5.61843 15.3576 5.64242 15.3741 5.64661 15.3985L5.74478 15.9969C5.79886 16.3266 6.10958 16.5496 6.43915 16.4956L7.08386 16.3898C7.41344 16.3358 7.63757 16.025 7.58349 15.6953L7.48532 15.0968C7.48153 15.0725 7.498 15.0492 7.52238 15.0452L8.11986 14.9472C8.44931 14.8932 8.67332 14.5822 8.6195 14.2527L8.51358 13.607C8.4595 13.2773 8.14783 13.0545 7.81825 13.1085L7.22076 13.2065C7.19626 13.2105 7.17303 13.193 7.16901 13.1685L7.07084 12.5701C7.01655 12.2406 6.70494 12.0175 6.3755 12.0716L5.7308 12.1773ZM15.414 13.3044C14.9684 12.9845 14.3482 13.0861 14.0282 13.5317C13.7082 13.9776 13.81 14.5983 14.2557 14.9185C14.7014 15.2387 15.3214 15.1369 15.6415 14.6912C15.9615 14.2453 15.8597 13.6246 15.414 13.3044ZM17.3168 10.6548C16.8711 10.3346 16.2502 10.4365 15.9301 10.8823C15.6105 11.328 15.7121 11.9489 16.1576 12.269C16.6032 12.5892 17.2242 12.4872 17.5443 12.0415C17.8643 11.5958 17.7624 10.9751 17.3168 10.6548ZM11.9611 0.888061L12.2363 2.56583C12.3531 3.27781 11.8694 3.95188 11.1578 4.06884L10.2452 4.21854C10.2091 4.22448 10.1845 4.25871 10.1904 4.29482L10.3204 5.08697L11.5172 4.89063C12.0359 4.80576 12.5483 5.07987 12.7659 5.55865L12.9717 6.0108C13.0711 6.22972 12.9358 6.4835 12.6984 6.52272L7.29983 7.40828C7.06293 7.44686 6.85307 7.24969 6.87733 7.01049L6.92788 6.51629C6.98104 5.99246 7.37848 5.56975 7.89765 5.48438L9.09551 5.28788L8.96557 4.49574C8.84882 3.78368 9.33232 3.10952 10.0441 2.99273L10.9567 2.84303C10.9927 2.83692 11.0174 2.80278 11.0115 2.76675L10.7363 1.08898L11.9611 0.888061Z" fill="#2A63C6"/>
<path d="M16.4504 7.88262C17.4491 7.7188 18.4032 8.24603 18.8219 9.11467L22.1276 17.1126C22.603 18.2674 21.8814 19.562 20.6523 19.7636L20.644 19.765C20.0812 19.8571 19.5067 19.7088 19.0599 19.3563L16.9818 17.7188C16.5547 17.382 16.0061 17.2404 15.4698 17.3281L8.12741 18.5325C7.59095 18.6207 7.11655 18.9303 6.81942 19.3858L5.37334 21.6013C5.06179 22.0787 4.56351 22.4027 4.0012 22.495L3.99372 22.4962C2.76442 22.6976 1.66648 21.7013 1.748 20.4556L2.32414 11.8294C2.43991 10.8688 3.17778 10.06 4.17886 9.8956L16.4504 7.88262ZM5.62612 11.5393C4.94447 11.6513 4.48227 12.2952 4.59387 12.9767L4.59469 12.9817L4.58971 12.9825C3.95036 13.0878 3.50544 13.6603 3.54423 14.2924L3.55829 14.4197L3.66413 15.0649C3.77586 15.746 4.41862 16.2087 5.10065 16.0973L5.10563 16.0965L5.10645 16.1015C5.21831 16.7834 5.8622 17.2453 6.5438 17.1337L7.18985 17.0277C7.87204 16.9154 8.33213 16.2716 8.22043 15.5907L8.21962 15.5857L8.2246 15.5849C8.90632 15.473 9.36872 14.8295 9.25685 14.1475L9.15101 13.5023C9.03903 12.8206 8.39547 12.3582 7.71366 12.4701L7.70867 12.4709L7.70786 12.4659C7.59604 11.7854 6.9546 11.3218 6.27217 11.4334L5.62612 11.5393ZM17.6947 10.1293C16.9591 9.60076 15.9336 9.76904 15.4053 10.5048C14.9111 11.1934 15.0269 12.1349 15.6463 12.6858C14.9262 12.2749 13.9969 12.4667 13.5027 13.1551C12.9751 13.8906 13.143 14.9153 13.8781 15.4437C14.6138 15.9722 15.6393 15.804 16.1675 15.0682C16.6623 14.3787 16.5454 13.4357 15.9237 12.8851C16.6442 13.2982 17.5753 13.1072 18.0701 12.4179C18.5976 11.6825 18.43 10.6578 17.6947 10.1293ZM9.73505 5.35578C9.85323 5.61411 10.1311 5.7733 10.425 5.72526L11.6216 5.52897C11.8522 5.49118 12.0808 5.61294 12.1776 5.82575L12.2321 5.94473L7.55783 6.71148L7.57144 6.58134C7.5952 6.34829 7.77159 6.16066 8.00272 6.12259L9.19932 5.92631C9.49321 5.8781 9.70552 5.63836 9.73505 5.35578Z" fill="#6C0F0F"/>
<path d="M16.4504 7.88262C17.4491 7.7188 18.4032 8.24603 18.8219 9.11467L22.1276 17.1126C22.603 18.2674 21.8814 19.562 20.6523 19.7636L20.644 19.765C20.0812 19.8571 19.5067 19.7088 19.0599 19.3563L16.9818 17.7188C16.5547 17.382 16.0061 17.2404 15.4698 17.3281L8.12741 18.5325C7.59095 18.6207 7.11655 18.9303 6.81942 19.3858L5.37334 21.6013C5.06179 22.0787 4.56351 22.4027 4.0012 22.495L3.99372 22.4962C2.76442 22.6976 1.66648 21.7013 1.748 20.4556L2.32414 11.8294C2.43991 10.8688 3.17778 10.06 4.17886 9.8956L16.4504 7.88262ZM5.62612 11.5393C4.94447 11.6513 4.48227 12.2952 4.59387 12.9767L4.59469 12.9817L4.58971 12.9825C3.95036 13.0878 3.50544 13.6603 3.54423 14.2924L3.55829 14.4197L3.66413 15.0649C3.77586 15.746 4.41862 16.2087 5.10065 16.0973L5.10563 16.0965L5.10645 16.1015C5.21831 16.7834 5.8622 17.2453 6.5438 17.1337L7.18985 17.0277C7.87204 16.9154 8.33213 16.2716 8.22043 15.5907L8.21962 15.5857L8.2246 15.5849C8.90632 15.473 9.36872 14.8295 9.25685 14.1475L9.15101 13.5023C9.03903 12.8206 8.39547 12.3582 7.71366 12.4701L7.70867 12.4709L7.70786 12.4659C7.59604 11.7854 6.9546 11.3218 6.27217 11.4334L5.62612 11.5393ZM17.6947 10.1293C16.9591 9.60076 15.9336 9.76904 15.4053 10.5048C14.9111 11.1934 15.0269 12.1349 15.6463 12.6858C14.9262 12.2749 13.9969 12.4667 13.5027 13.1551C12.9751 13.8906 13.143 14.9153 13.8781 15.4437C14.6138 15.9722 15.6393 15.804 16.1675 15.0682C16.6623 14.3787 16.5454 13.4357 15.9237 12.8851C16.6442 13.2982 17.5753 13.1072 18.0701 12.4179C18.5976 11.6825 18.43 10.6578 17.6947 10.1293ZM9.73505 5.35578C9.85323 5.61411 10.1311 5.7733 10.425 5.72526L11.6216 5.52897C11.8522 5.49118 12.0808 5.61294 12.1776 5.82575L12.2321 5.94473L7.55783 6.71148L7.57144 6.58134C7.5952 6.34829 7.77159 6.16066 8.00272 6.12259L9.19932 5.92631C9.49321 5.8781 9.70552 5.63836 9.73505 5.35578Z" fill="url(#paint1_linear_668_36969)"/>
<defs>
<linearGradient id="paint0_linear_668_36969" x1="21.1716" y1="20.7665" x2="21.1758" y2="20.7617" gradientUnits="userSpaceOnUse">
<stop stop-color="#440909"/>
<stop offset="1" stop-color="#440909"/>
</linearGradient>
<linearGradient id="paint1_linear_668_36969" x1="9.73509" y1="5.35577" x2="12.3226" y2="21.13" gradientUnits="userSpaceOnUse">
<stop stop-color="#C3D9FE"/>
<stop offset="1" stop-color="#7DA4E7"/>
</linearGradient>
</defs>
</svg>
