<svg width="25" height="24" viewBox="0 0 25 24" fill="none" xmlns="http://www.w3.org/2000/svg">
<path fill-rule="evenodd" clip-rule="evenodd" d="M8.83271 0.986677L8.99903 1.01323C9.38034 1.10093 9.71692 1.36289 9.88559 1.75005L11.5511 5.56308C11.6782 5.85514 12.0932 5.84965 12.2113 5.55412L12.7356 4.2458C12.9396 3.73572 13.4431 3.41242 13.9892 3.44155C14.0065 3.44273 14.0242 3.44396 14.0404 3.44581C14.6104 3.49923 15.0703 3.92668 15.1777 4.47836L15.519 6.23813L15.5191 6.23911C15.5331 6.31137 15.5411 6.38571 15.5425 6.46165C15.5438 6.5313 15.5332 6.59866 15.5155 6.66325C15.6793 6.67283 15.8438 6.71523 16.0002 6.79185L16.1338 6.86768C16.3883 7.03277 16.5707 7.27927 16.6588 7.55833L16.6952 7.70067L17.0366 9.46044C17.0752 9.65873 17.0678 9.86849 17.007 10.0734L16.559 11.577L18.5426 9.40995C18.9834 8.92721 19.715 8.85563 20.2402 9.24425L20.3487 9.32575C20.6153 9.52329 20.7857 9.80727 20.8453 10.1133L21.1867 11.8731L21.1867 11.8741C21.2438 12.1676 21.1999 12.4814 21.042 12.7584L20.4393 13.8128L21.8593 12.8961C22.3942 12.551 23.1022 12.6645 23.5047 13.1599L23.5049 13.1628C23.6388 13.3279 23.7245 13.5178 23.7628 13.7145L24.1051 15.4742C24.1831 15.8749 24.0645 16.3044 23.7577 16.6096L19.3498 20.9961C17.2007 22.9318 13.9935 23.0851 11.6682 21.3629C10.2493 20.3118 9.30105 18.7745 8.97133 17.0807C8.97085 17.0782 8.97029 17.0754 8.96981 17.0729L8.62893 15.32C8.50708 14.6938 8.46978 14.0462 8.52459 13.3939L8.8139 9.9434C8.82164 9.85105 8.83986 9.76187 8.86571 9.67644C8.53316 9.92365 8.25882 10.2473 8.07042 10.6229C7.92302 10.9168 7.82834 11.2423 7.79916 11.5875L7.50881 15.0371C7.46934 15.5091 7.47086 15.983 7.51087 16.4525C7.52035 16.5638 7.41294 16.65 7.30697 16.6165C6.37069 16.3217 5.4962 15.7969 4.77176 15.0523L0.656697 10.3826C0.503688 10.2091 0.407197 10.0037 0.365637 9.79016L0.365568 9.78919L0.359219 9.75439L0.0233019 8.03046L0.0232338 8.02948C-0.0513563 7.64545 0.0534626 7.2341 0.335957 6.9298C0.768981 6.463 1.48277 6.39774 1.99345 6.77767L2.33578 8.53738L4.99172 10.5122L4.99166 10.5112L2.33571 8.5364L1.99338 6.7767L4.58003 8.6986L3.61552 6.72102C3.56501 6.61752 3.53011 6.50999 3.50898 6.40151L3.50892 6.40053L3.44298 6.05957L3.16658 4.64083C3.06831 4.13511 3.28139 3.6039 3.73172 3.31497L3.84406 3.24153C4.39292 2.8886 5.11954 3.00791 5.52867 3.51922L7.94433 6.53776C8.05372 6.67468 8.24244 6.63356 8.31438 6.50992C8.19303 5.97775 8.06482 5.41298 7.96821 4.98935C7.87775 4.59266 7.81584 4.31941 7.81414 4.31192C7.8135 4.3091 7.81317 4.30605 7.81255 4.30322L7.79584 4.21824C7.79646 4.2223 7.79704 4.22678 7.7977 4.23084L7.47174 2.55125C7.34128 1.97689 7.61632 1.39252 8.12782 1.12603L8.23303 1.07658C8.4297 0.99547 8.63445 0.968096 8.83271 0.986677ZM22.5174 14.5103C22.4081 14.5434 22.301 14.5911 22.2006 14.6558L22.2007 14.6568C22.3011 14.592 22.408 14.5434 22.5174 14.5103ZM22.8505 14.4577C23.1018 14.4525 23.3515 14.5238 23.5649 14.6652C23.3831 14.5447 23.1753 14.4744 22.9622 14.4597C22.9251 14.4571 22.8877 14.4559 22.8504 14.4567L22.8505 14.4577ZM15.9468 14.0212C15.9741 14.0505 16.0092 14.0725 16.0472 14.0847L16.0471 14.0837C16.009 14.0714 15.974 14.0497 15.9467 14.0202L15.9468 14.0212ZM18.8839 11.1697C19.0493 10.9886 19.2559 10.865 19.4769 10.8023C19.3297 10.844 19.1889 10.9127 19.0625 11.0075C19.0308 11.0312 18.9997 11.0564 18.9699 11.0834C18.9402 11.1104 18.9115 11.1396 18.8839 11.1697L16.2776 14.0206L18.8839 11.1697ZM12.3953 13.0008L12.3952 12.9999L12.3953 13.0008ZM12.743 12.8072C12.7156 12.8601 12.6785 12.902 12.6363 12.9331C12.6784 12.9021 12.7157 12.8609 12.743 12.8081L12.743 12.8072ZM20.5826 11.004L20.5826 11.0049L20.5826 11.004ZM20.1571 10.7988L20.157 10.7978L20.1571 10.7988ZM11.5672 11.2252C11.5826 11.2551 11.5968 11.2858 11.6099 11.3171C11.5967 11.2855 11.5827 11.2544 11.5672 11.2242L11.5672 11.2252ZM9.2388 11.3439C9.22415 11.3817 9.21204 11.4206 9.20092 11.4601C9.21197 11.4209 9.22434 11.3824 9.23887 11.3449L9.2388 11.3439ZM19.7021 10.7601C19.7777 10.7528 19.8541 10.7525 19.9301 10.7588L19.8162 10.7541C19.7781 10.7543 19.74 10.7564 19.7021 10.7601ZM14.1827 7.5954C13.8806 7.82758 13.624 8.12575 13.44 8.4814L12.6993 9.91546C12.6269 10.0552 12.4401 10.081 12.331 9.96765C11.9924 9.61517 11.5588 9.36202 11.077 9.23988C11.1749 9.3602 11.2533 9.49895 11.3036 9.65281L11.741 10.9937C11.8403 11.2967 12.2544 11.3302 12.4006 11.0475L14.1827 7.5954ZM11.4633 11.0552L11.4633 11.0543L11.4633 11.0552ZM9.41286 11.0332L9.41293 11.0342L9.41286 11.0332ZM10.1821 9.16834L10.4464 10.5263L10.4465 10.5272C10.6515 10.5301 10.8478 10.5809 11.0215 10.672C10.9636 10.6417 10.9031 10.6159 10.8408 10.5946C10.8096 10.584 10.7779 10.5743 10.7458 10.566C10.6817 10.5496 10.6158 10.5381 10.5486 10.5318C10.5149 10.5287 10.4807 10.5267 10.4464 10.5263L10.182 9.16736L10.1821 9.16834ZM10.0836 10.5741L10.0837 10.5751L10.0836 10.5741ZM16.3426 8.55253L16.3426 8.55156L16.3426 8.55253ZM5.87003 5.279L5.87009 5.27997L5.87003 5.279ZM12.127 7.52672C12.1596 7.53542 12.1932 7.53981 12.2268 7.53932C12.1595 7.54029 12.0918 7.52228 12.0332 7.48629L12.127 7.52672ZM13.2828 5.66029C13.2195 5.73637 13.1644 5.82053 13.1193 5.91157L13.1194 5.91254C13.1644 5.82143 13.2196 5.73741 13.2829 5.66127L13.2828 5.66029ZM13.576 5.40093L13.5761 5.4019L13.576 5.40093ZM14.5909 5.24284C14.6753 5.26529 14.7558 5.29723 14.8323 5.33559L14.8333 5.33553C14.7565 5.29696 14.6756 5.26538 14.5909 5.24284ZM14.3315 5.20126C14.1951 5.19395 14.0611 5.20869 13.934 5.24276C14.0611 5.2087 14.1951 5.19492 14.3316 5.20223L14.3315 5.20126ZM3.67121 5.48757C3.65149 5.52015 3.63626 5.55501 3.61957 5.58908C3.66393 5.49859 3.71639 5.41161 3.78179 5.333L3.67121 5.48757ZM4.07405 5.07468C4.04598 5.09268 4.01808 5.1115 3.99187 5.13133L3.99194 5.1323C4.01828 5.11236 4.0459 5.09376 4.07412 5.07565L4.07405 5.07468ZM7.80737 3.76712C7.80268 3.79006 7.79901 3.81323 7.79558 3.83647C7.79902 3.81323 7.80268 3.79006 7.80737 3.76712ZM7.83187 3.66947C7.82713 3.68599 7.8228 3.70262 7.81871 3.71934C7.8228 3.70262 7.82712 3.68599 7.83187 3.66947ZM7.91303 3.45822C7.90471 3.47523 7.8968 3.49244 7.88923 3.50981C7.8968 3.49244 7.9047 3.47523 7.91303 3.45822ZM9.79727 2.97893C9.9344 3.07655 10.0537 3.20209 10.1454 3.35204L10.0444 3.20933C9.93538 3.07607 9.80199 2.96848 9.65401 2.89008L9.79727 2.97893ZM7.94318 3.39933C7.93906 3.40676 7.935 3.41421 7.93104 3.42172C7.94616 3.39315 7.96278 3.36538 7.98 3.33802L7.94318 3.39933ZM8.03328 3.25989C8.01595 3.28341 7.99916 3.30729 7.98349 3.3319C7.99917 3.30731 8.01594 3.2834 8.03328 3.25989ZM8.13079 3.14245L8.11448 3.16122C8.13641 3.13697 8.15915 3.11342 8.18298 3.09084C8.16519 3.10771 8.14753 3.12465 8.13079 3.14245ZM8.27989 3.00672C8.25119 3.0289 8.22316 3.05181 8.19664 3.07618C8.22316 3.05182 8.25119 3.02889 8.27989 3.00672ZM9.17504 2.74638L9.17511 2.74736L9.17504 2.74638Z" fill="url(#paint0_linear_668_33141)"/>
<path fill-rule="evenodd" clip-rule="evenodd" d="M8.83271 0.986677L8.99903 1.01323C9.38034 1.10093 9.71692 1.36289 9.88559 1.75005L11.5511 5.56308C11.6782 5.85514 12.0932 5.84965 12.2113 5.55412L12.7356 4.2458C12.9396 3.73572 13.4431 3.41242 13.9892 3.44155C14.0065 3.44273 14.0242 3.44396 14.0404 3.44581C14.6104 3.49923 15.0703 3.92668 15.1777 4.47836L15.519 6.23813L15.5191 6.23911C15.5331 6.31137 15.5411 6.38571 15.5425 6.46165C15.5438 6.5313 15.5332 6.59866 15.5155 6.66325C15.6793 6.67283 15.8438 6.71523 16.0002 6.79185L16.1338 6.86768C16.3883 7.03277 16.5707 7.27927 16.6588 7.55833L16.6952 7.70067L17.0366 9.46044C17.0752 9.65873 17.0678 9.86849 17.007 10.0734L16.559 11.577L18.5426 9.40995C18.9834 8.92721 19.715 8.85563 20.2402 9.24425L20.3487 9.32575C20.6153 9.52329 20.7857 9.80727 20.8453 10.1133L21.1867 11.8731L21.1867 11.8741C21.2438 12.1676 21.1999 12.4814 21.042 12.7584L20.4393 13.8128L21.8593 12.8961C22.3942 12.551 23.1022 12.6645 23.5047 13.1599L23.5049 13.1628C23.6388 13.3279 23.7245 13.5178 23.7628 13.7145L24.1051 15.4742C24.1831 15.8749 24.0645 16.3044 23.7577 16.6096L19.3498 20.9961C17.2007 22.9318 13.9935 23.0851 11.6682 21.3629C10.2493 20.3118 9.30105 18.7745 8.97133 17.0807C8.97085 17.0782 8.97029 17.0754 8.96981 17.0729L8.62893 15.32C8.50708 14.6938 8.46978 14.0462 8.52459 13.3939L8.8139 9.9434C8.82164 9.85105 8.83986 9.76187 8.86571 9.67644C8.53316 9.92365 8.25882 10.2473 8.07042 10.6229C7.92302 10.9168 7.82834 11.2423 7.79916 11.5875L7.50881 15.0371C7.46934 15.5091 7.47086 15.983 7.51087 16.4525C7.52035 16.5638 7.41294 16.65 7.30697 16.6165C6.37069 16.3217 5.4962 15.7969 4.77176 15.0523L0.656697 10.3826C0.503688 10.2091 0.407197 10.0037 0.365637 9.79016L0.365568 9.78919L0.359219 9.75439L0.0233019 8.03046L0.0232338 8.02948C-0.0513563 7.64545 0.0534626 7.2341 0.335957 6.9298C0.768981 6.463 1.48277 6.39774 1.99345 6.77767L2.33578 8.53738L4.99172 10.5122L4.99166 10.5112L2.33571 8.5364L1.99338 6.7767L4.58003 8.6986L3.61552 6.72102C3.56501 6.61752 3.53011 6.50999 3.50898 6.40151L3.50892 6.40053L3.44298 6.05957L3.16658 4.64083C3.06831 4.13511 3.28139 3.6039 3.73172 3.31497L3.84406 3.24153C4.39292 2.8886 5.11954 3.00791 5.52867 3.51922L7.94433 6.53776C8.05372 6.67468 8.24244 6.63356 8.31438 6.50992C8.19303 5.97775 8.06482 5.41298 7.96821 4.98935C7.87775 4.59266 7.81584 4.31941 7.81414 4.31192C7.8135 4.3091 7.81317 4.30605 7.81255 4.30322L7.79584 4.21824C7.79646 4.2223 7.79704 4.22678 7.7977 4.23084L7.47174 2.55125C7.34128 1.97689 7.61632 1.39252 8.12782 1.12603L8.23303 1.07658C8.4297 0.99547 8.63445 0.968096 8.83271 0.986677ZM22.5174 14.5103C22.4081 14.5434 22.301 14.5911 22.2006 14.6558L22.2007 14.6568C22.3011 14.592 22.408 14.5434 22.5174 14.5103ZM22.8505 14.4577C23.1018 14.4525 23.3515 14.5238 23.5649 14.6652C23.3831 14.5447 23.1753 14.4744 22.9622 14.4597C22.9251 14.4571 22.8877 14.4559 22.8504 14.4567L22.8505 14.4577ZM15.9468 14.0212C15.9741 14.0505 16.0092 14.0725 16.0472 14.0847L16.0471 14.0837C16.009 14.0714 15.974 14.0497 15.9467 14.0202L15.9468 14.0212ZM18.8839 11.1697C19.0493 10.9886 19.2559 10.865 19.4769 10.8023C19.3297 10.844 19.1889 10.9127 19.0625 11.0075C19.0308 11.0312 18.9997 11.0564 18.9699 11.0834C18.9402 11.1104 18.9115 11.1396 18.8839 11.1697L16.2776 14.0206L18.8839 11.1697ZM12.3953 13.0008L12.3952 12.9999L12.3953 13.0008ZM12.743 12.8072C12.7156 12.8601 12.6785 12.902 12.6363 12.9331C12.6784 12.9021 12.7157 12.8609 12.743 12.8081L12.743 12.8072ZM20.5826 11.004L20.5826 11.0049L20.5826 11.004ZM20.1571 10.7988L20.157 10.7978L20.1571 10.7988ZM11.5672 11.2252C11.5826 11.2551 11.5968 11.2858 11.6099 11.3171C11.5967 11.2855 11.5827 11.2544 11.5672 11.2242L11.5672 11.2252ZM9.2388 11.3439C9.22415 11.3817 9.21204 11.4206 9.20092 11.4601C9.21197 11.4209 9.22434 11.3824 9.23887 11.3449L9.2388 11.3439ZM19.7021 10.7601C19.7777 10.7528 19.8541 10.7525 19.9301 10.7588L19.8162 10.7541C19.7781 10.7543 19.74 10.7564 19.7021 10.7601ZM14.1827 7.5954C13.8806 7.82758 13.624 8.12575 13.44 8.4814L12.6993 9.91546C12.6269 10.0552 12.4401 10.081 12.331 9.96765C11.9924 9.61517 11.5588 9.36202 11.077 9.23988C11.1749 9.3602 11.2533 9.49895 11.3036 9.65281L11.741 10.9937C11.8403 11.2967 12.2544 11.3302 12.4006 11.0475L14.1827 7.5954ZM11.4633 11.0552L11.4633 11.0543L11.4633 11.0552ZM9.41286 11.0332L9.41293 11.0342L9.41286 11.0332ZM10.1821 9.16834L10.4464 10.5263L10.4465 10.5272C10.6515 10.5301 10.8478 10.5809 11.0215 10.672C10.9636 10.6417 10.9031 10.6159 10.8408 10.5946C10.8096 10.584 10.7779 10.5743 10.7458 10.566C10.6817 10.5496 10.6158 10.5381 10.5486 10.5318C10.5149 10.5287 10.4807 10.5267 10.4464 10.5263L10.182 9.16736L10.1821 9.16834ZM10.0836 10.5741L10.0837 10.5751L10.0836 10.5741ZM16.3426 8.55253L16.3426 8.55156L16.3426 8.55253ZM5.87003 5.279L5.87009 5.27997L5.87003 5.279ZM12.127 7.52672C12.1596 7.53542 12.1932 7.53981 12.2268 7.53932C12.1595 7.54029 12.0918 7.52228 12.0332 7.48629L12.127 7.52672ZM13.2828 5.66029C13.2195 5.73637 13.1644 5.82053 13.1193 5.91157L13.1194 5.91254C13.1644 5.82143 13.2196 5.73741 13.2829 5.66127L13.2828 5.66029ZM13.576 5.40093L13.5761 5.4019L13.576 5.40093ZM14.5909 5.24284C14.6753 5.26529 14.7558 5.29723 14.8323 5.33559L14.8333 5.33553C14.7565 5.29696 14.6756 5.26538 14.5909 5.24284ZM14.3315 5.20126C14.1951 5.19395 14.0611 5.20869 13.934 5.24276C14.0611 5.2087 14.1951 5.19492 14.3316 5.20223L14.3315 5.20126ZM3.67121 5.48757C3.65149 5.52015 3.63626 5.55501 3.61957 5.58908C3.66393 5.49859 3.71639 5.41161 3.78179 5.333L3.67121 5.48757ZM4.07405 5.07468C4.04598 5.09268 4.01808 5.1115 3.99187 5.13133L3.99194 5.1323C4.01828 5.11236 4.0459 5.09376 4.07412 5.07565L4.07405 5.07468ZM7.80737 3.76712C7.80268 3.79006 7.79901 3.81323 7.79558 3.83647C7.79902 3.81323 7.80268 3.79006 7.80737 3.76712ZM7.83187 3.66947C7.82713 3.68599 7.8228 3.70262 7.81871 3.71934C7.8228 3.70262 7.82712 3.68599 7.83187 3.66947ZM7.91303 3.45822C7.90471 3.47523 7.8968 3.49244 7.88923 3.50981C7.8968 3.49244 7.9047 3.47523 7.91303 3.45822ZM9.79727 2.97893C9.9344 3.07655 10.0537 3.20209 10.1454 3.35204L10.0444 3.20933C9.93538 3.07607 9.80199 2.96848 9.65401 2.89008L9.79727 2.97893ZM7.94318 3.39933C7.93906 3.40676 7.935 3.41421 7.93104 3.42172C7.94616 3.39315 7.96278 3.36538 7.98 3.33802L7.94318 3.39933ZM8.03328 3.25989C8.01595 3.28341 7.99916 3.30729 7.98349 3.3319C7.99917 3.30731 8.01594 3.2834 8.03328 3.25989ZM8.13079 3.14245L8.11448 3.16122C8.13641 3.13697 8.15915 3.11342 8.18298 3.09084C8.16519 3.10771 8.14753 3.12465 8.13079 3.14245ZM8.27989 3.00672C8.25119 3.0289 8.22316 3.05181 8.19664 3.07618C8.22316 3.05182 8.25119 3.02889 8.27989 3.00672ZM9.17504 2.74638L9.17511 2.74736L9.17504 2.74638Z" fill="#FEA5B5"/>
<path fill-rule="evenodd" clip-rule="evenodd" d="M14.3085 7.35335C14.6274 6.73591 15.3787 6.48719 16.001 6.79251C16.5633 7.06834 16.8444 7.71191 16.6655 8.31432L15.5568 12.0453C15.4892 12.2741 15.7752 12.4372 15.9361 12.2615L18.5423 9.4097C18.9832 8.92705 19.715 8.85728 20.2401 9.24595L20.3485 9.3255C20.8711 9.71251 21.0222 10.4324 20.6994 10.9985L18.7633 14.3898C18.6453 14.5956 18.8841 14.8214 19.081 14.6907L21.8591 12.8968C22.394 12.5515 23.1018 12.6643 23.5045 13.1596L23.5036 13.1616C23.912 13.6633 23.8744 14.3949 23.4162 14.8506L19.0082 19.2361C16.859 21.1718 13.6519 21.3251 11.3266 19.6029C9.38305 18.1631 8.32128 15.8119 8.52442 13.3946L8.8147 9.94406C8.87097 9.27206 9.43442 8.75904 10.105 8.76818C10.652 8.77583 11.1336 9.13099 11.3044 9.65347L11.7417 10.9934C11.8408 11.2966 12.254 11.3309 12.4005 11.0482L14.3085 7.35335ZM8.83351 0.987335C9.28098 1.02961 9.69264 1.30833 9.88542 1.75078L11.551 5.56381C11.6781 5.85621 12.0943 5.85007 12.212 5.5538L12.7353 4.24556C12.9394 3.73544 13.4438 3.41292 13.99 3.44221C14.0073 3.44338 14.0249 3.44363 14.0411 3.44549C14.6857 3.506 15.1884 4.04593 15.2009 4.70163C15.2072 5.02356 14.9968 5.30836 14.6897 5.39914C14.0157 5.59873 13.4373 6.06617 13.0984 6.72138L12.3577 8.15544C12.2854 8.29545 12.0987 8.322 11.9895 8.20861C11.5591 7.76035 10.9762 7.46907 10.334 7.40906C10.2634 7.40255 10.1927 7.39755 10.1226 7.39642C8.74364 7.37837 7.57349 8.44571 7.45659 9.82758L7.16721 13.2771C7.12772 13.7491 7.1283 14.223 7.1683 14.6925C7.17788 14.804 7.0714 14.8901 6.96537 14.8565C6.02904 14.5616 5.15374 14.038 4.42925 13.2933L0.315099 8.62261C-0.113113 8.13681 -0.10376 7.40416 0.335787 6.93052C0.768787 6.46337 1.48336 6.39729 1.99418 6.77736L4.65013 8.75217C4.8376 8.89632 5.09059 8.68678 4.98702 8.47409L3.27392 4.961C2.9879 4.37493 3.18461 3.66677 3.73155 3.3157L3.84486 3.24219C4.39371 2.88939 5.11941 3.00869 5.5285 3.51995L7.9452 6.53939C8.09434 6.72573 8.39091 6.58087 8.33811 6.34843L7.47157 2.55197C7.33225 1.93935 7.65453 1.3149 8.23286 1.07731C8.42974 0.996048 8.63503 0.968674 8.83351 0.987335Z" fill="#DDE9FF"/>
<path fill-rule="evenodd" clip-rule="evenodd" d="M14.3085 7.35335C14.6274 6.73591 15.3787 6.48719 16.001 6.79251C16.5633 7.06834 16.8444 7.71191 16.6655 8.31432L15.5568 12.0453C15.4892 12.2741 15.7752 12.4372 15.9361 12.2615L18.5423 9.4097C18.9832 8.92705 19.715 8.85728 20.2401 9.24595L20.3485 9.3255C20.8711 9.71251 21.0222 10.4324 20.6994 10.9985L18.7633 14.3898C18.6453 14.5956 18.8841 14.8214 19.081 14.6907L21.8591 12.8968C22.394 12.5515 23.1018 12.6643 23.5045 13.1596L23.5036 13.1616C23.912 13.6633 23.8744 14.3949 23.4162 14.8506L19.0082 19.2361C16.859 21.1718 13.6519 21.3251 11.3266 19.6029C9.38305 18.1631 8.32128 15.8119 8.52442 13.3946L8.8147 9.94406C8.87097 9.27206 9.43442 8.75904 10.105 8.76818C10.652 8.77583 11.1336 9.13099 11.3044 9.65347L11.7417 10.9934C11.8408 11.2966 12.254 11.3309 12.4005 11.0482L14.3085 7.35335ZM8.83351 0.987335C9.28098 1.02961 9.69264 1.30833 9.88542 1.75078L11.551 5.56381C11.6781 5.85621 12.0943 5.85007 12.212 5.5538L12.7353 4.24556C12.9394 3.73544 13.4438 3.41292 13.99 3.44221C14.0073 3.44338 14.0249 3.44363 14.0411 3.44549C14.6857 3.506 15.1884 4.04593 15.2009 4.70163C15.2072 5.02356 14.9968 5.30836 14.6897 5.39914C14.0157 5.59873 13.4373 6.06617 13.0984 6.72138L12.3577 8.15544C12.2854 8.29545 12.0987 8.322 11.9895 8.20861C11.5591 7.76035 10.9762 7.46907 10.334 7.40906C10.2634 7.40255 10.1927 7.39755 10.1226 7.39642C8.74364 7.37837 7.57349 8.44571 7.45659 9.82758L7.16721 13.2771C7.12772 13.7491 7.1283 14.223 7.1683 14.6925C7.17788 14.804 7.0714 14.8901 6.96537 14.8565C6.02904 14.5616 5.15374 14.038 4.42925 13.2933L0.315099 8.62261C-0.113113 8.13681 -0.10376 7.40416 0.335787 6.93052C0.768787 6.46337 1.48336 6.39729 1.99418 6.77736L4.65013 8.75217C4.8376 8.89632 5.09059 8.68678 4.98702 8.47409L3.27392 4.961C2.9879 4.37493 3.18461 3.66677 3.73155 3.3157L3.84486 3.24219C4.39371 2.88939 5.11941 3.00869 5.5285 3.51995L7.9452 6.53939C8.09434 6.72573 8.39091 6.58087 8.33811 6.34843L7.47157 2.55197C7.33225 1.93935 7.65453 1.3149 8.23286 1.07731C8.42974 0.996048 8.63503 0.968674 8.83351 0.987335Z" fill="#E76D84"/>
<path d="M14.7058 7.55946C14.9131 7.15785 15.4008 6.99742 15.8035 7.19489C16.1682 7.37391 16.3518 7.79257 16.2352 8.18608L15.1263 11.9165C14.9274 12.5871 15.7738 13.1013 16.2658 12.5643L18.8734 9.71266L18.9292 9.65699C19.2175 9.39551 19.6524 9.36911 19.9714 9.60342L20.0798 9.68534L20.0816 9.68609C20.4003 9.92214 20.5075 10.3497 20.346 10.7065L20.3105 10.7766L18.3742 14.1683C18.0301 14.7706 18.7226 15.4591 19.3232 15.0662L19.3242 15.0671L22.1023 13.274C22.442 13.0548 22.8901 13.1236 23.1499 13.4359C23.152 13.4386 23.1536 13.4417 23.1558 13.4443C23.4026 13.7474 23.3962 14.1811 23.1516 14.4756L23.0994 14.5328L18.6988 18.9111C16.7082 20.6967 13.7435 20.8361 11.5926 19.2431C9.77435 17.896 8.78151 15.6953 8.97154 13.4323L9.26108 9.98119C9.29804 9.54194 9.66524 9.20962 10.0982 9.21541C10.4521 9.22029 10.7656 9.45093 10.8774 9.7927L11.3151 11.1336L11.3647 11.2538C11.6514 11.82 12.4894 11.8516 12.7986 11.2545L14.7058 7.55946ZM8.79059 1.43331C9.0818 1.46077 9.34933 1.64219 9.47461 1.92951L11.14 5.74324C11.4254 6.39811 12.3603 6.38781 12.6265 5.72002L12.6275 5.72083L13.152 4.4127L13.2104 4.29367C13.3446 4.06859 13.5764 3.92109 13.8344 3.89378L13.9657 3.88986C13.9706 3.89017 13.9754 3.8905 13.9789 3.89069C13.9844 3.89098 13.9864 3.89066 13.9895 3.89083L13.9992 3.89191C14.4159 3.93114 14.7442 4.28201 14.7523 4.71057C14.7546 4.82935 14.6771 4.9356 14.5624 4.96954C13.772 5.20358 13.0959 5.75184 12.7006 6.51597L12.0923 7.69132C11.618 7.28524 11.0227 7.02335 10.375 6.96289C10.2978 6.95577 10.2143 6.94986 10.1292 6.94849L10.1274 6.94861C8.56147 6.92841 7.23139 8.10024 7.02606 9.64082L7.01024 9.7911L6.72058 13.2405C6.69154 13.5877 6.68402 13.9355 6.69601 14.282C5.98557 13.9972 5.32344 13.5663 4.75939 12.9889L0.651456 8.32638C0.375297 8.01312 0.381634 7.54052 0.664686 7.23563L0.718837 7.18183C0.998836 6.93165 1.41911 6.90962 1.72572 7.13775L4.38208 9.11145C4.95746 9.54644 5.69172 8.89919 5.38995 8.27845L3.67711 4.76462C3.4903 4.38152 3.61907 3.92008 3.97333 3.6927L3.97757 3.69065L4.08663 3.61897C4.44149 3.39081 4.91225 3.46697 5.17855 3.79971L7.59386 6.81866C8.04683 7.38564 8.93028 6.9352 8.7746 6.2491L7.90891 2.45228C7.81804 2.05144 8.02932 1.64557 8.40334 1.49198C8.53066 1.43948 8.66272 1.42137 8.79059 1.43331Z" fill="#DDE9FF"/>
<path d="M14.7058 7.55946C14.9131 7.15785 15.4008 6.99742 15.8035 7.19489C16.1682 7.37391 16.3518 7.79257 16.2352 8.18608L15.1263 11.9165C14.9274 12.5871 15.7738 13.1013 16.2658 12.5643L18.8734 9.71266L18.9292 9.65699C19.2175 9.39551 19.6524 9.36911 19.9714 9.60342L20.0798 9.68534L20.0816 9.68609C20.4003 9.92214 20.5075 10.3497 20.346 10.7065L20.3105 10.7766L18.3742 14.1683C18.0301 14.7706 18.7226 15.4591 19.3232 15.0662L19.3242 15.0671L22.1023 13.274C22.442 13.0548 22.8901 13.1236 23.1499 13.4359C23.152 13.4386 23.1536 13.4417 23.1558 13.4443C23.4026 13.7474 23.3962 14.1811 23.1516 14.4756L23.0994 14.5328L18.6988 18.9111C16.7082 20.6967 13.7435 20.8361 11.5926 19.2431C9.77435 17.896 8.78151 15.6953 8.97154 13.4323L9.26108 9.98119C9.29804 9.54194 9.66524 9.20962 10.0982 9.21541C10.4521 9.22029 10.7656 9.45093 10.8774 9.7927L11.3151 11.1336L11.3647 11.2538C11.6514 11.82 12.4894 11.8516 12.7986 11.2545L14.7058 7.55946ZM8.79059 1.43331C9.0818 1.46077 9.34933 1.64219 9.47461 1.92951L11.14 5.74324C11.4254 6.39811 12.3603 6.38781 12.6265 5.72002L12.6275 5.72083L13.152 4.4127L13.2104 4.29367C13.3446 4.06859 13.5764 3.92109 13.8344 3.89378L13.9657 3.88986C13.9706 3.89017 13.9754 3.8905 13.9789 3.89069C13.9844 3.89098 13.9864 3.89066 13.9895 3.89083L13.9992 3.89191C14.4159 3.93114 14.7442 4.28201 14.7523 4.71057C14.7546 4.82935 14.6771 4.9356 14.5624 4.96954C13.772 5.20358 13.0959 5.75184 12.7006 6.51597L12.0923 7.69132C11.618 7.28524 11.0227 7.02335 10.375 6.96289C10.2978 6.95577 10.2143 6.94986 10.1292 6.94849L10.1274 6.94861C8.56147 6.92841 7.23139 8.10024 7.02606 9.64082L7.01024 9.7911L6.72058 13.2405C6.69154 13.5877 6.68402 13.9355 6.69601 14.282C5.98557 13.9972 5.32344 13.5663 4.75939 12.9889L0.651456 8.32638C0.375297 8.01312 0.381634 7.54052 0.664686 7.23563L0.718837 7.18183C0.998836 6.93165 1.41911 6.90962 1.72572 7.13775L4.38208 9.11145C4.95746 9.54644 5.69172 8.89919 5.38995 8.27845L3.67711 4.76462C3.4903 4.38152 3.61907 3.92008 3.97333 3.6927L3.97757 3.69065L4.08663 3.61897C4.44149 3.39081 4.91225 3.46697 5.17855 3.79971L7.59386 6.81866C8.04683 7.38564 8.93028 6.9352 8.7746 6.2491L7.90891 2.45228C7.81804 2.05144 8.02932 1.64557 8.40334 1.49198C8.53066 1.43948 8.66272 1.42137 8.79059 1.43331Z" fill="#E76D84"/>
<path d="M14.7058 7.55946C14.9131 7.15785 15.4008 6.99742 15.8035 7.19489C16.1682 7.37391 16.3518 7.79257 16.2352 8.18608L15.1263 11.9165C14.9274 12.5871 15.7738 13.1013 16.2658 12.5643L18.8734 9.71266L18.9292 9.65699C19.2175 9.39551 19.6524 9.36911 19.9714 9.60342L20.0798 9.68534L20.0816 9.68609C20.4003 9.92214 20.5075 10.3497 20.346 10.7065L20.3105 10.7766L18.3742 14.1683C18.0301 14.7706 18.7226 15.4591 19.3232 15.0662L19.3242 15.0671L22.1023 13.274C22.442 13.0548 22.8901 13.1236 23.1499 13.4359C23.152 13.4386 23.1536 13.4417 23.1558 13.4443C23.4026 13.7474 23.3962 14.1811 23.1516 14.4756L23.0994 14.5328L18.6988 18.9111C16.7082 20.6967 13.7435 20.8361 11.5926 19.2431C9.77435 17.896 8.78151 15.6953 8.97154 13.4323L9.26108 9.98119C9.29804 9.54194 9.66524 9.20962 10.0982 9.21541C10.4521 9.22029 10.7656 9.45093 10.8774 9.7927L11.3151 11.1336L11.3647 11.2538C11.6514 11.82 12.4894 11.8516 12.7986 11.2545L14.7058 7.55946ZM8.79059 1.43331C9.0818 1.46077 9.34933 1.64219 9.47461 1.92951L11.14 5.74324C11.4254 6.39811 12.3603 6.38781 12.6265 5.72002L12.6275 5.72083L13.152 4.4127L13.2104 4.29367C13.3446 4.06859 13.5764 3.92109 13.8344 3.89378L13.9657 3.88986C13.9706 3.89017 13.9754 3.8905 13.9789 3.89069C13.9844 3.89098 13.9864 3.89066 13.9895 3.89083L13.9992 3.89191C14.4159 3.93114 14.7442 4.28201 14.7523 4.71057C14.7546 4.82935 14.6771 4.9356 14.5624 4.96954C13.772 5.20358 13.0959 5.75184 12.7006 6.51597L12.0923 7.69132C11.618 7.28524 11.0227 7.02335 10.375 6.96289C10.2978 6.95577 10.2143 6.94986 10.1292 6.94849L10.1274 6.94861C8.56147 6.92841 7.23139 8.10024 7.02606 9.64082L7.01024 9.7911L6.72058 13.2405C6.69154 13.5877 6.68402 13.9355 6.69601 14.282C5.98557 13.9972 5.32344 13.5663 4.75939 12.9889L0.651456 8.32638C0.375297 8.01312 0.381634 7.54052 0.664686 7.23563L0.718837 7.18183C0.998836 6.93165 1.41911 6.90962 1.72572 7.13775L4.38208 9.11145C4.95746 9.54644 5.69172 8.89919 5.38995 8.27845L3.67711 4.76462C3.4903 4.38152 3.61907 3.92008 3.97333 3.6927L3.97757 3.69065L4.08663 3.61897C4.44149 3.39081 4.91225 3.46697 5.17855 3.79971L7.59386 6.81866C8.04683 7.38564 8.93028 6.9352 8.7746 6.2491L7.90891 2.45228C7.81804 2.05144 8.02932 1.64557 8.40334 1.49198C8.53066 1.43948 8.66272 1.42137 8.79059 1.43331Z" fill="url(#paint1_linear_668_33141)"/>
<defs>
<linearGradient id="paint0_linear_668_33141" x1="12.0809" y1="23.4832" x2="19.5513" y2="22.0311" gradientUnits="userSpaceOnUse">
<stop stop-color="#387DFF"/>
<stop offset="0.5" stop-color="#387DFF"/>
<stop offset="1" stop-color="#387DFF"/>
</linearGradient>
<linearGradient id="paint1_linear_668_33141" x1="11.1915" y1="0.833502" x2="12.5982" y2="20.9495" gradientUnits="userSpaceOnUse">
<stop stop-color="#FFC1CC"/>
<stop offset="1" stop-color="#FE7891"/>
</linearGradient>
</defs>
</svg>
