<svg width="24" height="24" viewBox="0 0 24 24" fill="none" xmlns="http://www.w3.org/2000/svg">
<path fill-rule="evenodd" clip-rule="evenodd" d="M5.78125 0.300528C6.02373 -0.100124 6.60526 -0.100228 6.84766 0.300528L8.54102 3.10326C8.59281 3.18955 8.66575 3.26162 8.75195 3.3142L11.5537 5.00951C11.7292 5.11561 11.8287 5.28646 11.8506 5.46557L11.8545 5.54272V7.38842C11.8545 7.4354 11.8483 7.48209 11.8379 7.52807C11.8111 7.64672 11.7495 7.75738 11.6533 7.84545C11.6351 7.86213 11.6155 7.87748 11.5947 7.89232C11.5812 7.90205 11.5684 7.91374 11.5537 7.9226L8.75195 9.61693C8.66547 9.66888 8.59361 9.74232 8.54102 9.82885L7.0293 12.3298C9.33477 12.6647 11.1243 14.5933 11.2441 16.9626L11.25 17.2165V19.0622C11.25 19.2325 11.2414 19.4013 11.2246 19.5671C11.2078 19.7331 11.1833 19.8967 11.1504 20.0574C10.9469 21.0523 10.4429 21.9371 9.73926 22.616C9.59036 22.7596 9.43355 22.8951 9.26758 23.0193C8.82717 23.3487 8.32968 23.6057 7.79297 23.7742C7.69729 23.8042 7.60004 23.83 7.50195 23.8542C7.12121 23.9484 6.7233 24.0007 6.31348 24.0007C3.58774 24.0004 1.37834 21.7899 1.37793 19.0632V17.2165C1.37793 14.7324 3.21157 12.6767 5.59863 12.3298L4.08691 9.82885C4.03498 9.74234 3.9615 9.66954 3.875 9.61693L1.07324 7.9226C0.873032 7.80137 0.772544 7.59529 0.772461 7.3894V5.54272C0.772429 5.33677 0.872981 5.13078 1.07324 5.00951L3.875 3.3142C3.96155 3.26225 4.03428 3.18984 4.08691 3.10326L5.78125 0.300528ZM17.9844 13.6736C20.4781 11.5885 22.6475 12.3233 22.7803 14.1648L22.7871 14.3464V16.1931C22.787 16.5476 22.7146 16.9383 22.5596 17.3542C22.5152 17.4733 22.4645 17.5946 22.4062 17.7175L22.3135 17.9031C22.2808 17.9655 22.2463 18.0283 22.21 18.0915C22.2007 18.1077 22.1902 18.1232 22.1807 18.1394C22.5992 18.8516 22.787 19.5152 22.7871 20.0857V21.9324C22.7871 22.0556 22.7777 22.1748 22.7607 22.2888C22.7438 22.4029 22.7185 22.512 22.6855 22.616C22.6526 22.7199 22.6126 22.8189 22.5645 22.9119C22.4683 23.0976 22.3425 23.2602 22.1914 23.3962C21.8892 23.6683 21.4845 23.8339 21.0068 23.863C20.8872 23.8703 20.7631 23.8684 20.6348 23.8581C20.3146 23.8326 19.9688 23.751 19.6045 23.6062C19.4587 23.5482 19.3095 23.4808 19.1582 23.4021C19.0825 23.3627 19.0066 23.3199 18.9297 23.2751C18.776 23.1857 18.6197 23.0859 18.4619 22.9744C18.3832 22.9187 18.3042 22.8599 18.2246 22.7986C18.145 22.7372 18.0647 22.6733 17.9844 22.6062C15.4103 24.7584 13.1805 23.9051 13.1807 21.9324C13.1807 21.922 13.1815 21.9116 13.1816 21.9011V20.0857C13.1817 19.5153 13.3678 18.8514 13.7861 18.1394C13.3678 17.4273 13.1807 16.7635 13.1807 16.1931V14.3464C13.1805 12.3737 15.4102 11.5212 17.9844 13.6736ZM22.3125 20.2224H22.3135H22.3125ZM11.1504 18.0671C11.1554 18.0916 11.1575 18.1167 11.1621 18.1413L11.1631 18.1394C11.1585 18.1153 11.1553 18.0911 11.1504 18.0671ZM10.9502 17.365H10.9512H10.9502ZM10.5352 16.5027V16.5017V16.5027ZM2.66016 15.7419V15.7429V15.7419ZM8.87305 14.8396C9.34813 15.1283 9.77087 15.4947 10.123 15.9216L9.96777 15.7419C9.91481 15.6836 9.86035 15.6267 9.80469 15.571C9.52559 15.2918 9.21319 15.0458 8.87402 14.8396H8.87305ZM17.9844 15.5193V15.5203V15.5193ZM2.90723 15.491C2.99358 15.4085 3.08169 15.3278 3.17383 15.2517C3.08169 15.3278 2.99357 15.4085 2.90723 15.491ZM20.6348 14.2663V14.2673C21.5855 14.1913 22.3094 14.6094 22.6201 15.3337V15.3328C22.5816 15.243 22.5372 15.1578 22.4863 15.0779C22.4587 15.0344 22.4296 14.9923 22.3984 14.9519C22.0559 14.5071 21.5055 14.25 20.8242 14.2576C20.7622 14.2582 20.699 14.2612 20.6348 14.2663ZM14.0225 14.5447C13.7583 14.7074 13.5478 14.9346 13.4033 15.2136L13.4814 15.0788C13.6197 14.8615 13.8019 14.6811 14.0215 14.5456L14.0225 14.5447ZM15.9355 14.3747C16.0053 14.3938 16.076 14.4152 16.1475 14.4392C16.0048 14.3913 15.8653 14.3536 15.7295 14.3249L15.9355 14.3747ZM4.61719 14.4236C4.39014 14.5067 4.17096 14.6063 3.96094 14.7204C4.17096 14.6063 4.39015 14.5067 4.61719 14.4236ZM7.30859 14.2253C7.54941 14.2746 7.7841 14.3406 8.01074 14.4236C7.70841 14.3129 7.39214 14.2313 7.06543 14.1814L7.30859 14.2253ZM14.3027 14.404V14.405V14.404ZM15.1445 14.2576C15.0205 14.2562 14.901 14.2644 14.7861 14.28C14.901 14.2644 15.0206 14.2562 15.1445 14.2576ZM5.31934 14.2244V14.2253V14.2244ZM6.31348 14.1238V14.1247V14.1238ZM20.7051 0.739981C21.8536 0.740026 22.7852 1.67208 22.7852 2.82104V4.66674H22.7842V8.28295C22.7842 8.27685 22.7852 8.27051 22.7852 8.26439V10.1111C22.7851 10.1829 22.7815 10.254 22.7744 10.324C22.721 10.8501 22.4689 11.316 22.0977 11.6521C22.0374 11.7066 21.9746 11.7581 21.9082 11.8054C21.5683 12.0475 21.154 12.1921 20.7051 12.1921H15.2627C14.1141 12.1921 13.1826 11.2601 13.1826 10.1111V4.66674V2.82104C13.1826 1.67208 14.1142 0.740029 15.2627 0.739981H20.7051ZM3.99414 5.06908C3.95865 5.10439 3.91816 5.13497 3.875 5.16088L3.9375 5.11889C3.95734 5.10342 3.97633 5.08682 3.99414 5.06908ZM8.58398 5.01244C8.59937 5.03206 8.61615 5.05051 8.63379 5.06811L8.58398 5.01147C8.56863 4.99185 8.55391 4.97143 8.54102 4.94994L8.58398 5.01244ZM21.8672 2.94213L21.8682 2.94115L21.8672 2.94213ZM21.3232 2.68041V2.67943V2.68041Z" fill="#FEA5B5"/>
<path fill-rule="evenodd" clip-rule="evenodd" d="M6.31342 12.2798C9.03971 12.2798 11.2499 14.491 11.2499 17.2183C11.2498 19.9455 9.03964 22.1558 6.31342 22.1558C3.58737 22.1556 1.37799 19.9453 1.37788 17.2183C1.37788 14.4911 3.5873 12.28 6.31342 12.2798ZM17.9833 13.6753C21.6157 10.6382 24.5614 13.5847 21.5253 17.2183C24.561 20.8518 21.6156 23.7982 17.9833 20.7613C14.3512 23.798 11.4058 20.8517 14.4414 17.2183C11.4055 13.5847 14.3511 10.6382 17.9833 13.6753ZM5.78022 0.303251C6.02261 -0.0978691 6.60424 -0.0978691 6.84663 0.303251L8.54096 3.10599C8.59286 3.19245 8.66548 3.26431 8.7519 3.31692L11.5537 5.01126C11.9546 5.25373 11.9546 5.83617 11.5537 6.07864L8.7519 7.77298C8.66535 7.82493 8.59359 7.89831 8.54096 7.98489L6.84663 10.7876C6.60416 11.1884 6.02258 11.1886 5.78022 10.7876L4.08686 7.98489C4.03492 7.89829 3.96151 7.82563 3.87495 7.77298L1.07319 6.07864C0.672221 5.83616 0.672215 5.25373 1.07319 5.01126L3.87495 3.31692C3.96151 3.26496 4.03423 3.19258 4.08686 3.10599L5.78022 0.303251ZM20.704 0.741727C21.8526 0.741727 22.7841 1.6738 22.7841 2.82278V8.26712C22.784 9.41602 21.8526 10.3472 20.704 10.3472H15.2617C14.1133 10.3471 13.1827 9.41594 13.1826 8.26712V2.82278C13.1826 1.67387 14.1132 0.741852 15.2617 0.741727H20.704Z" fill="#8F1212"/>
<path fill-rule="evenodd" clip-rule="evenodd" d="M6.31342 12.2798C9.03971 12.2798 11.2499 14.491 11.2499 17.2183C11.2498 19.9455 9.03964 22.1558 6.31342 22.1558C3.58737 22.1556 1.37799 19.9453 1.37788 17.2183C1.37788 14.4911 3.5873 12.28 6.31342 12.2798ZM17.9833 13.6753C21.6157 10.6382 24.5614 13.5847 21.5253 17.2183C24.561 20.8518 21.6156 23.7982 17.9833 20.7613C14.3512 23.798 11.4058 20.8517 14.4414 17.2183C11.4055 13.5847 14.3511 10.6382 17.9833 13.6753ZM5.78022 0.303251C6.02261 -0.0978691 6.60424 -0.0978691 6.84663 0.303251L8.54096 3.10599C8.59286 3.19245 8.66548 3.26431 8.7519 3.31692L11.5537 5.01126C11.9546 5.25373 11.9546 5.83617 11.5537 6.07864L8.7519 7.77298C8.66535 7.82493 8.59359 7.89831 8.54096 7.98489L6.84663 10.7876C6.60416 11.1884 6.02258 11.1886 5.78022 10.7876L4.08686 7.98489C4.03492 7.89829 3.96151 7.82563 3.87495 7.77298L1.07319 6.07864C0.672221 5.83616 0.672215 5.25373 1.07319 5.01126L3.87495 3.31692C3.96151 3.26496 4.03423 3.19258 4.08686 3.10599L5.78022 0.303251ZM20.704 0.741727C21.8526 0.741727 22.7841 1.6738 22.7841 2.82278V8.26712C22.784 9.41602 21.8526 10.3472 20.704 10.3472H15.2617C14.1133 10.3471 13.1827 9.41594 13.1826 8.26712V2.82278C13.1826 1.67387 14.1132 0.741852 15.2617 0.741727H20.704Z" fill="#E76D84"/>
<path d="M6.31335 12.9708C8.65692 12.9708 10.5573 14.8718 10.5575 17.2168C10.5574 19.5618 8.65689 21.4627 6.31335 21.4627C3.97018 21.4624 2.07025 19.5617 2.07011 17.2168C2.07028 14.8719 3.97015 12.9711 6.31335 12.9708ZM18.4283 14.2058C20.148 12.7679 21.3448 13.0125 21.7656 13.4333C22.1865 13.8544 22.4315 15.0527 20.9939 16.7732C20.7792 17.0302 20.7792 17.4042 20.9939 17.6612C22.4311 19.3814 22.1864 20.579 21.7656 21.0003C21.3449 21.4211 20.1481 21.6664 18.4283 20.2286C18.2033 20.0405 17.8886 20.0172 17.6413 20.1583L17.5403 20.2286C15.8205 21.6667 14.6231 21.4213 14.2022 21.0003C13.7811 20.5789 13.5365 19.3815 14.9738 17.6612C15.1884 17.4043 15.1883 17.0302 14.9738 16.7732C13.5363 15.0527 13.781 13.8545 14.2022 13.4333C14.6233 13.0124 15.8208 12.768 17.5403 14.2058C17.7973 14.4204 18.1714 14.4205 18.4283 14.2058ZM7.94863 3.46294C8.06029 3.64819 8.21438 3.79823 8.39216 3.90647L8.39396 3.90737L11.0984 5.54265L8.39396 7.17883C8.20643 7.2918 8.05659 7.44723 7.94953 7.62325L7.94863 7.62506L6.31426 10.3286L4.67988 7.62506C4.56815 7.43949 4.41284 7.28816 4.23455 7.17973L4.23365 7.17883L1.52832 5.54265L4.23365 3.90737L4.23275 3.90647C4.41521 3.79647 4.56883 3.64507 4.67898 3.46384L4.67988 3.46294L6.31426 0.758514L7.94863 3.46294ZM20.7045 1.43282C21.4703 1.43283 22.0917 2.05434 22.0919 2.82109V8.2651C22.0919 9.032 21.4704 9.65336 20.7045 9.65338H15.2623C14.4965 9.65327 13.8749 9.03196 13.8749 8.2651V2.82109C13.8751 2.05438 14.4966 1.43292 15.2623 1.43282H20.7045Z" fill="#8F1212"/>
<path d="M6.31335 12.9708C8.65692 12.9708 10.5573 14.8718 10.5575 17.2168C10.5574 19.5618 8.65689 21.4627 6.31335 21.4627C3.97018 21.4624 2.07025 19.5617 2.07011 17.2168C2.07028 14.8719 3.97015 12.9711 6.31335 12.9708ZM18.4283 14.2058C20.148 12.7679 21.3448 13.0125 21.7656 13.4333C22.1865 13.8544 22.4315 15.0527 20.9939 16.7732C20.7792 17.0302 20.7792 17.4042 20.9939 17.6612C22.4311 19.3814 22.1864 20.579 21.7656 21.0003C21.3449 21.4211 20.1481 21.6664 18.4283 20.2286C18.2033 20.0405 17.8886 20.0172 17.6413 20.1583L17.5403 20.2286C15.8205 21.6667 14.6231 21.4213 14.2022 21.0003C13.7811 20.5789 13.5365 19.3815 14.9738 17.6612C15.1884 17.4043 15.1883 17.0302 14.9738 16.7732C13.5363 15.0527 13.781 13.8545 14.2022 13.4333C14.6233 13.0124 15.8208 12.768 17.5403 14.2058C17.7973 14.4204 18.1714 14.4205 18.4283 14.2058ZM7.94863 3.46294C8.06029 3.64819 8.21438 3.79823 8.39216 3.90647L8.39396 3.90737L11.0984 5.54265L8.39396 7.17883C8.20643 7.2918 8.05659 7.44723 7.94953 7.62325L7.94863 7.62506L6.31426 10.3286L4.67988 7.62506C4.56815 7.43949 4.41284 7.28816 4.23455 7.17973L4.23365 7.17883L1.52832 5.54265L4.23365 3.90737L4.23275 3.90647C4.41521 3.79647 4.56883 3.64507 4.67898 3.46384L4.67988 3.46294L6.31426 0.758514L7.94863 3.46294ZM20.7045 1.43282C21.4703 1.43283 22.0917 2.05434 22.0919 2.82109V8.2651C22.0919 9.032 21.4704 9.65336 20.7045 9.65338H15.2623C14.4965 9.65327 13.8749 9.03196 13.8749 8.2651V2.82109C13.8751 2.05438 14.4966 1.43292 15.2623 1.43282H20.7045Z" fill="#E76D84"/>
<path d="M6.31335 12.9708C8.65692 12.9708 10.5573 14.8718 10.5575 17.2168C10.5574 19.5618 8.65689 21.4627 6.31335 21.4627C3.97018 21.4624 2.07025 19.5617 2.07011 17.2168C2.07028 14.8719 3.97015 12.9711 6.31335 12.9708ZM18.4283 14.2058C20.148 12.7679 21.3448 13.0125 21.7656 13.4333C22.1865 13.8544 22.4315 15.0527 20.9939 16.7732C20.7792 17.0302 20.7792 17.4042 20.9939 17.6612C22.4311 19.3814 22.1864 20.579 21.7656 21.0003C21.3449 21.4211 20.1481 21.6664 18.4283 20.2286C18.2033 20.0405 17.8886 20.0172 17.6413 20.1583L17.5403 20.2286C15.8205 21.6667 14.6231 21.4213 14.2022 21.0003C13.7811 20.5789 13.5365 19.3815 14.9738 17.6612C15.1884 17.4043 15.1883 17.0302 14.9738 16.7732C13.5363 15.0527 13.781 13.8545 14.2022 13.4333C14.6233 13.0124 15.8208 12.768 17.5403 14.2058C17.7973 14.4204 18.1714 14.4205 18.4283 14.2058ZM7.94863 3.46294C8.06029 3.64819 8.21438 3.79823 8.39216 3.90647L8.39396 3.90737L11.0984 5.54265L8.39396 7.17883C8.20643 7.2918 8.05659 7.44723 7.94953 7.62325L7.94863 7.62506L6.31426 10.3286L4.67988 7.62506C4.56815 7.43949 4.41284 7.28816 4.23455 7.17973L4.23365 7.17883L1.52832 5.54265L4.23365 3.90737L4.23275 3.90647C4.41521 3.79647 4.56883 3.64507 4.67898 3.46384L4.67988 3.46294L6.31426 0.758514L7.94863 3.46294ZM20.7045 1.43282C21.4703 1.43283 22.0917 2.05434 22.0919 2.82109V8.2651C22.0919 9.032 21.4704 9.65336 20.7045 9.65338H15.2623C14.4965 9.65327 13.8749 9.03196 13.8749 8.2651V2.82109C13.8751 2.05438 14.4966 1.43292 15.2623 1.43282H20.7045Z" fill="url(#paint0_linear_668_36101)"/>
<defs>
<linearGradient id="paint0_linear_668_36101" x1="11.8104" y1="0.308412" x2="11.8104" y2="21.9133" gradientUnits="userSpaceOnUse">
<stop stop-color="#FFC1CC"/>
<stop offset="1" stop-color="#FE7891"/>
</linearGradient>
</defs>
</svg>
