<svg width="24" height="24" viewBox="0 0 24 24" fill="none" xmlns="http://www.w3.org/2000/svg">
<path fill-rule="evenodd" clip-rule="evenodd" d="M10.8162 2.42592C11.3485 1.89337 12.1914 1.86029 12.7625 2.32631L12.8728 2.42592L15.2244 4.77846C15.3369 4.89101 15.3884 5.03229 15.3884 5.17104V7.00405C15.3885 7.16321 15.321 7.31984 15.2 7.4269C15.1275 7.4909 15.036 7.53785 14.9285 7.55678C14.3754 7.65346 13.8452 7.91526 13.4177 8.34292C13.1024 8.65839 12.8792 9.0305 12.7439 9.42592C12.8911 9.85666 13.1428 10.2604 13.5037 10.5929L13.5046 10.5919L13.7136 10.7667C14.7895 11.5805 16.3303 11.5199 17.3376 10.588C17.8146 10.1462 18.1043 9.583 18.2058 8.99331V10.8263C18.2061 10.8248 18.2065 10.823 18.2068 10.8214V8.99233C18.2835 8.55084 18.8307 8.38369 19.1472 8.70034V8.70131L21.4998 11.0548C21.7481 11.3032 21.8885 11.6192 21.9197 11.9435L21.9255 12.0832V13.9162C21.9255 13.9628 21.9241 14.0094 21.9197 14.0558C21.9153 14.102 21.908 14.1479 21.8992 14.1935C21.8815 14.2851 21.8555 14.3755 21.8201 14.463C21.7491 14.6385 21.642 14.8032 21.4998 14.9455L12.8738 23.5744L12.7634 23.674C12.7254 23.705 12.6865 23.7343 12.6462 23.7609C12.4045 23.9206 12.1253 24 11.8464 24.0001L11.8455 23.9992C11.4736 23.999 11.1019 23.8581 10.8181 23.5744L2.19116 14.9455C1.90738 14.6615 1.76546 14.2892 1.76538 13.9171V12.0841C1.7653 11.7118 1.90717 11.3389 2.19116 11.0548L3.74683 9.49721C3.71879 9.48586 3.6896 9.47728 3.66187 9.46499C3.49201 9.3897 3.32793 9.2971 3.17261 9.18667C3.05567 9.10353 2.94361 9.01042 2.83765 8.90737L2.73413 8.8019C2.6717 8.73468 2.61298 8.66465 2.55835 8.59292C2.17562 8.09029 1.98425 7.48393 1.98413 6.87807V5.04506C1.984 4.35293 2.23382 3.66063 2.73315 3.12221C3.82999 1.93979 5.67869 1.91322 6.80835 3.04311V3.04409L6.99585 3.25112C7.40581 3.75054 7.61926 4.35819 7.6355 4.96987C7.64184 5.20439 7.92859 5.31536 8.09448 5.14956L10.8162 2.42592ZM4.91284 10.1652L2.19116 12.8888V12.8878V12.8888L4.91382 10.1652V9.78432L4.91284 9.78335V10.1652ZM12.8181 11.4582C12.9514 11.7694 13.1422 12.0621 13.3923 12.3185C13.1422 12.0621 12.9514 11.7693 12.8181 11.4582ZM12.5896 10.3429V10.3419V10.3429ZM18.658 10.3781C18.6338 10.3822 18.6101 10.3884 18.5867 10.3957C18.54 10.41 18.4953 10.4303 18.4539 10.4562C18.6196 10.3529 18.8374 10.3378 19.0193 10.4376C18.9739 10.4127 18.9262 10.395 18.8777 10.3839C18.8531 10.3783 18.8283 10.3744 18.8035 10.3722C18.7547 10.3679 18.7057 10.3698 18.658 10.3781ZM10.9265 4.15932C10.8885 4.19033 10.8516 4.22448 10.8162 4.25991L8.09448 6.98256L10.8171 4.25991C10.8527 4.2243 10.8893 4.19047 10.9275 4.15932H10.9265ZM2.40601 5.38491C2.29296 5.56762 2.20503 5.76159 2.13745 5.96108C2.20503 5.76161 2.29296 5.5676 2.40601 5.38491ZM6.1062 4.36342C6.19056 4.40702 6.27372 4.45432 6.35425 4.50698C6.19346 4.40183 6.02399 4.31527 5.84937 4.24624L6.1062 4.36342ZM5.31128 4.09389V4.09292V4.09389ZM11.7048 3.83999H11.7058H11.7048Z" fill="url(#paint0_linear_668_33492)"/>
<path fill-rule="evenodd" clip-rule="evenodd" d="M10.8162 2.42592C11.3485 1.89337 12.1914 1.86029 12.7625 2.32631L12.8728 2.42592L15.2244 4.77846C15.3369 4.89101 15.3884 5.03229 15.3884 5.17104V7.00405C15.3885 7.16321 15.321 7.31984 15.2 7.4269C15.1275 7.4909 15.036 7.53785 14.9285 7.55678C14.3754 7.65346 13.8452 7.91526 13.4177 8.34292C13.1024 8.65839 12.8792 9.0305 12.7439 9.42592C12.8911 9.85666 13.1428 10.2604 13.5037 10.5929L13.5046 10.5919L13.7136 10.7667C14.7895 11.5805 16.3303 11.5199 17.3376 10.588C17.8146 10.1462 18.1043 9.583 18.2058 8.99331V10.8263C18.2061 10.8248 18.2065 10.823 18.2068 10.8214V8.99233C18.2835 8.55084 18.8307 8.38369 19.1472 8.70034V8.70131L21.4998 11.0548C21.7481 11.3032 21.8885 11.6192 21.9197 11.9435L21.9255 12.0832V13.9162C21.9255 13.9628 21.9241 14.0094 21.9197 14.0558C21.9153 14.102 21.908 14.1479 21.8992 14.1935C21.8815 14.2851 21.8555 14.3755 21.8201 14.463C21.7491 14.6385 21.642 14.8032 21.4998 14.9455L12.8738 23.5744L12.7634 23.674C12.7254 23.705 12.6865 23.7343 12.6462 23.7609C12.4045 23.9206 12.1253 24 11.8464 24.0001L11.8455 23.9992C11.4736 23.999 11.1019 23.8581 10.8181 23.5744L2.19116 14.9455C1.90738 14.6615 1.76546 14.2892 1.76538 13.9171V12.0841C1.7653 11.7118 1.90717 11.3389 2.19116 11.0548L3.74683 9.49721C3.71879 9.48586 3.6896 9.47728 3.66187 9.46499C3.49201 9.3897 3.32793 9.2971 3.17261 9.18667C3.05567 9.10353 2.94361 9.01042 2.83765 8.90737L2.73413 8.8019C2.6717 8.73468 2.61298 8.66465 2.55835 8.59292C2.17562 8.09029 1.98425 7.48393 1.98413 6.87807V5.04506C1.984 4.35293 2.23382 3.66063 2.73315 3.12221C3.82999 1.93979 5.67869 1.91322 6.80835 3.04311V3.04409L6.99585 3.25112C7.40581 3.75054 7.61926 4.35819 7.6355 4.96987C7.64184 5.20439 7.92859 5.31536 8.09448 5.14956L10.8162 2.42592ZM4.91284 10.1652L2.19116 12.8888V12.8878V12.8888L4.91382 10.1652V9.78432L4.91284 9.78335V10.1652ZM12.8181 11.4582C12.9514 11.7694 13.1422 12.0621 13.3923 12.3185C13.1422 12.0621 12.9514 11.7693 12.8181 11.4582ZM12.5896 10.3429V10.3419V10.3429ZM18.658 10.3781C18.6338 10.3822 18.6101 10.3884 18.5867 10.3957C18.54 10.41 18.4953 10.4303 18.4539 10.4562C18.6196 10.3529 18.8374 10.3378 19.0193 10.4376C18.9739 10.4127 18.9262 10.395 18.8777 10.3839C18.8531 10.3783 18.8283 10.3744 18.8035 10.3722C18.7547 10.3679 18.7057 10.3698 18.658 10.3781ZM10.9265 4.15932C10.8885 4.19033 10.8516 4.22448 10.8162 4.25991L8.09448 6.98256L10.8171 4.25991C10.8527 4.2243 10.8893 4.19047 10.9275 4.15932H10.9265ZM2.40601 5.38491C2.29296 5.56762 2.20503 5.76159 2.13745 5.96108C2.20503 5.76161 2.29296 5.5676 2.40601 5.38491ZM6.1062 4.36342C6.19056 4.40702 6.27372 4.45432 6.35425 4.50698C6.19346 4.40183 6.02399 4.31527 5.84937 4.24624L6.1062 4.36342ZM5.31128 4.09389V4.09292V4.09389ZM11.7048 3.83999H11.7058H11.7048Z" fill="#98B9F3"/>
<path d="M13.5046 10.592C14.5813 11.5844 16.263 11.5822 17.3375 10.5882C17.8146 10.1463 18.1046 9.58264 18.2061 8.99277C18.2826 8.55091 18.8302 8.38377 19.1469 8.70056L21.5001 11.0546C22.0679 11.6226 22.0679 12.5435 21.5001 13.1115L12.874 21.7407C12.3062 22.3087 11.3857 22.3087 10.8178 21.7407L2.19125 13.1121C1.62342 12.544 1.62342 11.6232 2.19125 11.0552L4.91354 8.33189C5.08061 8.16476 4.96704 7.8791 4.73118 7.87255C4.00065 7.85289 3.27613 7.55139 2.73451 6.96807C1.73481 5.89155 1.73426 4.19893 2.73341 3.12186C3.8303 1.93937 5.67846 1.9137 6.80811 3.04375C7.34099 3.57683 7.61672 4.27048 7.63528 4.96959C7.64129 5.20445 7.92847 5.31532 8.09445 5.14928L10.8167 2.42602C11.3846 1.85799 12.3051 1.85799 12.8729 2.42602L15.2245 4.77843C15.5433 5.0974 15.3725 5.64467 14.928 5.72278C14.3749 5.81945 13.8453 6.08162 13.4178 6.50928C12.2854 7.64206 12.3138 9.49635 13.5035 10.5925L13.5046 10.592Z" fill="#8EE3B2"/>
<path d="M13.5046 10.592C14.5813 11.5844 16.263 11.5822 17.3375 10.5882C17.8146 10.1463 18.1046 9.58264 18.2061 8.99277C18.2826 8.55091 18.8302 8.38377 19.1469 8.70056L21.5001 11.0546C22.0679 11.6226 22.0679 12.5435 21.5001 13.1115L12.874 21.7407C12.3062 22.3087 11.3857 22.3087 10.8178 21.7407L2.19125 13.1121C1.62342 12.544 1.62342 11.6232 2.19125 11.0552L4.91354 8.33189C5.08061 8.16476 4.96704 7.8791 4.73118 7.87255C4.00065 7.85289 3.27613 7.55139 2.73451 6.96807C1.73481 5.89155 1.73426 4.19893 2.73341 3.12186C3.8303 1.93937 5.67846 1.9137 6.80811 3.04375C7.34099 3.57683 7.61672 4.27048 7.63528 4.96959C7.64129 5.20445 7.92847 5.31532 8.09445 5.14928L10.8167 2.42602C11.3846 1.85799 12.3051 1.85799 12.8729 2.42602L15.2245 4.77843C15.5433 5.0974 15.3725 5.64467 14.928 5.72278C14.3749 5.81945 13.8453 6.08162 13.4178 6.50928C12.2854 7.64206 12.3138 9.49635 13.5035 10.5925L13.5046 10.592Z" fill="#2A63C6"/>
<path d="M11.4648 3.07408C11.6746 2.86418 12.0149 2.86418 12.2248 3.07408L14.1396 4.98888C13.6394 5.17035 13.17 5.46064 12.7699 5.86079C11.2709 7.36032 11.3083 9.81519 12.8827 11.2659C12.8857 11.2687 12.8896 11.2704 12.8926 11.2731C14.3213 12.5817 16.5379 12.5764 17.9602 11.2606L18.1849 11.0341C18.5243 10.6626 18.7745 10.2377 18.9378 9.78797L20.8517 11.7028C21.0615 11.9128 21.0615 12.2528 20.8517 12.4628L12.2257 21.0924C12.0159 21.3021 11.6764 21.302 11.4665 21.0924L2.83963 12.4637C2.62963 12.2536 2.62963 11.9129 2.83963 11.7028L5.56189 8.97962C6.27288 8.26832 5.8289 7.06294 4.8529 6.96187L4.75622 6.9556C4.26195 6.9423 3.77355 6.73967 3.40628 6.34419C2.73303 5.6192 2.73257 4.46985 3.40539 3.74457C4.14739 2.94483 5.39633 2.92794 6.15988 3.69176C6.51945 4.05155 6.70541 4.51799 6.71847 4.99157C6.74574 6.05802 8.0258 6.51378 8.74249 5.79723L11.4648 3.07408Z" fill="#8EE3B2"/>
<path d="M11.4648 3.07408C11.6746 2.86418 12.0149 2.86418 12.2248 3.07408L14.1396 4.98888C13.6394 5.17035 13.17 5.46064 12.7699 5.86079C11.2709 7.36032 11.3083 9.81519 12.8827 11.2659C12.8857 11.2687 12.8896 11.2704 12.8926 11.2731C14.3213 12.5817 16.5379 12.5764 17.9602 11.2606L18.1849 11.0341C18.5243 10.6626 18.7745 10.2377 18.9378 9.78797L20.8517 11.7028C21.0615 11.9128 21.0615 12.2528 20.8517 12.4628L12.2257 21.0924C12.0159 21.3021 11.6764 21.302 11.4665 21.0924L2.83963 12.4637C2.62963 12.2536 2.62963 11.9129 2.83963 11.7028L5.56189 8.97962C6.27288 8.26832 5.8289 7.06294 4.8529 6.96187L4.75622 6.9556C4.26195 6.9423 3.77355 6.73967 3.40628 6.34419C2.73303 5.6192 2.73257 4.46985 3.40539 3.74457C4.14739 2.94483 5.39633 2.92794 6.15988 3.69176C6.51945 4.05155 6.70541 4.51799 6.71847 4.99157C6.74574 6.05802 8.0258 6.51378 8.74249 5.79723L11.4648 3.07408Z" fill="url(#paint1_linear_668_33492)"/>
<defs>
<linearGradient id="paint0_linear_668_33492" x1="12.874" y1="22.8704" x2="10.8178" y2="22.8704" gradientUnits="userSpaceOnUse">
<stop stop-color="#CCF6ED"/>
<stop offset="0.5" stop-color="#73DC9F"/>
<stop offset="1" stop-color="#22BA28"/>
</linearGradient>
<linearGradient id="paint1_linear_668_33492" x1="11.8456" y1="2.91666" x2="11.8456" y2="21.2496" gradientUnits="userSpaceOnUse">
<stop stop-color="#C3D9FE"/>
<stop offset="1" stop-color="#7DA4E7"/>
</linearGradient>
</defs>
</svg>
