<svg width="24" height="25" viewBox="0 0 24 25" fill="none" xmlns="http://www.w3.org/2000/svg">
<path d="M18.7647 22.8033C18.739 23.1721 18.4128 23.4773 18.0084 23.4491L4.52329 22.5061C4.11893 22.4778 3.83844 22.1303 3.86415 21.7616C3.86961 21.6832 3.88893 21.6039 3.92384 21.5264L4.66283 19.886C4.99973 19.1389 5.73504 18.6535 6.55098 18.6188C6.55098 18.6188 6.5796 18.2096 6.60821 17.8004C6.63683 17.3912 6.66544 16.982 6.66544 16.982C6.68045 16.1429 6.99939 15.3133 7.60879 14.6627L10.2708 11.8196L11.3773 11.5766C12.4028 11.3513 13.2676 10.6793 13.7288 9.75041L14.0413 9.12091C14.0481 9.10722 14.0517 9.09375 14.0526 9.08085C14.0589 8.99178 13.9372 8.92972 13.8685 9.01016L13.2981 9.68104C12.8164 10.2478 12.0867 10.5527 11.3367 10.5002L9.99224 10.4062C9.61617 10.3799 9.24089 10.4115 8.8796 10.4976C8.51777 10.5837 8.16992 10.7243 7.8481 10.9166C7.142 11.3388 6.22509 11.1676 5.72265 10.5198L4.87167 9.42119C4.71177 9.21474 4.64343 8.96789 4.66017 8.72794C4.68007 8.44255 4.82032 8.16692 5.06998 7.98066L8.74697 5.23986L9.44094 4.11988C9.65542 3.77419 10.0484 3.57465 10.4599 3.60342L11.9663 3.70877C11.9663 3.70877 11.9838 3.45804 12.0014 3.20732C12.0189 2.9566 12.0364 2.70588 12.0364 2.70588C12.0473 2.55017 12.121 2.4137 12.2322 2.3191C12.3532 2.21565 12.5182 2.16141 12.6927 2.18687C12.8331 2.2073 12.9593 2.28243 13.0528 2.38762L14.7773 4.33921C16.4531 5.11411 17.7562 6.57053 18.2555 8.39666C18.4229 9.00933 18.5047 9.67383 18.4551 10.3843C18.4551 10.3843 18.3382 12.0552 18.2214 13.726C18.1046 15.3969 17.9877 17.0678 17.9877 17.0678C17.9366 17.7983 17.5282 18.4582 16.8925 18.8376L16.1577 19.2763L16.2929 19.2857C17.206 19.3496 17.9822 19.9687 18.2348 20.8351L18.7383 22.5623C18.7621 22.6438 18.7702 22.725 18.7647 22.8033Z" fill="#C3D9FE"/>
<path d="M12.7736 1.03139C12.5991 1.00592 12.4341 1.06016 12.3131 1.16362L12.2324 2.31864C12.3534 2.21519 12.5184 2.16095 12.6929 2.18641L12.7736 1.03139Z" fill="url(#paint0_linear_640_25034)"/>
<path d="M13.1333 1.23221C13.0398 1.12702 12.9136 1.05189 12.7732 1.03146L12.6924 2.18649C12.8328 2.20691 12.9591 2.28205 13.0525 2.38724L13.1333 1.23221Z" fill="url(#paint1_linear_640_25034)"/>
<path d="M12.3132 1.16351C12.202 1.2581 12.1283 1.39457 12.1174 1.55028L12.0366 2.70531C12.0475 2.5496 12.1212 2.41313 12.2324 2.31853L12.3132 1.16351Z" fill="url(#paint2_linear_640_25034)"/>
<path d="M14.8583 3.18413L13.1338 1.23254L13.053 2.38757L14.7776 4.33916L14.8583 3.18413Z" fill="url(#paint3_linear_640_25034)"/>
<path d="M12.047 2.55372L10.5405 2.44838L10.4598 3.60341L11.9662 3.70875L12.047 2.55372Z" fill="url(#paint4_linear_640_25034)"/>
<path d="M10.5408 2.44838C10.1293 2.41961 9.73633 2.61915 9.52185 2.96483L9.44108 4.11986C9.65556 3.77417 10.0485 3.57463 10.46 3.60341L10.5408 2.44838Z" fill="url(#paint5_linear_640_25034)"/>
<path d="M9.5216 2.96488L8.82762 4.08487L8.74686 5.23989L9.44083 4.11991L9.5216 2.96488Z" fill="url(#paint6_linear_640_25034)"/>
<path d="M18.3363 7.24205C17.837 5.41592 16.534 3.9595 14.8582 3.1846L14.7774 4.33963C16.4532 5.11453 17.7563 6.57094 18.2556 8.39708L18.3363 7.24205Z" fill="url(#paint7_linear_640_25034)"/>
<path d="M8.82799 4.0847L5.151 6.82549L5.07024 7.98052L8.74722 5.23972L8.82799 4.0847Z" fill="url(#paint8_linear_640_25034)"/>
<path d="M5.15074 6.82647C4.90108 7.01273 4.76083 7.28836 4.74093 7.57375L4.66019 8.7284C4.68019 8.44315 4.82042 8.16768 5.06997 7.9815L5.15074 6.82647Z" fill="url(#paint9_linear_640_25034)"/>
<path d="M13.9494 7.85525C14.0181 7.77481 14.1398 7.83687 14.1336 7.92593L14.0528 9.08095C14.059 8.99189 13.9374 8.92984 13.8686 9.01028L13.9494 7.85525Z" fill="url(#paint10_linear_640_25034)"/>
<path d="M18.536 9.22915C18.5857 8.51869 18.5038 7.85419 18.3364 7.24152L18.2557 8.39654C18.4231 9.00921 18.5049 9.67371 18.4552 10.3842L18.536 9.22915Z" fill="url(#paint11_linear_640_25034)"/>
<path d="M14.1335 7.92572C14.1326 7.93862 14.129 7.95209 14.1222 7.96578L14.0414 9.12081C14.0482 9.10712 14.0518 9.09365 14.0527 9.08075L14.1335 7.92572Z" fill="url(#paint12_linear_640_25034)"/>
<path d="M13.3788 8.52627L13.9491 7.8554L13.8684 9.01042L13.298 9.6813L13.3788 8.52627Z" fill="url(#paint13_linear_640_25034)"/>
<path d="M14.1219 7.96618L13.8094 8.59568L13.7286 9.75071L14.0411 9.1212L14.1219 7.96618Z" fill="url(#paint14_linear_640_25034)"/>
<path d="M4.74097 7.57312C4.72423 7.81307 4.79257 8.05993 4.95247 8.26638L4.8717 9.4214C4.7118 9.21495 4.64347 8.9681 4.6602 8.72815L4.74097 7.57312Z" fill="url(#paint15_linear_640_25034)"/>
<path d="M11.4176 9.34541C12.1676 9.39786 12.8973 9.09297 13.379 8.52622L13.2982 9.68125C12.8165 10.248 12.0868 10.5529 11.3368 10.5004L11.4176 9.34541Z" fill="url(#paint16_linear_640_25034)"/>
<path d="M4.95239 8.2663L5.80338 9.36489L5.72261 10.5199L4.87163 9.42132L4.95239 8.2663Z" fill="url(#paint17_linear_640_25034)"/>
<path d="M10.0732 9.25072L11.4177 9.34473L11.3369 10.4998L9.99247 10.4057L10.0732 9.25072Z" fill="url(#paint18_linear_640_25034)"/>
<path d="M13.8099 8.59495C13.3487 9.52381 12.4839 10.1958 11.4584 10.4212L11.3776 11.5762C12.4031 11.3509 13.268 10.6788 13.7292 9.74998L13.8099 8.59495Z" fill="url(#paint19_linear_640_25034)"/>
<path d="M8.96039 9.343C9.32169 9.25688 9.69696 9.2253 10.073 9.2516L9.99227 10.4066C9.61619 10.3803 9.24092 10.4119 8.87963 10.498L8.96039 9.343Z" fill="url(#paint20_linear_640_25034)"/>
<path d="M7.92896 9.76154C8.25077 9.56923 8.59863 9.42859 8.96046 9.34251L8.87969 10.4975C8.51786 10.5836 8.17001 10.7243 7.84819 10.9166L7.92896 9.76154Z" fill="url(#paint21_linear_640_25034)"/>
<path d="M5.80371 9.36406C6.30615 10.0118 7.22305 10.1831 7.92916 9.76092L7.84839 10.9159C7.14229 11.3381 6.22538 11.1669 5.72294 10.5191L5.80371 9.36406Z" fill="url(#paint22_linear_640_25034)"/>
<path d="M11.4583 10.4208L10.3517 10.6638L10.271 11.8188L11.3775 11.5758L11.4583 10.4208Z" fill="url(#paint23_linear_640_25034)"/>
<path d="M10.3516 10.6646L7.6896 13.5077L7.60883 14.6627L10.2708 11.8197L10.3516 10.6646Z" fill="url(#paint24_linear_640_25034)"/>
<path d="M6.7464 15.8273C6.76141 14.9881 7.08035 14.1586 7.68975 13.5079L7.60899 14.663C7.08697 15.2203 6.77809 15.9089 6.6908 16.6224L6.66564 16.9823C6.66779 16.862 6.67619 16.7418 6.6908 16.6224L6.7464 15.8273Z" fill="url(#paint25_linear_640_25034)"/>
<path d="M16.9733 17.6824C17.609 17.303 18.0175 16.6431 18.0686 15.9126L17.9878 17.0676C17.9367 17.7982 17.5283 18.4581 16.8926 18.8374L16.9733 17.6824Z" fill="url(#paint26_linear_640_25034)"/>
<path d="M16.2386 18.1215L16.9734 17.6828L16.8926 18.8378L16.1578 19.2765L16.2386 18.1215Z" fill="url(#paint27_linear_640_25034)"/>
<path d="M16.3737 18.1308L16.2385 18.1213L16.1578 19.2764L16.293 19.2858L16.3737 18.1308Z" fill="url(#paint28_linear_640_25034)"/>
<path d="M18.3157 19.6801C18.063 18.8138 17.2869 18.1946 16.3738 18.1308L16.293 19.2858C17.2061 19.3496 17.9823 19.9688 18.2349 20.8351L18.3157 19.6801Z" fill="url(#paint29_linear_640_25034)"/>
<path d="M6.63185 17.4639C5.81591 17.4986 5.08059 17.984 4.7437 18.7311L4.66293 19.8861C4.99982 19.139 5.73514 18.6536 6.55108 18.6189L6.63185 17.4639Z" fill="url(#paint30_linear_640_25034)"/>
<path d="M4.74381 18.7308L4.00482 20.3712L3.92405 21.5262L4.66304 19.8859L4.74381 18.7308Z" fill="url(#paint31_linear_640_25034)"/>
<path d="M18.8189 21.4071L18.3154 19.6799L18.2347 20.8349L18.7382 22.5621L18.8189 21.4071Z" fill="url(#paint32_linear_640_25034)"/>
<path d="M18.8452 21.6484C18.8507 21.5701 18.8426 21.4889 18.8188 21.4074L18.7381 22.5625C18.7618 22.6439 18.7699 22.7251 18.7645 22.8034L18.8452 21.6484Z" fill="url(#paint33_linear_640_25034)"/>
<path d="M4.0047 20.3715C3.96979 20.449 3.95048 20.5283 3.94501 20.6067L3.86426 21.7615C3.86975 21.6832 3.88906 21.6039 3.92394 21.5266L4.0047 20.3715Z" fill="url(#paint34_linear_640_25034)"/>
<path d="M18.0893 22.2938C18.4937 22.322 18.8198 22.017 18.8457 21.6483L18.7649 22.803C18.7392 23.1718 18.413 23.4771 18.0086 23.4488L18.0893 22.2938Z" fill="url(#paint35_linear_640_25034)"/>
<path d="M3.94482 20.606C3.91911 20.9748 4.1996 21.3222 4.60396 21.3505L4.5232 22.5055C4.11884 22.4773 3.83835 22.1298 3.86406 21.7611L3.94482 20.606Z" fill="url(#paint36_linear_640_25034)"/>
<path d="M4.604 21.3512L18.0891 22.2941L18.0083 23.4492L4.52324 22.5062L4.604 21.3512Z" fill="url(#paint37_linear_640_25034)"/>
<mask id="path-40-outside-1_640_25034" maskUnits="userSpaceOnUse" x="2.63339" y="-0.563353" width="18.6327" height="25.1274" fill="black">
<rect fill="white" x="2.63339" y="-0.563353" width="18.6327" height="25.1274"/>
<path fill-rule="evenodd" clip-rule="evenodd" d="M12.7735 1.03179C12.9137 1.05225 13.0401 1.12712 13.1335 1.23219L13.1334 1.23317L14.8589 3.18446C16.4298 3.91103 17.673 5.23705 18.2336 6.90451L18.3363 7.24257C18.5037 7.85518 18.5857 8.51971 18.536 9.2301L17.9879 17.0684C17.9512 17.592 17.7293 18.078 17.3733 18.4517C17.821 18.7269 18.164 19.1587 18.3162 19.6807L18.3161 19.6826L18.8191 21.4074L18.8428 21.5295L18.8453 21.6491L18.7645 22.8045C18.758 22.8966 18.7329 22.9848 18.6924 23.0647C18.6721 23.1047 18.6483 23.1429 18.6209 23.1782C18.5109 23.3198 18.3465 23.4198 18.1558 23.4452L18.0086 23.4496L4.52301 22.5066L4.3779 22.4818C4.33169 22.4689 4.28769 22.4516 4.24639 22.4305C4.12214 22.367 4.02144 22.2693 3.95452 22.1526C3.88764 22.0362 3.85483 21.9007 3.86432 21.7626L3.94511 20.6072L3.96414 20.4891C3.97401 20.4498 3.98722 20.4102 4.00467 20.3715L4.0046 20.3725L4.74391 18.7316L4.81126 18.5943C5.17262 17.9253 5.86692 17.4962 6.63187 17.4637L6.66553 16.9825C6.66731 16.8828 6.67409 16.7833 6.68442 16.6842C6.6854 16.6748 6.68632 16.6654 6.68737 16.656C6.68861 16.645 6.68932 16.634 6.69066 16.623L6.74632 15.8271C6.76143 14.9881 7.0804 14.1589 7.68966 13.5083L10.3515 10.6646L11.1568 10.4879L9.99269 10.4065C9.61675 10.3803 9.24126 10.412 8.88008 10.4981C8.51825 10.5842 8.17014 10.7251 7.84832 10.9174L7.7131 10.9892C7.43946 11.1198 7.14175 11.1684 6.8528 11.1405C6.80467 11.1358 6.75685 11.1285 6.70937 11.1197C6.6142 11.1019 6.52072 11.0757 6.42997 11.0414C6.29398 10.9901 6.16431 10.9205 6.0451 10.8334C5.92582 10.7462 5.81666 10.6416 5.72242 10.5201L4.87117 9.42189C4.71139 9.21558 4.64362 8.96851 4.66022 8.72872L4.74094 7.57432C4.76084 7.28897 4.90095 7.01292 5.15054 6.82665L5.15061 6.82568L8.82729 4.08524L9.52139 2.96491C9.73582 2.6193 10.129 2.42013 10.5403 2.4488L12.0474 2.55418L12.1176 1.55077C12.1285 1.39519 12.2019 1.25863 12.313 1.16405L12.3129 1.16502C12.4339 1.06158 12.599 1.00733 12.7735 1.03276L12.7735 1.03179ZM6.80491 16.0671C6.75152 16.2492 6.7136 16.4355 6.69066 16.623C6.68975 16.6304 6.68996 16.638 6.6891 16.6454C6.71166 16.4502 6.74938 16.2566 6.80491 16.0671ZM6.89843 15.7937C6.87469 15.8552 6.85366 15.9175 6.83352 15.98C6.85365 15.9175 6.87469 15.8552 6.89843 15.7937ZM7.02401 15.5097C6.99596 15.5666 6.97015 15.6243 6.94537 15.6824C6.97014 15.6243 6.99597 15.5667 7.02401 15.5097ZM7.16536 15.2524C7.13352 15.3052 7.10271 15.3583 7.07389 15.4124C7.10271 15.3583 7.13352 15.3052 7.16536 15.2524ZM18.4109 9.15674C18.4316 9.30389 18.4483 9.45334 18.4579 9.60544C18.4483 9.45334 18.4316 9.30389 18.4109 9.15674Z"/>
</mask>
<path fill-rule="evenodd" clip-rule="evenodd" d="M12.7735 1.03179C12.9137 1.05225 13.0401 1.12712 13.1335 1.23219L13.1334 1.23317L14.8589 3.18446C16.4298 3.91103 17.673 5.23705 18.2336 6.90451L18.3363 7.24257C18.5037 7.85518 18.5857 8.51971 18.536 9.2301L17.9879 17.0684C17.9512 17.592 17.7293 18.078 17.3733 18.4517C17.821 18.7269 18.164 19.1587 18.3162 19.6807L18.3161 19.6826L18.8191 21.4074L18.8428 21.5295L18.8453 21.6491L18.7645 22.8045C18.758 22.8966 18.7329 22.9848 18.6924 23.0647C18.6721 23.1047 18.6483 23.1429 18.6209 23.1782C18.5109 23.3198 18.3465 23.4198 18.1558 23.4452L18.0086 23.4496L4.52301 22.5066L4.3779 22.4818C4.33169 22.4689 4.28769 22.4516 4.24639 22.4305C4.12214 22.367 4.02144 22.2693 3.95452 22.1526C3.88764 22.0362 3.85483 21.9007 3.86432 21.7626L3.94511 20.6072L3.96414 20.4891C3.97401 20.4498 3.98722 20.4102 4.00467 20.3715L4.0046 20.3725L4.74391 18.7316L4.81126 18.5943C5.17262 17.9253 5.86692 17.4962 6.63187 17.4637L6.66553 16.9825C6.66731 16.8828 6.67409 16.7833 6.68442 16.6842C6.6854 16.6748 6.68632 16.6654 6.68737 16.656C6.68861 16.645 6.68932 16.634 6.69066 16.623L6.74632 15.8271C6.76143 14.9881 7.0804 14.1589 7.68966 13.5083L10.3515 10.6646L11.1568 10.4879L9.99269 10.4065C9.61675 10.3803 9.24126 10.412 8.88008 10.4981C8.51825 10.5842 8.17014 10.7251 7.84832 10.9174L7.7131 10.9892C7.43946 11.1198 7.14175 11.1684 6.8528 11.1405C6.80467 11.1358 6.75685 11.1285 6.70937 11.1197C6.6142 11.1019 6.52072 11.0757 6.42997 11.0414C6.29398 10.9901 6.16431 10.9205 6.0451 10.8334C5.92582 10.7462 5.81666 10.6416 5.72242 10.5201L4.87117 9.42189C4.71139 9.21558 4.64362 8.96851 4.66022 8.72872L4.74094 7.57432C4.76084 7.28897 4.90095 7.01292 5.15054 6.82665L5.15061 6.82568L8.82729 4.08524L9.52139 2.96491C9.73582 2.6193 10.129 2.42013 10.5403 2.4488L12.0474 2.55418L12.1176 1.55077C12.1285 1.39519 12.2019 1.25863 12.313 1.16405L12.3129 1.16502C12.4339 1.06158 12.599 1.00733 12.7735 1.03276L12.7735 1.03179ZM6.80491 16.0671C6.75152 16.2492 6.7136 16.4355 6.69066 16.623C6.68975 16.6304 6.68996 16.638 6.6891 16.6454C6.71166 16.4502 6.74938 16.2566 6.80491 16.0671ZM6.89843 15.7937C6.87469 15.8552 6.85366 15.9175 6.83352 15.98C6.85365 15.9175 6.87469 15.8552 6.89843 15.7937ZM7.02401 15.5097C6.99596 15.5666 6.97015 15.6243 6.94537 15.6824C6.97014 15.6243 6.99597 15.5667 7.02401 15.5097ZM7.16536 15.2524C7.13352 15.3052 7.10271 15.3583 7.07389 15.4124C7.10271 15.3583 7.13352 15.3052 7.16536 15.2524ZM18.4109 9.15674C18.4316 9.30389 18.4483 9.45334 18.4579 9.60544C18.4483 9.45334 18.4316 9.30389 18.4109 9.15674Z" fill="#98B9F3"/>
<path d="M12.7735 1.03179L12.8728 0.351516C12.6835 0.323898 12.4913 0.376394 12.3423 0.496385C12.1933 0.616376 12.1011 0.793011 12.0877 0.983834L12.7735 1.03179ZM13.1335 1.23219L13.8193 1.28015C13.8322 1.09563 13.7702 0.913691 13.6473 0.775445L13.1335 1.23219ZM13.1334 1.23317L12.4476 1.18521C12.4347 1.36911 12.4963 1.55048 12.6184 1.68858L13.1334 1.23317ZM14.8589 3.18446L14.3439 3.63987C14.4069 3.71111 14.484 3.7685 14.5703 3.80843L14.8589 3.18446ZM18.2336 6.90451L18.8914 6.70478C18.8895 6.6983 18.8874 6.69185 18.8853 6.68544L18.2336 6.90451ZM18.3363 7.24257L18.9994 7.06137C18.9977 7.05517 18.996 7.04899 18.9941 7.04284L18.3363 7.24257ZM18.536 9.2301L19.2218 9.27805L19.2218 9.27803L18.536 9.2301ZM17.9879 17.0684L18.6737 17.1164L18.6737 17.1163L17.9879 17.0684ZM17.3733 18.4517L16.8755 17.9775C16.7324 18.1278 16.6648 18.3346 16.6916 18.5404C16.7183 18.7461 16.8366 18.9288 17.0134 19.0374L17.3733 18.4517ZM18.3162 19.6807L19.002 19.7286C19.0077 19.6476 18.999 19.5662 18.9762 19.4882L18.3162 19.6807ZM18.3161 19.6826L17.6303 19.6346C17.6246 19.7157 17.6334 19.7971 17.6561 19.8751L18.3161 19.6826ZM18.8191 21.4074L19.4939 21.276C19.4899 21.2555 19.4849 21.2351 19.4791 21.215L18.8191 21.4074ZM18.8428 21.5295L19.5302 21.5157C19.5294 21.4762 19.5252 21.4369 19.5177 21.3981L18.8428 21.5295ZM18.8453 21.6491L19.5311 21.6971C19.5325 21.6765 19.533 21.6559 19.5326 21.6353L18.8453 21.6491ZM18.7645 22.8045L19.4502 22.8526L19.4503 22.8524L18.7645 22.8045ZM18.6924 23.0647L19.3055 23.3759L19.3057 23.3754L18.6924 23.0647ZM18.6209 23.1782L18.0781 22.7562L18.0779 22.7566L18.6209 23.1782ZM18.1558 23.4452L18.1763 24.1324C18.1998 24.1317 18.2232 24.1298 18.2465 24.1267L18.1558 23.4452ZM18.0086 23.4496L17.9607 24.1354C17.9835 24.137 18.0063 24.1375 18.0292 24.1368L18.0086 23.4496ZM4.52301 22.5066L4.40705 23.1843C4.42957 23.1881 4.45226 23.1908 4.47505 23.1924L4.52301 22.5066ZM4.3779 22.4818L4.19323 23.144C4.21586 23.1503 4.23879 23.1555 4.26194 23.1594L4.3779 22.4818ZM4.24639 22.4305L3.93374 23.0428L3.93384 23.0428L4.24639 22.4305ZM3.95452 22.1526L4.55083 21.8105L4.5507 21.8103L3.95452 22.1526ZM3.86432 21.7626L3.17852 21.7146L3.17846 21.7154L3.86432 21.7626ZM3.94511 20.6072L3.26639 20.4978C3.26311 20.5182 3.26075 20.5387 3.25931 20.5592L3.94511 20.6072ZM3.96414 20.4891L3.29738 20.3216C3.29256 20.3408 3.28856 20.3602 3.28541 20.3797L3.96414 20.4891ZM4.00467 20.3715L4.69047 20.4195C4.7137 20.0872 4.49547 19.7861 4.17251 19.7048C3.84955 19.6235 3.51476 19.7854 3.37791 20.089L4.00467 20.3715ZM4.0046 20.3725L3.3188 20.3245C3.29556 20.6568 3.51382 20.9579 3.8368 21.0392C4.15979 21.1205 4.49458 20.9585 4.63139 20.6549L4.0046 20.3725ZM4.74391 18.7316L4.12675 18.4287C4.12343 18.4355 4.12021 18.4423 4.11711 18.4492L4.74391 18.7316ZM4.81126 18.5943L4.20637 18.2677C4.20213 18.2755 4.19804 18.2834 4.19411 18.2915L4.81126 18.5943ZM6.63187 17.4637L6.66109 18.1506C7.01064 18.1357 7.29327 17.8607 7.31768 17.5117L6.63187 17.4637ZM6.66553 16.9825L7.35133 17.0304C7.35216 17.0186 7.35268 17.0067 7.35289 16.9948L6.66553 16.9825ZM6.68442 16.6842L7.36819 16.7555L7.3682 16.7555L6.68442 16.6842ZM6.68737 16.656L6.00421 16.5792L6.0042 16.5792L6.68737 16.656ZM6.74632 15.8271L7.43212 15.875C7.43295 15.8632 7.43347 15.8513 7.43368 15.8395L6.74632 15.8271ZM7.68966 13.5083L8.19143 13.9783L8.19156 13.9781L7.68966 13.5083ZM10.3515 10.6646L10.2042 9.99312C10.0683 10.0229 9.94471 10.0933 9.84964 10.1948L10.3515 10.6646ZM11.1568 10.4879L11.3042 11.1595C11.6381 11.0862 11.8674 10.7787 11.8425 10.4378C11.8175 10.0968 11.5458 9.82599 11.2048 9.80215L11.1568 10.4879ZM9.99269 10.4065L9.94474 11.0923L9.99269 10.4065ZM8.88008 10.4981L9.0392 11.1669L9.03942 11.1669L8.88008 10.4981ZM7.84832 10.9174L8.17072 11.5246C8.18095 11.5191 8.19104 11.5135 8.20098 11.5075L7.84832 10.9174ZM7.7131 10.9892L8.00919 11.6096C8.01805 11.6054 8.02682 11.601 8.0355 11.5964L7.7131 10.9892ZM6.8528 11.1405L6.78654 11.8248L6.78659 11.8248L6.8528 11.1405ZM6.70937 11.1197L6.83543 10.4439L6.8354 10.4439L6.70937 11.1197ZM6.42997 11.0414L6.1871 11.6846L6.18712 11.6846L6.42997 11.0414ZM6.0451 10.8334L6.45083 10.2784L6.45083 10.2784L6.0451 10.8334ZM5.72242 10.5201L5.17906 10.9413L5.1792 10.9414L5.72242 10.5201ZM4.87117 9.42189L4.32765 9.84285L4.32782 9.84306L4.87117 9.42189ZM4.66022 8.72872L3.97442 8.68077L3.97438 8.68124L4.66022 8.72872ZM4.74094 7.57432L5.42675 7.62227L5.42676 7.62214L4.74094 7.57432ZM5.15054 6.82665L5.56171 7.37762C5.72211 7.25792 5.82238 7.07426 5.83634 6.87461L5.15054 6.82665ZM5.15061 6.82568L4.73976 6.27447C4.57918 6.39416 4.47878 6.57793 4.46481 6.77772L5.15061 6.82568ZM8.82729 4.08524L9.23814 4.63645C9.30735 4.58486 9.36623 4.5207 9.4117 4.44731L8.82729 4.08524ZM9.52139 2.96491L8.93722 2.60247L8.93698 2.60285L9.52139 2.96491ZM10.5403 2.4488L10.5883 1.763L10.5881 1.76298L10.5403 2.4488ZM12.0474 2.55418L11.9995 3.23999C12.1813 3.2527 12.3608 3.19265 12.4984 3.07303C12.636 2.95341 12.7205 2.78403 12.7332 2.60214L12.0474 2.55418ZM12.1176 1.55077L11.4318 1.50282L12.1176 1.55077ZM12.313 1.16405L12.9988 1.21201C13.0181 0.93588 12.8699 0.675107 12.6228 0.550354C12.3757 0.425601 12.0779 0.461204 11.8672 0.640688L12.313 1.16405ZM12.3129 1.16502L11.6271 1.11707C11.6078 1.39344 11.7562 1.6544 12.0037 1.77902C12.2511 1.90364 12.5492 1.86757 12.7597 1.68752L12.3129 1.16502ZM12.7735 1.03276L12.6743 1.71305C12.8636 1.74064 13.0558 1.68813 13.2047 1.56814C13.3537 1.44815 13.4459 1.27153 13.4593 1.08072L12.7735 1.03276ZM6.80491 16.0671L7.46464 16.2605C7.57142 15.8961 7.36264 15.5142 6.99829 15.4074C6.63395 15.3006 6.25201 15.5094 6.1452 15.8737L6.80491 16.0671ZM6.6891 16.6454L6.00617 16.5664C5.96256 16.9436 6.23295 17.2847 6.61011 17.3283C6.98727 17.3719 7.32838 17.1016 7.37202 16.7244L6.6891 16.6454ZM6.89843 15.7937L7.53979 16.0412C7.67651 15.687 7.50022 15.2891 7.14603 15.1523C6.79183 15.0156 6.39385 15.1919 6.2571 15.5461L6.89843 15.7937ZM6.83352 15.98L6.17913 15.7693C6.06276 16.1307 6.26139 16.518 6.62279 16.6344C6.98419 16.7508 7.3715 16.5522 7.4879 16.1908L6.83352 15.98ZM7.02401 15.5097L7.64067 15.8137C7.80851 15.4731 7.6685 15.0609 7.32794 14.8931C6.98738 14.7252 6.57524 14.8652 6.40738 15.2058L7.02401 15.5097ZM6.94537 15.6824L6.31302 15.4127C6.16405 15.7619 6.32638 16.1658 6.67561 16.3148C7.02483 16.4637 7.42871 16.3014 7.5777 15.9522L6.94537 15.6824ZM7.16536 15.2524L7.75416 15.6073C7.95015 15.2821 7.84543 14.8596 7.52026 14.6636C7.19508 14.4676 6.77259 14.5723 6.57658 14.8975L7.16536 15.2524ZM7.07389 15.4124L6.46712 15.0892C6.28863 15.4243 6.41559 15.8407 6.7507 16.0192C7.0858 16.1977 7.50215 16.0707 7.68065 15.7356L7.07389 15.4124ZM18.4109 9.15674L19.0917 9.06117C19.0389 8.68519 18.6914 8.42318 18.3154 8.47593C17.9394 8.52869 17.6774 8.87624 17.7301 9.25223L18.4109 9.15674ZM18.4579 9.60544L17.7718 9.64867C17.7956 10.0276 18.1221 10.3154 18.5011 10.2916C18.88 10.2677 19.1678 9.94123 19.144 9.56231L18.4579 9.60544ZM12.7735 1.03179L12.6743 1.71207C12.6546 1.70919 12.6406 1.70316 12.6324 1.69853C12.6245 1.69409 12.6209 1.69037 12.6197 1.68894L13.1335 1.23219L13.6473 0.775445C13.4601 0.564827 13.1925 0.398167 12.8728 0.351516L12.7735 1.03179ZM13.1335 1.23219L12.4477 1.18424L12.4476 1.18521L13.1334 1.23317L13.8192 1.28112L13.8193 1.28015L13.1335 1.23219ZM13.1334 1.23317L12.6184 1.68858L14.3439 3.63987L14.8589 3.18446L15.3739 2.72905L13.6484 0.777755L13.1334 1.23317ZM14.8589 3.18446L14.5703 3.80843C15.979 4.45998 17.0848 5.64476 17.582 7.12358L18.2336 6.90451L18.8853 6.68544C18.2613 4.82934 16.8806 3.36208 15.1475 2.56049L14.8589 3.18446ZM18.2336 6.90451L17.5758 7.10424L17.6784 7.44231L18.3363 7.24257L18.9941 7.04284L18.8914 6.70478L18.2336 6.90451ZM18.3363 7.24257L17.6731 7.42378C17.822 7.96856 17.894 8.55556 17.8502 9.18217L18.536 9.2301L19.2218 9.27803C19.2773 8.48386 19.1854 7.7418 18.9994 7.06137L18.3363 7.24257ZM18.536 9.2301L17.8502 9.18214L17.3021 17.0204L17.9879 17.0684L18.6737 17.1163L19.2218 9.27805L18.536 9.2301ZM17.9879 17.0684L17.3021 17.0203C17.2769 17.3794 17.1247 17.716 16.8755 17.9775L17.3733 18.4517L17.8711 18.9259C18.3339 18.4401 18.6255 17.8047 18.6737 17.1164L17.9879 17.0684ZM17.3733 18.4517L17.0134 19.0374C17.3217 19.227 17.5537 19.5216 17.6563 19.8731L18.3162 19.6807L18.9762 19.4882C18.7743 18.7958 18.3203 18.2268 17.7332 17.866L17.3733 18.4517ZM18.3162 19.6807L17.6304 19.6327L17.6303 19.6346L18.3161 19.6826L19.0019 19.7306L19.002 19.7286L18.3162 19.6807ZM18.3161 19.6826L17.6561 19.8751L18.1591 21.5999L18.8191 21.4074L19.4791 21.215L18.9761 19.4901L18.3161 19.6826ZM18.8191 21.4074L18.1443 21.5388L18.168 21.6609L18.8428 21.5295L19.5177 21.3981L19.4939 21.276L18.8191 21.4074ZM18.8428 21.5295L18.1555 21.5433L18.1579 21.6629L18.8453 21.6491L19.5326 21.6353L19.5302 21.5157L18.8428 21.5295ZM18.8453 21.6491L18.1594 21.6012L18.0787 22.7565L18.7645 22.8045L19.4503 22.8524L19.5311 21.6971L18.8453 21.6491ZM18.7645 22.8045L18.0787 22.7563C18.0788 22.7549 18.0792 22.7539 18.0791 22.7541L18.6924 23.0647L19.3057 23.3754C19.3867 23.2156 19.4372 23.0384 19.4502 22.8526L18.7645 22.8045ZM18.6924 23.0647L18.0794 22.7536C18.0774 22.7576 18.0766 22.7581 18.0781 22.7562L18.6209 23.1782L19.1636 23.6002C19.22 23.5276 19.2669 23.4518 19.3055 23.3759L18.6924 23.0647ZM18.6209 23.1782L18.0779 22.7566C18.0764 22.7584 18.0744 22.7602 18.0723 22.7614C18.0705 22.7625 18.0684 22.7633 18.0651 22.7638L18.1558 23.4452L18.2465 24.1267C18.6226 24.0766 18.9471 23.8789 19.1639 23.5998L18.6209 23.1782ZM18.1558 23.4452L18.1353 22.7581L17.9881 22.7625L18.0086 23.4496L18.0292 24.1368L18.1763 24.1324L18.1558 23.4452ZM18.0086 23.4496L18.0566 22.7638L4.57096 21.8208L4.52301 22.5066L4.47505 23.1924L17.9607 24.1354L18.0086 23.4496ZM4.52301 22.5066L4.63897 21.829L4.49386 21.8042L4.3779 22.4818L4.26194 23.1594L4.40705 23.1843L4.52301 22.5066ZM4.3779 22.4818L4.56257 21.8196C4.56118 21.8192 4.55998 21.8187 4.55895 21.8182L4.24639 22.4305L3.93384 23.0428C4.01541 23.0845 4.1022 23.1186 4.19323 23.144L4.3779 22.4818ZM4.24639 22.4305L4.55905 21.8182C4.55553 21.8164 4.55252 21.8135 4.55083 21.8105L3.95452 22.1526L3.35821 22.4947C3.49036 22.7251 3.68875 22.9177 3.93374 23.0428L4.24639 22.4305ZM3.95452 22.1526L4.5507 21.8103L4.55018 21.8097L3.86432 21.7626L3.17846 21.7154C3.15939 21.9929 3.2254 22.2635 3.35834 22.495L3.95452 22.1526ZM3.86432 21.7626L4.55012 21.8105L4.63092 20.6551L3.94511 20.6072L3.25931 20.5592L3.17852 21.7146L3.86432 21.7626ZM3.94511 20.6072L4.62384 20.7165L4.64287 20.5984L3.96414 20.4891L3.28541 20.3797L3.26639 20.4978L3.94511 20.6072ZM3.96414 20.4891L4.6309 20.6566C4.63209 20.6518 4.63263 20.6513 4.63142 20.654L4.00467 20.3715L3.37791 20.089C3.3418 20.1691 3.31594 20.2477 3.29738 20.3216L3.96414 20.4891ZM4.00467 20.3715L3.31886 20.3236L3.3188 20.3245L4.0046 20.3725L4.6904 20.4204L4.69047 20.4195L4.00467 20.3715ZM4.0046 20.3725L4.63139 20.6549L5.37071 19.014L4.74391 18.7316L4.11711 18.4492L3.3778 20.0901L4.0046 20.3725ZM4.74391 18.7316L5.36107 19.0345L5.42842 18.8972L4.81126 18.5943L4.19411 18.2915L4.12675 18.4287L4.74391 18.7316ZM4.81126 18.5943L5.41616 18.921C5.66048 18.4687 6.1339 18.173 6.66109 18.1506L6.63187 17.4637L6.60266 16.7769C5.59994 16.8195 4.68477 17.3819 4.20637 18.2677L4.81126 18.5943ZM6.63187 17.4637L7.31768 17.5117L7.35133 17.0304L6.66553 16.9825L5.97972 16.9345L5.94607 17.4158L6.63187 17.4637ZM6.66553 16.9825L7.35289 16.9948C7.35427 16.9179 7.35955 16.8384 7.36819 16.7555L6.68442 16.6842L6.00065 16.6129C5.98862 16.7283 5.98035 16.8477 5.97816 16.9702L6.66553 16.9825ZM6.68442 16.6842L7.3682 16.7555C7.36985 16.7396 7.36988 16.7388 7.37054 16.7329L6.68737 16.656L6.0042 16.5792C6.00275 16.5921 6.00095 16.61 6.00065 16.613L6.68442 16.6842ZM6.68737 16.656L7.37054 16.7329C7.37145 16.7248 7.37214 16.7178 7.37262 16.7127C7.37306 16.7081 7.3735 16.7032 7.37365 16.7016C7.37387 16.6991 7.37389 16.6989 7.37384 16.6995C7.37377 16.7002 7.37351 16.7027 7.37306 16.7064L6.69066 16.623L6.00826 16.5396C6.00614 16.5569 6.00479 16.5721 6.00431 16.5774C6.00395 16.5813 6.0039 16.582 6.00382 16.5828C6.00378 16.5833 6.00392 16.5817 6.00421 16.5792L6.68737 16.656ZM6.69066 16.623L7.37647 16.6709L7.43212 15.875L6.74632 15.8271L6.06051 15.7791L6.00486 16.575L6.69066 16.623ZM6.74632 15.8271L7.43368 15.8395C7.4458 15.1668 7.70123 14.5017 8.19143 13.9783L7.68966 13.5083L7.18789 13.0384C6.45958 13.816 6.07706 14.8094 6.05895 15.8147L6.74632 15.8271ZM7.68966 13.5083L8.19156 13.9781L10.8534 11.1344L10.3515 10.6646L9.84964 10.1948L7.18776 13.0385L7.68966 13.5083ZM10.3515 10.6646L10.4989 11.3361L11.3042 11.1595L11.1568 10.4879L11.0095 9.81644L10.2042 9.99312L10.3515 10.6646ZM11.1568 10.4879L11.2048 9.80215L10.0407 9.72074L9.99269 10.4065L9.94474 11.0923L11.1089 11.1738L11.1568 10.4879ZM9.99269 10.4065L10.0407 9.72074C9.59454 9.68955 9.14917 9.72726 8.72074 9.82934L8.88008 10.4981L9.03942 11.1669C9.33336 11.0968 9.63896 11.071 9.94474 11.0923L9.99269 10.4065ZM8.88008 10.4981L8.72096 9.82929C8.29142 9.93149 7.87799 10.0988 7.49566 10.3273L7.84832 10.9174L8.20098 11.5075C8.46229 11.3514 8.74508 11.2369 9.0392 11.1669L8.88008 10.4981ZM7.84832 10.9174L7.52592 10.3102L7.3907 10.382L7.7131 10.9892L8.0355 11.5964L8.17072 11.5246L7.84832 10.9174ZM7.7131 10.9892L7.41701 10.3687C7.259 10.4441 7.08689 10.4724 6.919 10.4562L6.8528 11.1405L6.78659 11.8248C7.19662 11.8644 7.61991 11.7954 8.00919 11.6096L7.7131 10.9892ZM6.8528 11.1405L6.91905 10.4562C6.89553 10.4539 6.86819 10.45 6.83543 10.4439L6.70937 11.1197L6.5833 11.7955C6.64551 11.8071 6.71381 11.8177 6.78654 11.8248L6.8528 11.1405ZM6.70937 11.1197L6.8354 10.4439C6.78062 10.4336 6.72621 10.4184 6.67281 10.3982L6.42997 11.0414L6.18712 11.6846C6.31524 11.7329 6.44778 11.7702 6.58333 11.7955L6.70937 11.1197ZM6.42997 11.0414L6.67283 10.3983C6.59355 10.3683 6.51886 10.3281 6.45083 10.2784L6.0451 10.8334L5.63937 11.3884C5.80977 11.5129 5.99442 11.6118 6.1871 11.6846L6.42997 11.0414ZM6.0451 10.8334L6.45083 10.2784C6.38178 10.2279 6.3193 10.1679 6.26564 10.0987L5.72242 10.5201L5.1792 10.9414C5.31402 11.1152 5.46987 11.2645 5.63937 11.3884L6.0451 10.8334ZM5.72242 10.5201L6.26578 10.0989L5.41453 9.00071L4.87117 9.42189L4.32782 9.84306L5.17906 10.9413L5.72242 10.5201ZM4.87117 9.42189L5.41469 9.00092C5.36225 8.93321 5.34065 8.85435 5.34606 8.7762L4.66022 8.72872L3.97438 8.68124C3.94659 9.08268 4.06052 9.49796 4.32765 9.84285L4.87117 9.42189ZM4.66022 8.72872L5.34602 8.77668L5.42675 7.62227L4.74094 7.57432L4.05514 7.52636L3.97442 8.68077L4.66022 8.72872ZM4.74094 7.57432L5.42676 7.62214C5.43322 7.52952 5.47807 7.44004 5.56171 7.37762L5.15054 6.82665L4.73938 6.27568C4.32383 6.58579 4.08847 7.04841 4.05513 7.52649L4.74094 7.57432ZM5.15054 6.82665L5.83634 6.87461L5.83641 6.87364L5.15061 6.82568L4.46481 6.77772L4.46474 6.7787L5.15054 6.82665ZM5.15061 6.82568L5.56146 7.37689L9.23814 4.63645L8.82729 4.08524L8.41645 3.53403L4.73976 6.27447L5.15061 6.82568ZM8.82729 4.08524L9.4117 4.44731L10.1058 3.32698L9.52139 2.96491L8.93698 2.60285L8.24289 3.72317L8.82729 4.08524ZM9.52139 2.96491L10.1056 3.32736C10.1833 3.20207 10.3311 3.12336 10.4925 3.13461L10.5403 2.4488L10.5881 1.76298C9.9268 1.71689 9.28835 2.03653 8.93722 2.60247L9.52139 2.96491ZM10.5403 2.4488L10.4924 3.1346L11.9995 3.23999L12.0474 2.55418L12.0954 1.86838L10.5883 1.763L10.5403 2.4488ZM12.0474 2.55418L12.7332 2.60214L12.8034 1.59873L12.1176 1.55077L11.4318 1.50282L11.3616 2.50623L12.0474 2.55418ZM12.1176 1.55077L12.8034 1.59873C12.8009 1.63447 12.7829 1.66687 12.7588 1.68741L12.313 1.16405L11.8672 0.640688C11.621 0.850401 11.456 1.15591 11.4318 1.50282L12.1176 1.55077ZM12.313 1.16405L11.6272 1.11609L11.6271 1.11707L12.3129 1.16502L12.9987 1.21298L12.9988 1.21201L12.313 1.16405ZM12.3129 1.16502L12.7597 1.68752C12.7364 1.70744 12.7043 1.71743 12.6743 1.71305L12.7735 1.03276L12.8726 0.352475C12.4937 0.297243 12.1314 0.415732 11.8661 0.64253L12.3129 1.16502ZM12.7735 1.03276L13.4593 1.08072L13.4593 1.07975L12.7735 1.03179L12.0877 0.983834L12.0877 0.984809L12.7735 1.03276ZM6.80491 16.0671L6.1452 15.8737C6.08095 16.0929 6.03563 16.3159 6.00827 16.5395L6.69066 16.623L7.37305 16.7065C7.39158 16.5551 7.42209 16.4056 7.46463 16.2605L6.80491 16.0671ZM6.69066 16.623L6.00826 16.5396C6.00601 16.5581 6.00481 16.5735 6.00415 16.5837C6.00352 16.5933 6.00316 16.6016 6.0031 16.6029C6.00303 16.6043 6.00306 16.6038 6.00309 16.6031C6.00313 16.6022 6.00324 16.6001 6.00342 16.5971C6.00378 16.5914 6.00455 16.5804 6.00617 16.5664L6.6891 16.6454L7.37202 16.7244C7.37407 16.7067 7.37514 16.692 7.37573 16.6825C7.37603 16.6777 7.37624 16.6736 7.37637 16.6709C7.3765 16.6684 7.3766 16.666 7.37662 16.6655C7.37667 16.6645 7.37664 16.6653 7.37658 16.6664C7.37652 16.6676 7.37638 16.6702 7.37617 16.6735C7.37574 16.68 7.37487 16.6916 7.37306 16.7064L6.69066 16.623ZM6.6891 16.6454L7.37202 16.7244C7.39052 16.5644 7.42102 16.4093 7.46464 16.2605L6.80491 16.0671L6.14519 15.8737C6.07774 16.1039 6.03281 16.336 6.00617 16.5664L6.6891 16.6454ZM6.89843 15.7937L6.2571 15.5461C6.22657 15.6251 6.20098 15.7015 6.17914 15.7693L6.83352 15.98L7.4879 16.1908C7.50634 16.1335 7.52281 16.0852 7.53977 16.0413L6.89843 15.7937ZM6.83352 15.98L7.48791 16.1907C7.50631 16.1336 7.5228 16.0852 7.53979 16.0412L6.89843 15.7937L6.25708 15.5461C6.22658 15.6251 6.20099 15.7014 6.17913 15.7693L6.83352 15.98ZM7.02401 15.5097L6.40738 15.2058C6.37198 15.2776 6.34082 15.3475 6.31304 15.4126L6.94537 15.6824L7.5777 15.9522C7.59947 15.9012 7.61995 15.8557 7.64065 15.8137L7.02401 15.5097ZM6.94537 15.6824L7.57772 15.9522C7.59945 15.9012 7.61994 15.8557 7.64067 15.8137L7.02401 15.5097L6.40736 15.2058C6.372 15.2776 6.34084 15.3475 6.31302 15.4127L6.94537 15.6824ZM7.16536 15.2524L6.57658 14.8975C6.54099 14.9565 6.50357 15.0208 6.46713 15.0892L7.07389 15.4124L7.68065 15.7356C7.70185 15.6958 7.72605 15.6539 7.75414 15.6073L7.16536 15.2524ZM7.07389 15.4124L7.68067 15.7356C7.70184 15.6958 7.72602 15.6539 7.75416 15.6073L7.16536 15.2524L6.57656 14.8975C6.54102 14.9565 6.50358 15.0208 6.46712 15.0892L7.07389 15.4124ZM18.4109 9.15674L17.7301 9.25223C17.749 9.38683 17.7636 9.51826 17.7717 9.64858L18.4579 9.60544L19.144 9.56231C19.1331 9.38842 19.1141 9.22095 19.0917 9.06125L18.4109 9.15674ZM18.4579 9.60544L19.144 9.56222C19.133 9.38849 19.1142 9.22106 19.0917 9.06117L18.4109 9.15674L17.7301 9.25232C17.749 9.38671 17.7635 9.5182 17.7718 9.64867L18.4579 9.60544Z" fill="#98B9F3" mask="url(#path-40-outside-1_640_25034)"/>
<path d="M12.8227 0.691973C12.9952 0.717291 13.1487 0.792003 13.2726 0.894745L13.3862 1.00646L15.0351 2.90443C16.737 3.72634 18.0595 5.24358 18.5692 7.14565L18.5701 7.14572C18.7431 7.79171 18.8273 8.49456 18.7747 9.24616L18.3074 15.9291C18.249 16.7642 17.7912 17.5192 17.0798 17.9587C17.7745 18.2409 18.3201 18.8297 18.5339 19.5778L19.027 21.3039C19.2254 21.9979 18.6737 22.679 17.9535 22.6287L4.68994 21.7012C3.9699 21.6506 3.51916 20.8995 3.8122 20.24L3.81122 20.2399L4.54073 18.5993L4.61841 18.4402C4.98269 17.7558 5.64142 17.2875 6.39079 17.1594L6.48398 15.8267L6.49117 15.6539C6.54571 14.7927 6.88736 13.9497 7.50498 13.2794L10.1269 10.4339L10.1999 10.3548L10.3044 10.3308L11.3934 10.0868C11.8643 9.98111 12.2959 9.76587 12.6604 9.46765C12.2713 9.63951 11.8417 9.71975 11.4055 9.68925L10.0836 9.59681C9.74926 9.57343 9.41516 9.60211 9.09389 9.68032C8.7722 9.75851 8.46279 9.88645 8.17646 10.0606L8.17555 10.0596C7.38304 10.5415 6.37073 10.39 5.75285 9.7208L5.63443 9.58036L4.79877 8.48326C4.3398 7.88048 4.45712 7.01854 5.0605 6.56031L5.06147 6.56038L8.62807 3.85434L9.27911 2.78974L9.27918 2.78876C9.55737 2.33375 10.0666 2.07045 10.5994 2.10771L11.7383 2.18735L11.7844 1.52783C11.8018 1.27799 11.9188 1.05706 12.0952 0.904436C12.2859 0.739043 12.5473 0.651541 12.8227 0.691973Z" fill="url(#paint38_linear_640_25034)" stroke="#2A63C6" stroke-width="0.687478"/>
<path d="M12.8227 0.691973C12.9952 0.717291 13.1487 0.792003 13.2726 0.894745L13.3862 1.00646L15.0351 2.90443C16.737 3.72634 18.0595 5.24358 18.5692 7.14565L18.5701 7.14572C18.7431 7.79171 18.8273 8.49456 18.7747 9.24616L18.3074 15.9291C18.249 16.7642 17.7912 17.5192 17.0798 17.9587C17.7745 18.2409 18.3201 18.8297 18.5339 19.5778L19.027 21.3039C19.2254 21.9979 18.6737 22.679 17.9535 22.6287L4.68994 21.7012C3.9699 21.6506 3.51916 20.8995 3.8122 20.24L3.81122 20.2399L4.54073 18.5993L4.61841 18.4402C4.98269 17.7558 5.64142 17.2875 6.39079 17.1594L6.48398 15.8267L6.49117 15.6539C6.54571 14.7927 6.88736 13.9497 7.50498 13.2794L10.1269 10.4339L10.1999 10.3548L10.3044 10.3308L11.3934 10.0868C11.8643 9.98111 12.2959 9.76587 12.6604 9.46765C12.2713 9.63951 11.8417 9.71975 11.4055 9.68925L10.0836 9.59681C9.74926 9.57343 9.41516 9.60211 9.09389 9.68032C8.7722 9.75851 8.46279 9.88645 8.17646 10.0606L8.17555 10.0596C7.38304 10.5415 6.37073 10.39 5.75285 9.7208L5.63443 9.58036L4.79877 8.48326C4.3398 7.88048 4.45712 7.01854 5.0605 6.56031L5.06147 6.56038L8.62807 3.85434L9.27911 2.78974L9.27918 2.78876C9.55737 2.33375 10.0666 2.07045 10.5994 2.10771L11.7383 2.18735L11.7844 1.52783C11.8018 1.27799 11.9188 1.05706 12.0952 0.904436C12.2859 0.739043 12.5473 0.651541 12.8227 0.691973Z" stroke="#2A63C6" stroke-width="0.687478"/>
<defs>
<linearGradient id="paint0_linear_640_25034" x1="12.7276" y1="1.68987" x2="12.2785" y2="1.65848" gradientUnits="userSpaceOnUse">
<stop stop-color="#70A4FD"/>
<stop offset="0.5" stop-color="#A6C7FF"/>
<stop offset="1" stop-color="#D5E4FF"/>
</linearGradient>
<linearGradient id="paint1_linear_640_25034" x1="13.099" y1="1.72237" x2="12.7267" y2="1.69633" gradientUnits="userSpaceOnUse">
<stop stop-color="#1B6EFF"/>
<stop offset="0.5" stop-color="#4086FF"/>
<stop offset="1" stop-color="#70A4FD"/>
</linearGradient>
<linearGradient id="paint2_linear_640_25034" x1="12.2589" y1="1.94028" x2="12.0909" y2="1.92854" gradientUnits="userSpaceOnUse">
<stop stop-color="#D4E4FF"/>
<stop offset="1" stop-color="#7AAAFD"/>
</linearGradient>
<linearGradient id="paint3_linear_640_25034" x1="14.8816" y1="2.8506" x2="13.0297" y2="2.7211" gradientUnits="userSpaceOnUse">
<stop stop-color="#1A6EFF"/>
<stop offset="1" stop-color="#1A6EFF"/>
</linearGradient>
<linearGradient id="paint4_linear_640_25034" x1="12.0066" y1="3.13123" x2="10.5001" y2="3.02589" gradientUnits="userSpaceOnUse">
<stop stop-color="#7AAAFD"/>
<stop offset="1" stop-color="#7AAAFD"/>
</linearGradient>
<linearGradient id="paint5_linear_640_25034" x1="10.4799" y1="3.31831" x2="9.50191" y2="3.24992" gradientUnits="userSpaceOnUse">
<stop stop-color="#7AAAFD"/>
<stop offset="1" stop-color="#B2CEFF"/>
</linearGradient>
<linearGradient id="paint6_linear_640_25034" x1="9.44056" y1="4.12381" x2="8.8279" y2="4.08097" gradientUnits="userSpaceOnUse">
<stop stop-color="#B2CEFF"/>
<stop offset="1" stop-color="#B2CEFF"/>
</linearGradient>
<linearGradient id="paint7_linear_640_25034" x1="18.4286" y1="5.92173" x2="14.6851" y2="5.65995" gradientUnits="userSpaceOnUse">
<stop stop-color="#4F90FF"/>
<stop offset="0.5" stop-color="#1B6FFF"/>
<stop offset="1" stop-color="#4C8EFF"/>
</linearGradient>
<linearGradient id="paint8_linear_640_25034" x1="8.6833" y1="6.15387" x2="5.21493" y2="5.91134" gradientUnits="userSpaceOnUse">
<stop stop-color="#CDDFFF"/>
<stop offset="1" stop-color="#CDDFFF"/>
</linearGradient>
<linearGradient id="paint9_linear_640_25034" x1="5.08336" y1="7.79007" x2="4.72754" y2="7.76519" gradientUnits="userSpaceOnUse">
<stop stop-color="#CDDFFF"/>
<stop offset="0.5" stop-color="#A8C8FF"/>
<stop offset="1" stop-color="#7AAAFD"/>
</linearGradient>
<linearGradient id="paint10_linear_640_25034" x1="14.0967" y1="8.45333" x2="13.9085" y2="8.44017" gradientUnits="userSpaceOnUse">
<stop stop-color="#7AAAFD"/>
<stop offset="0.5" stop-color="#478BFF"/>
<stop offset="1" stop-color="#C4DAFF"/>
</linearGradient>
<linearGradient id="paint11_linear_640_25034" x1="18.5643" y1="8.82463" x2="18.2274" y2="8.80107" gradientUnits="userSpaceOnUse">
<stop stop-color="#7AAAFD"/>
<stop offset="1" stop-color="#4F90FF"/>
</linearGradient>
<linearGradient id="paint12_linear_640_25034" x1="14.0917" y1="8.52356" x2="14.0832" y2="8.52297" gradientUnits="userSpaceOnUse">
<stop stop-color="#7AAAFD"/>
<stop offset="0.5" stop-color="#8FB8FF"/>
<stop offset="1" stop-color="#A7C7FF"/>
</linearGradient>
<linearGradient id="paint13_linear_640_25034" x1="13.884" y1="8.78656" x2="13.3631" y2="8.75013" gradientUnits="userSpaceOnUse">
<stop stop-color="#C4D9FF"/>
<stop offset="1" stop-color="#C4D9FF"/>
</linearGradient>
<linearGradient id="paint14_linear_640_25034" x1="14.0589" y1="8.86778" x2="13.7917" y2="8.8491" gradientUnits="userSpaceOnUse">
<stop stop-color="#A6C7FF"/>
<stop offset="1" stop-color="#A6C7FF"/>
</linearGradient>
<linearGradient id="paint15_linear_640_25034" x1="4.93569" y1="8.50631" x2="4.67698" y2="8.48822" gradientUnits="userSpaceOnUse">
<stop stop-color="#2072FF"/>
<stop offset="0.5" stop-color="#4F8FFF"/>
<stop offset="1" stop-color="#7AAAFD"/>
</linearGradient>
<linearGradient id="paint16_linear_640_25034" x1="13.3053" y1="9.57958" x2="11.4105" y2="9.44708" gradientUnits="userSpaceOnUse">
<stop stop-color="#C4D9FF"/>
<stop offset="1" stop-color="#7AAAFD"/>
</linearGradient>
<linearGradient id="paint17_linear_640_25034" x1="5.79915" y1="9.42539" x2="4.87586" y2="9.36083" gradientUnits="userSpaceOnUse">
<stop stop-color="#2072FF"/>
<stop offset="1" stop-color="#2072FF"/>
</linearGradient>
<linearGradient id="paint18_linear_640_25034" x1="11.3773" y1="9.92224" x2="10.0329" y2="9.82823" gradientUnits="userSpaceOnUse">
<stop stop-color="#7AAAFD"/>
<stop offset="1" stop-color="#7AAAFD"/>
</linearGradient>
<linearGradient id="paint19_linear_640_25034" x1="13.7003" y1="10.1629" x2="11.4873" y2="10.0082" gradientUnits="userSpaceOnUse">
<stop stop-color="#A6C7FF"/>
<stop offset="0.5" stop-color="#CFE1FF"/>
<stop offset="1" stop-color="#9ABFFF"/>
</linearGradient>
<linearGradient id="paint20_linear_640_25034" x1="10.0268" y1="9.91331" x2="8.9259" y2="9.83633" gradientUnits="userSpaceOnUse">
<stop stop-color="#7AAAFD"/>
<stop offset="1" stop-color="#9CC0FF"/>
</linearGradient>
<linearGradient id="paint21_linear_640_25034" x1="8.90298" y1="10.1644" x2="7.90566" y2="10.0947" gradientUnits="userSpaceOnUse">
<stop stop-color="#9CC0FF"/>
<stop offset="0.5" stop-color="#AECCFF"/>
<stop offset="1" stop-color="#C0D7FF"/>
</linearGradient>
<linearGradient id="paint22_linear_640_25034" x1="7.8872" y1="10.3609" x2="5.74448" y2="10.211" gradientUnits="userSpaceOnUse">
<stop stop-color="#C0D7FF"/>
<stop offset="0.5" stop-color="#6BA1FE"/>
<stop offset="1" stop-color="#2072FF"/>
</linearGradient>
<linearGradient id="paint23_linear_640_25034" x1="11.4067" y1="11.1577" x2="10.3225" y2="11.0819" gradientUnits="userSpaceOnUse">
<stop stop-color="#9ABFFF"/>
<stop offset="1" stop-color="#9ABFFF"/>
</linearGradient>
<linearGradient id="paint24_linear_640_25034" x1="10.2058" y1="12.7494" x2="7.75461" y2="12.578" gradientUnits="userSpaceOnUse">
<stop stop-color="#C9DDFF"/>
<stop offset="1" stop-color="#C9DDFF"/>
</linearGradient>
<linearGradient id="paint25_linear_640_25034" x1="7.56638" y1="15.2723" x2="6.78434" y2="15.2176" gradientUnits="userSpaceOnUse">
<stop stop-color="#C9DDFF"/>
<stop offset="0.5" stop-color="#9BC0FF"/>
<stop offset="1" stop-color="#73A6FD"/>
</linearGradient>
<linearGradient id="paint26_linear_640_25034" x1="17.9639" y1="17.4088" x2="16.9972" y2="17.3412" gradientUnits="userSpaceOnUse">
<stop stop-color="#7AAAFD"/>
<stop offset="1" stop-color="#C0D7FF"/>
</linearGradient>
<linearGradient id="paint27_linear_640_25034" x1="16.9159" y1="18.5041" x2="16.2153" y2="18.4551" gradientUnits="userSpaceOnUse">
<stop stop-color="#C0D7FF"/>
<stop offset="1" stop-color="#C0D7FF"/>
</linearGradient>
<linearGradient id="paint28_linear_640_25034" x1="16.3333" y1="18.7083" x2="16.1981" y2="18.6988" gradientUnits="userSpaceOnUse">
<stop stop-color="#7AAAFD"/>
<stop offset="1" stop-color="#7AAAFD"/>
</linearGradient>
<linearGradient id="paint29_linear_640_25034" x1="18.3245" y1="19.5543" x2="16.2842" y2="19.4116" gradientUnits="userSpaceOnUse">
<stop stop-color="#4D8EFF"/>
<stop offset="1" stop-color="#7AAAFD"/>
</linearGradient>
<linearGradient id="paint30_linear_640_25034" x1="6.54278" y1="18.7376" x2="4.752" y2="18.6124" gradientUnits="userSpaceOnUse">
<stop stop-color="#86B2FE"/>
<stop offset="0.5" stop-color="#C6DBFF"/>
<stop offset="1" stop-color="#A2C4FF"/>
</linearGradient>
<linearGradient id="paint31_linear_640_25034" x1="4.64455" y1="20.1502" x2="4.0233" y2="20.1068" gradientUnits="userSpaceOnUse">
<stop stop-color="#A2C4FF"/>
<stop offset="1" stop-color="#A2C4FF"/>
</linearGradient>
<linearGradient id="paint32_linear_640_25034" x1="18.8374" y1="21.1427" x2="18.2162" y2="21.0993" gradientUnits="userSpaceOnUse">
<stop stop-color="#4D8EFF"/>
<stop offset="1" stop-color="#4D8EFF"/>
</linearGradient>
<linearGradient id="paint33_linear_640_25034" x1="18.8132" y1="22.1069" x2="18.7701" y2="22.1039" gradientUnits="userSpaceOnUse">
<stop stop-color="#7AAAFD"/>
<stop offset="0.5" stop-color="#649DFE"/>
<stop offset="1" stop-color="#4D8EFF"/>
</linearGradient>
<linearGradient id="paint34_linear_640_25034" x1="3.95599" y1="21.0682" x2="3.91296" y2="21.0651" gradientUnits="userSpaceOnUse">
<stop stop-color="#A2C4FF"/>
<stop offset="0.5" stop-color="#8CB6FE"/>
<stop offset="1" stop-color="#7AAAFD"/>
</linearGradient>
<linearGradient id="paint35_linear_640_25034" x1="18.781" y1="22.5731" x2="18.0732" y2="22.5236" gradientUnits="userSpaceOnUse">
<stop stop-color="#7AAAFD"/>
<stop offset="1" stop-color="#7AAAFD"/>
</linearGradient>
<linearGradient id="paint36_linear_640_25034" x1="4.58788" y1="21.5805" x2="3.88014" y2="21.5311" gradientUnits="userSpaceOnUse">
<stop stop-color="#7AAAFD"/>
<stop offset="1" stop-color="#7AAAFD"/>
</linearGradient>
<linearGradient id="paint37_linear_640_25034" x1="18.0487" y1="22.8716" x2="4.56362" y2="21.9287" gradientUnits="userSpaceOnUse">
<stop stop-color="#7AAAFD"/>
<stop offset="1" stop-color="#7AAAFD"/>
</linearGradient>
<linearGradient id="paint38_linear_640_25034" x1="12.7431" y1="1.02806" x2="11.2893" y2="21.8186" gradientUnits="userSpaceOnUse">
<stop stop-color="#C3D9FE"/>
<stop offset="1" stop-color="#7DA4E7"/>
</linearGradient>
</defs>
</svg>
